%TF.GenerationSoftware,KiCad,Pcbnew,7.0.6*%
%TF.CreationDate,2023-07-22T23:51:01+02:00*%
%TF.ProjectId,Ctrl-MC Dsiplay Module PCB ver1,4374726c-2d4d-4432-9044-7369706c6179,rev?*%
%TF.SameCoordinates,Original*%
%TF.FileFunction,Copper,L2,Bot*%
%TF.FilePolarity,Positive*%
%FSLAX46Y46*%
G04 Gerber Fmt 4.6, Leading zero omitted, Abs format (unit mm)*
G04 Created by KiCad (PCBNEW 7.0.6) date 2023-07-22 23:51:01*
%MOMM*%
%LPD*%
G01*
G04 APERTURE LIST*
G04 Aperture macros list*
%AMRoundRect*
0 Rectangle with rounded corners*
0 $1 Rounding radius*
0 $2 $3 $4 $5 $6 $7 $8 $9 X,Y pos of 4 corners*
0 Add a 4 corners polygon primitive as box body*
4,1,4,$2,$3,$4,$5,$6,$7,$8,$9,$2,$3,0*
0 Add four circle primitives for the rounded corners*
1,1,$1+$1,$2,$3*
1,1,$1+$1,$4,$5*
1,1,$1+$1,$6,$7*
1,1,$1+$1,$8,$9*
0 Add four rect primitives between the rounded corners*
20,1,$1+$1,$2,$3,$4,$5,0*
20,1,$1+$1,$4,$5,$6,$7,0*
20,1,$1+$1,$6,$7,$8,$9,0*
20,1,$1+$1,$8,$9,$2,$3,0*%
G04 Aperture macros list end*
%TA.AperFunction,ComponentPad*%
%ADD10C,2.000000*%
%TD*%
%TA.AperFunction,WasherPad*%
%ADD11C,3.600000*%
%TD*%
%TA.AperFunction,WasherPad*%
%ADD12C,3.800000*%
%TD*%
%TA.AperFunction,ComponentPad*%
%ADD13R,2.000000X2.000000*%
%TD*%
%TA.AperFunction,ComponentPad*%
%ADD14RoundRect,0.250000X0.600000X0.750000X-0.600000X0.750000X-0.600000X-0.750000X0.600000X-0.750000X0*%
%TD*%
%TA.AperFunction,ComponentPad*%
%ADD15O,1.700000X2.000000*%
%TD*%
%TA.AperFunction,ComponentPad*%
%ADD16R,1.508000X1.508000*%
%TD*%
%TA.AperFunction,ComponentPad*%
%ADD17C,1.508000*%
%TD*%
%TA.AperFunction,ViaPad*%
%ADD18C,0.800000*%
%TD*%
%TA.AperFunction,Conductor*%
%ADD19C,2.000000*%
%TD*%
%TA.AperFunction,Conductor*%
%ADD20C,0.300000*%
%TD*%
G04 APERTURE END LIST*
D10*
%TO.P,J1,1,1*%
%TO.N,+12V*%
X186362443Y-104896278D03*
%TO.P,J1,2,2*%
%TO.N,GND*%
X182862440Y-110096278D03*
%TD*%
%TO.P,OLED-DISP-MODULE1,7,GND*%
%TO.N,GND*%
X186055000Y-83810000D03*
%TO.P,OLED-DISP-MODULE1,6,VCC*%
%TO.N,+3V3*%
X186055000Y-86350000D03*
%TO.P,OLED-DISP-MODULE1,5,SCL*%
%TO.N,OLED CLK*%
X186055000Y-88890000D03*
%TO.P,OLED-DISP-MODULE1,4,SDA*%
%TO.N,OLED MOSI*%
X186055000Y-91430000D03*
%TO.P,OLED-DISP-MODULE1,3,RES*%
%TO.N,OLED RES*%
X186055000Y-93970000D03*
%TO.P,OLED-DISP-MODULE1,2,DC*%
%TO.N,OLED DC*%
X186055000Y-96510000D03*
%TO.P,OLED-DISP-MODULE1,1,CS*%
%TO.N,OLED CS*%
X186055000Y-99050000D03*
D11*
%TO.P,OLED-DISP-MODULE1,*%
%TO.N,*%
X118405000Y-72000000D03*
X118405000Y-111000000D03*
D12*
X186405000Y-72000000D03*
%TD*%
D10*
%TO.P,PWR-MODULE1,8,OUT2-*%
%TO.N,GND*%
X181610000Y-73025000D03*
%TO.P,PWR-MODULE1,7,OUT1-*%
X179070000Y-73025000D03*
D13*
%TO.P,PWR-MODULE1,6,OUT2+*%
%TO.N,+5V*%
X171450000Y-73025000D03*
%TO.P,PWR-MODULE1,5,OUT1+*%
X168910000Y-73025000D03*
D10*
%TO.P,PWR-MODULE1,4,IN2-*%
%TO.N,GND*%
X181610000Y-91225000D03*
%TO.P,PWR-MODULE1,3,IN1-*%
X179070000Y-91225000D03*
D13*
%TO.P,PWR-MODULE1,2,IN2+*%
%TO.N,+12V*%
X171450000Y-91225000D03*
%TO.P,PWR-MODULE1,1,IN1+*%
X168910000Y-91225000D03*
%TD*%
%TO.P,EPS32-DEV-BOARD1,1,3V3*%
%TO.N,unconnected-(EPS32-DEV-BOARD1-3V3-Pad1)*%
X123600000Y-71755000D03*
D10*
%TO.P,EPS32-DEV-BOARD1,2,GND*%
%TO.N,GND*%
X126140000Y-71755000D03*
%TO.P,EPS32-DEV-BOARD1,3,D15*%
%TO.N,unconnected-(EPS32-DEV-BOARD1-D15-Pad3)*%
X128680000Y-71755000D03*
%TO.P,EPS32-DEV-BOARD1,4,D2*%
%TO.N,unconnected-(EPS32-DEV-BOARD1-D2-Pad4)*%
X131220000Y-71755000D03*
%TO.P,EPS32-DEV-BOARD1,5,D4*%
%TO.N,INP4*%
X133760000Y-71755000D03*
%TO.P,EPS32-DEV-BOARD1,6,RX2*%
%TO.N,UART RX*%
X136300000Y-71755000D03*
%TO.P,EPS32-DEV-BOARD1,7,TX2*%
%TO.N,UART TX*%
X138840000Y-71755000D03*
%TO.P,EPS32-DEV-BOARD1,8,D5*%
%TO.N,OLED CS*%
X141380000Y-71755000D03*
%TO.P,EPS32-DEV-BOARD1,9,D18*%
%TO.N,OLED CLK*%
X143920000Y-71755000D03*
%TO.P,EPS32-DEV-BOARD1,10,D19*%
%TO.N,INP19*%
X146460000Y-71755000D03*
%TO.P,EPS32-DEV-BOARD1,11,D21*%
%TO.N,INP21*%
X149000000Y-71755000D03*
%TO.P,EPS32-DEV-BOARD1,12,RX0*%
%TO.N,OLED DC*%
X151540000Y-71755000D03*
%TO.P,EPS32-DEV-BOARD1,13,TX0*%
%TO.N,OLED RES*%
X154080000Y-71755000D03*
%TO.P,EPS32-DEV-BOARD1,14,D22*%
%TO.N,INP22*%
X156620000Y-71755000D03*
%TO.P,EPS32-DEV-BOARD1,15,D23*%
%TO.N,OLED MOSI*%
X159160000Y-71755000D03*
%TO.P,EPS32-DEV-BOARD1,16,EN*%
%TO.N,unconnected-(EPS32-DEV-BOARD1-EN-Pad16)*%
X159160000Y-97155000D03*
%TO.P,EPS32-DEV-BOARD1,17,VP*%
%TO.N,unconnected-(EPS32-DEV-BOARD1-VP-Pad17)*%
X156620000Y-97155000D03*
%TO.P,EPS32-DEV-BOARD1,18,VN*%
%TO.N,unconnected-(EPS32-DEV-BOARD1-VN-Pad18)*%
X154080000Y-97155000D03*
%TO.P,EPS32-DEV-BOARD1,19,D34*%
%TO.N,unconnected-(EPS32-DEV-BOARD1-D34-Pad19)*%
X151540000Y-97155000D03*
%TO.P,EPS32-DEV-BOARD1,20,D35*%
%TO.N,unconnected-(EPS32-DEV-BOARD1-D35-Pad20)*%
X149000000Y-97155000D03*
%TO.P,EPS32-DEV-BOARD1,21,D32*%
%TO.N,INP32*%
X146460000Y-97155000D03*
%TO.P,EPS32-DEV-BOARD1,22,D33*%
%TO.N,INP33*%
X143920000Y-97155000D03*
%TO.P,EPS32-DEV-BOARD1,23,D25*%
%TO.N,INP25*%
X141380000Y-97155000D03*
%TO.P,EPS32-DEV-BOARD1,24,D26*%
%TO.N,INP26*%
X138840000Y-97155000D03*
%TO.P,EPS32-DEV-BOARD1,25,D27*%
%TO.N,INP27*%
X136300000Y-97155000D03*
%TO.P,EPS32-DEV-BOARD1,26,D14*%
%TO.N,INP14*%
X133760000Y-97155000D03*
%TO.P,EPS32-DEV-BOARD1,27,D12*%
%TO.N,INP12*%
X131220000Y-97155000D03*
%TO.P,EPS32-DEV-BOARD1,28,D13*%
%TO.N,INP13*%
X128680000Y-97155000D03*
%TO.P,EPS32-DEV-BOARD1,29,GND*%
%TO.N,GND*%
X126140000Y-97155000D03*
%TO.P,EPS32-DEV-BOARD1,30,VIN*%
%TO.N,+5V*%
X123600000Y-97155000D03*
%TD*%
D14*
%TO.P,J3,1,Pin_1*%
%TO.N,GND*%
X119298303Y-104936813D03*
D15*
%TO.P,J3,2,Pin_2*%
X116798303Y-104936813D03*
%TD*%
D16*
%TO.P,J2,1_A,1*%
%TO.N,INP22*%
X178435000Y-104775000D03*
%TO.P,J2,1_B,1*%
X178435000Y-109855000D03*
D17*
%TO.P,J2,2_A,2*%
%TO.N,+3V3*%
X175895000Y-104775000D03*
%TO.P,J2,2_B,2*%
X175895000Y-109855000D03*
%TO.P,J2,3_A,3*%
%TO.N,GND*%
X173355000Y-104775000D03*
%TO.P,J2,3_B,3*%
X173355000Y-109855000D03*
%TO.P,J2,4_A,4*%
%TO.N,INP21*%
X170815000Y-104775000D03*
%TO.P,J2,4_B,4*%
X170815000Y-109855000D03*
%TO.P,J2,5_A,5*%
%TO.N,+3V3*%
X168275000Y-104775000D03*
%TO.P,J2,5_B,5*%
X168275000Y-109855000D03*
%TO.P,J2,6_A,6*%
%TO.N,GND*%
X165735000Y-104775000D03*
%TO.P,J2,6_B,6*%
X165735000Y-109855000D03*
%TO.P,J2,7_A,7*%
%TO.N,INP19*%
X163195000Y-104775000D03*
%TO.P,J2,7_B,7*%
X163195000Y-109855000D03*
%TO.P,J2,8_A,8*%
%TO.N,INP4*%
X160655000Y-104775000D03*
%TO.P,J2,8_B,8*%
X160655000Y-109855000D03*
%TO.P,J2,9_A,9*%
%TO.N,INP32*%
X158115000Y-104775000D03*
%TO.P,J2,9_B,9*%
X158115000Y-109855000D03*
%TO.P,J2,10_A,10*%
%TO.N,INP33*%
X155575000Y-104775000D03*
%TO.P,J2,10_B,10*%
X155575000Y-109855000D03*
%TO.P,J2,11_A,11*%
%TO.N,GND*%
X153035000Y-104775000D03*
%TO.P,J2,11_B,11*%
X153035000Y-109855000D03*
%TO.P,J2,12_A,12*%
%TO.N,INP25*%
X150495000Y-104775000D03*
%TO.P,J2,12_B,12*%
X150495000Y-109855000D03*
%TO.P,J2,13_A,13*%
%TO.N,INP26*%
X147955000Y-104775000D03*
%TO.P,J2,13_B,13*%
X147955000Y-109855000D03*
%TO.P,J2,14_A,14*%
%TO.N,INP27*%
X145415000Y-104775000D03*
%TO.P,J2,14_B,14*%
X145415000Y-109855000D03*
%TO.P,J2,15_A,15*%
%TO.N,INP14*%
X142875000Y-104775000D03*
%TO.P,J2,15_B,15*%
X142875000Y-109855000D03*
%TO.P,J2,16_A,16*%
%TO.N,GND*%
X140335000Y-104775000D03*
%TO.P,J2,16_B,16*%
X140335000Y-109855000D03*
%TO.P,J2,17_A,17*%
%TO.N,INP12*%
X137795000Y-104775000D03*
%TO.P,J2,17_B,17*%
X137795000Y-109855000D03*
%TO.P,J2,18_A,18*%
%TO.N,INP13*%
X135255000Y-104775000D03*
%TO.P,J2,18_B,18*%
X135255000Y-109855000D03*
%TO.P,J2,19_A,19*%
%TO.N,GND*%
X132715000Y-104775000D03*
%TO.P,J2,19_B,19*%
X132715000Y-109855000D03*
%TO.P,J2,20_A,20*%
%TO.N,UART RX*%
X130175000Y-104775000D03*
%TO.P,J2,20_B,20*%
X130175000Y-109855000D03*
%TO.P,J2,21_A,21*%
%TO.N,GND*%
X127635000Y-104775000D03*
%TO.P,J2,21_B,21*%
X127635000Y-109855000D03*
%TO.P,J2,22_A,22*%
%TO.N,UART TX*%
X125095000Y-104775000D03*
%TO.P,J2,22_B,22*%
X125095000Y-109855000D03*
%TD*%
D18*
%TO.N,GND*%
X140970000Y-91440000D03*
X138430000Y-91440000D03*
X135890000Y-91440000D03*
X133350000Y-91440000D03*
X118110000Y-83820000D03*
X118110000Y-81280000D03*
X118110000Y-78740000D03*
X118110000Y-76200000D03*
%TO.N,INP19*%
X146558000Y-76200000D03*
%TO.N,INP21*%
X149098000Y-76200000D03*
%TO.N,INP19*%
X146558000Y-82550000D03*
%TO.N,INP21*%
X149098000Y-82550000D03*
%TO.N,INP22*%
X151765000Y-76200000D03*
X151765000Y-82550000D03*
%TD*%
D19*
%TO.N,+5V*%
X137795000Y-79375000D02*
X123600000Y-93570000D01*
X123600000Y-93570000D02*
X123600000Y-97155000D01*
X153797000Y-79375000D02*
X137795000Y-79375000D01*
X163830000Y-75438000D02*
X157734000Y-75438000D01*
X166243000Y-73025000D02*
X163830000Y-75438000D01*
X157734000Y-75438000D02*
X153797000Y-79375000D01*
X171450000Y-73025000D02*
X166243000Y-73025000D01*
D20*
%TO.N,INP19*%
X154940000Y-94615000D02*
X159639000Y-94615000D01*
X146558000Y-86233000D02*
X154940000Y-94615000D01*
X159639000Y-94615000D02*
X163195000Y-98171000D01*
X146558000Y-82550000D02*
X146558000Y-86233000D01*
X163195000Y-98171000D02*
X163195000Y-104775000D01*
%TO.N,INP21*%
X160401000Y-93472000D02*
X170815000Y-103886000D01*
X155702000Y-93472000D02*
X160401000Y-93472000D01*
X149098000Y-86868000D02*
X155702000Y-93472000D01*
X170815000Y-103886000D02*
X170815000Y-104775000D01*
X149098000Y-82550000D02*
X149098000Y-86868000D01*
%TO.N,INP22*%
X178435000Y-103187500D02*
X178435000Y-104775000D01*
X156776717Y-92456000D02*
X161544000Y-92456000D01*
X161544000Y-92456000D02*
X167513000Y-98425000D01*
X151765000Y-87444283D02*
X156776717Y-92456000D01*
X167513000Y-98425000D02*
X173672500Y-98425000D01*
X151765000Y-82550000D02*
X151765000Y-87444283D01*
X173672500Y-98425000D02*
X178435000Y-103187500D01*
D19*
%TO.N,+12V*%
X186362443Y-104896278D02*
X172691165Y-91225000D01*
X172691165Y-91225000D02*
X168910000Y-91225000D01*
D20*
%TO.N,UART RX*%
X130175000Y-111760000D02*
X130175000Y-109855000D01*
X128935000Y-113000000D02*
X130175000Y-111760000D01*
X122500000Y-111070000D02*
X124430000Y-113000000D01*
X118500000Y-99500000D02*
X122500000Y-103500000D01*
X124430000Y-113000000D02*
X128935000Y-113000000D01*
X136300000Y-73250000D02*
X118500000Y-91050000D01*
X118500000Y-91050000D02*
X118500000Y-99500000D01*
X136300000Y-71755000D02*
X136300000Y-73250000D01*
X122500000Y-103500000D02*
X122500000Y-111070000D01*
%TO.N,INP12*%
X136376417Y-102235000D02*
X137795000Y-103653583D01*
X134981421Y-102235000D02*
X136376417Y-102235000D01*
X131220000Y-98473579D02*
X134981421Y-102235000D01*
X131220000Y-97155000D02*
X131220000Y-98473579D01*
X137795000Y-103653583D02*
X137795000Y-104775000D01*
%TO.N,INP27*%
X143915328Y-102235000D02*
X145415000Y-103734672D01*
X136300000Y-98448490D02*
X140086510Y-102235000D01*
X136300000Y-97155000D02*
X136300000Y-98448490D01*
X140086510Y-102235000D02*
X143915328Y-102235000D01*
X145415000Y-103734672D02*
X145415000Y-104775000D01*
%TO.N,INP25*%
X147631695Y-100965000D02*
X150495000Y-103828305D01*
X143891920Y-100965000D02*
X147631695Y-100965000D01*
X141380000Y-98453080D02*
X143891920Y-100965000D01*
X141380000Y-97155000D02*
X141380000Y-98453080D01*
X150495000Y-103828305D02*
X150495000Y-104775000D01*
%TO.N,INP32*%
X153989650Y-99695000D02*
X158115000Y-103820350D01*
X147667649Y-99695000D02*
X153989650Y-99695000D01*
X146460000Y-98487351D02*
X147667649Y-99695000D01*
X146460000Y-97155000D02*
X146460000Y-98487351D01*
X158115000Y-103820350D02*
X158115000Y-104775000D01*
%TO.N,UART TX*%
X125095000Y-103595000D02*
X125095000Y-104775000D01*
X120142000Y-91948000D02*
X120142000Y-98642000D01*
X138840000Y-73250000D02*
X120142000Y-91948000D01*
X120142000Y-98642000D02*
X125095000Y-103595000D01*
X138840000Y-71755000D02*
X138840000Y-73250000D01*
%TO.N,INP22*%
X156620000Y-72361000D02*
X156620000Y-71755000D01*
X152781000Y-76200000D02*
X156620000Y-72361000D01*
X151765000Y-76200000D02*
X152781000Y-76200000D01*
%TO.N,UART RX*%
X130175000Y-104775000D02*
X130175000Y-109855000D01*
%TO.N,UART TX*%
X125095000Y-104775000D02*
X125095000Y-109855000D01*
%TO.N,INP21*%
X170815000Y-104775000D02*
X170815000Y-109855000D01*
%TO.N,INP22*%
X178435000Y-104775000D02*
X178435000Y-109855000D01*
%TO.N,INP19*%
X163195000Y-104775000D02*
X163195000Y-109855000D01*
%TO.N,INP32*%
X158115000Y-104775000D02*
X158115000Y-109855000D01*
%TO.N,INP25*%
X150495000Y-104775000D02*
X150495000Y-109855000D01*
%TO.N,INP27*%
X145415000Y-104775000D02*
X145415000Y-109855000D01*
%TO.N,INP12*%
X137795000Y-104775000D02*
X137795000Y-109855000D01*
%TD*%
%TA.AperFunction,Conductor*%
%TO.N,GND*%
G36*
X137608495Y-72656099D02*
G01*
X137661228Y-72689988D01*
X137820256Y-72862738D01*
X137983334Y-72989667D01*
X138024146Y-73046376D01*
X138027821Y-73116149D01*
X137994852Y-73175200D01*
X119742483Y-91427569D01*
X119729910Y-91437643D01*
X119730065Y-91437830D01*
X119724059Y-91442798D01*
X119699434Y-91469020D01*
X119674809Y-91495244D01*
X119663949Y-91506104D01*
X119653088Y-91516965D01*
X119653078Y-91516977D01*
X119648587Y-91522765D01*
X119644801Y-91527197D01*
X119611552Y-91562606D01*
X119601322Y-91581213D01*
X119590646Y-91597464D01*
X119577640Y-91614232D01*
X119577636Y-91614238D01*
X119558348Y-91658811D01*
X119555777Y-91664058D01*
X119532372Y-91706630D01*
X119532372Y-91706631D01*
X119527091Y-91727199D01*
X119520791Y-91745601D01*
X119512364Y-91765073D01*
X119504766Y-91813047D01*
X119503581Y-91818770D01*
X119491500Y-91865818D01*
X119491500Y-91887044D01*
X119489973Y-91906444D01*
X119486652Y-91927403D01*
X119491224Y-91975766D01*
X119491499Y-91981603D01*
X119491499Y-98556494D01*
X119489733Y-98572505D01*
X119489974Y-98572528D01*
X119489240Y-98580294D01*
X119489240Y-98580296D01*
X119490367Y-98616144D01*
X119491500Y-98652203D01*
X119491500Y-98682920D01*
X119491501Y-98682940D01*
X119492418Y-98690206D01*
X119492876Y-98696024D01*
X119494402Y-98744567D01*
X119494403Y-98744570D01*
X119500323Y-98764948D01*
X119504268Y-98783996D01*
X119506928Y-98805054D01*
X119506931Y-98805064D01*
X119524813Y-98850230D01*
X119526705Y-98855758D01*
X119540254Y-98902395D01*
X119540255Y-98902397D01*
X119551060Y-98920666D01*
X119559617Y-98938134D01*
X119565226Y-98952300D01*
X119567432Y-98957872D01*
X119595983Y-98997170D01*
X119599188Y-99002049D01*
X119610503Y-99021181D01*
X119618455Y-99034627D01*
X119623919Y-99043865D01*
X119623923Y-99043869D01*
X119638925Y-99058871D01*
X119651563Y-99073669D01*
X119664033Y-99090833D01*
X119664036Y-99090836D01*
X119664037Y-99090837D01*
X119701476Y-99121809D01*
X119705776Y-99125722D01*
X122001491Y-101421437D01*
X124250280Y-103670226D01*
X124283765Y-103731549D01*
X124278781Y-103801241D01*
X124250281Y-103845588D01*
X124130322Y-103965547D01*
X124004423Y-104145349D01*
X124004419Y-104145357D01*
X123911655Y-104344291D01*
X123911653Y-104344295D01*
X123911653Y-104344297D01*
X123894745Y-104407397D01*
X123854839Y-104556324D01*
X123854838Y-104556331D01*
X123835708Y-104774997D01*
X123835708Y-104775002D01*
X123851761Y-104958499D01*
X123854839Y-104993674D01*
X123911653Y-105205703D01*
X123911654Y-105205706D01*
X123911655Y-105205708D01*
X124004419Y-105404642D01*
X124004423Y-105404650D01*
X124130322Y-105584452D01*
X124130326Y-105584457D01*
X124212862Y-105666993D01*
X124285544Y-105739675D01*
X124290213Y-105742944D01*
X124391623Y-105813951D01*
X124435248Y-105868527D01*
X124444500Y-105915526D01*
X124444500Y-108714472D01*
X124424815Y-108781511D01*
X124391624Y-108816047D01*
X124285543Y-108890326D01*
X124285541Y-108890327D01*
X124130327Y-109045541D01*
X124130322Y-109045547D01*
X124004423Y-109225349D01*
X124004419Y-109225357D01*
X123911655Y-109424291D01*
X123911653Y-109424295D01*
X123911653Y-109424297D01*
X123890981Y-109501446D01*
X123854839Y-109636324D01*
X123854838Y-109636331D01*
X123835708Y-109854997D01*
X123835708Y-109855002D01*
X123854838Y-110073668D01*
X123854839Y-110073675D01*
X123860896Y-110096278D01*
X123911653Y-110285703D01*
X123911654Y-110285706D01*
X123911655Y-110285708D01*
X124004419Y-110484642D01*
X124004423Y-110484650D01*
X124130322Y-110664452D01*
X124130326Y-110664457D01*
X124285543Y-110819674D01*
X124285545Y-110819675D01*
X124285547Y-110819677D01*
X124465349Y-110945576D01*
X124465351Y-110945577D01*
X124465354Y-110945579D01*
X124664297Y-111038347D01*
X124876326Y-111095161D01*
X125032521Y-111108825D01*
X125094998Y-111114292D01*
X125095000Y-111114292D01*
X125095002Y-111114292D01*
X125149797Y-111109498D01*
X125313674Y-111095161D01*
X125525703Y-111038347D01*
X125724646Y-110945579D01*
X125904457Y-110819674D01*
X126059674Y-110664457D01*
X126185579Y-110484646D01*
X126252893Y-110340288D01*
X126299065Y-110287849D01*
X126366258Y-110268697D01*
X126433139Y-110288912D01*
X126477657Y-110340288D01*
X126544855Y-110484393D01*
X126544856Y-110484395D01*
X126589002Y-110547442D01*
X126589003Y-110547443D01*
X127151922Y-109984523D01*
X127175507Y-110064844D01*
X127253239Y-110185798D01*
X127361900Y-110279952D01*
X127492685Y-110339680D01*
X127502466Y-110341086D01*
X126942555Y-110900996D01*
X127005604Y-110945143D01*
X127005606Y-110945144D01*
X127204466Y-111037875D01*
X127204475Y-111037878D01*
X127416407Y-111094664D01*
X127416417Y-111094666D01*
X127634999Y-111113790D01*
X127635001Y-111113790D01*
X127853582Y-111094666D01*
X127853592Y-111094664D01*
X128065524Y-111037878D01*
X128065533Y-111037874D01*
X128264392Y-110945145D01*
X128327443Y-110900996D01*
X127767534Y-110341086D01*
X127777315Y-110339680D01*
X127908100Y-110279952D01*
X128016761Y-110185798D01*
X128094493Y-110064844D01*
X128118076Y-109984523D01*
X128680996Y-110547443D01*
X128725146Y-110484390D01*
X128792342Y-110340289D01*
X128838514Y-110287849D01*
X128905707Y-110268697D01*
X128972589Y-110288913D01*
X129017106Y-110340288D01*
X129084421Y-110484646D01*
X129084423Y-110484650D01*
X129210322Y-110664452D01*
X129210326Y-110664457D01*
X129365543Y-110819674D01*
X129471623Y-110893951D01*
X129515248Y-110948527D01*
X129524500Y-110995526D01*
X129524500Y-111439191D01*
X129504815Y-111506230D01*
X129488181Y-111526872D01*
X128701873Y-112313181D01*
X128640550Y-112346666D01*
X128614192Y-112349500D01*
X124750808Y-112349500D01*
X124683769Y-112329815D01*
X124663127Y-112313181D01*
X123186818Y-110836872D01*
X123153333Y-110775549D01*
X123150500Y-110749200D01*
X123150500Y-103585500D01*
X123152268Y-103569488D01*
X123152026Y-103569466D01*
X123152758Y-103561710D01*
X123152760Y-103561703D01*
X123150500Y-103489795D01*
X123150500Y-103459075D01*
X123149579Y-103451788D01*
X123149122Y-103445979D01*
X123148258Y-103418481D01*
X123147597Y-103397430D01*
X123141676Y-103377052D01*
X123137731Y-103358003D01*
X123135071Y-103336942D01*
X123117186Y-103291772D01*
X123115297Y-103286252D01*
X123111144Y-103271958D01*
X123101744Y-103239601D01*
X123100035Y-103236712D01*
X123090941Y-103221335D01*
X123082379Y-103203858D01*
X123081351Y-103201262D01*
X123074568Y-103184129D01*
X123046014Y-103144828D01*
X123042810Y-103139950D01*
X123042433Y-103139313D01*
X123018081Y-103098135D01*
X123003074Y-103083128D01*
X122990435Y-103068330D01*
X122987692Y-103064555D01*
X122977963Y-103051163D01*
X122977961Y-103051160D01*
X122940528Y-103020194D01*
X122936206Y-103016260D01*
X119186819Y-99266872D01*
X119153334Y-99205549D01*
X119150500Y-99179191D01*
X119150500Y-91370807D01*
X119170185Y-91303768D01*
X119186814Y-91283131D01*
X136699513Y-73770431D01*
X136712079Y-73760365D01*
X136711925Y-73760178D01*
X136717937Y-73755204D01*
X136717937Y-73755203D01*
X136717940Y-73755202D01*
X136767190Y-73702755D01*
X136788911Y-73681035D01*
X136793401Y-73675245D01*
X136797183Y-73670815D01*
X136830448Y-73635393D01*
X136840674Y-73616790D01*
X136851353Y-73600533D01*
X136864362Y-73583764D01*
X136883656Y-73539175D01*
X136886212Y-73533956D01*
X136909627Y-73491368D01*
X136914905Y-73470806D01*
X136921207Y-73452399D01*
X136929635Y-73432927D01*
X136937233Y-73384953D01*
X136938414Y-73379247D01*
X136950500Y-73332177D01*
X136950500Y-73310949D01*
X136952027Y-73291549D01*
X136954608Y-73275252D01*
X136955346Y-73270595D01*
X136950775Y-73222238D01*
X136950500Y-73216400D01*
X136950500Y-73182989D01*
X136970185Y-73115950D01*
X137015483Y-73073934D01*
X137066407Y-73046376D01*
X137123509Y-73015474D01*
X137319744Y-72862738D01*
X137478771Y-72689988D01*
X137538657Y-72653999D01*
X137608495Y-72656099D01*
G37*
%TD.AperFunction*%
%TA.AperFunction,Conductor*%
G36*
X128680996Y-105467443D02*
G01*
X128725146Y-105404390D01*
X128792342Y-105260289D01*
X128838514Y-105207849D01*
X128905707Y-105188697D01*
X128972589Y-105208913D01*
X129017106Y-105260288D01*
X129084421Y-105404646D01*
X129084423Y-105404650D01*
X129210322Y-105584452D01*
X129210326Y-105584457D01*
X129292862Y-105666993D01*
X129365544Y-105739675D01*
X129370213Y-105742944D01*
X129471623Y-105813951D01*
X129515248Y-105868527D01*
X129524500Y-105915526D01*
X129524500Y-108714472D01*
X129504815Y-108781511D01*
X129471624Y-108816047D01*
X129365543Y-108890326D01*
X129365541Y-108890327D01*
X129210327Y-109045541D01*
X129210322Y-109045547D01*
X129084423Y-109225349D01*
X129084421Y-109225353D01*
X129017106Y-109369711D01*
X128970933Y-109422150D01*
X128903740Y-109441302D01*
X128836859Y-109421086D01*
X128792342Y-109369711D01*
X128725144Y-109225606D01*
X128725143Y-109225604D01*
X128680996Y-109162556D01*
X128680996Y-109162555D01*
X128118076Y-109725475D01*
X128094493Y-109645156D01*
X128016761Y-109524202D01*
X127908100Y-109430048D01*
X127777315Y-109370320D01*
X127767531Y-109368913D01*
X128327443Y-108809002D01*
X128264395Y-108764856D01*
X128264393Y-108764855D01*
X128065533Y-108672124D01*
X128065524Y-108672121D01*
X127853592Y-108615335D01*
X127853582Y-108615333D01*
X127635001Y-108596210D01*
X127634999Y-108596210D01*
X127416417Y-108615333D01*
X127416407Y-108615335D01*
X127204475Y-108672121D01*
X127204466Y-108672124D01*
X127005602Y-108764857D01*
X126942555Y-108809001D01*
X126942555Y-108809002D01*
X127502465Y-109368913D01*
X127492685Y-109370320D01*
X127361900Y-109430048D01*
X127253239Y-109524202D01*
X127175507Y-109645156D01*
X127151923Y-109725476D01*
X126589001Y-109162555D01*
X126544858Y-109225600D01*
X126477657Y-109369712D01*
X126431484Y-109422151D01*
X126364290Y-109441302D01*
X126297409Y-109421086D01*
X126252893Y-109369710D01*
X126186064Y-109226394D01*
X126185579Y-109225354D01*
X126185577Y-109225351D01*
X126185576Y-109225349D01*
X126059677Y-109045547D01*
X126059672Y-109045541D01*
X125904458Y-108890327D01*
X125904457Y-108890326D01*
X125798376Y-108816047D01*
X125754751Y-108761470D01*
X125745500Y-108714472D01*
X125745500Y-105915526D01*
X125765185Y-105848487D01*
X125798375Y-105813952D01*
X125904457Y-105739674D01*
X126059674Y-105584457D01*
X126185579Y-105404646D01*
X126252893Y-105260288D01*
X126299065Y-105207849D01*
X126366258Y-105188697D01*
X126433139Y-105208912D01*
X126477657Y-105260288D01*
X126544855Y-105404393D01*
X126544856Y-105404395D01*
X126589002Y-105467442D01*
X126589003Y-105467443D01*
X127151922Y-104904523D01*
X127175507Y-104984844D01*
X127253239Y-105105798D01*
X127361900Y-105199952D01*
X127492685Y-105259680D01*
X127502466Y-105261086D01*
X126942555Y-105820996D01*
X127005604Y-105865143D01*
X127005606Y-105865144D01*
X127204466Y-105957875D01*
X127204475Y-105957878D01*
X127416407Y-106014664D01*
X127416417Y-106014666D01*
X127634999Y-106033790D01*
X127635001Y-106033790D01*
X127853582Y-106014666D01*
X127853592Y-106014664D01*
X128065524Y-105957878D01*
X128065533Y-105957874D01*
X128264392Y-105865145D01*
X128327443Y-105820996D01*
X127767534Y-105261086D01*
X127777315Y-105259680D01*
X127908100Y-105199952D01*
X128016761Y-105105798D01*
X128094493Y-104984844D01*
X128118076Y-104904523D01*
X128680996Y-105467443D01*
G37*
%TD.AperFunction*%
%TA.AperFunction,Conductor*%
G36*
X132255507Y-104984844D02*
G01*
X132333239Y-105105798D01*
X132441900Y-105199952D01*
X132572685Y-105259680D01*
X132582466Y-105261086D01*
X132022555Y-105820996D01*
X132085604Y-105865143D01*
X132085606Y-105865144D01*
X132284466Y-105957875D01*
X132284475Y-105957878D01*
X132496407Y-106014664D01*
X132496417Y-106014666D01*
X132714999Y-106033790D01*
X132715001Y-106033790D01*
X132933582Y-106014666D01*
X132933592Y-106014664D01*
X133145524Y-105957878D01*
X133145533Y-105957874D01*
X133344392Y-105865145D01*
X133407443Y-105820996D01*
X132847534Y-105261086D01*
X132857315Y-105259680D01*
X132988100Y-105199952D01*
X133096761Y-105105798D01*
X133174493Y-104984844D01*
X133198076Y-104904523D01*
X133760996Y-105467443D01*
X133805146Y-105404390D01*
X133872342Y-105260289D01*
X133918514Y-105207849D01*
X133985707Y-105188697D01*
X134052589Y-105208913D01*
X134097106Y-105260288D01*
X134164421Y-105404646D01*
X134164423Y-105404650D01*
X134290322Y-105584452D01*
X134290326Y-105584457D01*
X134445543Y-105739674D01*
X134445545Y-105739675D01*
X134445547Y-105739677D01*
X134625349Y-105865576D01*
X134625351Y-105865577D01*
X134625354Y-105865579D01*
X134824297Y-105958347D01*
X135036326Y-106015161D01*
X135192521Y-106028825D01*
X135254998Y-106034292D01*
X135255000Y-106034292D01*
X135255002Y-106034292D01*
X135309797Y-106029498D01*
X135473674Y-106015161D01*
X135685703Y-105958347D01*
X135884646Y-105865579D01*
X136064457Y-105739674D01*
X136219674Y-105584457D01*
X136345579Y-105404646D01*
X136412618Y-105260878D01*
X136458790Y-105208439D01*
X136525983Y-105189287D01*
X136592864Y-105209502D01*
X136637381Y-105260878D01*
X136665948Y-105322139D01*
X136704419Y-105404642D01*
X136704423Y-105404650D01*
X136830322Y-105584452D01*
X136830326Y-105584457D01*
X136912862Y-105666993D01*
X136985544Y-105739675D01*
X136990213Y-105742944D01*
X137091623Y-105813951D01*
X137135248Y-105868527D01*
X137144500Y-105915526D01*
X137144500Y-108714472D01*
X137124815Y-108781511D01*
X137091624Y-108816047D01*
X136985543Y-108890326D01*
X136985541Y-108890327D01*
X136830327Y-109045541D01*
X136830322Y-109045547D01*
X136704423Y-109225349D01*
X136704419Y-109225357D01*
X136637382Y-109369120D01*
X136591210Y-109421560D01*
X136524017Y-109440712D01*
X136457135Y-109420496D01*
X136412618Y-109369120D01*
X136346064Y-109226394D01*
X136345579Y-109225354D01*
X136345577Y-109225351D01*
X136345576Y-109225349D01*
X136219677Y-109045547D01*
X136219672Y-109045541D01*
X136064458Y-108890327D01*
X136064452Y-108890322D01*
X135884650Y-108764423D01*
X135884642Y-108764419D01*
X135685708Y-108671655D01*
X135685706Y-108671654D01*
X135685703Y-108671653D01*
X135534885Y-108631240D01*
X135473675Y-108614839D01*
X135473668Y-108614838D01*
X135255002Y-108595708D01*
X135254998Y-108595708D01*
X135036331Y-108614838D01*
X135036324Y-108614839D01*
X134952897Y-108637194D01*
X134824297Y-108671653D01*
X134824295Y-108671653D01*
X134824291Y-108671655D01*
X134625357Y-108764419D01*
X134625349Y-108764423D01*
X134445547Y-108890322D01*
X134445541Y-108890327D01*
X134290327Y-109045541D01*
X134290322Y-109045547D01*
X134164423Y-109225349D01*
X134164421Y-109225353D01*
X134097106Y-109369711D01*
X134050933Y-109422150D01*
X133983740Y-109441302D01*
X133916859Y-109421086D01*
X133872342Y-109369711D01*
X133805144Y-109225606D01*
X133805143Y-109225604D01*
X133760996Y-109162556D01*
X133760996Y-109162555D01*
X133198076Y-109725475D01*
X133174493Y-109645156D01*
X133096761Y-109524202D01*
X132988100Y-109430048D01*
X132857315Y-109370320D01*
X132847531Y-109368913D01*
X133407443Y-108809002D01*
X133344395Y-108764856D01*
X133344393Y-108764855D01*
X133145533Y-108672124D01*
X133145524Y-108672121D01*
X132933592Y-108615335D01*
X132933582Y-108615333D01*
X132715001Y-108596210D01*
X132714999Y-108596210D01*
X132496417Y-108615333D01*
X132496407Y-108615335D01*
X132284475Y-108672121D01*
X132284466Y-108672124D01*
X132085602Y-108764857D01*
X132022555Y-108809001D01*
X132022555Y-108809002D01*
X132582465Y-109368913D01*
X132572685Y-109370320D01*
X132441900Y-109430048D01*
X132333239Y-109524202D01*
X132255507Y-109645156D01*
X132231922Y-109725476D01*
X131669001Y-109162555D01*
X131624858Y-109225600D01*
X131557657Y-109369712D01*
X131511484Y-109422151D01*
X131444290Y-109441302D01*
X131377409Y-109421086D01*
X131332893Y-109369710D01*
X131266064Y-109226394D01*
X131265579Y-109225354D01*
X131265577Y-109225351D01*
X131265576Y-109225349D01*
X131139677Y-109045547D01*
X131139672Y-109045541D01*
X130984458Y-108890327D01*
X130984457Y-108890326D01*
X130878376Y-108816047D01*
X130834751Y-108761470D01*
X130825500Y-108714472D01*
X130825500Y-105915526D01*
X130845185Y-105848487D01*
X130878375Y-105813952D01*
X130984457Y-105739674D01*
X131139674Y-105584457D01*
X131265579Y-105404646D01*
X131332893Y-105260288D01*
X131379065Y-105207849D01*
X131446258Y-105188697D01*
X131513139Y-105208912D01*
X131557657Y-105260288D01*
X131624855Y-105404393D01*
X131624856Y-105404395D01*
X131669002Y-105467442D01*
X131669003Y-105467443D01*
X132231922Y-104904522D01*
X132255507Y-104984844D01*
G37*
%TD.AperFunction*%
%TA.AperFunction,Conductor*%
G36*
X141380996Y-105467443D02*
G01*
X141425146Y-105404390D01*
X141492342Y-105260289D01*
X141538514Y-105207849D01*
X141605707Y-105188697D01*
X141672589Y-105208913D01*
X141717106Y-105260288D01*
X141784421Y-105404646D01*
X141784423Y-105404650D01*
X141910322Y-105584452D01*
X141910326Y-105584457D01*
X142065543Y-105739674D01*
X142065545Y-105739675D01*
X142065547Y-105739677D01*
X142245349Y-105865576D01*
X142245351Y-105865577D01*
X142245354Y-105865579D01*
X142444297Y-105958347D01*
X142656326Y-106015161D01*
X142812521Y-106028826D01*
X142874998Y-106034292D01*
X142875000Y-106034292D01*
X142875002Y-106034292D01*
X142929797Y-106029498D01*
X143093674Y-106015161D01*
X143305703Y-105958347D01*
X143504646Y-105865579D01*
X143684457Y-105739674D01*
X143839674Y-105584457D01*
X143965579Y-105404646D01*
X144032618Y-105260878D01*
X144078790Y-105208439D01*
X144145983Y-105189287D01*
X144212864Y-105209502D01*
X144257381Y-105260878D01*
X144285948Y-105322139D01*
X144324419Y-105404642D01*
X144324423Y-105404650D01*
X144450322Y-105584452D01*
X144450326Y-105584457D01*
X144532862Y-105666993D01*
X144605544Y-105739675D01*
X144610213Y-105742944D01*
X144711623Y-105813951D01*
X144755248Y-105868527D01*
X144764500Y-105915526D01*
X144764500Y-108714472D01*
X144744815Y-108781511D01*
X144711624Y-108816047D01*
X144605543Y-108890326D01*
X144605541Y-108890327D01*
X144450327Y-109045541D01*
X144450322Y-109045547D01*
X144324423Y-109225349D01*
X144324419Y-109225357D01*
X144257382Y-109369120D01*
X144211210Y-109421560D01*
X144144017Y-109440712D01*
X144077135Y-109420496D01*
X144032618Y-109369120D01*
X143966064Y-109226394D01*
X143965579Y-109225354D01*
X143965577Y-109225351D01*
X143965576Y-109225349D01*
X143839677Y-109045547D01*
X143839672Y-109045541D01*
X143684458Y-108890327D01*
X143684452Y-108890322D01*
X143504650Y-108764423D01*
X143504642Y-108764419D01*
X143305708Y-108671655D01*
X143305706Y-108671654D01*
X143305703Y-108671653D01*
X143154885Y-108631240D01*
X143093675Y-108614839D01*
X143093668Y-108614838D01*
X142875002Y-108595708D01*
X142874998Y-108595708D01*
X142656331Y-108614838D01*
X142656324Y-108614839D01*
X142572897Y-108637194D01*
X142444297Y-108671653D01*
X142444295Y-108671653D01*
X142444291Y-108671655D01*
X142245357Y-108764419D01*
X142245349Y-108764423D01*
X142065547Y-108890322D01*
X142065541Y-108890327D01*
X141910327Y-109045541D01*
X141910322Y-109045547D01*
X141784423Y-109225349D01*
X141784421Y-109225353D01*
X141717106Y-109369711D01*
X141670933Y-109422150D01*
X141603740Y-109441302D01*
X141536859Y-109421086D01*
X141492342Y-109369711D01*
X141425144Y-109225606D01*
X141425143Y-109225604D01*
X141380996Y-109162556D01*
X141380996Y-109162555D01*
X140818076Y-109725475D01*
X140794493Y-109645156D01*
X140716761Y-109524202D01*
X140608100Y-109430048D01*
X140477315Y-109370320D01*
X140467533Y-109368913D01*
X141027443Y-108809003D01*
X141027442Y-108809002D01*
X140964395Y-108764856D01*
X140964393Y-108764855D01*
X140765533Y-108672124D01*
X140765524Y-108672121D01*
X140553592Y-108615335D01*
X140553582Y-108615333D01*
X140335001Y-108596210D01*
X140334999Y-108596210D01*
X140116417Y-108615333D01*
X140116407Y-108615335D01*
X139904475Y-108672121D01*
X139904466Y-108672124D01*
X139705602Y-108764857D01*
X139642555Y-108809001D01*
X140202467Y-109368913D01*
X140192685Y-109370320D01*
X140061900Y-109430048D01*
X139953239Y-109524202D01*
X139875507Y-109645156D01*
X139851923Y-109725476D01*
X139289001Y-109162555D01*
X139244858Y-109225600D01*
X139177657Y-109369712D01*
X139131484Y-109422151D01*
X139064290Y-109441302D01*
X138997409Y-109421086D01*
X138952893Y-109369710D01*
X138886064Y-109226394D01*
X138885579Y-109225354D01*
X138885577Y-109225351D01*
X138885576Y-109225349D01*
X138759677Y-109045547D01*
X138759672Y-109045541D01*
X138604458Y-108890327D01*
X138604457Y-108890326D01*
X138498376Y-108816047D01*
X138454751Y-108761470D01*
X138445500Y-108714472D01*
X138445500Y-105915526D01*
X138465185Y-105848487D01*
X138498375Y-105813952D01*
X138604457Y-105739674D01*
X138759674Y-105584457D01*
X138885579Y-105404646D01*
X138952893Y-105260288D01*
X138999065Y-105207849D01*
X139066258Y-105188697D01*
X139133139Y-105208912D01*
X139177657Y-105260288D01*
X139244855Y-105404393D01*
X139244856Y-105404395D01*
X139289002Y-105467442D01*
X139289003Y-105467443D01*
X139851922Y-104904523D01*
X139875507Y-104984844D01*
X139953239Y-105105798D01*
X140061900Y-105199952D01*
X140192685Y-105259680D01*
X140202466Y-105261086D01*
X139642555Y-105820996D01*
X139705604Y-105865143D01*
X139705606Y-105865144D01*
X139904466Y-105957875D01*
X139904475Y-105957878D01*
X140116407Y-106014664D01*
X140116417Y-106014666D01*
X140334999Y-106033790D01*
X140335001Y-106033790D01*
X140553582Y-106014666D01*
X140553592Y-106014664D01*
X140765524Y-105957878D01*
X140765533Y-105957874D01*
X140964392Y-105865145D01*
X141027443Y-105820996D01*
X140467534Y-105261086D01*
X140477315Y-105259680D01*
X140608100Y-105199952D01*
X140716761Y-105105798D01*
X140794493Y-104984844D01*
X140818076Y-104904523D01*
X141380996Y-105467443D01*
G37*
%TD.AperFunction*%
%TA.AperFunction,Conductor*%
G36*
X154080996Y-105467443D02*
G01*
X154125146Y-105404390D01*
X154192342Y-105260289D01*
X154238514Y-105207849D01*
X154305707Y-105188697D01*
X154372589Y-105208913D01*
X154417106Y-105260288D01*
X154484421Y-105404646D01*
X154484423Y-105404650D01*
X154610322Y-105584452D01*
X154610326Y-105584457D01*
X154765543Y-105739674D01*
X154765545Y-105739675D01*
X154765547Y-105739677D01*
X154945349Y-105865576D01*
X154945351Y-105865577D01*
X154945354Y-105865579D01*
X155144297Y-105958347D01*
X155356326Y-106015161D01*
X155512521Y-106028825D01*
X155574998Y-106034292D01*
X155575000Y-106034292D01*
X155575002Y-106034292D01*
X155629797Y-106029498D01*
X155793674Y-106015161D01*
X156005703Y-105958347D01*
X156204646Y-105865579D01*
X156384457Y-105739674D01*
X156539674Y-105584457D01*
X156665579Y-105404646D01*
X156732618Y-105260878D01*
X156778790Y-105208439D01*
X156845983Y-105189287D01*
X156912864Y-105209502D01*
X156957381Y-105260878D01*
X156985948Y-105322139D01*
X157024419Y-105404642D01*
X157024423Y-105404650D01*
X157150322Y-105584452D01*
X157150326Y-105584457D01*
X157232862Y-105666993D01*
X157305544Y-105739675D01*
X157310213Y-105742944D01*
X157411623Y-105813951D01*
X157455248Y-105868527D01*
X157464500Y-105915526D01*
X157464500Y-108714472D01*
X157444815Y-108781511D01*
X157411624Y-108816047D01*
X157305543Y-108890326D01*
X157305541Y-108890327D01*
X157150327Y-109045541D01*
X157150322Y-109045547D01*
X157024423Y-109225349D01*
X157024419Y-109225357D01*
X156957382Y-109369120D01*
X156911210Y-109421560D01*
X156844017Y-109440712D01*
X156777135Y-109420496D01*
X156732618Y-109369120D01*
X156666064Y-109226394D01*
X156665579Y-109225354D01*
X156665577Y-109225351D01*
X156665576Y-109225349D01*
X156539677Y-109045547D01*
X156539672Y-109045541D01*
X156384458Y-108890327D01*
X156384452Y-108890322D01*
X156204650Y-108764423D01*
X156204642Y-108764419D01*
X156005708Y-108671655D01*
X156005706Y-108671654D01*
X156005703Y-108671653D01*
X155854885Y-108631240D01*
X155793675Y-108614839D01*
X155793668Y-108614838D01*
X155575002Y-108595708D01*
X155574998Y-108595708D01*
X155356331Y-108614838D01*
X155356324Y-108614839D01*
X155272897Y-108637194D01*
X155144297Y-108671653D01*
X155144295Y-108671653D01*
X155144291Y-108671655D01*
X154945357Y-108764419D01*
X154945349Y-108764423D01*
X154765547Y-108890322D01*
X154765541Y-108890327D01*
X154610327Y-109045541D01*
X154610322Y-109045547D01*
X154484423Y-109225349D01*
X154484421Y-109225353D01*
X154417106Y-109369711D01*
X154370933Y-109422150D01*
X154303740Y-109441302D01*
X154236859Y-109421086D01*
X154192342Y-109369711D01*
X154125144Y-109225606D01*
X154125143Y-109225604D01*
X154080996Y-109162556D01*
X154080996Y-109162555D01*
X153518076Y-109725475D01*
X153494493Y-109645156D01*
X153416761Y-109524202D01*
X153308100Y-109430048D01*
X153177315Y-109370320D01*
X153167533Y-109368913D01*
X153727443Y-108809003D01*
X153727442Y-108809002D01*
X153664395Y-108764856D01*
X153664393Y-108764855D01*
X153465533Y-108672124D01*
X153465524Y-108672121D01*
X153253592Y-108615335D01*
X153253582Y-108615333D01*
X153035001Y-108596210D01*
X153034999Y-108596210D01*
X152816417Y-108615333D01*
X152816407Y-108615335D01*
X152604475Y-108672121D01*
X152604466Y-108672124D01*
X152405602Y-108764857D01*
X152342555Y-108809001D01*
X152902467Y-109368913D01*
X152892685Y-109370320D01*
X152761900Y-109430048D01*
X152653239Y-109524202D01*
X152575507Y-109645156D01*
X152551923Y-109725476D01*
X151989001Y-109162555D01*
X151944858Y-109225600D01*
X151877657Y-109369712D01*
X151831484Y-109422151D01*
X151764290Y-109441302D01*
X151697409Y-109421086D01*
X151652893Y-109369710D01*
X151586064Y-109226394D01*
X151585579Y-109225354D01*
X151585577Y-109225351D01*
X151585576Y-109225349D01*
X151459677Y-109045547D01*
X151459672Y-109045541D01*
X151304458Y-108890327D01*
X151304457Y-108890326D01*
X151198376Y-108816047D01*
X151154751Y-108761470D01*
X151145500Y-108714472D01*
X151145500Y-105915526D01*
X151165185Y-105848487D01*
X151198375Y-105813952D01*
X151304457Y-105739674D01*
X151459674Y-105584457D01*
X151585579Y-105404646D01*
X151652893Y-105260288D01*
X151699065Y-105207849D01*
X151766258Y-105188697D01*
X151833139Y-105208912D01*
X151877657Y-105260288D01*
X151944855Y-105404393D01*
X151944856Y-105404395D01*
X151989002Y-105467442D01*
X151989003Y-105467443D01*
X152551922Y-104904523D01*
X152575507Y-104984844D01*
X152653239Y-105105798D01*
X152761900Y-105199952D01*
X152892685Y-105259680D01*
X152902466Y-105261086D01*
X152342555Y-105820996D01*
X152405604Y-105865143D01*
X152405606Y-105865144D01*
X152604466Y-105957875D01*
X152604475Y-105957878D01*
X152816407Y-106014664D01*
X152816417Y-106014666D01*
X153034999Y-106033790D01*
X153035001Y-106033790D01*
X153253582Y-106014666D01*
X153253592Y-106014664D01*
X153465524Y-105957878D01*
X153465533Y-105957874D01*
X153664392Y-105865145D01*
X153727443Y-105820996D01*
X153167534Y-105261086D01*
X153177315Y-105259680D01*
X153308100Y-105199952D01*
X153416761Y-105105798D01*
X153494493Y-104984844D01*
X153518076Y-104904523D01*
X154080996Y-105467443D01*
G37*
%TD.AperFunction*%
%TA.AperFunction,Conductor*%
G36*
X166780996Y-105467443D02*
G01*
X166825146Y-105404390D01*
X166892342Y-105260289D01*
X166938514Y-105207849D01*
X167005707Y-105188697D01*
X167072589Y-105208913D01*
X167117106Y-105260288D01*
X167184421Y-105404646D01*
X167184423Y-105404650D01*
X167310322Y-105584452D01*
X167310326Y-105584457D01*
X167465543Y-105739674D01*
X167465545Y-105739675D01*
X167465547Y-105739677D01*
X167645349Y-105865576D01*
X167645351Y-105865577D01*
X167645354Y-105865579D01*
X167844297Y-105958347D01*
X168056326Y-106015161D01*
X168212521Y-106028826D01*
X168274998Y-106034292D01*
X168275000Y-106034292D01*
X168275002Y-106034292D01*
X168329797Y-106029498D01*
X168493674Y-106015161D01*
X168705703Y-105958347D01*
X168904646Y-105865579D01*
X169084457Y-105739674D01*
X169239674Y-105584457D01*
X169365579Y-105404646D01*
X169432618Y-105260878D01*
X169478790Y-105208439D01*
X169545983Y-105189287D01*
X169612864Y-105209502D01*
X169657381Y-105260878D01*
X169685948Y-105322139D01*
X169724419Y-105404642D01*
X169724423Y-105404650D01*
X169850322Y-105584452D01*
X169850326Y-105584457D01*
X169932862Y-105666993D01*
X170005544Y-105739675D01*
X170010213Y-105742944D01*
X170111623Y-105813951D01*
X170155248Y-105868527D01*
X170164500Y-105915526D01*
X170164500Y-108714472D01*
X170144815Y-108781511D01*
X170111624Y-108816047D01*
X170005543Y-108890326D01*
X170005541Y-108890327D01*
X169850327Y-109045541D01*
X169850322Y-109045547D01*
X169724423Y-109225349D01*
X169724419Y-109225357D01*
X169657382Y-109369120D01*
X169611210Y-109421560D01*
X169544017Y-109440712D01*
X169477135Y-109420496D01*
X169432618Y-109369120D01*
X169366064Y-109226394D01*
X169365579Y-109225354D01*
X169365577Y-109225351D01*
X169365576Y-109225349D01*
X169239677Y-109045547D01*
X169239672Y-109045541D01*
X169084458Y-108890327D01*
X169084452Y-108890322D01*
X168904650Y-108764423D01*
X168904642Y-108764419D01*
X168705708Y-108671655D01*
X168705706Y-108671654D01*
X168705703Y-108671653D01*
X168554885Y-108631240D01*
X168493675Y-108614839D01*
X168493668Y-108614838D01*
X168275002Y-108595708D01*
X168274998Y-108595708D01*
X168056331Y-108614838D01*
X168056324Y-108614839D01*
X167972897Y-108637194D01*
X167844297Y-108671653D01*
X167844295Y-108671653D01*
X167844291Y-108671655D01*
X167645357Y-108764419D01*
X167645349Y-108764423D01*
X167465547Y-108890322D01*
X167465541Y-108890327D01*
X167310327Y-109045541D01*
X167310322Y-109045547D01*
X167184423Y-109225349D01*
X167184421Y-109225353D01*
X167117106Y-109369711D01*
X167070933Y-109422150D01*
X167003740Y-109441302D01*
X166936859Y-109421086D01*
X166892342Y-109369711D01*
X166825144Y-109225606D01*
X166825143Y-109225604D01*
X166780996Y-109162556D01*
X166780996Y-109162555D01*
X166218076Y-109725475D01*
X166194493Y-109645156D01*
X166116761Y-109524202D01*
X166008100Y-109430048D01*
X165877315Y-109370320D01*
X165867533Y-109368913D01*
X166427443Y-108809003D01*
X166427442Y-108809002D01*
X166364395Y-108764856D01*
X166364393Y-108764855D01*
X166165533Y-108672124D01*
X166165524Y-108672121D01*
X165953592Y-108615335D01*
X165953582Y-108615333D01*
X165735001Y-108596210D01*
X165734999Y-108596210D01*
X165516417Y-108615333D01*
X165516407Y-108615335D01*
X165304475Y-108672121D01*
X165304466Y-108672124D01*
X165105602Y-108764857D01*
X165042555Y-108809001D01*
X165602467Y-109368913D01*
X165592685Y-109370320D01*
X165461900Y-109430048D01*
X165353239Y-109524202D01*
X165275507Y-109645156D01*
X165251923Y-109725476D01*
X164689001Y-109162555D01*
X164644858Y-109225600D01*
X164577657Y-109369712D01*
X164531484Y-109422151D01*
X164464290Y-109441302D01*
X164397409Y-109421086D01*
X164352893Y-109369710D01*
X164286064Y-109226394D01*
X164285579Y-109225354D01*
X164285577Y-109225351D01*
X164285576Y-109225349D01*
X164159677Y-109045547D01*
X164159672Y-109045541D01*
X164004458Y-108890327D01*
X164004457Y-108890326D01*
X163898376Y-108816047D01*
X163854751Y-108761470D01*
X163845500Y-108714472D01*
X163845500Y-105915526D01*
X163865185Y-105848487D01*
X163898375Y-105813952D01*
X164004457Y-105739674D01*
X164159674Y-105584457D01*
X164285579Y-105404646D01*
X164352893Y-105260288D01*
X164399065Y-105207849D01*
X164466258Y-105188697D01*
X164533139Y-105208912D01*
X164577657Y-105260288D01*
X164644855Y-105404393D01*
X164644856Y-105404395D01*
X164689002Y-105467442D01*
X164689003Y-105467443D01*
X165251922Y-104904523D01*
X165275507Y-104984844D01*
X165353239Y-105105798D01*
X165461900Y-105199952D01*
X165592685Y-105259680D01*
X165602466Y-105261086D01*
X165042555Y-105820996D01*
X165105604Y-105865143D01*
X165105606Y-105865144D01*
X165304466Y-105957875D01*
X165304475Y-105957878D01*
X165516407Y-106014664D01*
X165516417Y-106014666D01*
X165734999Y-106033790D01*
X165735001Y-106033790D01*
X165953582Y-106014666D01*
X165953592Y-106014664D01*
X166165524Y-105957878D01*
X166165533Y-105957874D01*
X166364392Y-105865145D01*
X166427443Y-105820996D01*
X165867534Y-105261086D01*
X165877315Y-105259680D01*
X166008100Y-105199952D01*
X166116761Y-105105798D01*
X166194493Y-104984844D01*
X166218076Y-104904523D01*
X166780996Y-105467443D01*
G37*
%TD.AperFunction*%
%TA.AperFunction,Conductor*%
G36*
X174400996Y-105467443D02*
G01*
X174445146Y-105404390D01*
X174512342Y-105260289D01*
X174558514Y-105207849D01*
X174625707Y-105188697D01*
X174692589Y-105208913D01*
X174737106Y-105260288D01*
X174804421Y-105404646D01*
X174804423Y-105404650D01*
X174930322Y-105584452D01*
X174930326Y-105584457D01*
X175085543Y-105739674D01*
X175085545Y-105739675D01*
X175085547Y-105739677D01*
X175265349Y-105865576D01*
X175265351Y-105865577D01*
X175265354Y-105865579D01*
X175464297Y-105958347D01*
X175676326Y-106015161D01*
X175832521Y-106028825D01*
X175894998Y-106034292D01*
X175895000Y-106034292D01*
X175895002Y-106034292D01*
X175949797Y-106029498D01*
X176113674Y-106015161D01*
X176325703Y-105958347D01*
X176524646Y-105865579D01*
X176704457Y-105739674D01*
X176859674Y-105584457D01*
X176954927Y-105448421D01*
X177009501Y-105404798D01*
X177079000Y-105397604D01*
X177141355Y-105429126D01*
X177176769Y-105489356D01*
X177180500Y-105519544D01*
X177180500Y-105576869D01*
X177180501Y-105576876D01*
X177186908Y-105636483D01*
X177237202Y-105771328D01*
X177237206Y-105771335D01*
X177323452Y-105886544D01*
X177323455Y-105886547D01*
X177438664Y-105972793D01*
X177438671Y-105972797D01*
X177483618Y-105989560D01*
X177573517Y-106023091D01*
X177633127Y-106029500D01*
X177660498Y-106029499D01*
X177727536Y-106049181D01*
X177773293Y-106101984D01*
X177784500Y-106153499D01*
X177784500Y-108476500D01*
X177764815Y-108543539D01*
X177712011Y-108589294D01*
X177660504Y-108600500D01*
X177633131Y-108600500D01*
X177633123Y-108600501D01*
X177573516Y-108606908D01*
X177438671Y-108657202D01*
X177438664Y-108657206D01*
X177323455Y-108743452D01*
X177323452Y-108743455D01*
X177237206Y-108858664D01*
X177237202Y-108858671D01*
X177186908Y-108993517D01*
X177181315Y-109045543D01*
X177180501Y-109053123D01*
X177180500Y-109053135D01*
X177180500Y-109110452D01*
X177160815Y-109177491D01*
X177108011Y-109223246D01*
X177038853Y-109233190D01*
X176975297Y-109204165D01*
X176954925Y-109181575D01*
X176864990Y-109053135D01*
X176859674Y-109045543D01*
X176704457Y-108890326D01*
X176704455Y-108890325D01*
X176704452Y-108890322D01*
X176524650Y-108764423D01*
X176524642Y-108764419D01*
X176325708Y-108671655D01*
X176325706Y-108671654D01*
X176325703Y-108671653D01*
X176174885Y-108631240D01*
X176113675Y-108614839D01*
X176113668Y-108614838D01*
X175895002Y-108595708D01*
X175894998Y-108595708D01*
X175676331Y-108614838D01*
X175676324Y-108614839D01*
X175592897Y-108637194D01*
X175464297Y-108671653D01*
X175464295Y-108671653D01*
X175464291Y-108671655D01*
X175265357Y-108764419D01*
X175265349Y-108764423D01*
X175085547Y-108890322D01*
X175085541Y-108890327D01*
X174930327Y-109045541D01*
X174930322Y-109045547D01*
X174804423Y-109225349D01*
X174804421Y-109225353D01*
X174737106Y-109369711D01*
X174690933Y-109422150D01*
X174623740Y-109441302D01*
X174556859Y-109421086D01*
X174512342Y-109369711D01*
X174445144Y-109225606D01*
X174445143Y-109225604D01*
X174400996Y-109162556D01*
X174400996Y-109162555D01*
X173838076Y-109725475D01*
X173814493Y-109645156D01*
X173736761Y-109524202D01*
X173628100Y-109430048D01*
X173497315Y-109370320D01*
X173487533Y-109368913D01*
X174047443Y-108809003D01*
X174047442Y-108809002D01*
X173984395Y-108764856D01*
X173984393Y-108764855D01*
X173785533Y-108672124D01*
X173785524Y-108672121D01*
X173573592Y-108615335D01*
X173573582Y-108615333D01*
X173355001Y-108596210D01*
X173354999Y-108596210D01*
X173136417Y-108615333D01*
X173136407Y-108615335D01*
X172924475Y-108672121D01*
X172924466Y-108672124D01*
X172725602Y-108764857D01*
X172662555Y-108809001D01*
X173222467Y-109368913D01*
X173212685Y-109370320D01*
X173081900Y-109430048D01*
X172973239Y-109524202D01*
X172895507Y-109645156D01*
X172871922Y-109725476D01*
X172309001Y-109162555D01*
X172264858Y-109225600D01*
X172197657Y-109369712D01*
X172151484Y-109422151D01*
X172084290Y-109441302D01*
X172017409Y-109421086D01*
X171972893Y-109369710D01*
X171906064Y-109226394D01*
X171905579Y-109225354D01*
X171905577Y-109225351D01*
X171905576Y-109225349D01*
X171779677Y-109045547D01*
X171779672Y-109045541D01*
X171624458Y-108890327D01*
X171624457Y-108890326D01*
X171518376Y-108816047D01*
X171474751Y-108761470D01*
X171465500Y-108714472D01*
X171465500Y-105915526D01*
X171485185Y-105848487D01*
X171518375Y-105813952D01*
X171624457Y-105739674D01*
X171779674Y-105584457D01*
X171905579Y-105404646D01*
X171972893Y-105260288D01*
X172019065Y-105207849D01*
X172086258Y-105188697D01*
X172153139Y-105208912D01*
X172197657Y-105260288D01*
X172264855Y-105404393D01*
X172264856Y-105404395D01*
X172309002Y-105467442D01*
X172309003Y-105467443D01*
X172871922Y-104904523D01*
X172895507Y-104984844D01*
X172973239Y-105105798D01*
X173081900Y-105199952D01*
X173212685Y-105259680D01*
X173222466Y-105261086D01*
X172662555Y-105820996D01*
X172725604Y-105865143D01*
X172725606Y-105865144D01*
X172924466Y-105957875D01*
X172924475Y-105957878D01*
X173136407Y-106014664D01*
X173136417Y-106014666D01*
X173354999Y-106033790D01*
X173355001Y-106033790D01*
X173573582Y-106014666D01*
X173573592Y-106014664D01*
X173785524Y-105957878D01*
X173785533Y-105957874D01*
X173984392Y-105865145D01*
X174047443Y-105820996D01*
X173487534Y-105261086D01*
X173497315Y-105259680D01*
X173628100Y-105199952D01*
X173736761Y-105105798D01*
X173814493Y-104984844D01*
X173838076Y-104904523D01*
X174400996Y-105467443D01*
G37*
%TD.AperFunction*%
%TA.AperFunction,Conductor*%
G36*
X135068495Y-98056099D02*
G01*
X135121228Y-98089988D01*
X135280256Y-98262738D01*
X135476491Y-98415474D01*
X135587625Y-98475617D01*
X135592886Y-98478464D01*
X135642476Y-98527684D01*
X135652944Y-98552924D01*
X135658322Y-98571435D01*
X135662268Y-98590486D01*
X135664928Y-98611544D01*
X135664931Y-98611554D01*
X135682813Y-98656720D01*
X135684705Y-98662248D01*
X135698254Y-98708885D01*
X135698255Y-98708887D01*
X135709060Y-98727156D01*
X135717617Y-98744624D01*
X135720635Y-98752245D01*
X135725432Y-98764362D01*
X135753983Y-98803660D01*
X135757188Y-98808539D01*
X135768503Y-98827671D01*
X135777533Y-98842940D01*
X135781919Y-98850355D01*
X135781923Y-98850359D01*
X135796925Y-98865361D01*
X135809563Y-98880159D01*
X135822033Y-98897323D01*
X135822036Y-98897326D01*
X135822037Y-98897327D01*
X135859476Y-98928299D01*
X135863776Y-98932212D01*
X138296075Y-101364510D01*
X139566074Y-102634509D01*
X139576150Y-102647086D01*
X139576337Y-102646932D01*
X139581305Y-102652937D01*
X139633770Y-102702205D01*
X139655471Y-102723907D01*
X139655475Y-102723910D01*
X139655476Y-102723911D01*
X139661269Y-102728404D01*
X139665701Y-102732190D01*
X139701117Y-102765448D01*
X139708027Y-102769247D01*
X139719717Y-102775674D01*
X139735978Y-102786355D01*
X139752747Y-102799363D01*
X139797337Y-102818658D01*
X139802566Y-102821220D01*
X139845142Y-102844627D01*
X139865703Y-102849905D01*
X139884107Y-102856207D01*
X139903584Y-102864636D01*
X139941437Y-102870630D01*
X139951564Y-102872235D01*
X139957274Y-102873417D01*
X140004333Y-102885500D01*
X140025555Y-102885500D01*
X140044952Y-102887026D01*
X140065915Y-102890347D01*
X140110614Y-102886121D01*
X140114280Y-102885775D01*
X140120118Y-102885500D01*
X143594520Y-102885500D01*
X143661559Y-102905185D01*
X143682201Y-102921819D01*
X144500443Y-103740061D01*
X144533928Y-103801384D01*
X144528944Y-103871076D01*
X144500445Y-103915422D01*
X144450324Y-103965543D01*
X144324423Y-104145349D01*
X144324419Y-104145357D01*
X144257382Y-104289120D01*
X144211210Y-104341560D01*
X144144017Y-104360712D01*
X144077135Y-104340496D01*
X144032618Y-104289120D01*
X143969233Y-104153190D01*
X143965579Y-104145354D01*
X143965577Y-104145351D01*
X143965576Y-104145349D01*
X143839677Y-103965547D01*
X143839672Y-103965541D01*
X143684458Y-103810327D01*
X143684452Y-103810322D01*
X143504650Y-103684423D01*
X143504642Y-103684419D01*
X143305708Y-103591655D01*
X143305706Y-103591654D01*
X143305703Y-103591653D01*
X143148870Y-103549629D01*
X143093675Y-103534839D01*
X143093668Y-103534838D01*
X142875002Y-103515708D01*
X142874998Y-103515708D01*
X142656331Y-103534838D01*
X142656324Y-103534839D01*
X142556070Y-103561703D01*
X142444297Y-103591653D01*
X142444295Y-103591653D01*
X142444291Y-103591655D01*
X142245357Y-103684419D01*
X142245349Y-103684423D01*
X142065547Y-103810322D01*
X142065541Y-103810327D01*
X141910327Y-103965541D01*
X141910322Y-103965547D01*
X141784423Y-104145349D01*
X141784421Y-104145353D01*
X141717106Y-104289711D01*
X141670933Y-104342150D01*
X141603740Y-104361302D01*
X141536859Y-104341086D01*
X141492342Y-104289711D01*
X141425144Y-104145606D01*
X141425143Y-104145604D01*
X141380996Y-104082556D01*
X141380996Y-104082555D01*
X140818076Y-104645475D01*
X140794493Y-104565156D01*
X140716761Y-104444202D01*
X140608100Y-104350048D01*
X140477315Y-104290320D01*
X140467533Y-104288913D01*
X141027443Y-103729003D01*
X141027442Y-103729002D01*
X140964395Y-103684856D01*
X140964393Y-103684855D01*
X140765533Y-103592124D01*
X140765524Y-103592121D01*
X140553592Y-103535335D01*
X140553582Y-103535333D01*
X140335001Y-103516210D01*
X140334999Y-103516210D01*
X140116417Y-103535333D01*
X140116407Y-103535335D01*
X139904475Y-103592121D01*
X139904466Y-103592124D01*
X139705602Y-103684857D01*
X139642555Y-103729001D01*
X140202467Y-104288913D01*
X140192685Y-104290320D01*
X140061900Y-104350048D01*
X139953239Y-104444202D01*
X139875507Y-104565156D01*
X139851922Y-104645476D01*
X139289001Y-104082555D01*
X139244858Y-104145600D01*
X139177657Y-104289712D01*
X139131484Y-104342151D01*
X139064290Y-104361302D01*
X138997409Y-104341086D01*
X138952893Y-104289710D01*
X138889233Y-104153190D01*
X138885579Y-104145354D01*
X138885577Y-104145351D01*
X138885576Y-104145349D01*
X138759677Y-103965547D01*
X138759672Y-103965541D01*
X138604458Y-103810327D01*
X138604457Y-103810326D01*
X138516445Y-103748699D01*
X138498376Y-103736047D01*
X138454751Y-103681470D01*
X138445500Y-103634472D01*
X138445500Y-103612660D01*
X138445500Y-103612658D01*
X138444579Y-103605371D01*
X138444122Y-103599562D01*
X138442597Y-103551013D01*
X138436676Y-103530635D01*
X138432731Y-103511586D01*
X138430071Y-103490525D01*
X138412186Y-103445355D01*
X138410297Y-103439835D01*
X138402046Y-103411434D01*
X138396744Y-103393184D01*
X138385939Y-103374915D01*
X138377379Y-103357441D01*
X138376351Y-103354845D01*
X138369568Y-103337712D01*
X138341014Y-103298411D01*
X138337810Y-103293533D01*
X138336774Y-103291782D01*
X138313081Y-103251718D01*
X138298074Y-103236712D01*
X138285435Y-103221913D01*
X138272961Y-103204743D01*
X138235528Y-103173777D01*
X138231206Y-103169843D01*
X136896851Y-101835488D01*
X136886778Y-101822914D01*
X136886591Y-101823070D01*
X136881618Y-101817059D01*
X136829173Y-101767810D01*
X136807452Y-101746089D01*
X136801657Y-101741594D01*
X136797215Y-101737799D01*
X136761813Y-101704554D01*
X136761805Y-101704548D01*
X136743209Y-101694325D01*
X136726948Y-101683644D01*
X136710180Y-101670637D01*
X136686712Y-101660482D01*
X136665595Y-101651343D01*
X136660373Y-101648786D01*
X136617785Y-101625373D01*
X136617782Y-101625372D01*
X136597218Y-101620092D01*
X136578813Y-101613790D01*
X136559344Y-101605365D01*
X136559338Y-101605363D01*
X136511368Y-101597766D01*
X136505653Y-101596582D01*
X136489189Y-101592355D01*
X136458597Y-101584500D01*
X136458594Y-101584500D01*
X136437372Y-101584500D01*
X136417972Y-101582973D01*
X136413925Y-101582332D01*
X136411428Y-101581936D01*
X136397013Y-101579653D01*
X136397012Y-101579653D01*
X136373203Y-101581903D01*
X136348647Y-101584225D01*
X136342809Y-101584500D01*
X135302229Y-101584500D01*
X135235190Y-101564815D01*
X135214548Y-101548181D01*
X132164353Y-98497986D01*
X132130868Y-98436663D01*
X132135852Y-98366971D01*
X132175870Y-98312452D01*
X132239744Y-98262738D01*
X132398771Y-98089988D01*
X132458657Y-98053999D01*
X132528495Y-98056099D01*
X132581228Y-98089988D01*
X132740256Y-98262738D01*
X132936491Y-98415474D01*
X132936493Y-98415475D01*
X133154332Y-98533364D01*
X133155190Y-98533828D01*
X133318580Y-98589920D01*
X133388964Y-98614083D01*
X133390386Y-98614571D01*
X133635665Y-98655500D01*
X133884335Y-98655500D01*
X134129614Y-98614571D01*
X134364810Y-98533828D01*
X134583509Y-98415474D01*
X134779744Y-98262738D01*
X134938771Y-98089988D01*
X134998657Y-98053999D01*
X135068495Y-98056099D01*
G37*
%TD.AperFunction*%
%TA.AperFunction,Conductor*%
G36*
X153735881Y-100365185D02*
G01*
X153756523Y-100381819D01*
X157157604Y-103782900D01*
X157191089Y-103844223D01*
X157186105Y-103913915D01*
X157157612Y-103958254D01*
X157150328Y-103965538D01*
X157024423Y-104145349D01*
X157024419Y-104145357D01*
X156957382Y-104289120D01*
X156911210Y-104341560D01*
X156844017Y-104360712D01*
X156777135Y-104340496D01*
X156732618Y-104289120D01*
X156669233Y-104153190D01*
X156665579Y-104145354D01*
X156665577Y-104145351D01*
X156665576Y-104145349D01*
X156539677Y-103965547D01*
X156539672Y-103965541D01*
X156384458Y-103810327D01*
X156384452Y-103810322D01*
X156204650Y-103684423D01*
X156204642Y-103684419D01*
X156005708Y-103591655D01*
X156005706Y-103591654D01*
X156005703Y-103591653D01*
X155848870Y-103549629D01*
X155793675Y-103534839D01*
X155793668Y-103534838D01*
X155575002Y-103515708D01*
X155574998Y-103515708D01*
X155356331Y-103534838D01*
X155356324Y-103534839D01*
X155256070Y-103561703D01*
X155144297Y-103591653D01*
X155144295Y-103591653D01*
X155144291Y-103591655D01*
X154945357Y-103684419D01*
X154945349Y-103684423D01*
X154765547Y-103810322D01*
X154765541Y-103810327D01*
X154610327Y-103965541D01*
X154610322Y-103965547D01*
X154484423Y-104145349D01*
X154484421Y-104145353D01*
X154417106Y-104289711D01*
X154370933Y-104342150D01*
X154303740Y-104361302D01*
X154236859Y-104341086D01*
X154192342Y-104289711D01*
X154125144Y-104145606D01*
X154125143Y-104145604D01*
X154080996Y-104082556D01*
X154080996Y-104082555D01*
X153518076Y-104645475D01*
X153494493Y-104565156D01*
X153416761Y-104444202D01*
X153308100Y-104350048D01*
X153177315Y-104290320D01*
X153167533Y-104288913D01*
X153727443Y-103729003D01*
X153727442Y-103729002D01*
X153664395Y-103684856D01*
X153664393Y-103684855D01*
X153465533Y-103592124D01*
X153465524Y-103592121D01*
X153253592Y-103535335D01*
X153253582Y-103535333D01*
X153035001Y-103516210D01*
X153034999Y-103516210D01*
X152816417Y-103535333D01*
X152816407Y-103535335D01*
X152604475Y-103592121D01*
X152604466Y-103592124D01*
X152405602Y-103684857D01*
X152342555Y-103729001D01*
X152902467Y-104288913D01*
X152892685Y-104290320D01*
X152761900Y-104350048D01*
X152653239Y-104444202D01*
X152575507Y-104565156D01*
X152551922Y-104645476D01*
X151989001Y-104082555D01*
X151944858Y-104145600D01*
X151877657Y-104289712D01*
X151831484Y-104342151D01*
X151764290Y-104361302D01*
X151697409Y-104341086D01*
X151652893Y-104289710D01*
X151589233Y-104153190D01*
X151585579Y-104145354D01*
X151585577Y-104145351D01*
X151585576Y-104145349D01*
X151459677Y-103965547D01*
X151459672Y-103965541D01*
X151304457Y-103810326D01*
X151173127Y-103718367D01*
X151129502Y-103663790D01*
X151129031Y-103662620D01*
X151112187Y-103620078D01*
X151110300Y-103614563D01*
X151104470Y-103594497D01*
X151096745Y-103567907D01*
X151093076Y-103561703D01*
X151085936Y-103549629D01*
X151077378Y-103532160D01*
X151069568Y-103512434D01*
X151041006Y-103473123D01*
X151037818Y-103468269D01*
X151013081Y-103426440D01*
X150998074Y-103411433D01*
X150985435Y-103396635D01*
X150982926Y-103393182D01*
X150974259Y-103381252D01*
X150972961Y-103379465D01*
X150935528Y-103348499D01*
X150931206Y-103344565D01*
X148152129Y-100565488D01*
X148142054Y-100552912D01*
X148141867Y-100553067D01*
X148138119Y-100548536D01*
X148137623Y-100547381D01*
X148135109Y-100544243D01*
X148132713Y-100540467D01*
X148134239Y-100539498D01*
X148110556Y-100484332D01*
X148122081Y-100415420D01*
X148169032Y-100363677D01*
X148233666Y-100345500D01*
X153668842Y-100345500D01*
X153735881Y-100365185D01*
G37*
%TD.AperFunction*%
%TA.AperFunction,Conductor*%
G36*
X164050703Y-98042095D02*
G01*
X164057181Y-98048127D01*
X169827931Y-103818877D01*
X169861416Y-103880200D01*
X169856432Y-103949892D01*
X169841825Y-103977681D01*
X169724424Y-104145349D01*
X169724419Y-104145357D01*
X169657382Y-104289120D01*
X169611210Y-104341560D01*
X169544017Y-104360712D01*
X169477135Y-104340496D01*
X169432618Y-104289120D01*
X169369233Y-104153190D01*
X169365579Y-104145354D01*
X169365577Y-104145351D01*
X169365576Y-104145349D01*
X169239677Y-103965547D01*
X169239672Y-103965541D01*
X169084458Y-103810327D01*
X169084452Y-103810322D01*
X168904650Y-103684423D01*
X168904642Y-103684419D01*
X168705708Y-103591655D01*
X168705706Y-103591654D01*
X168705703Y-103591653D01*
X168548870Y-103549629D01*
X168493675Y-103534839D01*
X168493668Y-103534838D01*
X168275002Y-103515708D01*
X168274998Y-103515708D01*
X168056331Y-103534838D01*
X168056324Y-103534839D01*
X167956070Y-103561703D01*
X167844297Y-103591653D01*
X167844295Y-103591653D01*
X167844291Y-103591655D01*
X167645357Y-103684419D01*
X167645349Y-103684423D01*
X167465547Y-103810322D01*
X167465541Y-103810327D01*
X167310327Y-103965541D01*
X167310322Y-103965547D01*
X167184423Y-104145349D01*
X167184421Y-104145353D01*
X167117106Y-104289711D01*
X167070933Y-104342150D01*
X167003740Y-104361302D01*
X166936859Y-104341086D01*
X166892342Y-104289711D01*
X166825144Y-104145606D01*
X166825143Y-104145604D01*
X166780996Y-104082556D01*
X166780996Y-104082555D01*
X166218076Y-104645475D01*
X166194493Y-104565156D01*
X166116761Y-104444202D01*
X166008100Y-104350048D01*
X165877315Y-104290320D01*
X165867533Y-104288913D01*
X166427443Y-103729003D01*
X166427442Y-103729002D01*
X166364395Y-103684856D01*
X166364393Y-103684855D01*
X166165533Y-103592124D01*
X166165524Y-103592121D01*
X165953592Y-103535335D01*
X165953582Y-103535333D01*
X165735001Y-103516210D01*
X165734999Y-103516210D01*
X165516417Y-103535333D01*
X165516407Y-103535335D01*
X165304475Y-103592121D01*
X165304466Y-103592124D01*
X165105602Y-103684857D01*
X165042555Y-103729001D01*
X165602467Y-104288913D01*
X165592685Y-104290320D01*
X165461900Y-104350048D01*
X165353239Y-104444202D01*
X165275507Y-104565156D01*
X165251922Y-104645476D01*
X164689001Y-104082555D01*
X164644858Y-104145600D01*
X164577657Y-104289712D01*
X164531484Y-104342151D01*
X164464290Y-104361302D01*
X164397409Y-104341086D01*
X164352893Y-104289710D01*
X164289233Y-104153190D01*
X164285579Y-104145354D01*
X164285577Y-104145351D01*
X164285576Y-104145349D01*
X164159677Y-103965547D01*
X164159672Y-103965541D01*
X164004458Y-103810327D01*
X164004457Y-103810326D01*
X163916445Y-103748699D01*
X163898376Y-103736047D01*
X163854751Y-103681470D01*
X163845500Y-103634472D01*
X163845500Y-98256501D01*
X163847268Y-98240488D01*
X163847026Y-98240466D01*
X163847758Y-98232710D01*
X163847760Y-98232703D01*
X163845500Y-98160795D01*
X163845500Y-98135808D01*
X163865185Y-98068769D01*
X163917989Y-98023014D01*
X163987147Y-98013070D01*
X164050703Y-98042095D01*
G37*
%TD.AperFunction*%
%TA.AperFunction,Conductor*%
G36*
X167174796Y-98987441D02*
G01*
X167179236Y-98989362D01*
X167179237Y-98989363D01*
X167223827Y-99008658D01*
X167229056Y-99011220D01*
X167271632Y-99034627D01*
X167292193Y-99039905D01*
X167310597Y-99046207D01*
X167330074Y-99054636D01*
X167367927Y-99060630D01*
X167378054Y-99062235D01*
X167383764Y-99063417D01*
X167430823Y-99075500D01*
X167452045Y-99075500D01*
X167471442Y-99077026D01*
X167492405Y-99080347D01*
X167537104Y-99076121D01*
X167540770Y-99075775D01*
X167546608Y-99075500D01*
X173351692Y-99075500D01*
X173418731Y-99095185D01*
X173439373Y-99111819D01*
X177643924Y-103316370D01*
X177677409Y-103377693D01*
X177672425Y-103447385D01*
X177630553Y-103503318D01*
X177580563Y-103522987D01*
X177581068Y-103525124D01*
X177573520Y-103526907D01*
X177438671Y-103577202D01*
X177438664Y-103577206D01*
X177323455Y-103663452D01*
X177323452Y-103663455D01*
X177237206Y-103778664D01*
X177237202Y-103778671D01*
X177186908Y-103913517D01*
X177180675Y-103971496D01*
X177180501Y-103973123D01*
X177180500Y-103973135D01*
X177180500Y-104030452D01*
X177160815Y-104097491D01*
X177108011Y-104143246D01*
X177038853Y-104153190D01*
X176975297Y-104124165D01*
X176954925Y-104101575D01*
X176882115Y-103997592D01*
X176859674Y-103965543D01*
X176704457Y-103810326D01*
X176704455Y-103810325D01*
X176704452Y-103810322D01*
X176524650Y-103684423D01*
X176524642Y-103684419D01*
X176325708Y-103591655D01*
X176325706Y-103591654D01*
X176325703Y-103591653D01*
X176168870Y-103549629D01*
X176113675Y-103534839D01*
X176113668Y-103534838D01*
X175895002Y-103515708D01*
X175894998Y-103515708D01*
X175676331Y-103534838D01*
X175676324Y-103534839D01*
X175576070Y-103561703D01*
X175464297Y-103591653D01*
X175464295Y-103591653D01*
X175464291Y-103591655D01*
X175265357Y-103684419D01*
X175265349Y-103684423D01*
X175085547Y-103810322D01*
X175085541Y-103810327D01*
X174930327Y-103965541D01*
X174930322Y-103965547D01*
X174804423Y-104145349D01*
X174804421Y-104145353D01*
X174737106Y-104289711D01*
X174690933Y-104342150D01*
X174623740Y-104361302D01*
X174556859Y-104341086D01*
X174512342Y-104289711D01*
X174445144Y-104145606D01*
X174445143Y-104145604D01*
X174400996Y-104082556D01*
X174400996Y-104082555D01*
X173838076Y-104645475D01*
X173814493Y-104565156D01*
X173736761Y-104444202D01*
X173628100Y-104350048D01*
X173497315Y-104290320D01*
X173487533Y-104288913D01*
X174047443Y-103729003D01*
X174047442Y-103729002D01*
X173984395Y-103684856D01*
X173984393Y-103684855D01*
X173785533Y-103592124D01*
X173785524Y-103592121D01*
X173573592Y-103535335D01*
X173573582Y-103535333D01*
X173355001Y-103516210D01*
X173354999Y-103516210D01*
X173136417Y-103535333D01*
X173136407Y-103535335D01*
X172924475Y-103592121D01*
X172924466Y-103592124D01*
X172725602Y-103684857D01*
X172662555Y-103729001D01*
X173222467Y-104288913D01*
X173212685Y-104290320D01*
X173081900Y-104350048D01*
X172973239Y-104444202D01*
X172895507Y-104565156D01*
X172871922Y-104645476D01*
X172309001Y-104082555D01*
X172264858Y-104145600D01*
X172197657Y-104289712D01*
X172151484Y-104342151D01*
X172084290Y-104361302D01*
X172017409Y-104341086D01*
X171972893Y-104289710D01*
X171909233Y-104153190D01*
X171905579Y-104145354D01*
X171905577Y-104145351D01*
X171905576Y-104145349D01*
X171779677Y-103965547D01*
X171779672Y-103965541D01*
X171624458Y-103810327D01*
X171624452Y-103810322D01*
X171466841Y-103699962D01*
X171423216Y-103645385D01*
X171418887Y-103632979D01*
X171418632Y-103632101D01*
X171416744Y-103625602D01*
X171405940Y-103607334D01*
X171397378Y-103589856D01*
X171389568Y-103570129D01*
X171389565Y-103570125D01*
X171382174Y-103559952D01*
X171361014Y-103530827D01*
X171357811Y-103525951D01*
X171356779Y-103524206D01*
X171333081Y-103484135D01*
X171333079Y-103484133D01*
X171333078Y-103484131D01*
X171318075Y-103469129D01*
X171305435Y-103454330D01*
X171304461Y-103452990D01*
X171292963Y-103437163D01*
X171292961Y-103437160D01*
X171255528Y-103406194D01*
X171251206Y-103402260D01*
X167037870Y-99188924D01*
X167004385Y-99127601D01*
X167009369Y-99057909D01*
X167051241Y-99001976D01*
X167116705Y-98977559D01*
X167174796Y-98987441D01*
G37*
%TD.AperFunction*%
%TA.AperFunction,Conductor*%
G36*
X158019334Y-77377206D02*
G01*
X158075267Y-77419078D01*
X158099684Y-77484542D01*
X158100000Y-77493388D01*
X158100000Y-91681500D01*
X158080315Y-91748539D01*
X158027511Y-91794294D01*
X157976000Y-91805500D01*
X157097525Y-91805500D01*
X157030486Y-91785815D01*
X157009844Y-91769181D01*
X152451819Y-87211155D01*
X152418334Y-87149832D01*
X152415500Y-87123474D01*
X152415500Y-83220921D01*
X152435185Y-83153882D01*
X152447351Y-83137948D01*
X152497533Y-83082216D01*
X152592179Y-82918284D01*
X152650674Y-82738256D01*
X152670460Y-82550000D01*
X152650674Y-82361744D01*
X152592179Y-82181716D01*
X152497533Y-82017784D01*
X152370871Y-81877112D01*
X152370870Y-81877111D01*
X152217734Y-81765851D01*
X152217729Y-81765848D01*
X152044807Y-81688857D01*
X152044802Y-81688855D01*
X151899001Y-81657865D01*
X151859646Y-81649500D01*
X151670354Y-81649500D01*
X151637897Y-81656398D01*
X151485197Y-81688855D01*
X151485192Y-81688857D01*
X151312270Y-81765848D01*
X151312265Y-81765851D01*
X151159129Y-81877111D01*
X151032466Y-82017785D01*
X150937821Y-82181715D01*
X150937818Y-82181722D01*
X150882844Y-82350916D01*
X150879326Y-82361744D01*
X150859540Y-82550000D01*
X150879326Y-82738256D01*
X150879327Y-82738259D01*
X150937818Y-82918277D01*
X150937821Y-82918284D01*
X151032466Y-83082215D01*
X151082649Y-83137948D01*
X151112880Y-83200940D01*
X151114500Y-83220921D01*
X151114500Y-87358777D01*
X151112732Y-87374788D01*
X151112974Y-87374811D01*
X151112240Y-87382577D01*
X151114500Y-87454486D01*
X151114500Y-87485203D01*
X151114501Y-87485223D01*
X151115418Y-87492489D01*
X151115876Y-87498307D01*
X151117402Y-87546850D01*
X151117403Y-87546853D01*
X151123323Y-87567231D01*
X151127268Y-87586279D01*
X151129928Y-87607337D01*
X151129931Y-87607347D01*
X151147813Y-87652513D01*
X151149705Y-87658041D01*
X151154899Y-87675918D01*
X151154700Y-87745787D01*
X151116759Y-87804458D01*
X151053121Y-87833302D01*
X150983991Y-87823161D01*
X150948142Y-87798195D01*
X149784819Y-86634872D01*
X149751334Y-86573549D01*
X149748500Y-86547191D01*
X149748500Y-83220921D01*
X149768185Y-83153882D01*
X149780351Y-83137948D01*
X149830533Y-83082216D01*
X149925179Y-82918284D01*
X149983674Y-82738256D01*
X150003460Y-82550000D01*
X149983674Y-82361744D01*
X149925179Y-82181716D01*
X149830533Y-82017784D01*
X149703871Y-81877112D01*
X149703870Y-81877111D01*
X149550734Y-81765851D01*
X149550729Y-81765848D01*
X149377807Y-81688857D01*
X149377802Y-81688855D01*
X149232001Y-81657865D01*
X149192646Y-81649500D01*
X149003354Y-81649500D01*
X148970897Y-81656398D01*
X148818197Y-81688855D01*
X148818192Y-81688857D01*
X148645270Y-81765848D01*
X148645265Y-81765851D01*
X148492129Y-81877111D01*
X148365466Y-82017785D01*
X148270821Y-82181715D01*
X148270818Y-82181722D01*
X148215844Y-82350916D01*
X148212326Y-82361744D01*
X148192540Y-82550000D01*
X148212326Y-82738256D01*
X148212327Y-82738259D01*
X148270818Y-82918277D01*
X148270821Y-82918284D01*
X148365466Y-83082215D01*
X148415649Y-83137948D01*
X148445880Y-83200940D01*
X148447500Y-83220921D01*
X148447500Y-86782494D01*
X148445732Y-86798505D01*
X148445974Y-86798528D01*
X148445240Y-86806294D01*
X148447500Y-86878205D01*
X148447499Y-86903196D01*
X148427812Y-86970235D01*
X148375006Y-87015988D01*
X148305847Y-87025928D01*
X148242292Y-86996900D01*
X148235818Y-86990872D01*
X147244819Y-85999873D01*
X147211334Y-85938550D01*
X147208500Y-85912192D01*
X147208500Y-83220921D01*
X147228185Y-83153882D01*
X147240351Y-83137948D01*
X147290533Y-83082216D01*
X147385179Y-82918284D01*
X147443674Y-82738256D01*
X147463460Y-82550000D01*
X147443674Y-82361744D01*
X147385179Y-82181716D01*
X147290533Y-82017784D01*
X147163871Y-81877112D01*
X147163870Y-81877111D01*
X147010734Y-81765851D01*
X147010729Y-81765848D01*
X146837807Y-81688857D01*
X146837802Y-81688855D01*
X146692001Y-81657865D01*
X146652646Y-81649500D01*
X146463354Y-81649500D01*
X146430897Y-81656398D01*
X146278197Y-81688855D01*
X146278192Y-81688857D01*
X146105270Y-81765848D01*
X146105265Y-81765851D01*
X145952129Y-81877111D01*
X145825466Y-82017785D01*
X145730821Y-82181715D01*
X145730818Y-82181722D01*
X145675844Y-82350916D01*
X145672326Y-82361744D01*
X145652540Y-82550000D01*
X145672326Y-82738256D01*
X145672327Y-82738259D01*
X145730818Y-82918277D01*
X145730821Y-82918284D01*
X145825466Y-83082215D01*
X145875649Y-83137948D01*
X145905880Y-83200940D01*
X145907500Y-83220921D01*
X145907500Y-86147494D01*
X145905732Y-86163505D01*
X145905974Y-86163528D01*
X145905240Y-86171294D01*
X145907500Y-86243203D01*
X145907500Y-86273920D01*
X145907501Y-86273940D01*
X145908418Y-86281206D01*
X145908876Y-86287024D01*
X145910402Y-86335567D01*
X145910403Y-86335570D01*
X145916323Y-86355948D01*
X145920268Y-86374996D01*
X145922928Y-86396054D01*
X145922931Y-86396064D01*
X145940813Y-86441230D01*
X145942705Y-86446758D01*
X145956254Y-86493395D01*
X145956255Y-86493397D01*
X145967060Y-86511666D01*
X145975617Y-86529134D01*
X145981226Y-86543300D01*
X145983432Y-86548872D01*
X146011983Y-86588170D01*
X146015188Y-86593049D01*
X146039919Y-86634865D01*
X146039923Y-86634869D01*
X146054925Y-86649871D01*
X146067563Y-86664669D01*
X146080033Y-86681833D01*
X146080036Y-86681836D01*
X146080037Y-86681837D01*
X146117476Y-86712809D01*
X146121776Y-86716722D01*
X150272127Y-90867073D01*
X154419564Y-95014510D01*
X154429635Y-95027080D01*
X154429822Y-95026926D01*
X154434796Y-95032937D01*
X154434798Y-95032940D01*
X154463345Y-95059748D01*
X154487243Y-95082190D01*
X154508967Y-95103913D01*
X154514757Y-95108405D01*
X154519197Y-95112197D01*
X154548498Y-95139711D01*
X154554607Y-95145448D01*
X154554610Y-95145450D01*
X154554612Y-95145451D01*
X154573207Y-95155674D01*
X154589468Y-95166356D01*
X154606232Y-95179359D01*
X154606236Y-95179362D01*
X154650811Y-95198651D01*
X154656050Y-95201217D01*
X154698632Y-95224627D01*
X154719204Y-95229908D01*
X154737594Y-95236205D01*
X154757074Y-95244635D01*
X154801221Y-95251626D01*
X154805048Y-95252233D01*
X154810757Y-95253415D01*
X154857823Y-95265500D01*
X154879045Y-95265500D01*
X154898444Y-95267026D01*
X154919405Y-95270347D01*
X154964104Y-95266121D01*
X154967770Y-95265775D01*
X154973608Y-95265500D01*
X159318192Y-95265500D01*
X159385231Y-95285185D01*
X159405873Y-95301819D01*
X159579836Y-95475782D01*
X159613321Y-95537105D01*
X159608337Y-95606797D01*
X159566465Y-95662730D01*
X159501001Y-95687147D01*
X159471746Y-95685772D01*
X159284335Y-95654500D01*
X159035665Y-95654500D01*
X158790383Y-95695429D01*
X158555197Y-95776169D01*
X158555188Y-95776172D01*
X158336493Y-95894524D01*
X158140257Y-96047261D01*
X157981230Y-96220010D01*
X157921342Y-96256001D01*
X157851504Y-96253900D01*
X157798770Y-96220010D01*
X157759108Y-96176926D01*
X157639744Y-96047262D01*
X157443509Y-95894526D01*
X157443507Y-95894525D01*
X157443506Y-95894524D01*
X157224811Y-95776172D01*
X157224802Y-95776169D01*
X156989616Y-95695429D01*
X156744335Y-95654500D01*
X156495665Y-95654500D01*
X156250383Y-95695429D01*
X156015197Y-95776169D01*
X156015188Y-95776172D01*
X155796493Y-95894524D01*
X155600257Y-96047261D01*
X155441230Y-96220010D01*
X155381342Y-96256001D01*
X155311504Y-96253900D01*
X155258770Y-96220010D01*
X155219108Y-96176926D01*
X155099744Y-96047262D01*
X154903509Y-95894526D01*
X154903507Y-95894525D01*
X154903506Y-95894524D01*
X154684811Y-95776172D01*
X154684802Y-95776169D01*
X154449616Y-95695429D01*
X154204335Y-95654500D01*
X153955665Y-95654500D01*
X153710383Y-95695429D01*
X153475197Y-95776169D01*
X153475188Y-95776172D01*
X153256493Y-95894524D01*
X153060257Y-96047261D01*
X152901230Y-96220010D01*
X152841342Y-96256001D01*
X152771504Y-96253900D01*
X152718770Y-96220010D01*
X152679108Y-96176926D01*
X152559744Y-96047262D01*
X152363509Y-95894526D01*
X152363507Y-95894525D01*
X152363506Y-95894524D01*
X152144811Y-95776172D01*
X152144802Y-95776169D01*
X151909616Y-95695429D01*
X151664335Y-95654500D01*
X151415665Y-95654500D01*
X151170383Y-95695429D01*
X150935197Y-95776169D01*
X150935188Y-95776172D01*
X150716493Y-95894524D01*
X150520257Y-96047261D01*
X150361230Y-96220010D01*
X150301342Y-96256001D01*
X150231504Y-96253900D01*
X150178770Y-96220010D01*
X150139108Y-96176926D01*
X150019744Y-96047262D01*
X149823509Y-95894526D01*
X149823507Y-95894525D01*
X149823506Y-95894524D01*
X149604811Y-95776172D01*
X149604802Y-95776169D01*
X149369616Y-95695429D01*
X149124335Y-95654500D01*
X148875665Y-95654500D01*
X148630383Y-95695429D01*
X148395197Y-95776169D01*
X148395188Y-95776172D01*
X148176493Y-95894524D01*
X147980255Y-96047262D01*
X147980252Y-96047265D01*
X147821228Y-96220010D01*
X147761341Y-96256001D01*
X147691503Y-96253900D01*
X147638770Y-96220011D01*
X147479744Y-96047262D01*
X147283509Y-95894526D01*
X147283507Y-95894525D01*
X147283506Y-95894524D01*
X147064811Y-95776172D01*
X147064802Y-95776169D01*
X146829616Y-95695429D01*
X146584335Y-95654500D01*
X146335665Y-95654500D01*
X146090383Y-95695429D01*
X145855197Y-95776169D01*
X145855188Y-95776172D01*
X145636493Y-95894524D01*
X145440257Y-96047261D01*
X145281230Y-96220010D01*
X145221342Y-96256001D01*
X145151504Y-96253900D01*
X145098770Y-96220010D01*
X145059108Y-96176926D01*
X144939744Y-96047262D01*
X144743509Y-95894526D01*
X144743507Y-95894525D01*
X144743506Y-95894524D01*
X144524811Y-95776172D01*
X144524802Y-95776169D01*
X144289616Y-95695429D01*
X144044335Y-95654500D01*
X143795665Y-95654500D01*
X143550383Y-95695429D01*
X143315197Y-95776169D01*
X143315188Y-95776172D01*
X143096493Y-95894524D01*
X142900257Y-96047261D01*
X142741230Y-96220010D01*
X142681342Y-96256001D01*
X142611504Y-96253900D01*
X142558770Y-96220010D01*
X142519108Y-96176926D01*
X142399744Y-96047262D01*
X142203509Y-95894526D01*
X142203507Y-95894525D01*
X142203506Y-95894524D01*
X141984811Y-95776172D01*
X141984802Y-95776169D01*
X141749616Y-95695429D01*
X141504335Y-95654500D01*
X141255665Y-95654500D01*
X141010383Y-95695429D01*
X140775197Y-95776169D01*
X140775188Y-95776172D01*
X140556493Y-95894524D01*
X140360257Y-96047261D01*
X140201230Y-96220010D01*
X140141342Y-96256001D01*
X140071504Y-96253900D01*
X140018770Y-96220010D01*
X139979108Y-96176926D01*
X139859744Y-96047262D01*
X139663509Y-95894526D01*
X139663507Y-95894525D01*
X139663506Y-95894524D01*
X139444811Y-95776172D01*
X139444802Y-95776169D01*
X139209616Y-95695429D01*
X138964335Y-95654500D01*
X138715665Y-95654500D01*
X138470383Y-95695429D01*
X138235197Y-95776169D01*
X138235188Y-95776172D01*
X138016493Y-95894524D01*
X137820257Y-96047261D01*
X137661230Y-96220010D01*
X137601342Y-96256001D01*
X137531504Y-96253900D01*
X137478770Y-96220010D01*
X137439108Y-96176926D01*
X137319744Y-96047262D01*
X137123509Y-95894526D01*
X137123507Y-95894525D01*
X137123506Y-95894524D01*
X136904811Y-95776172D01*
X136904802Y-95776169D01*
X136669616Y-95695429D01*
X136424335Y-95654500D01*
X136175665Y-95654500D01*
X135930383Y-95695429D01*
X135695197Y-95776169D01*
X135695188Y-95776172D01*
X135476493Y-95894524D01*
X135280257Y-96047261D01*
X135121230Y-96220010D01*
X135061342Y-96256001D01*
X134991504Y-96253900D01*
X134938770Y-96220010D01*
X134899108Y-96176926D01*
X134779744Y-96047262D01*
X134583509Y-95894526D01*
X134583507Y-95894525D01*
X134583506Y-95894524D01*
X134364811Y-95776172D01*
X134364802Y-95776169D01*
X134129616Y-95695429D01*
X133884335Y-95654500D01*
X133635665Y-95654500D01*
X133390383Y-95695429D01*
X133155197Y-95776169D01*
X133155188Y-95776172D01*
X132936493Y-95894524D01*
X132740257Y-96047261D01*
X132581230Y-96220010D01*
X132521342Y-96256001D01*
X132451504Y-96253900D01*
X132398770Y-96220010D01*
X132359108Y-96176926D01*
X132239744Y-96047262D01*
X132043509Y-95894526D01*
X132043507Y-95894525D01*
X132043506Y-95894524D01*
X131824811Y-95776172D01*
X131824802Y-95776169D01*
X131589616Y-95695429D01*
X131344335Y-95654500D01*
X131095665Y-95654500D01*
X130850383Y-95695429D01*
X130615197Y-95776169D01*
X130615188Y-95776172D01*
X130396493Y-95894524D01*
X130200257Y-96047261D01*
X130041230Y-96220010D01*
X129981342Y-96256001D01*
X129911504Y-96253900D01*
X129858770Y-96220010D01*
X129819108Y-96176926D01*
X129699744Y-96047262D01*
X129503509Y-95894526D01*
X129503507Y-95894525D01*
X129503506Y-95894524D01*
X129284811Y-95776172D01*
X129284802Y-95776169D01*
X129049616Y-95695429D01*
X128804335Y-95654500D01*
X128555665Y-95654500D01*
X128310383Y-95695429D01*
X128075197Y-95776169D01*
X128075188Y-95776172D01*
X127856493Y-95894524D01*
X127660257Y-96047261D01*
X127491837Y-96230213D01*
X127491829Y-96230224D01*
X127491455Y-96230797D01*
X127491242Y-96230978D01*
X127488690Y-96234258D01*
X127488014Y-96233732D01*
X127438304Y-96276147D01*
X127374865Y-96286302D01*
X127363434Y-96285116D01*
X126631132Y-97017418D01*
X126608682Y-96940960D01*
X126529395Y-96817587D01*
X126418562Y-96721549D01*
X126285161Y-96660627D01*
X126281364Y-96660081D01*
X127010057Y-95931389D01*
X126963229Y-95894943D01*
X126744614Y-95776635D01*
X126744603Y-95776630D01*
X126509493Y-95695916D01*
X126264293Y-95655000D01*
X126015707Y-95655000D01*
X125770506Y-95695916D01*
X125535396Y-95776630D01*
X125535385Y-95776635D01*
X125316771Y-95894942D01*
X125316769Y-95894943D01*
X125300662Y-95907481D01*
X125235668Y-95933123D01*
X125167128Y-95919556D01*
X125116803Y-95871088D01*
X125100500Y-95809627D01*
X125100500Y-94242888D01*
X125120185Y-94175849D01*
X125136814Y-94155212D01*
X138380208Y-80911819D01*
X138441531Y-80878334D01*
X138467889Y-80875500D01*
X153699981Y-80875500D01*
X153707652Y-80875975D01*
X153734779Y-80879357D01*
X153828035Y-80875500D01*
X153859067Y-80875500D01*
X153889990Y-80872937D01*
X153983237Y-80869081D01*
X154009982Y-80863472D01*
X154017582Y-80862364D01*
X154044821Y-80860108D01*
X154044824Y-80860107D01*
X154044826Y-80860107D01*
X154044829Y-80860106D01*
X154135288Y-80837198D01*
X154226614Y-80818049D01*
X154252077Y-80808112D01*
X154259374Y-80805774D01*
X154285881Y-80799063D01*
X154371335Y-80761579D01*
X154458274Y-80727656D01*
X154481761Y-80713659D01*
X154488581Y-80710149D01*
X154513607Y-80699173D01*
X154591720Y-80648139D01*
X154671894Y-80600366D01*
X154692754Y-80582697D01*
X154698894Y-80578117D01*
X154721785Y-80563164D01*
X154790435Y-80499966D01*
X154814126Y-80479902D01*
X154836078Y-80457949D01*
X154904738Y-80394744D01*
X154921530Y-80373167D01*
X154926604Y-80367422D01*
X157888321Y-77405705D01*
X157949642Y-77372222D01*
X158019334Y-77377206D01*
G37*
%TD.AperFunction*%
%TA.AperFunction,Conductor*%
G36*
X118838810Y-104726969D02*
G01*
X118798303Y-104864924D01*
X118798303Y-105008702D01*
X118838810Y-105146657D01*
X118864617Y-105186813D01*
X117231989Y-105186813D01*
X117257796Y-105146657D01*
X117298303Y-105008702D01*
X117298303Y-104864924D01*
X117257796Y-104726969D01*
X117231989Y-104686813D01*
X118864617Y-104686813D01*
X118838810Y-104726969D01*
G37*
%TD.AperFunction*%
%TA.AperFunction,Conductor*%
G36*
X190578039Y-69234685D02*
G01*
X190623794Y-69287489D01*
X190635000Y-69339000D01*
X190635000Y-117351000D01*
X190615315Y-117418039D01*
X190562511Y-117463794D01*
X190511000Y-117475000D01*
X114289000Y-117475000D01*
X114221961Y-117455315D01*
X114176206Y-117402511D01*
X114165000Y-117351000D01*
X114165000Y-111000000D01*
X116099564Y-111000000D01*
X116110874Y-111172567D01*
X116119287Y-111300918D01*
X116119288Y-111300930D01*
X116178118Y-111596683D01*
X116178122Y-111596698D01*
X116275053Y-111882247D01*
X116275062Y-111882268D01*
X116408431Y-112152713D01*
X116408435Y-112152720D01*
X116575973Y-112403459D01*
X116774810Y-112630189D01*
X117001540Y-112829026D01*
X117252279Y-112996564D01*
X117252286Y-112996568D01*
X117522731Y-113129937D01*
X117522736Y-113129939D01*
X117522748Y-113129945D01*
X117808309Y-113226880D01*
X118008251Y-113266651D01*
X118104069Y-113285711D01*
X118104070Y-113285711D01*
X118104080Y-113285713D01*
X118405000Y-113305436D01*
X118705920Y-113285713D01*
X119001691Y-113226880D01*
X119287252Y-113129945D01*
X119557718Y-112996566D01*
X119808461Y-112829025D01*
X120035189Y-112630189D01*
X120234025Y-112403461D01*
X120401566Y-112152718D01*
X120534945Y-111882252D01*
X120631880Y-111596691D01*
X120690713Y-111300920D01*
X120710436Y-111000000D01*
X120690713Y-110699080D01*
X120682319Y-110656883D01*
X120656767Y-110528423D01*
X120631880Y-110403309D01*
X120534945Y-110117748D01*
X120524357Y-110096278D01*
X120401568Y-109847286D01*
X120401564Y-109847279D01*
X120234026Y-109596540D01*
X120035189Y-109369810D01*
X119808459Y-109170973D01*
X119557720Y-109003435D01*
X119557713Y-109003431D01*
X119287268Y-108870062D01*
X119287247Y-108870053D01*
X119001698Y-108773122D01*
X119001692Y-108773120D01*
X119001691Y-108773120D01*
X119001689Y-108773119D01*
X119001683Y-108773118D01*
X118705930Y-108714288D01*
X118705921Y-108714287D01*
X118705920Y-108714287D01*
X118405000Y-108694564D01*
X118104080Y-108714287D01*
X118104079Y-108714287D01*
X118104069Y-108714288D01*
X117808316Y-108773118D01*
X117808301Y-108773122D01*
X117522752Y-108870053D01*
X117522731Y-108870062D01*
X117252286Y-109003431D01*
X117252279Y-109003435D01*
X117001540Y-109170973D01*
X116774810Y-109369810D01*
X116575973Y-109596540D01*
X116408435Y-109847279D01*
X116408431Y-109847286D01*
X116275062Y-110117731D01*
X116275053Y-110117752D01*
X116178122Y-110403301D01*
X116178118Y-110403316D01*
X116119288Y-110699069D01*
X116119287Y-110699079D01*
X116119287Y-110699080D01*
X116099564Y-111000000D01*
X114165000Y-111000000D01*
X114165000Y-105186813D01*
X115451895Y-105186813D01*
X115463733Y-105322128D01*
X115463735Y-105322139D01*
X115524869Y-105550296D01*
X115524873Y-105550305D01*
X115624702Y-105764390D01*
X115624703Y-105764392D01*
X115760189Y-105957886D01*
X115760194Y-105957892D01*
X115927220Y-106124918D01*
X116120724Y-106260413D01*
X116334810Y-106360242D01*
X116334819Y-106360246D01*
X116548303Y-106417447D01*
X116548303Y-105372314D01*
X116655988Y-105421493D01*
X116762540Y-105436813D01*
X116834066Y-105436813D01*
X116940618Y-105421493D01*
X117048303Y-105372314D01*
X117048303Y-106417446D01*
X117261786Y-106360246D01*
X117261795Y-106360242D01*
X117475880Y-106260413D01*
X117475882Y-106260412D01*
X117669376Y-106124926D01*
X117669382Y-106124921D01*
X117816997Y-105977307D01*
X117878320Y-105943822D01*
X117948012Y-105948806D01*
X118003945Y-105990678D01*
X118010216Y-105999891D01*
X118105983Y-106155153D01*
X118105986Y-106155157D01*
X118229957Y-106279128D01*
X118379178Y-106371169D01*
X118379183Y-106371171D01*
X118545605Y-106426318D01*
X118545612Y-106426319D01*
X118648322Y-106436812D01*
X119048302Y-106436812D01*
X119048303Y-106436811D01*
X119048303Y-105372314D01*
X119155988Y-105421493D01*
X119262540Y-105436813D01*
X119334066Y-105436813D01*
X119440618Y-105421493D01*
X119548303Y-105372314D01*
X119548303Y-106436812D01*
X119948275Y-106436812D01*
X119948289Y-106436811D01*
X120051000Y-106426318D01*
X120217422Y-106371171D01*
X120217427Y-106371169D01*
X120366648Y-106279128D01*
X120490618Y-106155158D01*
X120582659Y-106005937D01*
X120582661Y-106005932D01*
X120637808Y-105839510D01*
X120637809Y-105839503D01*
X120648302Y-105736799D01*
X120648303Y-105736786D01*
X120648303Y-105186813D01*
X119731989Y-105186813D01*
X119757796Y-105146657D01*
X119798303Y-105008702D01*
X119798303Y-104864924D01*
X119757796Y-104726969D01*
X119731989Y-104686813D01*
X120648302Y-104686813D01*
X120648302Y-104136841D01*
X120648301Y-104136826D01*
X120637808Y-104034115D01*
X120582661Y-103867693D01*
X120582659Y-103867688D01*
X120490618Y-103718467D01*
X120366648Y-103594497D01*
X120217427Y-103502456D01*
X120217422Y-103502454D01*
X120051000Y-103447307D01*
X120050993Y-103447306D01*
X119948289Y-103436813D01*
X119548303Y-103436813D01*
X119548303Y-104501311D01*
X119440618Y-104452133D01*
X119334066Y-104436813D01*
X119262540Y-104436813D01*
X119155988Y-104452133D01*
X119048302Y-104501311D01*
X119048302Y-103436813D01*
X118648331Y-103436813D01*
X118648315Y-103436814D01*
X118545605Y-103447307D01*
X118379183Y-103502454D01*
X118379178Y-103502456D01*
X118229957Y-103594497D01*
X118105986Y-103718468D01*
X118105983Y-103718472D01*
X118010216Y-103873734D01*
X117958268Y-103920459D01*
X117889306Y-103931680D01*
X117825224Y-103903837D01*
X117816997Y-103896319D01*
X117669381Y-103748704D01*
X117475881Y-103613212D01*
X117261795Y-103513383D01*
X117261789Y-103513380D01*
X117048303Y-103456177D01*
X117048303Y-104501311D01*
X116940618Y-104452133D01*
X116834066Y-104436813D01*
X116762540Y-104436813D01*
X116655988Y-104452133D01*
X116548303Y-104501311D01*
X116548303Y-103456177D01*
X116548302Y-103456177D01*
X116334816Y-103513380D01*
X116334810Y-103513383D01*
X116120725Y-103613212D01*
X116120723Y-103613213D01*
X115927229Y-103748699D01*
X115927223Y-103748704D01*
X115760194Y-103915733D01*
X115760189Y-103915739D01*
X115624703Y-104109233D01*
X115624702Y-104109235D01*
X115524873Y-104323320D01*
X115524869Y-104323329D01*
X115463735Y-104551486D01*
X115463733Y-104551497D01*
X115451895Y-104686812D01*
X115451896Y-104686813D01*
X116364617Y-104686813D01*
X116338810Y-104726969D01*
X116298303Y-104864924D01*
X116298303Y-105008702D01*
X116338810Y-105146657D01*
X116364617Y-105186813D01*
X115451895Y-105186813D01*
X114165000Y-105186813D01*
X114165000Y-91029405D01*
X117844652Y-91029405D01*
X117849224Y-91077769D01*
X117849499Y-91083606D01*
X117849500Y-99414493D01*
X117847732Y-99430504D01*
X117847974Y-99430527D01*
X117847239Y-99438294D01*
X117849499Y-99510203D01*
X117849499Y-99540928D01*
X117850418Y-99548204D01*
X117850876Y-99554023D01*
X117852402Y-99602567D01*
X117852403Y-99602570D01*
X117858323Y-99622948D01*
X117862268Y-99641996D01*
X117864928Y-99663054D01*
X117864931Y-99663064D01*
X117882813Y-99708230D01*
X117884705Y-99713758D01*
X117898254Y-99760395D01*
X117898255Y-99760397D01*
X117909060Y-99778666D01*
X117917617Y-99796134D01*
X117923226Y-99810300D01*
X117925432Y-99815872D01*
X117953983Y-99855170D01*
X117957188Y-99860049D01*
X117981919Y-99901865D01*
X117981923Y-99901869D01*
X117996925Y-99916871D01*
X118009563Y-99931669D01*
X118022033Y-99948833D01*
X118022036Y-99948836D01*
X118022037Y-99948837D01*
X118059476Y-99979809D01*
X118063776Y-99983722D01*
X120714563Y-102634509D01*
X121813181Y-103733127D01*
X121846666Y-103794450D01*
X121849500Y-103820808D01*
X121849500Y-110984493D01*
X121847732Y-111000504D01*
X121847974Y-111000527D01*
X121847239Y-111008294D01*
X121849499Y-111080203D01*
X121849499Y-111110928D01*
X121850418Y-111118204D01*
X121850876Y-111124023D01*
X121852402Y-111172567D01*
X121852403Y-111172570D01*
X121858323Y-111192948D01*
X121862268Y-111211996D01*
X121864928Y-111233054D01*
X121864931Y-111233064D01*
X121882813Y-111278230D01*
X121884705Y-111283758D01*
X121898254Y-111330395D01*
X121898255Y-111330397D01*
X121909060Y-111348666D01*
X121917617Y-111366134D01*
X121923226Y-111380300D01*
X121925432Y-111385872D01*
X121953983Y-111425170D01*
X121957188Y-111430049D01*
X121981919Y-111471865D01*
X121981923Y-111471869D01*
X121996925Y-111486871D01*
X122009563Y-111501669D01*
X122022033Y-111518833D01*
X122022036Y-111518836D01*
X122022037Y-111518837D01*
X122059476Y-111549809D01*
X122063776Y-111553722D01*
X123140243Y-112630189D01*
X123909564Y-113399510D01*
X123919635Y-113412080D01*
X123919822Y-113411926D01*
X123924796Y-113417937D01*
X123924798Y-113417940D01*
X123944254Y-113436210D01*
X123977243Y-113467190D01*
X123998967Y-113488913D01*
X124004757Y-113493405D01*
X124009197Y-113497197D01*
X124038498Y-113524711D01*
X124044607Y-113530448D01*
X124044609Y-113530449D01*
X124063205Y-113540672D01*
X124079470Y-113551357D01*
X124096232Y-113564360D01*
X124096235Y-113564361D01*
X124096236Y-113564362D01*
X124140823Y-113583656D01*
X124146059Y-113586221D01*
X124188632Y-113609627D01*
X124204340Y-113613659D01*
X124209186Y-113614904D01*
X124227598Y-113621207D01*
X124247073Y-113629635D01*
X124295071Y-113637237D01*
X124300740Y-113638411D01*
X124347823Y-113650500D01*
X124369051Y-113650500D01*
X124388448Y-113652026D01*
X124409403Y-113655345D01*
X124409404Y-113655346D01*
X124409404Y-113655345D01*
X124409405Y-113655346D01*
X124457760Y-113650775D01*
X124463599Y-113650500D01*
X128849495Y-113650500D01*
X128865505Y-113652267D01*
X128865528Y-113652026D01*
X128873289Y-113652758D01*
X128873296Y-113652760D01*
X128945203Y-113650500D01*
X128975925Y-113650500D01*
X128983190Y-113649581D01*
X128989016Y-113649122D01*
X129037569Y-113647597D01*
X129057956Y-113641673D01*
X129076996Y-113637731D01*
X129098058Y-113635071D01*
X129143235Y-113617183D01*
X129148735Y-113615300D01*
X129195398Y-113601744D01*
X129213665Y-113590939D01*
X129231136Y-113582380D01*
X129250871Y-113574568D01*
X129290177Y-113546010D01*
X129295043Y-113542813D01*
X129336865Y-113518081D01*
X129351870Y-113503075D01*
X129366668Y-113490436D01*
X129383837Y-113477963D01*
X129414809Y-113440522D01*
X129418723Y-113436221D01*
X130574511Y-112280432D01*
X130587086Y-112270359D01*
X130586931Y-112270172D01*
X130592933Y-112265205D01*
X130592940Y-112265202D01*
X130642205Y-112212739D01*
X130663911Y-112191034D01*
X130668403Y-112185241D01*
X130672193Y-112180805D01*
X130698567Y-112152720D01*
X130705448Y-112145393D01*
X130715670Y-112126796D01*
X130726355Y-112110531D01*
X130739363Y-112093763D01*
X130758651Y-112049187D01*
X130761224Y-112043936D01*
X130761561Y-112043321D01*
X130784627Y-112001368D01*
X130789904Y-111980808D01*
X130796206Y-111962403D01*
X130804636Y-111942926D01*
X130812235Y-111894945D01*
X130813417Y-111889234D01*
X130825500Y-111842177D01*
X130825500Y-111820954D01*
X130827027Y-111801555D01*
X130830347Y-111780595D01*
X130825775Y-111732230D01*
X130825500Y-111726392D01*
X130825500Y-110995526D01*
X130845185Y-110928487D01*
X130878375Y-110893952D01*
X130984457Y-110819674D01*
X131139674Y-110664457D01*
X131265579Y-110484646D01*
X131332893Y-110340288D01*
X131379065Y-110287849D01*
X131446258Y-110268697D01*
X131513139Y-110288912D01*
X131557657Y-110340288D01*
X131624855Y-110484393D01*
X131624856Y-110484395D01*
X131669002Y-110547442D01*
X131669003Y-110547443D01*
X132231922Y-109984522D01*
X132255507Y-110064844D01*
X132333239Y-110185798D01*
X132441900Y-110279952D01*
X132572685Y-110339680D01*
X132582466Y-110341086D01*
X132022555Y-110900996D01*
X132085604Y-110945143D01*
X132085606Y-110945144D01*
X132284466Y-111037875D01*
X132284475Y-111037878D01*
X132496407Y-111094664D01*
X132496417Y-111094666D01*
X132714999Y-111113790D01*
X132715001Y-111113790D01*
X132933582Y-111094666D01*
X132933592Y-111094664D01*
X133145524Y-111037878D01*
X133145533Y-111037874D01*
X133344392Y-110945145D01*
X133407443Y-110900996D01*
X132847534Y-110341086D01*
X132857315Y-110339680D01*
X132988100Y-110279952D01*
X133096761Y-110185798D01*
X133174493Y-110064844D01*
X133198076Y-109984523D01*
X133760996Y-110547443D01*
X133805146Y-110484390D01*
X133872342Y-110340289D01*
X133918514Y-110287849D01*
X133985707Y-110268697D01*
X134052589Y-110288913D01*
X134097106Y-110340288D01*
X134164421Y-110484646D01*
X134164423Y-110484650D01*
X134290322Y-110664452D01*
X134290326Y-110664457D01*
X134445543Y-110819674D01*
X134445545Y-110819675D01*
X134445547Y-110819677D01*
X134625349Y-110945576D01*
X134625351Y-110945577D01*
X134625354Y-110945579D01*
X134824297Y-111038347D01*
X135036326Y-111095161D01*
X135192521Y-111108825D01*
X135254998Y-111114292D01*
X135255000Y-111114292D01*
X135255002Y-111114292D01*
X135309797Y-111109498D01*
X135473674Y-111095161D01*
X135685703Y-111038347D01*
X135884646Y-110945579D01*
X136064457Y-110819674D01*
X136219674Y-110664457D01*
X136345579Y-110484646D01*
X136412618Y-110340878D01*
X136458790Y-110288439D01*
X136525983Y-110269287D01*
X136592864Y-110289502D01*
X136637381Y-110340878D01*
X136668108Y-110406771D01*
X136704419Y-110484642D01*
X136704423Y-110484650D01*
X136830322Y-110664452D01*
X136830326Y-110664457D01*
X136985543Y-110819674D01*
X136985545Y-110819675D01*
X136985547Y-110819677D01*
X137165349Y-110945576D01*
X137165351Y-110945577D01*
X137165354Y-110945579D01*
X137364297Y-111038347D01*
X137576326Y-111095161D01*
X137732521Y-111108826D01*
X137794998Y-111114292D01*
X137795000Y-111114292D01*
X137795002Y-111114292D01*
X137849797Y-111109498D01*
X138013674Y-111095161D01*
X138225703Y-111038347D01*
X138424646Y-110945579D01*
X138604457Y-110819674D01*
X138759674Y-110664457D01*
X138885579Y-110484646D01*
X138952893Y-110340288D01*
X138999065Y-110287849D01*
X139066258Y-110268697D01*
X139133139Y-110288912D01*
X139177657Y-110340288D01*
X139244855Y-110484393D01*
X139244856Y-110484395D01*
X139289002Y-110547442D01*
X139289003Y-110547443D01*
X139851922Y-109984523D01*
X139875507Y-110064844D01*
X139953239Y-110185798D01*
X140061900Y-110279952D01*
X140192685Y-110339680D01*
X140202466Y-110341086D01*
X139642555Y-110900996D01*
X139705604Y-110945143D01*
X139705606Y-110945144D01*
X139904466Y-111037875D01*
X139904475Y-111037878D01*
X140116407Y-111094664D01*
X140116417Y-111094666D01*
X140334999Y-111113790D01*
X140335001Y-111113790D01*
X140553582Y-111094666D01*
X140553592Y-111094664D01*
X140765524Y-111037878D01*
X140765533Y-111037874D01*
X140964392Y-110945145D01*
X141027443Y-110900996D01*
X140467534Y-110341086D01*
X140477315Y-110339680D01*
X140608100Y-110279952D01*
X140716761Y-110185798D01*
X140794493Y-110064844D01*
X140818076Y-109984523D01*
X141380996Y-110547443D01*
X141425146Y-110484390D01*
X141492342Y-110340289D01*
X141538514Y-110287849D01*
X141605707Y-110268697D01*
X141672589Y-110288913D01*
X141717106Y-110340288D01*
X141784421Y-110484646D01*
X141784423Y-110484650D01*
X141910322Y-110664452D01*
X141910326Y-110664457D01*
X142065543Y-110819674D01*
X142065545Y-110819675D01*
X142065547Y-110819677D01*
X142245349Y-110945576D01*
X142245351Y-110945577D01*
X142245354Y-110945579D01*
X142444297Y-111038347D01*
X142656326Y-111095161D01*
X142812521Y-111108826D01*
X142874998Y-111114292D01*
X142875000Y-111114292D01*
X142875002Y-111114292D01*
X142929797Y-111109498D01*
X143093674Y-111095161D01*
X143305703Y-111038347D01*
X143504646Y-110945579D01*
X143684457Y-110819674D01*
X143839674Y-110664457D01*
X143965579Y-110484646D01*
X144032618Y-110340878D01*
X144078790Y-110288439D01*
X144145983Y-110269287D01*
X144212864Y-110289502D01*
X144257381Y-110340878D01*
X144288108Y-110406771D01*
X144324419Y-110484642D01*
X144324423Y-110484650D01*
X144450322Y-110664452D01*
X144450326Y-110664457D01*
X144605543Y-110819674D01*
X144605545Y-110819675D01*
X144605547Y-110819677D01*
X144785349Y-110945576D01*
X144785351Y-110945577D01*
X144785354Y-110945579D01*
X144984297Y-111038347D01*
X145196326Y-111095161D01*
X145352521Y-111108825D01*
X145414998Y-111114292D01*
X145415000Y-111114292D01*
X145415002Y-111114292D01*
X145469797Y-111109498D01*
X145633674Y-111095161D01*
X145845703Y-111038347D01*
X146044646Y-110945579D01*
X146224457Y-110819674D01*
X146379674Y-110664457D01*
X146505579Y-110484646D01*
X146572618Y-110340878D01*
X146618790Y-110288439D01*
X146685983Y-110269287D01*
X146752864Y-110289502D01*
X146797381Y-110340878D01*
X146828108Y-110406771D01*
X146864419Y-110484642D01*
X146864423Y-110484650D01*
X146990322Y-110664452D01*
X146990326Y-110664457D01*
X147145543Y-110819674D01*
X147145545Y-110819675D01*
X147145547Y-110819677D01*
X147325349Y-110945576D01*
X147325351Y-110945577D01*
X147325354Y-110945579D01*
X147524297Y-111038347D01*
X147736326Y-111095161D01*
X147892521Y-111108826D01*
X147954998Y-111114292D01*
X147955000Y-111114292D01*
X147955002Y-111114292D01*
X148009797Y-111109498D01*
X148173674Y-111095161D01*
X148385703Y-111038347D01*
X148584646Y-110945579D01*
X148764457Y-110819674D01*
X148919674Y-110664457D01*
X149045579Y-110484646D01*
X149112618Y-110340878D01*
X149158790Y-110288439D01*
X149225983Y-110269287D01*
X149292864Y-110289502D01*
X149337381Y-110340878D01*
X149368108Y-110406771D01*
X149404419Y-110484642D01*
X149404423Y-110484650D01*
X149530322Y-110664452D01*
X149530326Y-110664457D01*
X149685543Y-110819674D01*
X149685545Y-110819675D01*
X149685547Y-110819677D01*
X149865349Y-110945576D01*
X149865351Y-110945577D01*
X149865354Y-110945579D01*
X150064297Y-111038347D01*
X150276326Y-111095161D01*
X150432521Y-111108826D01*
X150494998Y-111114292D01*
X150495000Y-111114292D01*
X150495002Y-111114292D01*
X150549797Y-111109498D01*
X150713674Y-111095161D01*
X150925703Y-111038347D01*
X151124646Y-110945579D01*
X151304457Y-110819674D01*
X151459674Y-110664457D01*
X151585579Y-110484646D01*
X151652893Y-110340288D01*
X151699065Y-110287849D01*
X151766258Y-110268697D01*
X151833139Y-110288912D01*
X151877657Y-110340288D01*
X151944855Y-110484393D01*
X151944856Y-110484395D01*
X151989002Y-110547442D01*
X151989003Y-110547443D01*
X152551922Y-109984523D01*
X152575507Y-110064844D01*
X152653239Y-110185798D01*
X152761900Y-110279952D01*
X152892685Y-110339680D01*
X152902466Y-110341086D01*
X152342555Y-110900996D01*
X152405604Y-110945143D01*
X152405606Y-110945144D01*
X152604466Y-111037875D01*
X152604475Y-111037878D01*
X152816407Y-111094664D01*
X152816417Y-111094666D01*
X153034999Y-111113790D01*
X153035001Y-111113790D01*
X153253582Y-111094666D01*
X153253592Y-111094664D01*
X153465524Y-111037878D01*
X153465533Y-111037874D01*
X153664392Y-110945145D01*
X153727443Y-110900996D01*
X153167534Y-110341086D01*
X153177315Y-110339680D01*
X153308100Y-110279952D01*
X153416761Y-110185798D01*
X153494493Y-110064844D01*
X153518076Y-109984523D01*
X154080996Y-110547443D01*
X154125146Y-110484390D01*
X154192342Y-110340289D01*
X154238514Y-110287849D01*
X154305707Y-110268697D01*
X154372589Y-110288913D01*
X154417106Y-110340288D01*
X154484421Y-110484646D01*
X154484423Y-110484650D01*
X154610322Y-110664452D01*
X154610326Y-110664457D01*
X154765543Y-110819674D01*
X154765545Y-110819675D01*
X154765547Y-110819677D01*
X154945349Y-110945576D01*
X154945351Y-110945577D01*
X154945354Y-110945579D01*
X155144297Y-111038347D01*
X155356326Y-111095161D01*
X155512521Y-111108825D01*
X155574998Y-111114292D01*
X155575000Y-111114292D01*
X155575002Y-111114292D01*
X155629797Y-111109498D01*
X155793674Y-111095161D01*
X156005703Y-111038347D01*
X156204646Y-110945579D01*
X156384457Y-110819674D01*
X156539674Y-110664457D01*
X156665579Y-110484646D01*
X156732618Y-110340878D01*
X156778790Y-110288439D01*
X156845983Y-110269287D01*
X156912864Y-110289502D01*
X156957381Y-110340878D01*
X156988108Y-110406771D01*
X157024419Y-110484642D01*
X157024423Y-110484650D01*
X157150322Y-110664452D01*
X157150326Y-110664457D01*
X157305543Y-110819674D01*
X157305545Y-110819675D01*
X157305547Y-110819677D01*
X157485349Y-110945576D01*
X157485351Y-110945577D01*
X157485354Y-110945579D01*
X157684297Y-111038347D01*
X157896326Y-111095161D01*
X158052521Y-111108826D01*
X158114998Y-111114292D01*
X158115000Y-111114292D01*
X158115002Y-111114292D01*
X158169797Y-111109498D01*
X158333674Y-111095161D01*
X158545703Y-111038347D01*
X158744646Y-110945579D01*
X158924457Y-110819674D01*
X159079674Y-110664457D01*
X159205579Y-110484646D01*
X159272618Y-110340878D01*
X159318790Y-110288439D01*
X159385983Y-110269287D01*
X159452864Y-110289502D01*
X159497381Y-110340878D01*
X159528108Y-110406771D01*
X159564419Y-110484642D01*
X159564423Y-110484650D01*
X159690322Y-110664452D01*
X159690326Y-110664457D01*
X159845543Y-110819674D01*
X159845545Y-110819675D01*
X159845547Y-110819677D01*
X160025349Y-110945576D01*
X160025351Y-110945577D01*
X160025354Y-110945579D01*
X160224297Y-111038347D01*
X160436326Y-111095161D01*
X160592521Y-111108826D01*
X160654998Y-111114292D01*
X160655000Y-111114292D01*
X160655002Y-111114292D01*
X160709797Y-111109498D01*
X160873674Y-111095161D01*
X161085703Y-111038347D01*
X161284646Y-110945579D01*
X161464457Y-110819674D01*
X161619674Y-110664457D01*
X161745579Y-110484646D01*
X161812618Y-110340878D01*
X161858790Y-110288439D01*
X161925983Y-110269287D01*
X161992864Y-110289502D01*
X162037381Y-110340878D01*
X162068108Y-110406771D01*
X162104419Y-110484642D01*
X162104423Y-110484650D01*
X162230322Y-110664452D01*
X162230326Y-110664457D01*
X162385543Y-110819674D01*
X162385545Y-110819675D01*
X162385547Y-110819677D01*
X162565349Y-110945576D01*
X162565351Y-110945577D01*
X162565354Y-110945579D01*
X162764297Y-111038347D01*
X162976326Y-111095161D01*
X163132521Y-111108826D01*
X163194998Y-111114292D01*
X163195000Y-111114292D01*
X163195002Y-111114292D01*
X163249797Y-111109498D01*
X163413674Y-111095161D01*
X163625703Y-111038347D01*
X163824646Y-110945579D01*
X164004457Y-110819674D01*
X164159674Y-110664457D01*
X164285579Y-110484646D01*
X164352893Y-110340288D01*
X164399065Y-110287849D01*
X164466258Y-110268697D01*
X164533139Y-110288912D01*
X164577657Y-110340288D01*
X164644855Y-110484393D01*
X164644856Y-110484395D01*
X164689002Y-110547442D01*
X164689003Y-110547443D01*
X165251922Y-109984523D01*
X165275507Y-110064844D01*
X165353239Y-110185798D01*
X165461900Y-110279952D01*
X165592685Y-110339680D01*
X165602466Y-110341086D01*
X165042555Y-110900996D01*
X165105604Y-110945143D01*
X165105606Y-110945144D01*
X165304466Y-111037875D01*
X165304475Y-111037878D01*
X165516407Y-111094664D01*
X165516417Y-111094666D01*
X165734999Y-111113790D01*
X165735001Y-111113790D01*
X165953582Y-111094666D01*
X165953592Y-111094664D01*
X166165524Y-111037878D01*
X166165533Y-111037874D01*
X166364392Y-110945145D01*
X166427443Y-110900996D01*
X165867534Y-110341086D01*
X165877315Y-110339680D01*
X166008100Y-110279952D01*
X166116761Y-110185798D01*
X166194493Y-110064844D01*
X166218076Y-109984523D01*
X166780996Y-110547443D01*
X166825146Y-110484390D01*
X166892342Y-110340289D01*
X166938514Y-110287849D01*
X167005707Y-110268697D01*
X167072589Y-110288913D01*
X167117106Y-110340288D01*
X167184421Y-110484646D01*
X167184423Y-110484650D01*
X167310322Y-110664452D01*
X167310326Y-110664457D01*
X167465543Y-110819674D01*
X167465545Y-110819675D01*
X167465547Y-110819677D01*
X167645349Y-110945576D01*
X167645351Y-110945577D01*
X167645354Y-110945579D01*
X167844297Y-111038347D01*
X168056326Y-111095161D01*
X168212521Y-111108826D01*
X168274998Y-111114292D01*
X168275000Y-111114292D01*
X168275002Y-111114292D01*
X168329797Y-111109498D01*
X168493674Y-111095161D01*
X168705703Y-111038347D01*
X168904646Y-110945579D01*
X169084457Y-110819674D01*
X169239674Y-110664457D01*
X169365579Y-110484646D01*
X169432618Y-110340878D01*
X169478790Y-110288439D01*
X169545983Y-110269287D01*
X169612864Y-110289502D01*
X169657381Y-110340878D01*
X169688108Y-110406771D01*
X169724419Y-110484642D01*
X169724423Y-110484650D01*
X169850322Y-110664452D01*
X169850326Y-110664457D01*
X170005543Y-110819674D01*
X170005545Y-110819675D01*
X170005547Y-110819677D01*
X170185349Y-110945576D01*
X170185351Y-110945577D01*
X170185354Y-110945579D01*
X170384297Y-111038347D01*
X170596326Y-111095161D01*
X170752521Y-111108826D01*
X170814998Y-111114292D01*
X170815000Y-111114292D01*
X170815002Y-111114292D01*
X170869797Y-111109498D01*
X171033674Y-111095161D01*
X171245703Y-111038347D01*
X171444646Y-110945579D01*
X171624457Y-110819674D01*
X171779674Y-110664457D01*
X171905579Y-110484646D01*
X171972893Y-110340288D01*
X172019065Y-110287849D01*
X172086258Y-110268697D01*
X172153139Y-110288912D01*
X172197657Y-110340288D01*
X172264855Y-110484393D01*
X172264856Y-110484395D01*
X172309002Y-110547442D01*
X172309003Y-110547443D01*
X172871922Y-109984523D01*
X172895507Y-110064844D01*
X172973239Y-110185798D01*
X173081900Y-110279952D01*
X173212685Y-110339680D01*
X173222466Y-110341086D01*
X172662555Y-110900996D01*
X172725604Y-110945143D01*
X172725606Y-110945144D01*
X172924466Y-111037875D01*
X172924475Y-111037878D01*
X173136407Y-111094664D01*
X173136417Y-111094666D01*
X173354999Y-111113790D01*
X173355001Y-111113790D01*
X173573582Y-111094666D01*
X173573592Y-111094664D01*
X173785524Y-111037878D01*
X173785533Y-111037874D01*
X173984392Y-110945145D01*
X174047443Y-110900996D01*
X173487534Y-110341086D01*
X173497315Y-110339680D01*
X173628100Y-110279952D01*
X173736761Y-110185798D01*
X173814493Y-110064844D01*
X173838076Y-109984523D01*
X174400996Y-110547443D01*
X174445146Y-110484390D01*
X174512342Y-110340289D01*
X174558514Y-110287849D01*
X174625707Y-110268697D01*
X174692589Y-110288913D01*
X174737106Y-110340288D01*
X174804421Y-110484646D01*
X174804423Y-110484650D01*
X174930322Y-110664452D01*
X174930326Y-110664457D01*
X175085543Y-110819674D01*
X175085545Y-110819675D01*
X175085547Y-110819677D01*
X175265349Y-110945576D01*
X175265351Y-110945577D01*
X175265354Y-110945579D01*
X175464297Y-111038347D01*
X175676326Y-111095161D01*
X175832521Y-111108825D01*
X175894998Y-111114292D01*
X175895000Y-111114292D01*
X175895002Y-111114292D01*
X175949797Y-111109498D01*
X176113674Y-111095161D01*
X176325703Y-111038347D01*
X176524646Y-110945579D01*
X176704457Y-110819674D01*
X176859674Y-110664457D01*
X176954927Y-110528421D01*
X177009501Y-110484798D01*
X177079000Y-110477604D01*
X177141355Y-110509126D01*
X177176769Y-110569356D01*
X177180500Y-110599544D01*
X177180500Y-110656869D01*
X177180501Y-110656876D01*
X177186908Y-110716483D01*
X177237202Y-110851328D01*
X177237206Y-110851335D01*
X177323452Y-110966544D01*
X177323455Y-110966547D01*
X177438664Y-111052793D01*
X177438671Y-111052797D01*
X177573517Y-111103091D01*
X177573516Y-111103091D01*
X177580444Y-111103835D01*
X177633127Y-111109500D01*
X179236872Y-111109499D01*
X179296483Y-111103091D01*
X179431331Y-111052796D01*
X179546546Y-110966546D01*
X179632796Y-110851331D01*
X179683091Y-110716483D01*
X179689500Y-110656873D01*
X179689500Y-110096283D01*
X181357299Y-110096283D01*
X181377825Y-110344007D01*
X181377827Y-110344016D01*
X181438852Y-110584995D01*
X181538706Y-110812642D01*
X181639004Y-110966160D01*
X182350548Y-110254616D01*
X182355113Y-110276582D01*
X182422571Y-110406771D01*
X182522653Y-110513933D01*
X182647935Y-110590118D01*
X182705909Y-110606361D01*
X181992382Y-111319887D01*
X182039208Y-111356333D01*
X182039210Y-111356334D01*
X182257825Y-111474642D01*
X182257836Y-111474647D01*
X182492946Y-111555361D01*
X182738147Y-111596278D01*
X182986733Y-111596278D01*
X183231933Y-111555361D01*
X183467043Y-111474647D01*
X183467054Y-111474642D01*
X183685668Y-111356335D01*
X183685671Y-111356333D01*
X183732496Y-111319887D01*
X183021390Y-110608781D01*
X183142192Y-110556310D01*
X183255933Y-110463775D01*
X183340491Y-110343984D01*
X183372797Y-110253083D01*
X184085874Y-110966160D01*
X184186171Y-110812647D01*
X184286027Y-110584995D01*
X184347052Y-110344016D01*
X184347054Y-110344007D01*
X184367581Y-110096283D01*
X184367581Y-110096272D01*
X184347054Y-109848548D01*
X184347052Y-109848539D01*
X184286027Y-109607560D01*
X184186171Y-109379908D01*
X184085874Y-109226394D01*
X183374331Y-109937938D01*
X183369767Y-109915974D01*
X183302309Y-109785785D01*
X183202227Y-109678623D01*
X183076945Y-109602438D01*
X183018971Y-109586194D01*
X183732497Y-108872668D01*
X183732496Y-108872667D01*
X183685669Y-108836221D01*
X183467054Y-108717913D01*
X183467043Y-108717908D01*
X183231933Y-108637194D01*
X182986733Y-108596278D01*
X182738147Y-108596278D01*
X182492946Y-108637194D01*
X182257836Y-108717908D01*
X182257830Y-108717910D01*
X182039201Y-108836227D01*
X181992382Y-108872666D01*
X181992382Y-108872668D01*
X182703489Y-109583774D01*
X182582688Y-109636246D01*
X182468947Y-109728781D01*
X182384389Y-109848572D01*
X182352082Y-109939472D01*
X181639004Y-109226394D01*
X181538707Y-109379910D01*
X181438852Y-109607560D01*
X181377827Y-109848539D01*
X181377825Y-109848548D01*
X181357299Y-110096272D01*
X181357299Y-110096283D01*
X179689500Y-110096283D01*
X179689499Y-109053128D01*
X179683091Y-108993517D01*
X179644603Y-108890326D01*
X179632797Y-108858671D01*
X179632793Y-108858664D01*
X179546547Y-108743455D01*
X179546544Y-108743452D01*
X179431335Y-108657206D01*
X179431328Y-108657202D01*
X179296482Y-108606908D01*
X179296483Y-108606908D01*
X179236883Y-108600501D01*
X179236881Y-108600500D01*
X179236873Y-108600500D01*
X179236865Y-108600500D01*
X179209500Y-108600500D01*
X179142461Y-108580815D01*
X179096706Y-108528011D01*
X179085500Y-108476500D01*
X179085500Y-106153499D01*
X179105185Y-106086460D01*
X179157989Y-106040705D01*
X179209500Y-106029499D01*
X179236871Y-106029499D01*
X179236872Y-106029499D01*
X179296483Y-106023091D01*
X179431331Y-105972796D01*
X179546546Y-105886546D01*
X179632796Y-105771331D01*
X179683091Y-105636483D01*
X179689500Y-105576873D01*
X179689499Y-103973128D01*
X179683091Y-103913517D01*
X179679320Y-103903407D01*
X179632797Y-103778671D01*
X179632793Y-103778664D01*
X179546547Y-103663455D01*
X179546544Y-103663452D01*
X179431335Y-103577206D01*
X179431328Y-103577202D01*
X179296482Y-103526908D01*
X179296483Y-103526908D01*
X179236883Y-103520501D01*
X179236881Y-103520500D01*
X179236873Y-103520500D01*
X179236865Y-103520500D01*
X179209500Y-103520500D01*
X179142461Y-103500815D01*
X179096706Y-103448011D01*
X179085500Y-103396500D01*
X179085500Y-103273001D01*
X179087268Y-103256988D01*
X179087026Y-103256966D01*
X179087758Y-103249210D01*
X179087760Y-103249203D01*
X179085500Y-103177296D01*
X179085500Y-103146575D01*
X179084579Y-103139288D01*
X179084122Y-103133479D01*
X179082597Y-103084931D01*
X179076676Y-103064553D01*
X179072731Y-103045504D01*
X179070071Y-103024442D01*
X179052186Y-102979271D01*
X179050298Y-102973754D01*
X179036744Y-102927102D01*
X179036744Y-102927101D01*
X179025939Y-102908832D01*
X179017379Y-102891358D01*
X179015664Y-102887027D01*
X179009568Y-102871629D01*
X178981014Y-102832328D01*
X178977810Y-102827450D01*
X178973295Y-102819816D01*
X178953081Y-102785635D01*
X178938074Y-102770629D01*
X178925435Y-102755830D01*
X178912961Y-102738660D01*
X178875528Y-102707694D01*
X178871206Y-102703760D01*
X174192934Y-98025488D01*
X174182861Y-98012914D01*
X174182674Y-98013070D01*
X174177701Y-98007059D01*
X174125256Y-97957810D01*
X174103535Y-97936089D01*
X174097740Y-97931594D01*
X174093298Y-97927799D01*
X174057896Y-97894554D01*
X174057888Y-97894548D01*
X174039292Y-97884325D01*
X174023031Y-97873644D01*
X174006263Y-97860637D01*
X173982795Y-97850482D01*
X173961678Y-97841343D01*
X173956456Y-97838786D01*
X173913868Y-97815373D01*
X173913865Y-97815372D01*
X173893301Y-97810092D01*
X173874896Y-97803790D01*
X173855427Y-97795365D01*
X173855421Y-97795363D01*
X173807451Y-97787766D01*
X173801736Y-97786582D01*
X173785272Y-97782355D01*
X173754680Y-97774500D01*
X173754677Y-97774500D01*
X173733455Y-97774500D01*
X173714055Y-97772973D01*
X173693096Y-97769653D01*
X173693095Y-97769653D01*
X173669286Y-97771903D01*
X173644730Y-97774225D01*
X173638892Y-97774500D01*
X167833808Y-97774500D01*
X167766769Y-97754815D01*
X167746127Y-97738181D01*
X163454627Y-93446681D01*
X163421142Y-93385358D01*
X163426126Y-93315666D01*
X163467998Y-93259733D01*
X163533462Y-93235316D01*
X163542308Y-93235000D01*
X164590000Y-93235000D01*
X164590000Y-92272870D01*
X167409500Y-92272870D01*
X167409501Y-92272876D01*
X167415908Y-92332483D01*
X167466202Y-92467328D01*
X167466206Y-92467335D01*
X167552452Y-92582544D01*
X167552455Y-92582547D01*
X167667664Y-92668793D01*
X167667671Y-92668797D01*
X167802517Y-92719091D01*
X167802516Y-92719091D01*
X167809444Y-92719835D01*
X167862127Y-92725500D01*
X168845177Y-92725499D01*
X168845203Y-92725500D01*
X168847933Y-92725500D01*
X170402127Y-92725500D01*
X172018275Y-92725500D01*
X172085314Y-92745185D01*
X172105956Y-92761819D01*
X185279492Y-105935356D01*
X185342700Y-106004017D01*
X185416337Y-106061332D01*
X185416338Y-106061332D01*
X185487549Y-106121644D01*
X185511027Y-106135634D01*
X185517371Y-106139969D01*
X185538930Y-106156749D01*
X185538935Y-106156753D01*
X185566352Y-106171590D01*
X185621012Y-106201170D01*
X185701170Y-106248934D01*
X185726624Y-106258865D01*
X185733590Y-106262094D01*
X185757633Y-106275106D01*
X185757636Y-106275107D01*
X185757638Y-106275108D01*
X185783471Y-106283976D01*
X185845901Y-106305408D01*
X185932829Y-106339328D01*
X185959579Y-106344936D01*
X185966972Y-106346972D01*
X185991757Y-106355481D01*
X185992826Y-106355848D01*
X185992833Y-106355850D01*
X186076889Y-106369875D01*
X186084866Y-106371206D01*
X186176206Y-106390359D01*
X186203513Y-106391487D01*
X186211148Y-106392278D01*
X186228997Y-106395257D01*
X186238100Y-106396777D01*
X186238103Y-106396777D01*
X186238108Y-106396778D01*
X186238113Y-106396778D01*
X186331408Y-106396778D01*
X186424664Y-106400635D01*
X186451790Y-106397253D01*
X186459462Y-106396778D01*
X186486773Y-106396778D01*
X186486778Y-106396778D01*
X186578804Y-106381421D01*
X186671424Y-106369877D01*
X186679143Y-106367578D01*
X186697612Y-106362080D01*
X186705109Y-106360345D01*
X186713001Y-106359028D01*
X186732057Y-106355849D01*
X186820311Y-106325551D01*
X186909757Y-106298922D01*
X186934307Y-106286919D01*
X186941401Y-106283980D01*
X186967253Y-106275106D01*
X186991290Y-106262098D01*
X187049320Y-106230693D01*
X187049319Y-106230692D01*
X187133159Y-106189707D01*
X187155406Y-106173821D01*
X187161907Y-106169763D01*
X187185952Y-106156752D01*
X187259597Y-106099431D01*
X187335539Y-106045210D01*
X187354857Y-106025891D01*
X187360623Y-106020799D01*
X187367867Y-106015161D01*
X187382187Y-106004016D01*
X187424228Y-105958347D01*
X187445393Y-105935356D01*
X187478382Y-105902365D01*
X187511375Y-105869374D01*
X187527254Y-105847132D01*
X187532095Y-105841171D01*
X187550607Y-105821063D01*
X187601643Y-105742944D01*
X187655872Y-105666994D01*
X187667879Y-105642431D01*
X187671673Y-105635755D01*
X187686616Y-105612885D01*
X187699086Y-105584457D01*
X187724092Y-105527447D01*
X187742714Y-105489356D01*
X187765087Y-105443592D01*
X187772886Y-105417394D01*
X187775529Y-105410183D01*
X187786506Y-105385159D01*
X187809409Y-105294716D01*
X187836042Y-105205259D01*
X187839422Y-105178134D01*
X187840843Y-105170583D01*
X187847551Y-105144099D01*
X187855256Y-105051110D01*
X187866800Y-104958499D01*
X187865670Y-104931190D01*
X187865828Y-104923511D01*
X187868086Y-104896278D01*
X187860380Y-104803287D01*
X187856524Y-104710041D01*
X187853581Y-104696005D01*
X187850916Y-104683294D01*
X187849807Y-104675684D01*
X187847552Y-104648465D01*
X187847550Y-104648454D01*
X187824645Y-104558004D01*
X187823281Y-104551497D01*
X187805493Y-104466664D01*
X187795555Y-104441198D01*
X187793217Y-104433901D01*
X187786506Y-104407397D01*
X187749023Y-104321945D01*
X187715099Y-104235005D01*
X187701108Y-104211526D01*
X187697593Y-104204696D01*
X187686616Y-104179671D01*
X187669315Y-104153190D01*
X187635580Y-104101553D01*
X187613986Y-104065315D01*
X187587809Y-104021384D01*
X187570145Y-104000528D01*
X187565549Y-103994364D01*
X187550609Y-103971496D01*
X187550608Y-103971495D01*
X187550607Y-103971493D01*
X187487409Y-103902842D01*
X187467345Y-103879152D01*
X187458775Y-103870582D01*
X187445393Y-103857199D01*
X187382190Y-103788543D01*
X187382189Y-103788542D01*
X187382187Y-103788540D01*
X187360617Y-103771751D01*
X187354855Y-103766662D01*
X182638198Y-99050005D01*
X184549357Y-99050005D01*
X184569890Y-99297812D01*
X184569892Y-99297824D01*
X184630936Y-99538881D01*
X184730826Y-99766606D01*
X184866833Y-99974782D01*
X184875073Y-99983733D01*
X185035256Y-100157738D01*
X185231491Y-100310474D01*
X185450190Y-100428828D01*
X185685386Y-100509571D01*
X185930665Y-100550500D01*
X186179335Y-100550500D01*
X186424614Y-100509571D01*
X186659810Y-100428828D01*
X186878509Y-100310474D01*
X187074744Y-100157738D01*
X187243164Y-99974785D01*
X187379173Y-99766607D01*
X187479063Y-99538881D01*
X187540108Y-99297821D01*
X187540302Y-99295488D01*
X187553961Y-99130637D01*
X187560643Y-99050000D01*
X187545724Y-98869951D01*
X187540109Y-98802187D01*
X187540107Y-98802175D01*
X187479063Y-98561118D01*
X187379173Y-98333393D01*
X187243166Y-98125217D01*
X187201338Y-98079780D01*
X187074744Y-97942262D01*
X186991991Y-97877852D01*
X186951179Y-97821143D01*
X186947504Y-97751370D01*
X186982136Y-97690687D01*
X186991985Y-97682151D01*
X187074744Y-97617738D01*
X187243164Y-97434785D01*
X187379173Y-97226607D01*
X187479063Y-96998881D01*
X187540108Y-96757821D01*
X187560643Y-96510000D01*
X187542009Y-96285116D01*
X187540109Y-96262187D01*
X187540107Y-96262175D01*
X187479063Y-96021118D01*
X187379173Y-95793393D01*
X187243166Y-95585217D01*
X187221557Y-95561744D01*
X187074744Y-95402262D01*
X186991991Y-95337852D01*
X186951179Y-95281143D01*
X186947504Y-95211370D01*
X186982136Y-95150687D01*
X186991985Y-95142151D01*
X187074744Y-95077738D01*
X187243164Y-94894785D01*
X187379173Y-94686607D01*
X187479063Y-94458881D01*
X187540108Y-94217821D01*
X187560643Y-93970000D01*
X187540108Y-93722179D01*
X187525163Y-93663164D01*
X187479063Y-93481118D01*
X187379173Y-93253393D01*
X187243166Y-93045217D01*
X187197548Y-92995663D01*
X187074744Y-92862262D01*
X186991991Y-92797852D01*
X186951179Y-92741143D01*
X186947504Y-92671370D01*
X186982136Y-92610687D01*
X186991985Y-92602151D01*
X187074744Y-92537738D01*
X187243164Y-92354785D01*
X187379173Y-92146607D01*
X187479063Y-91918881D01*
X187540108Y-91677821D01*
X187541249Y-91664058D01*
X187548113Y-91581213D01*
X187560643Y-91430000D01*
X187543657Y-91225005D01*
X187540109Y-91182187D01*
X187540107Y-91182175D01*
X187479063Y-90941118D01*
X187379173Y-90713393D01*
X187243166Y-90505217D01*
X187222860Y-90483159D01*
X187074744Y-90322262D01*
X187047525Y-90301077D01*
X186991991Y-90257852D01*
X186951178Y-90201141D01*
X186947505Y-90131368D01*
X186982136Y-90070685D01*
X186991974Y-90062160D01*
X187074744Y-89997738D01*
X187243164Y-89814785D01*
X187379173Y-89606607D01*
X187479063Y-89378881D01*
X187540108Y-89137821D01*
X187560643Y-88890000D01*
X187540108Y-88642179D01*
X187479063Y-88401119D01*
X187379173Y-88173393D01*
X187379172Y-88173393D01*
X187243166Y-87965217D01*
X187176796Y-87893120D01*
X187074744Y-87782262D01*
X186991991Y-87717852D01*
X186951179Y-87661143D01*
X186947504Y-87591370D01*
X186982136Y-87530687D01*
X186991985Y-87522151D01*
X187074744Y-87457738D01*
X187243164Y-87274785D01*
X187379173Y-87066607D01*
X187479063Y-86838881D01*
X187540108Y-86597821D01*
X187560643Y-86350000D01*
X187545190Y-86163505D01*
X187540109Y-86102187D01*
X187540107Y-86102175D01*
X187479063Y-85861118D01*
X187379173Y-85633393D01*
X187243166Y-85425217D01*
X187221557Y-85401744D01*
X187074744Y-85242262D01*
X186971253Y-85161712D01*
X186930442Y-85105003D01*
X186923655Y-85056176D01*
X186925056Y-85033609D01*
X186187533Y-84296086D01*
X186197315Y-84294680D01*
X186328100Y-84234952D01*
X186436761Y-84140798D01*
X186514493Y-84019844D01*
X186538076Y-83939524D01*
X187278434Y-84679882D01*
X187378731Y-84526369D01*
X187478587Y-84298717D01*
X187539612Y-84057738D01*
X187539614Y-84057729D01*
X187560141Y-83810005D01*
X187560141Y-83809994D01*
X187539614Y-83562270D01*
X187539612Y-83562261D01*
X187478587Y-83321282D01*
X187378731Y-83093630D01*
X187278434Y-82940116D01*
X186538076Y-83680475D01*
X186514493Y-83600156D01*
X186436761Y-83479202D01*
X186328100Y-83385048D01*
X186197315Y-83325320D01*
X186187531Y-83323913D01*
X186925056Y-82586389D01*
X186878229Y-82549943D01*
X186659614Y-82431635D01*
X186659603Y-82431630D01*
X186424493Y-82350916D01*
X186179293Y-82310000D01*
X185930707Y-82310000D01*
X185685506Y-82350916D01*
X185450396Y-82431630D01*
X185450390Y-82431632D01*
X185231761Y-82549949D01*
X185184942Y-82586388D01*
X185184942Y-82586390D01*
X185922466Y-83323913D01*
X185912685Y-83325320D01*
X185781900Y-83385048D01*
X185673239Y-83479202D01*
X185595507Y-83600156D01*
X185571923Y-83680474D01*
X184831563Y-82940116D01*
X184731267Y-83093632D01*
X184631412Y-83321282D01*
X184570387Y-83562261D01*
X184570385Y-83562270D01*
X184549859Y-83809994D01*
X184549859Y-83810005D01*
X184570385Y-84057729D01*
X184570387Y-84057738D01*
X184631412Y-84298717D01*
X184731266Y-84526364D01*
X184831564Y-84679882D01*
X185571922Y-83939523D01*
X185595507Y-84019844D01*
X185673239Y-84140798D01*
X185781900Y-84234952D01*
X185912685Y-84294680D01*
X185922466Y-84296086D01*
X185184942Y-85033609D01*
X185186343Y-85056177D01*
X185170850Y-85124307D01*
X185138744Y-85161713D01*
X185035258Y-85242260D01*
X184866833Y-85425217D01*
X184730826Y-85633393D01*
X184630936Y-85861118D01*
X184569892Y-86102175D01*
X184569890Y-86102187D01*
X184549357Y-86349994D01*
X184549357Y-86350005D01*
X184569890Y-86597812D01*
X184569892Y-86597824D01*
X184630936Y-86838881D01*
X184730826Y-87066606D01*
X184866833Y-87274782D01*
X184899245Y-87309991D01*
X185035256Y-87457738D01*
X185118010Y-87522148D01*
X185158821Y-87578855D01*
X185162496Y-87648628D01*
X185127865Y-87709311D01*
X185118009Y-87717852D01*
X185035258Y-87782260D01*
X184866833Y-87965217D01*
X184730826Y-88173393D01*
X184630936Y-88401118D01*
X184569892Y-88642175D01*
X184569890Y-88642187D01*
X184549357Y-88889994D01*
X184549357Y-88890005D01*
X184569890Y-89137812D01*
X184569892Y-89137824D01*
X184630936Y-89378881D01*
X184730826Y-89606606D01*
X184866833Y-89814782D01*
X184896151Y-89846630D01*
X185035256Y-89997738D01*
X185118008Y-90062146D01*
X185158820Y-90118856D01*
X185162495Y-90188629D01*
X185127864Y-90249312D01*
X185118009Y-90257852D01*
X185035255Y-90322262D01*
X184866833Y-90505217D01*
X184730826Y-90713393D01*
X184630936Y-90941118D01*
X184569892Y-91182175D01*
X184569890Y-91182187D01*
X184549357Y-91429994D01*
X184549357Y-91430005D01*
X184569890Y-91677812D01*
X184569892Y-91677824D01*
X184630936Y-91918881D01*
X184730826Y-92146606D01*
X184866833Y-92354782D01*
X184866836Y-92354785D01*
X185035256Y-92537738D01*
X185118008Y-92602147D01*
X185158821Y-92658857D01*
X185162496Y-92728630D01*
X185127864Y-92789313D01*
X185118014Y-92797848D01*
X185087627Y-92821500D01*
X185035257Y-92862261D01*
X184866833Y-93045217D01*
X184730826Y-93253393D01*
X184630936Y-93481118D01*
X184569892Y-93722175D01*
X184569890Y-93722187D01*
X184549357Y-93969994D01*
X184549357Y-93970005D01*
X184569890Y-94217812D01*
X184569892Y-94217824D01*
X184630936Y-94458881D01*
X184730826Y-94686606D01*
X184866833Y-94894782D01*
X184866836Y-94894785D01*
X185035256Y-95077738D01*
X185118008Y-95142147D01*
X185158821Y-95198857D01*
X185162496Y-95268630D01*
X185127864Y-95329313D01*
X185118014Y-95337848D01*
X185059400Y-95383469D01*
X185035257Y-95402261D01*
X184866833Y-95585217D01*
X184730826Y-95793393D01*
X184630936Y-96021118D01*
X184569892Y-96262175D01*
X184569890Y-96262187D01*
X184549357Y-96509994D01*
X184549357Y-96510005D01*
X184569890Y-96757812D01*
X184569892Y-96757824D01*
X184630936Y-96998881D01*
X184730826Y-97226606D01*
X184866833Y-97434782D01*
X184866836Y-97434785D01*
X185035256Y-97617738D01*
X185118010Y-97682148D01*
X185158821Y-97738855D01*
X185162496Y-97808628D01*
X185127865Y-97869311D01*
X185118009Y-97877852D01*
X185035258Y-97942260D01*
X184866833Y-98125217D01*
X184730826Y-98333393D01*
X184630936Y-98561118D01*
X184569892Y-98802175D01*
X184569890Y-98802187D01*
X184549357Y-99049994D01*
X184549357Y-99050005D01*
X182638198Y-99050005D01*
X174813198Y-91225005D01*
X177564859Y-91225005D01*
X177585385Y-91472729D01*
X177585387Y-91472738D01*
X177646412Y-91713717D01*
X177746266Y-91941364D01*
X177846564Y-92094882D01*
X178586923Y-91354523D01*
X178610507Y-91434844D01*
X178688239Y-91555798D01*
X178796900Y-91649952D01*
X178927685Y-91709680D01*
X178937466Y-91711086D01*
X178199942Y-92448609D01*
X178246768Y-92485055D01*
X178246770Y-92485056D01*
X178465385Y-92603364D01*
X178465396Y-92603369D01*
X178700506Y-92684083D01*
X178945707Y-92725000D01*
X179194293Y-92725000D01*
X179439493Y-92684083D01*
X179674603Y-92603369D01*
X179674614Y-92603364D01*
X179893228Y-92485057D01*
X179893231Y-92485055D01*
X179940056Y-92448609D01*
X179202533Y-91711086D01*
X179212315Y-91709680D01*
X179343100Y-91649952D01*
X179451761Y-91555798D01*
X179529493Y-91434844D01*
X179553076Y-91354524D01*
X180293433Y-92094881D01*
X180327211Y-92091379D01*
X180352794Y-92091380D01*
X180386564Y-92094882D01*
X181126923Y-91354523D01*
X181150507Y-91434844D01*
X181228239Y-91555798D01*
X181336900Y-91649952D01*
X181467685Y-91709680D01*
X181477466Y-91711086D01*
X180739942Y-92448609D01*
X180786768Y-92485055D01*
X180786770Y-92485056D01*
X181005385Y-92603364D01*
X181005396Y-92603369D01*
X181240506Y-92684083D01*
X181485707Y-92725000D01*
X181734293Y-92725000D01*
X181979493Y-92684083D01*
X182214603Y-92603369D01*
X182214614Y-92603364D01*
X182433228Y-92485057D01*
X182433231Y-92485055D01*
X182480056Y-92448609D01*
X181742533Y-91711086D01*
X181752315Y-91709680D01*
X181883100Y-91649952D01*
X181991761Y-91555798D01*
X182069493Y-91434844D01*
X182093076Y-91354524D01*
X182833434Y-92094882D01*
X182933731Y-91941369D01*
X183033587Y-91713717D01*
X183094612Y-91472738D01*
X183094614Y-91472729D01*
X183115141Y-91225005D01*
X183115141Y-91224994D01*
X183094614Y-90977270D01*
X183094612Y-90977261D01*
X183033587Y-90736282D01*
X182933731Y-90508630D01*
X182833434Y-90355116D01*
X182093076Y-91095474D01*
X182069493Y-91015156D01*
X181991761Y-90894202D01*
X181883100Y-90800048D01*
X181752315Y-90740320D01*
X181742534Y-90738913D01*
X182480057Y-90001390D01*
X182480056Y-90001389D01*
X182433229Y-89964943D01*
X182214614Y-89846635D01*
X182214603Y-89846630D01*
X181979493Y-89765916D01*
X181734293Y-89725000D01*
X181485707Y-89725000D01*
X181240506Y-89765916D01*
X181005396Y-89846630D01*
X181005390Y-89846632D01*
X180786761Y-89964949D01*
X180739942Y-90001388D01*
X180739942Y-90001390D01*
X181477466Y-90738913D01*
X181467685Y-90740320D01*
X181336900Y-90800048D01*
X181228239Y-90894202D01*
X181150507Y-91015156D01*
X181126923Y-91095476D01*
X180386562Y-90355115D01*
X180352794Y-90358618D01*
X180327211Y-90358618D01*
X180293435Y-90355115D01*
X179553076Y-91095475D01*
X179529493Y-91015156D01*
X179451761Y-90894202D01*
X179343100Y-90800048D01*
X179212315Y-90740320D01*
X179202534Y-90738913D01*
X179940057Y-90001390D01*
X179940056Y-90001389D01*
X179893229Y-89964943D01*
X179674614Y-89846635D01*
X179674603Y-89846630D01*
X179439493Y-89765916D01*
X179194293Y-89725000D01*
X178945707Y-89725000D01*
X178700506Y-89765916D01*
X178465396Y-89846630D01*
X178465390Y-89846632D01*
X178246761Y-89964949D01*
X178199942Y-90001388D01*
X178199942Y-90001390D01*
X178937466Y-90738913D01*
X178927685Y-90740320D01*
X178796900Y-90800048D01*
X178688239Y-90894202D01*
X178610507Y-91015156D01*
X178586923Y-91095475D01*
X177846564Y-90355116D01*
X177746267Y-90508632D01*
X177646412Y-90736282D01*
X177585387Y-90977261D01*
X177585385Y-90977270D01*
X177564859Y-91224994D01*
X177564859Y-91225005D01*
X174813198Y-91225005D01*
X173820780Y-90232587D01*
X173815689Y-90226822D01*
X173798904Y-90205257D01*
X173730243Y-90142049D01*
X173708294Y-90120100D01*
X173684600Y-90100033D01*
X173615951Y-90036837D01*
X173615950Y-90036836D01*
X173593069Y-90021887D01*
X173586912Y-90017296D01*
X173566059Y-89999634D01*
X173485885Y-89951860D01*
X173407772Y-89900827D01*
X173407769Y-89900825D01*
X173382753Y-89889852D01*
X173375915Y-89886332D01*
X173352440Y-89872344D01*
X173265500Y-89838420D01*
X173180046Y-89800937D01*
X173180042Y-89800936D01*
X173180040Y-89800935D01*
X173153552Y-89794227D01*
X173146232Y-89791882D01*
X173129758Y-89785454D01*
X173120779Y-89781951D01*
X173029453Y-89762801D01*
X173029452Y-89762801D01*
X172938984Y-89739891D01*
X172911755Y-89737635D01*
X172904148Y-89736526D01*
X172884151Y-89732334D01*
X172877402Y-89730919D01*
X172877400Y-89730918D01*
X172784155Y-89727062D01*
X172753232Y-89724500D01*
X172753229Y-89724500D01*
X172722200Y-89724500D01*
X172628945Y-89720643D01*
X172628944Y-89720643D01*
X172601817Y-89724024D01*
X172594146Y-89724500D01*
X167862129Y-89724500D01*
X167862123Y-89724501D01*
X167802516Y-89730908D01*
X167667671Y-89781202D01*
X167667664Y-89781206D01*
X167552455Y-89867452D01*
X167552452Y-89867455D01*
X167466206Y-89982664D01*
X167466202Y-89982671D01*
X167415908Y-90117517D01*
X167409501Y-90177116D01*
X167409500Y-90177135D01*
X167409500Y-92272870D01*
X164590000Y-92272870D01*
X164590000Y-76802284D01*
X164609685Y-76735245D01*
X164650525Y-76695762D01*
X164704894Y-76663366D01*
X164725754Y-76645697D01*
X164731894Y-76641117D01*
X164754785Y-76626164D01*
X164823435Y-76562966D01*
X164847126Y-76542902D01*
X164869078Y-76520949D01*
X164937738Y-76457744D01*
X164954530Y-76436167D01*
X164959604Y-76430422D01*
X166828208Y-74561819D01*
X166889531Y-74528334D01*
X166915889Y-74525500D01*
X171514600Y-74525500D01*
X171514624Y-74525499D01*
X172497871Y-74525499D01*
X172497872Y-74525499D01*
X172557483Y-74519091D01*
X172692331Y-74468796D01*
X172807546Y-74382546D01*
X172893796Y-74267331D01*
X172944091Y-74132483D01*
X172950500Y-74072873D01*
X172950500Y-73057213D01*
X172950500Y-73025005D01*
X177564859Y-73025005D01*
X177585385Y-73272729D01*
X177585387Y-73272738D01*
X177646412Y-73513717D01*
X177746266Y-73741364D01*
X177846564Y-73894882D01*
X178586923Y-73154523D01*
X178610507Y-73234844D01*
X178688239Y-73355798D01*
X178796900Y-73449952D01*
X178927685Y-73509680D01*
X178937466Y-73511086D01*
X178199942Y-74248609D01*
X178246768Y-74285055D01*
X178246770Y-74285056D01*
X178465385Y-74403364D01*
X178465396Y-74403369D01*
X178700506Y-74484083D01*
X178945707Y-74525000D01*
X179194293Y-74525000D01*
X179439493Y-74484083D01*
X179674603Y-74403369D01*
X179674614Y-74403364D01*
X179893228Y-74285057D01*
X179893231Y-74285055D01*
X179940056Y-74248609D01*
X179202533Y-73511086D01*
X179212315Y-73509680D01*
X179343100Y-73449952D01*
X179451761Y-73355798D01*
X179529493Y-73234844D01*
X179553076Y-73154524D01*
X180293433Y-73894881D01*
X180327211Y-73891379D01*
X180352794Y-73891380D01*
X180386564Y-73894882D01*
X181126923Y-73154523D01*
X181150507Y-73234844D01*
X181228239Y-73355798D01*
X181336900Y-73449952D01*
X181467685Y-73509680D01*
X181477466Y-73511086D01*
X180739942Y-74248609D01*
X180786768Y-74285055D01*
X180786770Y-74285056D01*
X181005385Y-74403364D01*
X181005396Y-74403369D01*
X181240506Y-74484083D01*
X181485707Y-74525000D01*
X181734293Y-74525000D01*
X181979493Y-74484083D01*
X182214603Y-74403369D01*
X182214614Y-74403364D01*
X182433228Y-74285057D01*
X182433231Y-74285055D01*
X182480056Y-74248609D01*
X181742533Y-73511086D01*
X181752315Y-73509680D01*
X181883100Y-73449952D01*
X181991761Y-73355798D01*
X182069493Y-73234844D01*
X182093076Y-73154524D01*
X182833434Y-73894882D01*
X182933731Y-73741369D01*
X183033587Y-73513717D01*
X183094612Y-73272738D01*
X183094614Y-73272729D01*
X183115141Y-73025005D01*
X183115141Y-73024994D01*
X183094614Y-72777270D01*
X183094612Y-72777261D01*
X183033587Y-72536282D01*
X182933731Y-72308630D01*
X182833434Y-72155116D01*
X182093076Y-72895475D01*
X182069493Y-72815156D01*
X181991761Y-72694202D01*
X181883100Y-72600048D01*
X181752315Y-72540320D01*
X181742534Y-72538913D01*
X182281442Y-72000005D01*
X183999754Y-72000005D01*
X184018718Y-72301446D01*
X184018719Y-72301453D01*
X184047019Y-72449808D01*
X184064285Y-72540320D01*
X184075320Y-72598164D01*
X184168659Y-72885431D01*
X184168661Y-72885436D01*
X184297265Y-73158732D01*
X184297268Y-73158738D01*
X184459111Y-73413763D01*
X184459114Y-73413767D01*
X184459115Y-73413768D01*
X184562871Y-73539188D01*
X184651652Y-73646505D01*
X184871836Y-73853272D01*
X184871846Y-73853280D01*
X185116193Y-74030808D01*
X185116198Y-74030810D01*
X185116205Y-74030816D01*
X185380896Y-74176332D01*
X185380901Y-74176334D01*
X185380903Y-74176335D01*
X185380904Y-74176336D01*
X185661734Y-74287524D01*
X185661737Y-74287525D01*
X185731493Y-74305435D01*
X185954302Y-74362642D01*
X186101039Y-74381179D01*
X186253963Y-74400499D01*
X186253969Y-74400499D01*
X186253973Y-74400500D01*
X186253975Y-74400500D01*
X186556025Y-74400500D01*
X186556027Y-74400500D01*
X186556032Y-74400499D01*
X186556036Y-74400499D01*
X186635591Y-74390448D01*
X186855698Y-74362642D01*
X187148262Y-74287525D01*
X187152839Y-74285713D01*
X187429095Y-74176336D01*
X187429096Y-74176335D01*
X187429094Y-74176335D01*
X187429104Y-74176332D01*
X187693795Y-74030816D01*
X187938162Y-73853274D01*
X188158349Y-73646504D01*
X188350885Y-73413768D01*
X188512733Y-73158736D01*
X188641341Y-72885430D01*
X188734681Y-72598160D01*
X188791280Y-72301457D01*
X188794557Y-72249373D01*
X188810246Y-72000005D01*
X188810246Y-71999994D01*
X188791281Y-71698553D01*
X188791280Y-71698546D01*
X188791280Y-71698543D01*
X188734681Y-71401840D01*
X188641341Y-71114570D01*
X188512733Y-70841264D01*
X188350885Y-70586232D01*
X188158349Y-70353496D01*
X187938162Y-70146726D01*
X187938159Y-70146724D01*
X187938153Y-70146719D01*
X187693806Y-69969191D01*
X187693799Y-69969186D01*
X187693795Y-69969184D01*
X187429104Y-69823668D01*
X187429101Y-69823666D01*
X187429096Y-69823664D01*
X187429095Y-69823663D01*
X187148265Y-69712475D01*
X187148262Y-69712474D01*
X186855695Y-69637357D01*
X186556036Y-69599500D01*
X186556027Y-69599500D01*
X186253973Y-69599500D01*
X186253963Y-69599500D01*
X185954304Y-69637357D01*
X185661737Y-69712474D01*
X185661734Y-69712475D01*
X185380904Y-69823663D01*
X185380903Y-69823664D01*
X185116205Y-69969184D01*
X185116193Y-69969191D01*
X184871846Y-70146719D01*
X184871836Y-70146727D01*
X184651652Y-70353494D01*
X184459111Y-70586236D01*
X184297268Y-70841261D01*
X184297265Y-70841267D01*
X184168661Y-71114563D01*
X184168659Y-71114568D01*
X184075320Y-71401835D01*
X184018719Y-71698546D01*
X184018718Y-71698553D01*
X183999754Y-71999994D01*
X183999754Y-72000005D01*
X182281442Y-72000005D01*
X182480057Y-71801390D01*
X182480056Y-71801389D01*
X182433229Y-71764943D01*
X182214614Y-71646635D01*
X182214603Y-71646630D01*
X181979493Y-71565916D01*
X181734293Y-71525000D01*
X181485707Y-71525000D01*
X181240506Y-71565916D01*
X181005396Y-71646630D01*
X181005390Y-71646632D01*
X180786761Y-71764949D01*
X180739942Y-71801388D01*
X180739942Y-71801390D01*
X181477466Y-72538913D01*
X181467685Y-72540320D01*
X181336900Y-72600048D01*
X181228239Y-72694202D01*
X181150507Y-72815156D01*
X181126923Y-72895476D01*
X180386562Y-72155115D01*
X180352794Y-72158618D01*
X180327211Y-72158618D01*
X180293435Y-72155115D01*
X179553076Y-72895475D01*
X179529493Y-72815156D01*
X179451761Y-72694202D01*
X179343100Y-72600048D01*
X179212315Y-72540320D01*
X179202532Y-72538913D01*
X179940056Y-71801389D01*
X179893229Y-71764943D01*
X179674614Y-71646635D01*
X179674603Y-71646630D01*
X179439493Y-71565916D01*
X179194293Y-71525000D01*
X178945707Y-71525000D01*
X178700506Y-71565916D01*
X178465396Y-71646630D01*
X178465390Y-71646632D01*
X178246761Y-71764949D01*
X178199942Y-71801388D01*
X178199942Y-71801390D01*
X178937464Y-72538913D01*
X178927685Y-72540320D01*
X178796900Y-72600048D01*
X178688239Y-72694202D01*
X178610507Y-72815156D01*
X178586923Y-72895474D01*
X177846563Y-72155116D01*
X177746267Y-72308632D01*
X177646412Y-72536282D01*
X177585387Y-72777261D01*
X177585385Y-72777270D01*
X177564859Y-73024994D01*
X177564859Y-73025005D01*
X172950500Y-73025005D01*
X172950500Y-72900665D01*
X172950500Y-72893070D01*
X172950499Y-72893061D01*
X172950499Y-71977128D01*
X172944091Y-71917517D01*
X172910825Y-71828327D01*
X172893797Y-71782671D01*
X172893793Y-71782664D01*
X172807547Y-71667455D01*
X172807544Y-71667452D01*
X172692335Y-71581206D01*
X172692328Y-71581202D01*
X172557482Y-71530908D01*
X172557483Y-71530908D01*
X172497883Y-71524501D01*
X172497881Y-71524500D01*
X172497873Y-71524500D01*
X172497865Y-71524500D01*
X166340018Y-71524500D01*
X166332342Y-71524023D01*
X166309307Y-71521152D01*
X166305221Y-71520643D01*
X166305220Y-71520643D01*
X166211974Y-71524500D01*
X166180933Y-71524500D01*
X166156181Y-71526550D01*
X166149993Y-71527063D01*
X166056765Y-71530919D01*
X166030020Y-71536527D01*
X166022412Y-71537635D01*
X165995179Y-71539891D01*
X165922984Y-71558173D01*
X165904702Y-71562803D01*
X165889856Y-71565916D01*
X165813392Y-71581949D01*
X165813380Y-71581953D01*
X165787935Y-71591881D01*
X165780616Y-71594226D01*
X165754120Y-71600936D01*
X165754115Y-71600937D01*
X165668651Y-71638425D01*
X165597374Y-71666238D01*
X165581726Y-71672345D01*
X165581724Y-71672345D01*
X165581724Y-71672346D01*
X165581717Y-71672349D01*
X165558248Y-71686332D01*
X165551417Y-71689848D01*
X165526395Y-71700826D01*
X165526393Y-71700827D01*
X165448272Y-71751864D01*
X165448272Y-71751865D01*
X165368103Y-71799635D01*
X165347250Y-71817297D01*
X165341087Y-71821892D01*
X165318215Y-71836835D01*
X165318212Y-71836838D01*
X165249552Y-71900044D01*
X165225870Y-71920102D01*
X165203934Y-71942038D01*
X165169597Y-71973647D01*
X165140972Y-72000000D01*
X165135261Y-72005257D01*
X165135256Y-72005262D01*
X165118472Y-72026826D01*
X165113383Y-72032589D01*
X163244791Y-73901181D01*
X163183468Y-73934666D01*
X163157110Y-73937500D01*
X157831019Y-73937500D01*
X157823347Y-73937024D01*
X157796221Y-73933643D01*
X157796219Y-73933643D01*
X157702965Y-73937500D01*
X157671933Y-73937500D01*
X157641008Y-73940062D01*
X157641009Y-73940062D01*
X157547765Y-73943918D01*
X157547751Y-73943920D01*
X157521017Y-73949526D01*
X157513409Y-73950635D01*
X157486185Y-73952890D01*
X157486175Y-73952892D01*
X157413815Y-73971216D01*
X157395725Y-73975797D01*
X157381755Y-73978726D01*
X157304390Y-73994948D01*
X157304375Y-73994953D01*
X157278920Y-74004886D01*
X157271599Y-74007231D01*
X157245119Y-74013937D01*
X157245113Y-74013939D01*
X157159667Y-74051419D01*
X157072723Y-74085345D01*
X157049247Y-74099333D01*
X157042413Y-74102851D01*
X157017388Y-74113829D01*
X157017385Y-74113830D01*
X156939275Y-74164862D01*
X156859101Y-74212637D01*
X156838250Y-74230297D01*
X156832087Y-74234892D01*
X156809216Y-74249834D01*
X156773578Y-74282641D01*
X156740564Y-74313033D01*
X156721376Y-74329284D01*
X156716869Y-74333102D01*
X156694922Y-74355049D01*
X156626262Y-74418256D01*
X156609471Y-74439827D01*
X156604382Y-74445588D01*
X153211791Y-77838181D01*
X153150468Y-77871666D01*
X153124110Y-77874500D01*
X137892019Y-77874500D01*
X137884347Y-77874024D01*
X137857221Y-77870643D01*
X137857219Y-77870643D01*
X137763965Y-77874500D01*
X137732933Y-77874500D01*
X137702008Y-77877062D01*
X137702009Y-77877062D01*
X137608765Y-77880918D01*
X137608751Y-77880920D01*
X137582017Y-77886526D01*
X137574409Y-77887635D01*
X137547185Y-77889890D01*
X137547175Y-77889892D01*
X137474815Y-77908216D01*
X137456725Y-77912797D01*
X137442755Y-77915726D01*
X137365390Y-77931948D01*
X137365375Y-77931953D01*
X137339920Y-77941886D01*
X137332599Y-77944231D01*
X137306119Y-77950937D01*
X137306113Y-77950939D01*
X137220667Y-77988419D01*
X137133723Y-78022345D01*
X137110247Y-78036333D01*
X137103413Y-78039851D01*
X137078388Y-78050829D01*
X137078385Y-78050830D01*
X137000275Y-78101862D01*
X136920101Y-78149637D01*
X136899250Y-78167297D01*
X136893087Y-78171892D01*
X136870215Y-78186835D01*
X136870212Y-78186838D01*
X136801554Y-78250042D01*
X136777871Y-78270101D01*
X136755934Y-78292038D01*
X136687261Y-78355257D01*
X136687256Y-78355262D01*
X136670472Y-78376826D01*
X136665383Y-78382589D01*
X122607588Y-92440382D01*
X122601827Y-92445471D01*
X122580256Y-92462262D01*
X122517049Y-92530922D01*
X122495102Y-92552869D01*
X122495098Y-92552874D01*
X122475033Y-92576564D01*
X122450362Y-92603364D01*
X122411834Y-92645216D01*
X122396892Y-92668087D01*
X122392297Y-92674250D01*
X122374635Y-92695104D01*
X122326860Y-92775278D01*
X122275828Y-92853390D01*
X122275824Y-92853397D01*
X122264853Y-92878409D01*
X122261335Y-92885244D01*
X122247348Y-92908717D01*
X122247343Y-92908726D01*
X122213420Y-92995663D01*
X122175935Y-93081123D01*
X122169226Y-93107616D01*
X122166881Y-93114935D01*
X122156953Y-93140379D01*
X122156948Y-93140395D01*
X122137801Y-93231711D01*
X122114892Y-93322175D01*
X122114890Y-93322185D01*
X122112635Y-93349408D01*
X122111526Y-93357016D01*
X122105920Y-93383750D01*
X122105919Y-93383763D01*
X122102062Y-93477009D01*
X122101722Y-93481119D01*
X122099500Y-93507936D01*
X122099500Y-93538964D01*
X122095642Y-93632219D01*
X122095642Y-93632220D01*
X122099023Y-93659342D01*
X122099500Y-93667018D01*
X122099500Y-97090372D01*
X122099288Y-97095495D01*
X122094357Y-97154995D01*
X122094357Y-97155005D01*
X122114890Y-97402812D01*
X122114892Y-97402824D01*
X122175936Y-97643881D01*
X122275826Y-97871606D01*
X122411833Y-98079782D01*
X122411836Y-98079785D01*
X122580256Y-98262738D01*
X122776491Y-98415474D01*
X122776493Y-98415475D01*
X122994332Y-98533364D01*
X122995190Y-98533828D01*
X123158580Y-98589920D01*
X123228964Y-98614083D01*
X123230386Y-98614571D01*
X123475665Y-98655500D01*
X123724335Y-98655500D01*
X123969614Y-98614571D01*
X124204810Y-98533828D01*
X124423509Y-98415474D01*
X124619744Y-98262738D01*
X124788164Y-98079785D01*
X124788533Y-98079219D01*
X124788745Y-98079038D01*
X124791322Y-98075729D01*
X124792002Y-98076258D01*
X124841676Y-98033860D01*
X124905138Y-98023697D01*
X124916564Y-98024882D01*
X125648866Y-97292579D01*
X125671318Y-97369040D01*
X125750605Y-97492413D01*
X125861438Y-97588451D01*
X125994839Y-97649373D01*
X125998634Y-97649918D01*
X125269942Y-98378609D01*
X125316768Y-98415055D01*
X125316770Y-98415056D01*
X125535385Y-98533364D01*
X125535396Y-98533369D01*
X125770506Y-98614083D01*
X126015707Y-98655000D01*
X126264293Y-98655000D01*
X126509493Y-98614083D01*
X126744603Y-98533369D01*
X126744614Y-98533364D01*
X126963228Y-98415057D01*
X126963231Y-98415055D01*
X127010056Y-98378609D01*
X126281365Y-97649918D01*
X126285161Y-97649373D01*
X126418562Y-97588451D01*
X126529395Y-97492413D01*
X126608682Y-97369040D01*
X126631133Y-97292580D01*
X127363434Y-98024882D01*
X127374861Y-98023697D01*
X127443573Y-98036360D01*
X127488092Y-98076194D01*
X127488683Y-98075735D01*
X127491218Y-98078992D01*
X127491456Y-98079205D01*
X127491831Y-98079780D01*
X127491836Y-98079785D01*
X127660256Y-98262738D01*
X127856491Y-98415474D01*
X127856493Y-98415475D01*
X128074332Y-98533364D01*
X128075190Y-98533828D01*
X128238580Y-98589920D01*
X128308964Y-98614083D01*
X128310386Y-98614571D01*
X128555665Y-98655500D01*
X128804335Y-98655500D01*
X129049614Y-98614571D01*
X129284810Y-98533828D01*
X129503509Y-98415474D01*
X129699744Y-98262738D01*
X129858771Y-98089988D01*
X129918657Y-98053999D01*
X129988495Y-98056099D01*
X130041228Y-98089988D01*
X130200256Y-98262738D01*
X130309222Y-98347550D01*
X130396488Y-98415472D01*
X130396493Y-98415475D01*
X130507626Y-98475617D01*
X130557217Y-98524836D01*
X130569253Y-98568745D01*
X130571182Y-98568440D01*
X130572403Y-98576149D01*
X130578323Y-98596527D01*
X130582268Y-98615575D01*
X130584928Y-98636633D01*
X130584931Y-98636643D01*
X130602813Y-98681809D01*
X130604705Y-98687337D01*
X130618254Y-98733974D01*
X130618255Y-98733976D01*
X130629060Y-98752245D01*
X130637617Y-98769713D01*
X130639480Y-98774416D01*
X130645432Y-98789451D01*
X130673983Y-98828749D01*
X130677191Y-98833632D01*
X130700037Y-98872263D01*
X130701919Y-98875444D01*
X130701923Y-98875448D01*
X130716925Y-98890450D01*
X130729563Y-98905248D01*
X130742033Y-98922412D01*
X130742036Y-98922415D01*
X130742037Y-98922416D01*
X130779476Y-98953388D01*
X130783776Y-98957301D01*
X133190985Y-101364510D01*
X134460985Y-102634510D01*
X134471056Y-102647080D01*
X134471243Y-102646926D01*
X134476217Y-102652937D01*
X134476219Y-102652940D01*
X134504766Y-102679748D01*
X134528664Y-102702190D01*
X134550387Y-102723912D01*
X134556179Y-102728405D01*
X134560619Y-102732198D01*
X134576681Y-102747280D01*
X134596028Y-102765448D01*
X134614619Y-102775668D01*
X134630884Y-102786352D01*
X134647655Y-102799361D01*
X134647658Y-102799363D01*
X134692248Y-102818658D01*
X134697477Y-102821220D01*
X134740053Y-102844627D01*
X134760614Y-102849905D01*
X134779018Y-102856207D01*
X134798495Y-102864636D01*
X134836348Y-102870630D01*
X134846475Y-102872235D01*
X134852185Y-102873417D01*
X134899244Y-102885500D01*
X134920466Y-102885500D01*
X134939863Y-102887026D01*
X134960826Y-102890347D01*
X135009193Y-102885774D01*
X135015030Y-102885500D01*
X136055609Y-102885500D01*
X136122648Y-102905185D01*
X136143290Y-102921819D01*
X136920988Y-103699517D01*
X136954473Y-103760840D01*
X136949489Y-103830532D01*
X136920989Y-103874878D01*
X136830328Y-103965540D01*
X136830322Y-103965547D01*
X136704423Y-104145349D01*
X136704419Y-104145357D01*
X136637382Y-104289120D01*
X136591210Y-104341560D01*
X136524017Y-104360712D01*
X136457135Y-104340496D01*
X136412618Y-104289120D01*
X136349233Y-104153190D01*
X136345579Y-104145354D01*
X136345577Y-104145351D01*
X136345576Y-104145349D01*
X136219677Y-103965547D01*
X136219672Y-103965541D01*
X136064458Y-103810327D01*
X136064452Y-103810322D01*
X135884650Y-103684423D01*
X135884642Y-103684419D01*
X135685708Y-103591655D01*
X135685706Y-103591654D01*
X135685703Y-103591653D01*
X135528870Y-103549629D01*
X135473675Y-103534839D01*
X135473668Y-103534838D01*
X135255002Y-103515708D01*
X135254998Y-103515708D01*
X135036331Y-103534838D01*
X135036324Y-103534839D01*
X134936070Y-103561703D01*
X134824297Y-103591653D01*
X134824295Y-103591653D01*
X134824291Y-103591655D01*
X134625357Y-103684419D01*
X134625349Y-103684423D01*
X134445547Y-103810322D01*
X134445541Y-103810327D01*
X134290327Y-103965541D01*
X134290322Y-103965547D01*
X134164423Y-104145349D01*
X134164421Y-104145353D01*
X134097106Y-104289711D01*
X134050933Y-104342150D01*
X133983740Y-104361302D01*
X133916859Y-104341086D01*
X133872342Y-104289711D01*
X133805144Y-104145606D01*
X133805143Y-104145604D01*
X133760996Y-104082556D01*
X133760996Y-104082555D01*
X133198076Y-104645475D01*
X133174493Y-104565156D01*
X133096761Y-104444202D01*
X132988100Y-104350048D01*
X132857315Y-104290320D01*
X132847533Y-104288913D01*
X133407443Y-103729003D01*
X133407442Y-103729002D01*
X133344395Y-103684856D01*
X133344393Y-103684855D01*
X133145533Y-103592124D01*
X133145524Y-103592121D01*
X132933592Y-103535335D01*
X132933582Y-103535333D01*
X132715001Y-103516210D01*
X132714999Y-103516210D01*
X132496417Y-103535333D01*
X132496407Y-103535335D01*
X132284475Y-103592121D01*
X132284466Y-103592124D01*
X132085602Y-103684857D01*
X132022555Y-103729001D01*
X132582467Y-104288913D01*
X132572685Y-104290320D01*
X132441900Y-104350048D01*
X132333239Y-104444202D01*
X132255507Y-104565156D01*
X132231922Y-104645477D01*
X131669001Y-104082555D01*
X131624858Y-104145600D01*
X131557657Y-104289712D01*
X131511484Y-104342151D01*
X131444290Y-104361302D01*
X131377409Y-104341086D01*
X131332893Y-104289710D01*
X131269233Y-104153190D01*
X131265579Y-104145354D01*
X131265577Y-104145351D01*
X131265576Y-104145349D01*
X131139677Y-103965547D01*
X131139672Y-103965541D01*
X130984458Y-103810327D01*
X130984452Y-103810322D01*
X130804650Y-103684423D01*
X130804642Y-103684419D01*
X130605708Y-103591655D01*
X130605706Y-103591654D01*
X130605703Y-103591653D01*
X130448870Y-103549629D01*
X130393675Y-103534839D01*
X130393668Y-103534838D01*
X130175002Y-103515708D01*
X130174998Y-103515708D01*
X129956331Y-103534838D01*
X129956324Y-103534839D01*
X129856070Y-103561703D01*
X129744297Y-103591653D01*
X129744295Y-103591653D01*
X129744291Y-103591655D01*
X129545357Y-103684419D01*
X129545349Y-103684423D01*
X129365547Y-103810322D01*
X129365541Y-103810327D01*
X129210327Y-103965541D01*
X129210322Y-103965547D01*
X129084423Y-104145349D01*
X129084421Y-104145353D01*
X129017106Y-104289711D01*
X128970933Y-104342150D01*
X128903740Y-104361302D01*
X128836859Y-104341086D01*
X128792342Y-104289711D01*
X128725144Y-104145606D01*
X128725143Y-104145604D01*
X128680996Y-104082556D01*
X128680996Y-104082555D01*
X128118076Y-104645475D01*
X128094493Y-104565156D01*
X128016761Y-104444202D01*
X127908100Y-104350048D01*
X127777315Y-104290320D01*
X127767533Y-104288913D01*
X128327443Y-103729003D01*
X128327442Y-103729002D01*
X128264395Y-103684856D01*
X128264393Y-103684855D01*
X128065533Y-103592124D01*
X128065524Y-103592121D01*
X127853592Y-103535335D01*
X127853582Y-103535333D01*
X127635001Y-103516210D01*
X127634999Y-103516210D01*
X127416417Y-103535333D01*
X127416407Y-103535335D01*
X127204475Y-103592121D01*
X127204466Y-103592124D01*
X127005602Y-103684857D01*
X126942555Y-103729001D01*
X127502467Y-104288913D01*
X127492685Y-104290320D01*
X127361900Y-104350048D01*
X127253239Y-104444202D01*
X127175507Y-104565156D01*
X127151922Y-104645476D01*
X126589001Y-104082555D01*
X126544858Y-104145600D01*
X126477657Y-104289712D01*
X126431484Y-104342151D01*
X126364290Y-104361302D01*
X126297409Y-104341086D01*
X126252893Y-104289710D01*
X126189233Y-104153190D01*
X126185579Y-104145354D01*
X126185577Y-104145351D01*
X126185576Y-104145349D01*
X126059677Y-103965547D01*
X126059672Y-103965541D01*
X125904458Y-103810327D01*
X125904457Y-103810326D01*
X125800034Y-103737208D01*
X125756411Y-103682632D01*
X125747220Y-103639528D01*
X125746782Y-103625602D01*
X125745500Y-103584782D01*
X125745500Y-103554075D01*
X125744579Y-103546792D01*
X125744123Y-103540987D01*
X125742598Y-103492431D01*
X125736675Y-103472045D01*
X125732729Y-103452990D01*
X125732580Y-103451813D01*
X125730071Y-103431942D01*
X125712186Y-103386772D01*
X125710297Y-103381252D01*
X125700781Y-103348499D01*
X125696744Y-103334602D01*
X125685940Y-103316334D01*
X125677378Y-103298856D01*
X125669568Y-103279129D01*
X125669565Y-103279125D01*
X125650590Y-103253008D01*
X125641014Y-103239827D01*
X125637811Y-103234951D01*
X125630100Y-103221913D01*
X125613081Y-103193135D01*
X125613079Y-103193133D01*
X125613078Y-103193131D01*
X125598075Y-103178129D01*
X125585435Y-103163330D01*
X125572961Y-103146160D01*
X125535528Y-103115194D01*
X125531206Y-103111260D01*
X123784456Y-101364510D01*
X120828816Y-98408870D01*
X120795333Y-98347550D01*
X120792500Y-98321201D01*
X120792500Y-92268807D01*
X120812185Y-92201768D01*
X120828814Y-92181131D01*
X136809944Y-76200000D01*
X145652540Y-76200000D01*
X145672326Y-76388256D01*
X145672327Y-76388259D01*
X145730818Y-76568277D01*
X145730821Y-76568284D01*
X145825467Y-76732216D01*
X145929357Y-76847597D01*
X145952129Y-76872888D01*
X146105265Y-76984148D01*
X146105270Y-76984151D01*
X146278192Y-77061142D01*
X146278197Y-77061144D01*
X146463354Y-77100500D01*
X146463355Y-77100500D01*
X146652644Y-77100500D01*
X146652646Y-77100500D01*
X146837803Y-77061144D01*
X147010730Y-76984151D01*
X147163871Y-76872888D01*
X147290533Y-76732216D01*
X147385179Y-76568284D01*
X147443674Y-76388256D01*
X147463460Y-76200000D01*
X148192540Y-76200000D01*
X148212326Y-76388256D01*
X148212327Y-76388259D01*
X148270818Y-76568277D01*
X148270821Y-76568284D01*
X148365467Y-76732216D01*
X148469357Y-76847597D01*
X148492129Y-76872888D01*
X148645265Y-76984148D01*
X148645270Y-76984151D01*
X148818192Y-77061142D01*
X148818197Y-77061144D01*
X149003354Y-77100500D01*
X149003355Y-77100500D01*
X149192644Y-77100500D01*
X149192646Y-77100500D01*
X149377803Y-77061144D01*
X149550730Y-76984151D01*
X149703871Y-76872888D01*
X149830533Y-76732216D01*
X149925179Y-76568284D01*
X149983674Y-76388256D01*
X150003460Y-76200000D01*
X149983674Y-76011744D01*
X149925179Y-75831716D01*
X149830533Y-75667784D01*
X149703871Y-75527112D01*
X149684697Y-75513181D01*
X149550734Y-75415851D01*
X149550729Y-75415848D01*
X149377807Y-75338857D01*
X149377802Y-75338855D01*
X149232001Y-75307865D01*
X149192646Y-75299500D01*
X149003354Y-75299500D01*
X148970897Y-75306398D01*
X148818197Y-75338855D01*
X148818192Y-75338857D01*
X148645270Y-75415848D01*
X148645265Y-75415851D01*
X148492129Y-75527111D01*
X148365466Y-75667785D01*
X148270821Y-75831715D01*
X148270818Y-75831722D01*
X148212327Y-76011740D01*
X148212326Y-76011744D01*
X148192540Y-76200000D01*
X147463460Y-76200000D01*
X147443674Y-76011744D01*
X147385179Y-75831716D01*
X147290533Y-75667784D01*
X147163871Y-75527112D01*
X147144697Y-75513181D01*
X147010734Y-75415851D01*
X147010729Y-75415848D01*
X146837807Y-75338857D01*
X146837802Y-75338855D01*
X146692001Y-75307865D01*
X146652646Y-75299500D01*
X146463354Y-75299500D01*
X146430897Y-75306398D01*
X146278197Y-75338855D01*
X146278192Y-75338857D01*
X146105270Y-75415848D01*
X146105265Y-75415851D01*
X145952129Y-75527111D01*
X145825466Y-75667785D01*
X145730821Y-75831715D01*
X145730818Y-75831722D01*
X145672327Y-76011740D01*
X145672326Y-76011744D01*
X145652540Y-76200000D01*
X136809944Y-76200000D01*
X139239513Y-73770431D01*
X139252079Y-73760365D01*
X139251925Y-73760178D01*
X139257937Y-73755204D01*
X139257937Y-73755203D01*
X139257940Y-73755202D01*
X139307190Y-73702755D01*
X139328911Y-73681035D01*
X139333401Y-73675245D01*
X139337183Y-73670815D01*
X139370448Y-73635393D01*
X139380674Y-73616790D01*
X139391353Y-73600533D01*
X139404362Y-73583764D01*
X139423656Y-73539175D01*
X139426212Y-73533956D01*
X139449627Y-73491368D01*
X139454905Y-73470806D01*
X139461207Y-73452399D01*
X139469635Y-73432927D01*
X139477233Y-73384953D01*
X139478414Y-73379247D01*
X139490500Y-73332177D01*
X139490500Y-73310949D01*
X139492027Y-73291549D01*
X139494608Y-73275252D01*
X139495346Y-73270595D01*
X139490775Y-73222238D01*
X139490500Y-73216400D01*
X139490500Y-73182989D01*
X139510185Y-73115950D01*
X139555483Y-73073934D01*
X139606407Y-73046376D01*
X139663509Y-73015474D01*
X139859744Y-72862738D01*
X140018771Y-72689988D01*
X140078657Y-72653999D01*
X140148495Y-72656099D01*
X140201228Y-72689988D01*
X140360256Y-72862738D01*
X140556491Y-73015474D01*
X140574090Y-73024998D01*
X140774332Y-73133364D01*
X140775190Y-73133828D01*
X140918391Y-73182989D01*
X141008964Y-73214083D01*
X141010386Y-73214571D01*
X141255665Y-73255500D01*
X141504335Y-73255500D01*
X141749614Y-73214571D01*
X141984810Y-73133828D01*
X142203509Y-73015474D01*
X142399744Y-72862738D01*
X142558771Y-72689988D01*
X142618657Y-72653999D01*
X142688495Y-72656099D01*
X142741228Y-72689988D01*
X142900256Y-72862738D01*
X143096491Y-73015474D01*
X143114090Y-73024998D01*
X143314332Y-73133364D01*
X143315190Y-73133828D01*
X143458391Y-73182989D01*
X143548964Y-73214083D01*
X143550386Y-73214571D01*
X143795665Y-73255500D01*
X144044335Y-73255500D01*
X144289614Y-73214571D01*
X144524810Y-73133828D01*
X144743509Y-73015474D01*
X144939744Y-72862738D01*
X145098771Y-72689988D01*
X145158657Y-72653999D01*
X145228495Y-72656099D01*
X145281228Y-72689988D01*
X145440256Y-72862738D01*
X145636491Y-73015474D01*
X145654090Y-73024998D01*
X145854332Y-73133364D01*
X145855190Y-73133828D01*
X145998391Y-73182989D01*
X146088964Y-73214083D01*
X146090386Y-73214571D01*
X146335665Y-73255500D01*
X146584335Y-73255500D01*
X146829614Y-73214571D01*
X147064810Y-73133828D01*
X147283509Y-73015474D01*
X147479744Y-72862738D01*
X147638772Y-72689986D01*
X147698656Y-72653999D01*
X147768494Y-72656099D01*
X147821228Y-72689989D01*
X147980021Y-72862483D01*
X147980256Y-72862738D01*
X148176491Y-73015474D01*
X148194090Y-73024998D01*
X148394332Y-73133364D01*
X148395190Y-73133828D01*
X148538391Y-73182989D01*
X148628964Y-73214083D01*
X148630386Y-73214571D01*
X148875665Y-73255500D01*
X149124335Y-73255500D01*
X149369614Y-73214571D01*
X149604810Y-73133828D01*
X149823509Y-73015474D01*
X150019744Y-72862738D01*
X150178771Y-72689988D01*
X150238657Y-72653999D01*
X150308495Y-72656099D01*
X150361228Y-72689988D01*
X150520256Y-72862738D01*
X150716491Y-73015474D01*
X150734090Y-73024998D01*
X150934332Y-73133364D01*
X150935190Y-73133828D01*
X151078391Y-73182989D01*
X151168964Y-73214083D01*
X151170386Y-73214571D01*
X151415665Y-73255500D01*
X151664335Y-73255500D01*
X151909614Y-73214571D01*
X152144810Y-73133828D01*
X152363509Y-73015474D01*
X152559744Y-72862738D01*
X152718771Y-72689988D01*
X152778657Y-72653999D01*
X152848495Y-72656099D01*
X152901228Y-72689988D01*
X153060256Y-72862738D01*
X153256491Y-73015474D01*
X153274090Y-73024998D01*
X153474332Y-73133364D01*
X153475190Y-73133828D01*
X153618391Y-73182989D01*
X153708964Y-73214083D01*
X153710386Y-73214571D01*
X153955665Y-73255500D01*
X154204335Y-73255500D01*
X154449614Y-73214571D01*
X154453986Y-73213070D01*
X154547012Y-73181133D01*
X154616810Y-73177984D01*
X154677231Y-73213070D01*
X154709092Y-73275252D01*
X154702277Y-73344789D01*
X154674956Y-73386096D01*
X152547873Y-75513181D01*
X152486550Y-75546666D01*
X152460192Y-75549500D01*
X152441975Y-75549500D01*
X152374936Y-75529815D01*
X152369090Y-75525818D01*
X152217734Y-75415851D01*
X152217729Y-75415848D01*
X152044807Y-75338857D01*
X152044802Y-75338855D01*
X151899001Y-75307865D01*
X151859646Y-75299500D01*
X151670354Y-75299500D01*
X151637897Y-75306398D01*
X151485197Y-75338855D01*
X151485192Y-75338857D01*
X151312270Y-75415848D01*
X151312265Y-75415851D01*
X151159129Y-75527111D01*
X151032466Y-75667785D01*
X150937821Y-75831715D01*
X150937818Y-75831722D01*
X150879327Y-76011740D01*
X150879326Y-76011744D01*
X150859540Y-76200000D01*
X150879326Y-76388256D01*
X150879327Y-76388259D01*
X150937818Y-76568277D01*
X150937821Y-76568284D01*
X151032467Y-76732216D01*
X151136357Y-76847597D01*
X151159129Y-76872888D01*
X151312265Y-76984148D01*
X151312270Y-76984151D01*
X151485192Y-77061142D01*
X151485197Y-77061144D01*
X151670354Y-77100500D01*
X151670355Y-77100500D01*
X151859644Y-77100500D01*
X151859646Y-77100500D01*
X152044803Y-77061144D01*
X152217730Y-76984151D01*
X152369089Y-76874182D01*
X152434896Y-76850702D01*
X152441975Y-76850500D01*
X152695495Y-76850500D01*
X152711505Y-76852267D01*
X152711528Y-76852026D01*
X152719289Y-76852758D01*
X152719296Y-76852760D01*
X152791203Y-76850500D01*
X152821925Y-76850500D01*
X152829190Y-76849581D01*
X152835016Y-76849122D01*
X152883569Y-76847597D01*
X152903956Y-76841673D01*
X152922996Y-76837731D01*
X152944058Y-76835071D01*
X152989235Y-76817183D01*
X152994735Y-76815300D01*
X153041398Y-76801744D01*
X153059665Y-76790939D01*
X153077136Y-76782380D01*
X153096871Y-76774568D01*
X153136177Y-76746010D01*
X153141043Y-76742813D01*
X153182865Y-76718081D01*
X153197870Y-76703075D01*
X153212668Y-76690436D01*
X153229837Y-76677963D01*
X153260809Y-76640522D01*
X153264713Y-76636231D01*
X156609126Y-73291819D01*
X156670450Y-73258334D01*
X156696808Y-73255500D01*
X156744335Y-73255500D01*
X156989614Y-73214571D01*
X157224810Y-73133828D01*
X157443509Y-73015474D01*
X157639744Y-72862738D01*
X157798771Y-72689988D01*
X157858657Y-72653999D01*
X157928495Y-72656099D01*
X157981228Y-72689988D01*
X158140256Y-72862738D01*
X158336491Y-73015474D01*
X158354090Y-73024998D01*
X158554332Y-73133364D01*
X158555190Y-73133828D01*
X158698391Y-73182989D01*
X158788964Y-73214083D01*
X158790386Y-73214571D01*
X159035665Y-73255500D01*
X159284335Y-73255500D01*
X159529614Y-73214571D01*
X159764810Y-73133828D01*
X159983509Y-73015474D01*
X160179744Y-72862738D01*
X160348164Y-72679785D01*
X160484173Y-72471607D01*
X160584063Y-72243881D01*
X160645108Y-72002821D01*
X160645109Y-72002812D01*
X160665643Y-71755005D01*
X160665643Y-71754994D01*
X160645109Y-71507187D01*
X160645107Y-71507175D01*
X160584063Y-71266118D01*
X160484173Y-71038393D01*
X160348166Y-70830217D01*
X160326557Y-70806744D01*
X160179744Y-70647262D01*
X159983509Y-70494526D01*
X159983507Y-70494525D01*
X159983506Y-70494524D01*
X159764811Y-70376172D01*
X159764802Y-70376169D01*
X159529616Y-70295429D01*
X159284335Y-70254500D01*
X159035665Y-70254500D01*
X158790383Y-70295429D01*
X158555197Y-70376169D01*
X158555188Y-70376172D01*
X158336493Y-70494524D01*
X158140257Y-70647261D01*
X157981230Y-70820010D01*
X157921342Y-70856001D01*
X157851504Y-70853900D01*
X157798770Y-70820010D01*
X157759108Y-70776926D01*
X157639744Y-70647262D01*
X157443509Y-70494526D01*
X157443507Y-70494525D01*
X157443506Y-70494524D01*
X157224811Y-70376172D01*
X157224802Y-70376169D01*
X156989616Y-70295429D01*
X156744335Y-70254500D01*
X156495665Y-70254500D01*
X156250383Y-70295429D01*
X156015197Y-70376169D01*
X156015188Y-70376172D01*
X155796493Y-70494524D01*
X155600257Y-70647261D01*
X155441230Y-70820010D01*
X155381342Y-70856001D01*
X155311504Y-70853900D01*
X155258770Y-70820010D01*
X155219108Y-70776926D01*
X155099744Y-70647262D01*
X154903509Y-70494526D01*
X154903507Y-70494525D01*
X154903506Y-70494524D01*
X154684811Y-70376172D01*
X154684802Y-70376169D01*
X154449616Y-70295429D01*
X154204335Y-70254500D01*
X153955665Y-70254500D01*
X153710383Y-70295429D01*
X153475197Y-70376169D01*
X153475188Y-70376172D01*
X153256493Y-70494524D01*
X153060257Y-70647261D01*
X152901230Y-70820010D01*
X152841342Y-70856001D01*
X152771504Y-70853900D01*
X152718770Y-70820010D01*
X152679108Y-70776926D01*
X152559744Y-70647262D01*
X152363509Y-70494526D01*
X152363507Y-70494525D01*
X152363506Y-70494524D01*
X152144811Y-70376172D01*
X152144802Y-70376169D01*
X151909616Y-70295429D01*
X151664335Y-70254500D01*
X151415665Y-70254500D01*
X151170383Y-70295429D01*
X150935197Y-70376169D01*
X150935188Y-70376172D01*
X150716493Y-70494524D01*
X150520257Y-70647261D01*
X150361230Y-70820010D01*
X150301342Y-70856001D01*
X150231504Y-70853900D01*
X150178770Y-70820010D01*
X150139108Y-70776926D01*
X150019744Y-70647262D01*
X149823509Y-70494526D01*
X149823507Y-70494525D01*
X149823506Y-70494524D01*
X149604811Y-70376172D01*
X149604802Y-70376169D01*
X149369616Y-70295429D01*
X149124335Y-70254500D01*
X148875665Y-70254500D01*
X148630383Y-70295429D01*
X148395197Y-70376169D01*
X148395188Y-70376172D01*
X148176493Y-70494524D01*
X147980257Y-70647261D01*
X147821230Y-70820010D01*
X147761342Y-70856001D01*
X147691504Y-70853900D01*
X147638770Y-70820010D01*
X147599108Y-70776926D01*
X147479744Y-70647262D01*
X147283509Y-70494526D01*
X147283507Y-70494525D01*
X147283506Y-70494524D01*
X147064811Y-70376172D01*
X147064802Y-70376169D01*
X146829616Y-70295429D01*
X146584335Y-70254500D01*
X146335665Y-70254500D01*
X146090383Y-70295429D01*
X145855197Y-70376169D01*
X145855188Y-70376172D01*
X145636493Y-70494524D01*
X145440257Y-70647261D01*
X145281230Y-70820010D01*
X145221342Y-70856001D01*
X145151504Y-70853900D01*
X145098770Y-70820010D01*
X145059108Y-70776926D01*
X144939744Y-70647262D01*
X144743509Y-70494526D01*
X144743507Y-70494525D01*
X144743506Y-70494524D01*
X144524811Y-70376172D01*
X144524802Y-70376169D01*
X144289616Y-70295429D01*
X144044335Y-70254500D01*
X143795665Y-70254500D01*
X143550383Y-70295429D01*
X143315197Y-70376169D01*
X143315188Y-70376172D01*
X143096493Y-70494524D01*
X142900257Y-70647261D01*
X142741230Y-70820010D01*
X142681342Y-70856001D01*
X142611504Y-70853900D01*
X142558770Y-70820010D01*
X142519108Y-70776926D01*
X142399744Y-70647262D01*
X142203509Y-70494526D01*
X142203507Y-70494525D01*
X142203506Y-70494524D01*
X141984811Y-70376172D01*
X141984802Y-70376169D01*
X141749616Y-70295429D01*
X141504335Y-70254500D01*
X141255665Y-70254500D01*
X141010383Y-70295429D01*
X140775197Y-70376169D01*
X140775188Y-70376172D01*
X140556493Y-70494524D01*
X140360257Y-70647261D01*
X140201230Y-70820010D01*
X140141342Y-70856001D01*
X140071504Y-70853900D01*
X140018770Y-70820010D01*
X139979108Y-70776926D01*
X139859744Y-70647262D01*
X139663509Y-70494526D01*
X139663507Y-70494525D01*
X139663506Y-70494524D01*
X139444811Y-70376172D01*
X139444802Y-70376169D01*
X139209616Y-70295429D01*
X138964335Y-70254500D01*
X138715665Y-70254500D01*
X138470383Y-70295429D01*
X138235197Y-70376169D01*
X138235188Y-70376172D01*
X138016493Y-70494524D01*
X137820257Y-70647261D01*
X137661230Y-70820010D01*
X137601342Y-70856001D01*
X137531504Y-70853900D01*
X137478770Y-70820010D01*
X137439108Y-70776926D01*
X137319744Y-70647262D01*
X137123509Y-70494526D01*
X137123507Y-70494525D01*
X137123506Y-70494524D01*
X136904811Y-70376172D01*
X136904802Y-70376169D01*
X136669616Y-70295429D01*
X136424335Y-70254500D01*
X136175665Y-70254500D01*
X135930383Y-70295429D01*
X135695197Y-70376169D01*
X135695188Y-70376172D01*
X135476493Y-70494524D01*
X135280257Y-70647261D01*
X135121230Y-70820010D01*
X135061342Y-70856001D01*
X134991504Y-70853900D01*
X134938770Y-70820010D01*
X134899108Y-70776926D01*
X134779744Y-70647262D01*
X134583509Y-70494526D01*
X134583507Y-70494525D01*
X134583506Y-70494524D01*
X134364811Y-70376172D01*
X134364802Y-70376169D01*
X134129616Y-70295429D01*
X133884335Y-70254500D01*
X133635665Y-70254500D01*
X133390383Y-70295429D01*
X133155197Y-70376169D01*
X133155188Y-70376172D01*
X132936493Y-70494524D01*
X132740257Y-70647261D01*
X132581230Y-70820010D01*
X132521342Y-70856001D01*
X132451504Y-70853900D01*
X132398770Y-70820010D01*
X132359108Y-70776926D01*
X132239744Y-70647262D01*
X132043509Y-70494526D01*
X132043507Y-70494525D01*
X132043506Y-70494524D01*
X131824811Y-70376172D01*
X131824802Y-70376169D01*
X131589616Y-70295429D01*
X131344335Y-70254500D01*
X131095665Y-70254500D01*
X130850383Y-70295429D01*
X130615197Y-70376169D01*
X130615188Y-70376172D01*
X130396493Y-70494524D01*
X130200257Y-70647261D01*
X130041230Y-70820010D01*
X129981342Y-70856001D01*
X129911504Y-70853900D01*
X129858770Y-70820010D01*
X129819108Y-70776926D01*
X129699744Y-70647262D01*
X129503509Y-70494526D01*
X129503507Y-70494525D01*
X129503506Y-70494524D01*
X129284811Y-70376172D01*
X129284802Y-70376169D01*
X129049616Y-70295429D01*
X128804335Y-70254500D01*
X128555665Y-70254500D01*
X128310383Y-70295429D01*
X128075197Y-70376169D01*
X128075188Y-70376172D01*
X127856493Y-70494524D01*
X127660257Y-70647261D01*
X127491837Y-70830213D01*
X127491829Y-70830224D01*
X127491455Y-70830797D01*
X127491242Y-70830978D01*
X127488690Y-70834258D01*
X127488014Y-70833732D01*
X127438304Y-70876147D01*
X127374865Y-70886302D01*
X127363434Y-70885116D01*
X126631132Y-71617417D01*
X126608682Y-71540960D01*
X126529395Y-71417587D01*
X126418562Y-71321549D01*
X126285161Y-71260627D01*
X126281365Y-71260081D01*
X127010057Y-70531389D01*
X126963229Y-70494943D01*
X126744614Y-70376635D01*
X126744603Y-70376630D01*
X126509493Y-70295916D01*
X126264293Y-70255000D01*
X126015707Y-70255000D01*
X125770506Y-70295916D01*
X125535396Y-70376630D01*
X125535385Y-70376635D01*
X125316771Y-70494942D01*
X125316769Y-70494943D01*
X125233397Y-70559835D01*
X125168403Y-70585477D01*
X125099863Y-70571910D01*
X125049538Y-70523442D01*
X125048120Y-70520413D01*
X125048047Y-70520454D01*
X125043793Y-70512664D01*
X124957547Y-70397455D01*
X124957544Y-70397452D01*
X124842335Y-70311206D01*
X124842328Y-70311202D01*
X124707482Y-70260908D01*
X124707483Y-70260908D01*
X124647883Y-70254501D01*
X124647881Y-70254500D01*
X124647873Y-70254500D01*
X124647864Y-70254500D01*
X122552129Y-70254500D01*
X122552123Y-70254501D01*
X122492516Y-70260908D01*
X122357671Y-70311202D01*
X122357664Y-70311206D01*
X122242455Y-70397452D01*
X122242452Y-70397455D01*
X122156206Y-70512664D01*
X122156202Y-70512671D01*
X122105908Y-70647517D01*
X122099501Y-70707116D01*
X122099500Y-70707135D01*
X122099500Y-72802870D01*
X122099501Y-72802876D01*
X122105908Y-72862483D01*
X122156202Y-72997328D01*
X122156206Y-72997335D01*
X122242452Y-73112544D01*
X122242455Y-73112547D01*
X122357664Y-73198793D01*
X122357671Y-73198797D01*
X122492517Y-73249091D01*
X122492516Y-73249091D01*
X122499444Y-73249835D01*
X122552127Y-73255500D01*
X124647872Y-73255499D01*
X124707483Y-73249091D01*
X124842331Y-73198796D01*
X124957546Y-73112546D01*
X125043796Y-72997331D01*
X125043797Y-72997326D01*
X125048047Y-72989546D01*
X125051135Y-72991232D01*
X125082873Y-72948790D01*
X125148324Y-72924339D01*
X125216605Y-72939155D01*
X125233398Y-72950165D01*
X125316768Y-73015055D01*
X125316771Y-73015057D01*
X125535385Y-73133364D01*
X125535396Y-73133369D01*
X125770506Y-73214083D01*
X126015707Y-73255000D01*
X126264293Y-73255000D01*
X126509493Y-73214083D01*
X126744603Y-73133369D01*
X126744614Y-73133364D01*
X126963228Y-73015057D01*
X126963231Y-73015055D01*
X127010056Y-72978609D01*
X126281365Y-72249918D01*
X126285161Y-72249373D01*
X126418562Y-72188451D01*
X126529395Y-72092413D01*
X126608682Y-71969040D01*
X126631133Y-71892580D01*
X127363434Y-72624882D01*
X127374861Y-72623697D01*
X127443573Y-72636360D01*
X127488092Y-72676194D01*
X127488683Y-72675735D01*
X127491218Y-72678992D01*
X127491456Y-72679205D01*
X127491831Y-72679780D01*
X127539709Y-72731789D01*
X127660256Y-72862738D01*
X127856491Y-73015474D01*
X127874090Y-73024998D01*
X128074332Y-73133364D01*
X128075190Y-73133828D01*
X128218391Y-73182989D01*
X128308964Y-73214083D01*
X128310386Y-73214571D01*
X128555665Y-73255500D01*
X128804335Y-73255500D01*
X129049614Y-73214571D01*
X129284810Y-73133828D01*
X129503509Y-73015474D01*
X129699744Y-72862738D01*
X129858771Y-72689988D01*
X129918657Y-72653999D01*
X129988495Y-72656099D01*
X130041228Y-72689988D01*
X130200256Y-72862738D01*
X130396491Y-73015474D01*
X130414090Y-73024998D01*
X130614332Y-73133364D01*
X130615190Y-73133828D01*
X130758391Y-73182989D01*
X130848964Y-73214083D01*
X130850386Y-73214571D01*
X131095665Y-73255500D01*
X131344335Y-73255500D01*
X131589614Y-73214571D01*
X131824810Y-73133828D01*
X132043509Y-73015474D01*
X132239744Y-72862738D01*
X132398771Y-72689988D01*
X132458657Y-72653999D01*
X132528495Y-72656099D01*
X132581228Y-72689988D01*
X132740256Y-72862738D01*
X132936491Y-73015474D01*
X132954090Y-73024998D01*
X133154332Y-73133364D01*
X133155190Y-73133828D01*
X133298391Y-73182989D01*
X133388964Y-73214083D01*
X133390386Y-73214571D01*
X133635665Y-73255500D01*
X133884335Y-73255500D01*
X134129614Y-73214571D01*
X134364810Y-73133828D01*
X134583509Y-73015474D01*
X134779744Y-72862738D01*
X134938771Y-72689988D01*
X134998657Y-72653999D01*
X135068495Y-72656099D01*
X135121228Y-72689988D01*
X135280256Y-72862738D01*
X135443334Y-72989667D01*
X135484146Y-73046376D01*
X135487821Y-73116149D01*
X135454852Y-73175200D01*
X118100483Y-90529569D01*
X118087910Y-90539643D01*
X118088065Y-90539830D01*
X118082059Y-90544798D01*
X118057434Y-90571020D01*
X118032809Y-90597244D01*
X118021949Y-90608104D01*
X118011088Y-90618965D01*
X118011078Y-90618977D01*
X118006587Y-90624765D01*
X118002801Y-90629197D01*
X117969552Y-90664606D01*
X117959322Y-90683213D01*
X117948646Y-90699464D01*
X117935640Y-90716232D01*
X117935636Y-90716238D01*
X117916348Y-90760811D01*
X117913777Y-90766058D01*
X117890372Y-90808630D01*
X117890372Y-90808631D01*
X117885091Y-90829199D01*
X117878791Y-90847601D01*
X117870364Y-90867073D01*
X117862766Y-90915047D01*
X117861581Y-90920770D01*
X117849500Y-90967818D01*
X117849500Y-90989044D01*
X117847973Y-91008444D01*
X117844653Y-91029403D01*
X117844652Y-91029405D01*
X114165000Y-91029405D01*
X114165000Y-72000000D01*
X116099564Y-72000000D01*
X116115908Y-72249373D01*
X116119287Y-72300918D01*
X116119288Y-72300930D01*
X116178118Y-72596683D01*
X116178122Y-72596698D01*
X116275053Y-72882247D01*
X116275062Y-72882268D01*
X116408431Y-73152713D01*
X116408435Y-73152720D01*
X116575973Y-73403459D01*
X116774810Y-73630189D01*
X117001540Y-73829026D01*
X117252279Y-73996564D01*
X117252286Y-73996568D01*
X117522731Y-74129937D01*
X117522736Y-74129939D01*
X117522748Y-74129945D01*
X117808309Y-74226880D01*
X117923706Y-74249834D01*
X118104069Y-74285711D01*
X118104070Y-74285711D01*
X118104080Y-74285713D01*
X118405000Y-74305436D01*
X118705920Y-74285713D01*
X119001691Y-74226880D01*
X119287252Y-74129945D01*
X119557718Y-73996566D01*
X119808461Y-73829025D01*
X120035189Y-73630189D01*
X120234025Y-73403461D01*
X120401566Y-73152718D01*
X120534945Y-72882252D01*
X120631880Y-72596691D01*
X120690713Y-72300920D01*
X120710436Y-72000000D01*
X120690713Y-71699080D01*
X120631880Y-71403309D01*
X120534945Y-71117748D01*
X120533374Y-71114563D01*
X120401568Y-70847286D01*
X120401564Y-70847279D01*
X120234026Y-70596540D01*
X120035189Y-70369810D01*
X119808459Y-70170973D01*
X119557720Y-70003435D01*
X119557713Y-70003431D01*
X119287268Y-69870062D01*
X119287247Y-69870053D01*
X119001698Y-69773122D01*
X119001692Y-69773120D01*
X119001691Y-69773120D01*
X119001689Y-69773119D01*
X119001683Y-69773118D01*
X118705930Y-69714288D01*
X118705921Y-69714287D01*
X118705920Y-69714287D01*
X118405000Y-69694564D01*
X118104080Y-69714287D01*
X118104079Y-69714287D01*
X118104069Y-69714288D01*
X117808316Y-69773118D01*
X117808301Y-69773122D01*
X117522752Y-69870053D01*
X117522731Y-69870062D01*
X117252286Y-70003431D01*
X117252279Y-70003435D01*
X117001540Y-70170973D01*
X116774810Y-70369810D01*
X116575973Y-70596540D01*
X116408435Y-70847279D01*
X116408431Y-70847286D01*
X116275062Y-71117731D01*
X116275053Y-71117752D01*
X116178122Y-71403301D01*
X116178118Y-71403316D01*
X116119288Y-71699069D01*
X116119287Y-71699079D01*
X116119287Y-71699080D01*
X116099564Y-72000000D01*
X114165000Y-72000000D01*
X114165000Y-69339000D01*
X114184685Y-69271961D01*
X114237489Y-69226206D01*
X114289000Y-69215000D01*
X190511000Y-69215000D01*
X190578039Y-69234685D01*
G37*
%TD.AperFunction*%
%TD*%
M02*
