%TF.GenerationSoftware,KiCad,Pcbnew,7.0.6*%
%TF.CreationDate,2023-07-22T23:51:01+02:00*%
%TF.ProjectId,Ctrl-MC Dsiplay Module PCB ver1,4374726c-2d4d-4432-9044-7369706c6179,rev?*%
%TF.SameCoordinates,Original*%
%TF.FileFunction,Soldermask,Top*%
%TF.FilePolarity,Negative*%
%FSLAX46Y46*%
G04 Gerber Fmt 4.6, Leading zero omitted, Abs format (unit mm)*
G04 Created by KiCad (PCBNEW 7.0.6) date 2023-07-22 23:51:01*
%MOMM*%
%LPD*%
G01*
G04 APERTURE LIST*
G04 Aperture macros list*
%AMRoundRect*
0 Rectangle with rounded corners*
0 $1 Rounding radius*
0 $2 $3 $4 $5 $6 $7 $8 $9 X,Y pos of 4 corners*
0 Add a 4 corners polygon primitive as box body*
4,1,4,$2,$3,$4,$5,$6,$7,$8,$9,$2,$3,0*
0 Add four circle primitives for the rounded corners*
1,1,$1+$1,$2,$3*
1,1,$1+$1,$4,$5*
1,1,$1+$1,$6,$7*
1,1,$1+$1,$8,$9*
0 Add four rect primitives between the rounded corners*
20,1,$1+$1,$2,$3,$4,$5,0*
20,1,$1+$1,$4,$5,$6,$7,0*
20,1,$1+$1,$6,$7,$8,$9,0*
20,1,$1+$1,$8,$9,$2,$3,0*%
G04 Aperture macros list end*
%ADD10C,2.000000*%
%ADD11C,3.600000*%
%ADD12C,3.800000*%
%ADD13R,2.000000X2.000000*%
%ADD14RoundRect,0.250000X0.600000X0.750000X-0.600000X0.750000X-0.600000X-0.750000X0.600000X-0.750000X0*%
%ADD15O,1.700000X2.000000*%
%ADD16RoundRect,0.250000X0.925000X-0.875000X0.925000X0.875000X-0.925000X0.875000X-0.925000X-0.875000X0*%
%ADD17RoundRect,0.250000X-1.100000X0.412500X-1.100000X-0.412500X1.100000X-0.412500X1.100000X0.412500X0*%
%ADD18R,0.950000X2.150000*%
%ADD19R,3.250000X2.150000*%
%ADD20R,1.508000X1.508000*%
%ADD21C,1.508000*%
G04 APERTURE END LIST*
D10*
%TO.C,J1*%
X186362443Y-104896278D03*
X182862440Y-110096278D03*
%TD*%
%TO.C,OLED-DISP-MODULE1*%
X186055000Y-83810000D03*
X186055000Y-86350000D03*
X186055000Y-88890000D03*
X186055000Y-91430000D03*
X186055000Y-93970000D03*
X186055000Y-96510000D03*
X186055000Y-99050000D03*
D11*
X118405000Y-72000000D03*
X118405000Y-111000000D03*
D12*
X186405000Y-72000000D03*
%TD*%
D10*
%TO.C,PWR-MODULE1*%
X181610000Y-73025000D03*
X179070000Y-73025000D03*
D13*
X171450000Y-73025000D03*
X168910000Y-73025000D03*
D10*
X181610000Y-91225000D03*
X179070000Y-91225000D03*
D13*
X171450000Y-91225000D03*
X168910000Y-91225000D03*
%TD*%
%TO.C,EPS32-DEV-BOARD1*%
X123600000Y-71755000D03*
D10*
X126140000Y-71755000D03*
X128680000Y-71755000D03*
X131220000Y-71755000D03*
X133760000Y-71755000D03*
X136300000Y-71755000D03*
X138840000Y-71755000D03*
X141380000Y-71755000D03*
X143920000Y-71755000D03*
X146460000Y-71755000D03*
X149000000Y-71755000D03*
X151540000Y-71755000D03*
X154080000Y-71755000D03*
X156620000Y-71755000D03*
X159160000Y-71755000D03*
X159160000Y-97155000D03*
X156620000Y-97155000D03*
X154080000Y-97155000D03*
X151540000Y-97155000D03*
X149000000Y-97155000D03*
X146460000Y-97155000D03*
X143920000Y-97155000D03*
X141380000Y-97155000D03*
X138840000Y-97155000D03*
X136300000Y-97155000D03*
X133760000Y-97155000D03*
X131220000Y-97155000D03*
X128680000Y-97155000D03*
X126140000Y-97155000D03*
X123600000Y-97155000D03*
%TD*%
D14*
%TO.C,J3*%
X119298303Y-104936813D03*
D15*
X116798303Y-104936813D03*
%TD*%
D16*
%TO.C,C1*%
X182118000Y-83150000D03*
X182118000Y-78050000D03*
%TD*%
D17*
%TO.C,C2*%
X169545000Y-81965000D03*
X169545000Y-85090000D03*
%TD*%
D18*
%TO.C,LDO1*%
X173468000Y-83270000D03*
X175768000Y-83270000D03*
X178068000Y-83270000D03*
D19*
X175768000Y-77470000D03*
%TD*%
D20*
%TO.C,J2*%
X178435000Y-104775000D03*
X178435000Y-109855000D03*
D21*
X175895000Y-104775000D03*
X175895000Y-109855000D03*
X173355000Y-104775000D03*
X173355000Y-109855000D03*
X170815000Y-104775000D03*
X170815000Y-109855000D03*
X168275000Y-104775000D03*
X168275000Y-109855000D03*
X165735000Y-104775000D03*
X165735000Y-109855000D03*
X163195000Y-104775000D03*
X163195000Y-109855000D03*
X160655000Y-104775000D03*
X160655000Y-109855000D03*
X158115000Y-104775000D03*
X158115000Y-109855000D03*
X155575000Y-104775000D03*
X155575000Y-109855000D03*
X153035000Y-104775000D03*
X153035000Y-109855000D03*
X150495000Y-104775000D03*
X150495000Y-109855000D03*
X147955000Y-104775000D03*
X147955000Y-109855000D03*
X145415000Y-104775000D03*
X145415000Y-109855000D03*
X142875000Y-104775000D03*
X142875000Y-109855000D03*
X140335000Y-104775000D03*
X140335000Y-109855000D03*
X137795000Y-104775000D03*
X137795000Y-109855000D03*
X135255000Y-104775000D03*
X135255000Y-109855000D03*
X132715000Y-104775000D03*
X132715000Y-109855000D03*
X130175000Y-104775000D03*
X130175000Y-109855000D03*
X127635000Y-104775000D03*
X127635000Y-109855000D03*
X125095000Y-104775000D03*
X125095000Y-109855000D03*
%TD*%
M02*
