M48
; DRILL file {KiCad 7.0.6} date Sat Jul 22 23:51:05 2023
; FORMAT={-:-/ absolute / inch / decimal}
; #@! TF.CreationDate,2023-07-22T23:51:05+02:00
; #@! TF.GenerationSoftware,Kicad,Pcbnew,7.0.6
; #@! TF.FileFunction,Plated,1,2,PTH
FMAT,2
INCH
; #@! TA.AperFunction,Plated,PTH,ViaDrill
T1C0.0157
; #@! TA.AperFunction,Plated,PTH,ComponentDrill
T2C0.0394
; #@! TA.AperFunction,Plated,PTH,ComponentDrill
T3C0.0402
; #@! TA.AperFunction,Plated,PTH,ComponentDrill
T4C0.0420
%
G90
G05
T1
X4.65Y-3.0
X4.65Y-3.1
X4.65Y-3.2
X4.65Y-3.3
X5.25Y-3.6
X5.35Y-3.6
X5.45Y-3.6
X5.55Y-3.6
X5.77Y-3.0
X5.77Y-3.25
X5.87Y-3.0
X5.87Y-3.25
X5.975Y-3.0
X5.975Y-3.25
T2
X4.5984Y-4.1314
X4.6968Y-4.1314
X4.925Y-4.125
X4.925Y-4.325
X5.025Y-4.125
X5.025Y-4.325
X5.125Y-4.125
X5.125Y-4.325
X5.225Y-4.125
X5.225Y-4.325
X5.325Y-4.125
X5.325Y-4.325
X5.425Y-4.125
X5.425Y-4.325
X5.525Y-4.125
X5.525Y-4.325
X5.625Y-4.125
X5.625Y-4.325
X5.725Y-4.125
X5.725Y-4.325
X5.825Y-4.125
X5.825Y-4.325
X5.925Y-4.125
X5.925Y-4.325
X6.025Y-4.125
X6.025Y-4.325
X6.125Y-4.125
X6.125Y-4.325
X6.225Y-4.125
X6.225Y-4.325
X6.325Y-4.125
X6.325Y-4.325
X6.425Y-4.125
X6.425Y-4.325
X6.525Y-4.125
X6.525Y-4.325
X6.625Y-4.125
X6.625Y-4.325
X6.65Y-2.875
X6.65Y-3.5915
X6.725Y-4.125
X6.725Y-4.325
X6.75Y-2.875
X6.75Y-3.5915
X6.825Y-4.125
X6.825Y-4.325
X6.925Y-4.125
X6.925Y-4.325
X7.025Y-4.125
X7.025Y-4.325
X7.05Y-2.875
X7.05Y-3.5915
X7.15Y-2.875
X7.15Y-3.5915
X7.325Y-3.2996
X7.325Y-3.3996
X7.325Y-3.4996
X7.325Y-3.5996
X7.325Y-3.6996
X7.325Y-3.7996
X7.325Y-3.8996
T3
X4.8661Y-2.825
X4.8661Y-3.825
X4.9661Y-2.825
X4.9661Y-3.825
X5.0661Y-2.825
X5.0661Y-3.825
X5.1661Y-2.825
X5.1661Y-3.825
X5.2661Y-2.825
X5.2661Y-3.825
X5.3661Y-2.825
X5.3661Y-3.825
X5.4661Y-2.825
X5.4661Y-3.825
X5.5661Y-2.825
X5.5661Y-3.825
X5.6661Y-2.825
X5.6661Y-3.825
X5.7661Y-2.825
X5.7661Y-3.825
X5.8661Y-2.825
X5.8661Y-3.825
X5.9661Y-2.825
X5.9661Y-3.825
X6.0661Y-2.825
X6.0661Y-3.825
X6.1661Y-2.825
X6.1661Y-3.825
X6.2661Y-2.825
X6.2661Y-3.825
T4
X7.1993Y-4.3345
X7.3371Y-4.1298
T0
M30
