%TF.GenerationSoftware,KiCad,Pcbnew,7.0.6*%
%TF.CreationDate,2023-07-22T23:51:01+02:00*%
%TF.ProjectId,Ctrl-MC Dsiplay Module PCB ver1,4374726c-2d4d-4432-9044-7369706c6179,rev?*%
%TF.SameCoordinates,Original*%
%TF.FileFunction,Legend,Top*%
%TF.FilePolarity,Positive*%
%FSLAX46Y46*%
G04 Gerber Fmt 4.6, Leading zero omitted, Abs format (unit mm)*
G04 Created by KiCad (PCBNEW 7.0.6) date 2023-07-22 23:51:01*
%MOMM*%
%LPD*%
G01*
G04 APERTURE LIST*
%ADD10C,0.200000*%
%ADD11C,0.100000*%
%ADD12C,0.120000*%
%ADD13C,0.127000*%
G04 APERTURE END LIST*
D10*
X129213660Y-115913376D02*
X129213660Y-115020519D01*
X129213660Y-115020519D02*
X129273183Y-114841947D01*
X129273183Y-114841947D02*
X129392231Y-114722900D01*
X129392231Y-114722900D02*
X129570802Y-114663376D01*
X129570802Y-114663376D02*
X129689850Y-114663376D01*
X128023183Y-114663376D02*
X128618421Y-114663376D01*
X128618421Y-114663376D02*
X128618421Y-115913376D01*
X126892231Y-114782423D02*
X126951755Y-114722900D01*
X126951755Y-114722900D02*
X127130326Y-114663376D01*
X127130326Y-114663376D02*
X127249374Y-114663376D01*
X127249374Y-114663376D02*
X127427945Y-114722900D01*
X127427945Y-114722900D02*
X127546993Y-114841947D01*
X127546993Y-114841947D02*
X127606516Y-114960995D01*
X127606516Y-114960995D02*
X127666040Y-115199090D01*
X127666040Y-115199090D02*
X127666040Y-115377661D01*
X127666040Y-115377661D02*
X127606516Y-115615757D01*
X127606516Y-115615757D02*
X127546993Y-115734804D01*
X127546993Y-115734804D02*
X127427945Y-115853852D01*
X127427945Y-115853852D02*
X127249374Y-115913376D01*
X127249374Y-115913376D02*
X127130326Y-115913376D01*
X127130326Y-115913376D02*
X126951755Y-115853852D01*
X126951755Y-115853852D02*
X126892231Y-115794328D01*
X125999374Y-115913376D02*
X125999374Y-115020519D01*
X125999374Y-115020519D02*
X126058897Y-114841947D01*
X126058897Y-114841947D02*
X126177945Y-114722900D01*
X126177945Y-114722900D02*
X126356516Y-114663376D01*
X126356516Y-114663376D02*
X126475564Y-114663376D01*
X124808897Y-114663376D02*
X125404135Y-114663376D01*
X125404135Y-114663376D02*
X125404135Y-115913376D01*
X123677945Y-114782423D02*
X123737469Y-114722900D01*
X123737469Y-114722900D02*
X123916040Y-114663376D01*
X123916040Y-114663376D02*
X124035088Y-114663376D01*
X124035088Y-114663376D02*
X124213659Y-114722900D01*
X124213659Y-114722900D02*
X124332707Y-114841947D01*
X124332707Y-114841947D02*
X124392230Y-114960995D01*
X124392230Y-114960995D02*
X124451754Y-115199090D01*
X124451754Y-115199090D02*
X124451754Y-115377661D01*
X124451754Y-115377661D02*
X124392230Y-115615757D01*
X124392230Y-115615757D02*
X124332707Y-115734804D01*
X124332707Y-115734804D02*
X124213659Y-115853852D01*
X124213659Y-115853852D02*
X124035088Y-115913376D01*
X124035088Y-115913376D02*
X123916040Y-115913376D01*
X123916040Y-115913376D02*
X123737469Y-115853852D01*
X123737469Y-115853852D02*
X123677945Y-115794328D01*
X122785088Y-115913376D02*
X122785088Y-115020519D01*
X122785088Y-115020519D02*
X122844611Y-114841947D01*
X122844611Y-114841947D02*
X122963659Y-114722900D01*
X122963659Y-114722900D02*
X123142230Y-114663376D01*
X123142230Y-114663376D02*
X123261278Y-114663376D01*
X121594611Y-114663376D02*
X122189849Y-114663376D01*
X122189849Y-114663376D02*
X122189849Y-115913376D01*
X120463659Y-114782423D02*
X120523183Y-114722900D01*
X120523183Y-114722900D02*
X120701754Y-114663376D01*
X120701754Y-114663376D02*
X120820802Y-114663376D01*
X120820802Y-114663376D02*
X120999373Y-114722900D01*
X120999373Y-114722900D02*
X121118421Y-114841947D01*
X121118421Y-114841947D02*
X121177944Y-114960995D01*
X121177944Y-114960995D02*
X121237468Y-115199090D01*
X121237468Y-115199090D02*
X121237468Y-115377661D01*
X121237468Y-115377661D02*
X121177944Y-115615757D01*
X121177944Y-115615757D02*
X121118421Y-115734804D01*
X121118421Y-115734804D02*
X120999373Y-115853852D01*
X120999373Y-115853852D02*
X120820802Y-115913376D01*
X120820802Y-115913376D02*
X120701754Y-115913376D01*
X120701754Y-115913376D02*
X120523183Y-115853852D01*
X120523183Y-115853852D02*
X120463659Y-115794328D01*
X119570802Y-115913376D02*
X119570802Y-115020519D01*
X119570802Y-115020519D02*
X119630325Y-114841947D01*
X119630325Y-114841947D02*
X119749373Y-114722900D01*
X119749373Y-114722900D02*
X119927944Y-114663376D01*
X119927944Y-114663376D02*
X120046992Y-114663376D01*
X118380325Y-114663376D02*
X118975563Y-114663376D01*
X118975563Y-114663376D02*
X118975563Y-115913376D01*
X117249373Y-114782423D02*
X117308897Y-114722900D01*
X117308897Y-114722900D02*
X117487468Y-114663376D01*
X117487468Y-114663376D02*
X117606516Y-114663376D01*
X117606516Y-114663376D02*
X117785087Y-114722900D01*
X117785087Y-114722900D02*
X117904135Y-114841947D01*
X117904135Y-114841947D02*
X117963658Y-114960995D01*
X117963658Y-114960995D02*
X118023182Y-115199090D01*
X118023182Y-115199090D02*
X118023182Y-115377661D01*
X118023182Y-115377661D02*
X117963658Y-115615757D01*
X117963658Y-115615757D02*
X117904135Y-115734804D01*
X117904135Y-115734804D02*
X117785087Y-115853852D01*
X117785087Y-115853852D02*
X117606516Y-115913376D01*
X117606516Y-115913376D02*
X117487468Y-115913376D01*
X117487468Y-115913376D02*
X117308897Y-115853852D01*
X117308897Y-115853852D02*
X117249373Y-115794328D01*
X162157627Y-90414926D02*
X161919532Y-90414926D01*
X161919532Y-90414926D02*
X161800484Y-90355402D01*
X161800484Y-90355402D02*
X161681437Y-90236354D01*
X161681437Y-90236354D02*
X161621913Y-89998259D01*
X161621913Y-89998259D02*
X161621913Y-89581592D01*
X161621913Y-89581592D02*
X161681437Y-89343497D01*
X161681437Y-89343497D02*
X161800484Y-89224450D01*
X161800484Y-89224450D02*
X161919532Y-89164926D01*
X161919532Y-89164926D02*
X162157627Y-89164926D01*
X162157627Y-89164926D02*
X162276675Y-89224450D01*
X162276675Y-89224450D02*
X162395722Y-89343497D01*
X162395722Y-89343497D02*
X162455246Y-89581592D01*
X162455246Y-89581592D02*
X162455246Y-89998259D01*
X162455246Y-89998259D02*
X162395722Y-90236354D01*
X162395722Y-90236354D02*
X162276675Y-90355402D01*
X162276675Y-90355402D02*
X162157627Y-90414926D01*
X160490960Y-89164926D02*
X161086198Y-89164926D01*
X161086198Y-89164926D02*
X161086198Y-90414926D01*
X160074293Y-89819688D02*
X159657627Y-89819688D01*
X159479055Y-89164926D02*
X160074293Y-89164926D01*
X160074293Y-89164926D02*
X160074293Y-90414926D01*
X160074293Y-90414926D02*
X159479055Y-90414926D01*
X158943341Y-89164926D02*
X158943341Y-90414926D01*
X158943341Y-90414926D02*
X158645722Y-90414926D01*
X158645722Y-90414926D02*
X158467151Y-90355402D01*
X158467151Y-90355402D02*
X158348103Y-90236354D01*
X158348103Y-90236354D02*
X158288580Y-90117307D01*
X158288580Y-90117307D02*
X158229056Y-89879211D01*
X158229056Y-89879211D02*
X158229056Y-89700640D01*
X158229056Y-89700640D02*
X158288580Y-89462545D01*
X158288580Y-89462545D02*
X158348103Y-89343497D01*
X158348103Y-89343497D02*
X158467151Y-89224450D01*
X158467151Y-89224450D02*
X158645722Y-89164926D01*
X158645722Y-89164926D02*
X158943341Y-89164926D01*
X157693341Y-89641116D02*
X156740961Y-89641116D01*
X156145722Y-89164926D02*
X156145722Y-90414926D01*
X156145722Y-90414926D02*
X155848103Y-90414926D01*
X155848103Y-90414926D02*
X155669532Y-90355402D01*
X155669532Y-90355402D02*
X155550484Y-90236354D01*
X155550484Y-90236354D02*
X155490961Y-90117307D01*
X155490961Y-90117307D02*
X155431437Y-89879211D01*
X155431437Y-89879211D02*
X155431437Y-89700640D01*
X155431437Y-89700640D02*
X155490961Y-89462545D01*
X155490961Y-89462545D02*
X155550484Y-89343497D01*
X155550484Y-89343497D02*
X155669532Y-89224450D01*
X155669532Y-89224450D02*
X155848103Y-89164926D01*
X155848103Y-89164926D02*
X156145722Y-89164926D01*
X154895722Y-89164926D02*
X154895722Y-90414926D01*
X154360008Y-89224450D02*
X154181437Y-89164926D01*
X154181437Y-89164926D02*
X153883818Y-89164926D01*
X153883818Y-89164926D02*
X153764770Y-89224450D01*
X153764770Y-89224450D02*
X153705246Y-89283973D01*
X153705246Y-89283973D02*
X153645723Y-89403021D01*
X153645723Y-89403021D02*
X153645723Y-89522069D01*
X153645723Y-89522069D02*
X153705246Y-89641116D01*
X153705246Y-89641116D02*
X153764770Y-89700640D01*
X153764770Y-89700640D02*
X153883818Y-89760164D01*
X153883818Y-89760164D02*
X154121913Y-89819688D01*
X154121913Y-89819688D02*
X154240961Y-89879211D01*
X154240961Y-89879211D02*
X154300484Y-89938735D01*
X154300484Y-89938735D02*
X154360008Y-90057783D01*
X154360008Y-90057783D02*
X154360008Y-90176830D01*
X154360008Y-90176830D02*
X154300484Y-90295878D01*
X154300484Y-90295878D02*
X154240961Y-90355402D01*
X154240961Y-90355402D02*
X154121913Y-90414926D01*
X154121913Y-90414926D02*
X153824294Y-90414926D01*
X153824294Y-90414926D02*
X153645723Y-90355402D01*
X153110008Y-89164926D02*
X153110008Y-90414926D01*
X153110008Y-90414926D02*
X152633818Y-90414926D01*
X152633818Y-90414926D02*
X152514770Y-90355402D01*
X152514770Y-90355402D02*
X152455247Y-90295878D01*
X152455247Y-90295878D02*
X152395723Y-90176830D01*
X152395723Y-90176830D02*
X152395723Y-89998259D01*
X152395723Y-89998259D02*
X152455247Y-89879211D01*
X152455247Y-89879211D02*
X152514770Y-89819688D01*
X152514770Y-89819688D02*
X152633818Y-89760164D01*
X152633818Y-89760164D02*
X153110008Y-89760164D01*
X151860008Y-89641116D02*
X150907628Y-89641116D01*
X150312389Y-89164926D02*
X150312389Y-90414926D01*
X150312389Y-90414926D02*
X149895723Y-89522069D01*
X149895723Y-89522069D02*
X149479056Y-90414926D01*
X149479056Y-90414926D02*
X149479056Y-89164926D01*
X148645723Y-90414926D02*
X148407628Y-90414926D01*
X148407628Y-90414926D02*
X148288580Y-90355402D01*
X148288580Y-90355402D02*
X148169533Y-90236354D01*
X148169533Y-90236354D02*
X148110009Y-89998259D01*
X148110009Y-89998259D02*
X148110009Y-89581592D01*
X148110009Y-89581592D02*
X148169533Y-89343497D01*
X148169533Y-89343497D02*
X148288580Y-89224450D01*
X148288580Y-89224450D02*
X148407628Y-89164926D01*
X148407628Y-89164926D02*
X148645723Y-89164926D01*
X148645723Y-89164926D02*
X148764771Y-89224450D01*
X148764771Y-89224450D02*
X148883818Y-89343497D01*
X148883818Y-89343497D02*
X148943342Y-89581592D01*
X148943342Y-89581592D02*
X148943342Y-89998259D01*
X148943342Y-89998259D02*
X148883818Y-90236354D01*
X148883818Y-90236354D02*
X148764771Y-90355402D01*
X148764771Y-90355402D02*
X148645723Y-90414926D01*
X147574294Y-89164926D02*
X147574294Y-90414926D01*
X147574294Y-90414926D02*
X147276675Y-90414926D01*
X147276675Y-90414926D02*
X147098104Y-90355402D01*
X147098104Y-90355402D02*
X146979056Y-90236354D01*
X146979056Y-90236354D02*
X146919533Y-90117307D01*
X146919533Y-90117307D02*
X146860009Y-89879211D01*
X146860009Y-89879211D02*
X146860009Y-89700640D01*
X146860009Y-89700640D02*
X146919533Y-89462545D01*
X146919533Y-89462545D02*
X146979056Y-89343497D01*
X146979056Y-89343497D02*
X147098104Y-89224450D01*
X147098104Y-89224450D02*
X147276675Y-89164926D01*
X147276675Y-89164926D02*
X147574294Y-89164926D01*
X146324294Y-90414926D02*
X146324294Y-89403021D01*
X146324294Y-89403021D02*
X146264771Y-89283973D01*
X146264771Y-89283973D02*
X146205247Y-89224450D01*
X146205247Y-89224450D02*
X146086199Y-89164926D01*
X146086199Y-89164926D02*
X145848104Y-89164926D01*
X145848104Y-89164926D02*
X145729056Y-89224450D01*
X145729056Y-89224450D02*
X145669533Y-89283973D01*
X145669533Y-89283973D02*
X145610009Y-89403021D01*
X145610009Y-89403021D02*
X145610009Y-90414926D01*
X144419532Y-89164926D02*
X145014770Y-89164926D01*
X145014770Y-89164926D02*
X145014770Y-90414926D01*
X144002865Y-89819688D02*
X143586199Y-89819688D01*
X143407627Y-89164926D02*
X144002865Y-89164926D01*
X144002865Y-89164926D02*
X144002865Y-90414926D01*
X144002865Y-90414926D02*
X143407627Y-90414926D01*
X142217152Y-89164926D02*
X142931437Y-89164926D01*
X142574294Y-89164926D02*
X142574294Y-90414926D01*
X142574294Y-90414926D02*
X142693342Y-90236354D01*
X142693342Y-90236354D02*
X142812390Y-90117307D01*
X142812390Y-90117307D02*
X142931437Y-90057783D01*
X190344557Y-86988379D02*
X189663604Y-86988379D01*
X189663604Y-86988379D02*
X190030271Y-86512188D01*
X190030271Y-86512188D02*
X189873128Y-86512188D01*
X189873128Y-86512188D02*
X189768366Y-86452664D01*
X189768366Y-86452664D02*
X189715985Y-86393141D01*
X189715985Y-86393141D02*
X189663604Y-86274093D01*
X189663604Y-86274093D02*
X189663604Y-85976474D01*
X189663604Y-85976474D02*
X189715985Y-85857426D01*
X189715985Y-85857426D02*
X189768366Y-85797903D01*
X189768366Y-85797903D02*
X189873128Y-85738379D01*
X189873128Y-85738379D02*
X190187414Y-85738379D01*
X190187414Y-85738379D02*
X190292176Y-85797903D01*
X190292176Y-85797903D02*
X190344557Y-85857426D01*
X189349319Y-86988379D02*
X188982652Y-85738379D01*
X188982652Y-85738379D02*
X188615985Y-86988379D01*
X188354081Y-86988379D02*
X187673128Y-86988379D01*
X187673128Y-86988379D02*
X188039795Y-86512188D01*
X188039795Y-86512188D02*
X187882652Y-86512188D01*
X187882652Y-86512188D02*
X187777890Y-86452664D01*
X187777890Y-86452664D02*
X187725509Y-86393141D01*
X187725509Y-86393141D02*
X187673128Y-86274093D01*
X187673128Y-86274093D02*
X187673128Y-85976474D01*
X187673128Y-85976474D02*
X187725509Y-85857426D01*
X187725509Y-85857426D02*
X187777890Y-85797903D01*
X187777890Y-85797903D02*
X187882652Y-85738379D01*
X187882652Y-85738379D02*
X188196938Y-85738379D01*
X188196938Y-85738379D02*
X188301700Y-85797903D01*
X188301700Y-85797903D02*
X188354081Y-85857426D01*
X190292176Y-90877903D02*
X190135033Y-90818379D01*
X190135033Y-90818379D02*
X189873128Y-90818379D01*
X189873128Y-90818379D02*
X189768366Y-90877903D01*
X189768366Y-90877903D02*
X189715985Y-90937426D01*
X189715985Y-90937426D02*
X189663604Y-91056474D01*
X189663604Y-91056474D02*
X189663604Y-91175522D01*
X189663604Y-91175522D02*
X189715985Y-91294569D01*
X189715985Y-91294569D02*
X189768366Y-91354093D01*
X189768366Y-91354093D02*
X189873128Y-91413617D01*
X189873128Y-91413617D02*
X190082652Y-91473141D01*
X190082652Y-91473141D02*
X190187414Y-91532664D01*
X190187414Y-91532664D02*
X190239795Y-91592188D01*
X190239795Y-91592188D02*
X190292176Y-91711236D01*
X190292176Y-91711236D02*
X190292176Y-91830283D01*
X190292176Y-91830283D02*
X190239795Y-91949331D01*
X190239795Y-91949331D02*
X190187414Y-92008855D01*
X190187414Y-92008855D02*
X190082652Y-92068379D01*
X190082652Y-92068379D02*
X189820747Y-92068379D01*
X189820747Y-92068379D02*
X189663604Y-92008855D01*
X189192176Y-90818379D02*
X189192176Y-92068379D01*
X189192176Y-92068379D02*
X188930271Y-92068379D01*
X188930271Y-92068379D02*
X188773128Y-92008855D01*
X188773128Y-92008855D02*
X188668366Y-91889807D01*
X188668366Y-91889807D02*
X188615985Y-91770760D01*
X188615985Y-91770760D02*
X188563604Y-91532664D01*
X188563604Y-91532664D02*
X188563604Y-91354093D01*
X188563604Y-91354093D02*
X188615985Y-91115998D01*
X188615985Y-91115998D02*
X188668366Y-90996950D01*
X188668366Y-90996950D02*
X188773128Y-90877903D01*
X188773128Y-90877903D02*
X188930271Y-90818379D01*
X188930271Y-90818379D02*
X189192176Y-90818379D01*
X188144557Y-91175522D02*
X187620747Y-91175522D01*
X188249319Y-90818379D02*
X187882652Y-92068379D01*
X187882652Y-92068379D02*
X187515985Y-90818379D01*
X189611223Y-98557426D02*
X189663604Y-98497903D01*
X189663604Y-98497903D02*
X189820747Y-98438379D01*
X189820747Y-98438379D02*
X189925509Y-98438379D01*
X189925509Y-98438379D02*
X190082652Y-98497903D01*
X190082652Y-98497903D02*
X190187414Y-98616950D01*
X190187414Y-98616950D02*
X190239795Y-98735998D01*
X190239795Y-98735998D02*
X190292176Y-98974093D01*
X190292176Y-98974093D02*
X190292176Y-99152664D01*
X190292176Y-99152664D02*
X190239795Y-99390760D01*
X190239795Y-99390760D02*
X190187414Y-99509807D01*
X190187414Y-99509807D02*
X190082652Y-99628855D01*
X190082652Y-99628855D02*
X189925509Y-99688379D01*
X189925509Y-99688379D02*
X189820747Y-99688379D01*
X189820747Y-99688379D02*
X189663604Y-99628855D01*
X189663604Y-99628855D02*
X189611223Y-99569331D01*
X189192176Y-98497903D02*
X189035033Y-98438379D01*
X189035033Y-98438379D02*
X188773128Y-98438379D01*
X188773128Y-98438379D02*
X188668366Y-98497903D01*
X188668366Y-98497903D02*
X188615985Y-98557426D01*
X188615985Y-98557426D02*
X188563604Y-98676474D01*
X188563604Y-98676474D02*
X188563604Y-98795522D01*
X188563604Y-98795522D02*
X188615985Y-98914569D01*
X188615985Y-98914569D02*
X188668366Y-98974093D01*
X188668366Y-98974093D02*
X188773128Y-99033617D01*
X188773128Y-99033617D02*
X188982652Y-99093141D01*
X188982652Y-99093141D02*
X189087414Y-99152664D01*
X189087414Y-99152664D02*
X189139795Y-99212188D01*
X189139795Y-99212188D02*
X189192176Y-99331236D01*
X189192176Y-99331236D02*
X189192176Y-99450283D01*
X189192176Y-99450283D02*
X189139795Y-99569331D01*
X189139795Y-99569331D02*
X189087414Y-99628855D01*
X189087414Y-99628855D02*
X188982652Y-99688379D01*
X188982652Y-99688379D02*
X188720747Y-99688379D01*
X188720747Y-99688379D02*
X188563604Y-99628855D01*
X189663604Y-84388855D02*
X189768366Y-84448379D01*
X189768366Y-84448379D02*
X189925509Y-84448379D01*
X189925509Y-84448379D02*
X190082652Y-84388855D01*
X190082652Y-84388855D02*
X190187414Y-84269807D01*
X190187414Y-84269807D02*
X190239795Y-84150760D01*
X190239795Y-84150760D02*
X190292176Y-83912664D01*
X190292176Y-83912664D02*
X190292176Y-83734093D01*
X190292176Y-83734093D02*
X190239795Y-83495998D01*
X190239795Y-83495998D02*
X190187414Y-83376950D01*
X190187414Y-83376950D02*
X190082652Y-83257903D01*
X190082652Y-83257903D02*
X189925509Y-83198379D01*
X189925509Y-83198379D02*
X189820747Y-83198379D01*
X189820747Y-83198379D02*
X189663604Y-83257903D01*
X189663604Y-83257903D02*
X189611223Y-83317426D01*
X189611223Y-83317426D02*
X189611223Y-83734093D01*
X189611223Y-83734093D02*
X189820747Y-83734093D01*
X189139795Y-83198379D02*
X189139795Y-84448379D01*
X189139795Y-84448379D02*
X188511223Y-83198379D01*
X188511223Y-83198379D02*
X188511223Y-84448379D01*
X187987414Y-83198379D02*
X187987414Y-84448379D01*
X187987414Y-84448379D02*
X187725509Y-84448379D01*
X187725509Y-84448379D02*
X187568366Y-84388855D01*
X187568366Y-84388855D02*
X187463604Y-84269807D01*
X187463604Y-84269807D02*
X187411223Y-84150760D01*
X187411223Y-84150760D02*
X187358842Y-83912664D01*
X187358842Y-83912664D02*
X187358842Y-83734093D01*
X187358842Y-83734093D02*
X187411223Y-83495998D01*
X187411223Y-83495998D02*
X187463604Y-83376950D01*
X187463604Y-83376950D02*
X187568366Y-83257903D01*
X187568366Y-83257903D02*
X187725509Y-83198379D01*
X187725509Y-83198379D02*
X187987414Y-83198379D01*
X189611223Y-93358379D02*
X189977890Y-93953617D01*
X190239795Y-93358379D02*
X190239795Y-94608379D01*
X190239795Y-94608379D02*
X189820747Y-94608379D01*
X189820747Y-94608379D02*
X189715985Y-94548855D01*
X189715985Y-94548855D02*
X189663604Y-94489331D01*
X189663604Y-94489331D02*
X189611223Y-94370283D01*
X189611223Y-94370283D02*
X189611223Y-94191712D01*
X189611223Y-94191712D02*
X189663604Y-94072664D01*
X189663604Y-94072664D02*
X189715985Y-94013141D01*
X189715985Y-94013141D02*
X189820747Y-93953617D01*
X189820747Y-93953617D02*
X190239795Y-93953617D01*
X189139795Y-94013141D02*
X188773128Y-94013141D01*
X188615985Y-93358379D02*
X189139795Y-93358379D01*
X189139795Y-93358379D02*
X189139795Y-94608379D01*
X189139795Y-94608379D02*
X188615985Y-94608379D01*
X188196938Y-93417903D02*
X188039795Y-93358379D01*
X188039795Y-93358379D02*
X187777890Y-93358379D01*
X187777890Y-93358379D02*
X187673128Y-93417903D01*
X187673128Y-93417903D02*
X187620747Y-93477426D01*
X187620747Y-93477426D02*
X187568366Y-93596474D01*
X187568366Y-93596474D02*
X187568366Y-93715522D01*
X187568366Y-93715522D02*
X187620747Y-93834569D01*
X187620747Y-93834569D02*
X187673128Y-93894093D01*
X187673128Y-93894093D02*
X187777890Y-93953617D01*
X187777890Y-93953617D02*
X187987414Y-94013141D01*
X187987414Y-94013141D02*
X188092176Y-94072664D01*
X188092176Y-94072664D02*
X188144557Y-94132188D01*
X188144557Y-94132188D02*
X188196938Y-94251236D01*
X188196938Y-94251236D02*
X188196938Y-94370283D01*
X188196938Y-94370283D02*
X188144557Y-94489331D01*
X188144557Y-94489331D02*
X188092176Y-94548855D01*
X188092176Y-94548855D02*
X187987414Y-94608379D01*
X187987414Y-94608379D02*
X187725509Y-94608379D01*
X187725509Y-94608379D02*
X187568366Y-94548855D01*
X190239795Y-95898379D02*
X190239795Y-97148379D01*
X190239795Y-97148379D02*
X189977890Y-97148379D01*
X189977890Y-97148379D02*
X189820747Y-97088855D01*
X189820747Y-97088855D02*
X189715985Y-96969807D01*
X189715985Y-96969807D02*
X189663604Y-96850760D01*
X189663604Y-96850760D02*
X189611223Y-96612664D01*
X189611223Y-96612664D02*
X189611223Y-96434093D01*
X189611223Y-96434093D02*
X189663604Y-96195998D01*
X189663604Y-96195998D02*
X189715985Y-96076950D01*
X189715985Y-96076950D02*
X189820747Y-95957903D01*
X189820747Y-95957903D02*
X189977890Y-95898379D01*
X189977890Y-95898379D02*
X190239795Y-95898379D01*
X188511223Y-96017426D02*
X188563604Y-95957903D01*
X188563604Y-95957903D02*
X188720747Y-95898379D01*
X188720747Y-95898379D02*
X188825509Y-95898379D01*
X188825509Y-95898379D02*
X188982652Y-95957903D01*
X188982652Y-95957903D02*
X189087414Y-96076950D01*
X189087414Y-96076950D02*
X189139795Y-96195998D01*
X189139795Y-96195998D02*
X189192176Y-96434093D01*
X189192176Y-96434093D02*
X189192176Y-96612664D01*
X189192176Y-96612664D02*
X189139795Y-96850760D01*
X189139795Y-96850760D02*
X189087414Y-96969807D01*
X189087414Y-96969807D02*
X188982652Y-97088855D01*
X188982652Y-97088855D02*
X188825509Y-97148379D01*
X188825509Y-97148379D02*
X188720747Y-97148379D01*
X188720747Y-97148379D02*
X188563604Y-97088855D01*
X188563604Y-97088855D02*
X188511223Y-97029331D01*
X190228465Y-88337903D02*
X190071322Y-88278379D01*
X190071322Y-88278379D02*
X189809417Y-88278379D01*
X189809417Y-88278379D02*
X189704655Y-88337903D01*
X189704655Y-88337903D02*
X189652274Y-88397426D01*
X189652274Y-88397426D02*
X189599893Y-88516474D01*
X189599893Y-88516474D02*
X189599893Y-88635522D01*
X189599893Y-88635522D02*
X189652274Y-88754569D01*
X189652274Y-88754569D02*
X189704655Y-88814093D01*
X189704655Y-88814093D02*
X189809417Y-88873617D01*
X189809417Y-88873617D02*
X190018941Y-88933141D01*
X190018941Y-88933141D02*
X190123703Y-88992664D01*
X190123703Y-88992664D02*
X190176084Y-89052188D01*
X190176084Y-89052188D02*
X190228465Y-89171236D01*
X190228465Y-89171236D02*
X190228465Y-89290283D01*
X190228465Y-89290283D02*
X190176084Y-89409331D01*
X190176084Y-89409331D02*
X190123703Y-89468855D01*
X190123703Y-89468855D02*
X190018941Y-89528379D01*
X190018941Y-89528379D02*
X189757036Y-89528379D01*
X189757036Y-89528379D02*
X189599893Y-89468855D01*
X188499893Y-88397426D02*
X188552274Y-88337903D01*
X188552274Y-88337903D02*
X188709417Y-88278379D01*
X188709417Y-88278379D02*
X188814179Y-88278379D01*
X188814179Y-88278379D02*
X188971322Y-88337903D01*
X188971322Y-88337903D02*
X189076084Y-88456950D01*
X189076084Y-88456950D02*
X189128465Y-88575998D01*
X189128465Y-88575998D02*
X189180846Y-88814093D01*
X189180846Y-88814093D02*
X189180846Y-88992664D01*
X189180846Y-88992664D02*
X189128465Y-89230760D01*
X189128465Y-89230760D02*
X189076084Y-89349807D01*
X189076084Y-89349807D02*
X188971322Y-89468855D01*
X188971322Y-89468855D02*
X188814179Y-89528379D01*
X188814179Y-89528379D02*
X188709417Y-89528379D01*
X188709417Y-89528379D02*
X188552274Y-89468855D01*
X188552274Y-89468855D02*
X188499893Y-89409331D01*
X187504655Y-88278379D02*
X188028465Y-88278379D01*
X188028465Y-88278379D02*
X188028465Y-89528379D01*
X186122826Y-78694333D02*
X186182350Y-78753857D01*
X186182350Y-78753857D02*
X186241873Y-78932428D01*
X186241873Y-78932428D02*
X186241873Y-79051476D01*
X186241873Y-79051476D02*
X186182350Y-79230047D01*
X186182350Y-79230047D02*
X186063302Y-79349095D01*
X186063302Y-79349095D02*
X185944254Y-79408618D01*
X185944254Y-79408618D02*
X185706159Y-79468142D01*
X185706159Y-79468142D02*
X185527588Y-79468142D01*
X185527588Y-79468142D02*
X185289492Y-79408618D01*
X185289492Y-79408618D02*
X185170445Y-79349095D01*
X185170445Y-79349095D02*
X185051397Y-79230047D01*
X185051397Y-79230047D02*
X184991873Y-79051476D01*
X184991873Y-79051476D02*
X184991873Y-78932428D01*
X184991873Y-78932428D02*
X185051397Y-78753857D01*
X185051397Y-78753857D02*
X185110921Y-78694333D01*
X186241873Y-77503857D02*
X186241873Y-78218142D01*
X186241873Y-77860999D02*
X184991873Y-77860999D01*
X184991873Y-77860999D02*
X185170445Y-77980047D01*
X185170445Y-77980047D02*
X185289492Y-78099095D01*
X185289492Y-78099095D02*
X185349016Y-78218142D01*
X170374826Y-79456333D02*
X170434350Y-79515857D01*
X170434350Y-79515857D02*
X170493873Y-79694428D01*
X170493873Y-79694428D02*
X170493873Y-79813476D01*
X170493873Y-79813476D02*
X170434350Y-79992047D01*
X170434350Y-79992047D02*
X170315302Y-80111095D01*
X170315302Y-80111095D02*
X170196254Y-80170618D01*
X170196254Y-80170618D02*
X169958159Y-80230142D01*
X169958159Y-80230142D02*
X169779588Y-80230142D01*
X169779588Y-80230142D02*
X169541492Y-80170618D01*
X169541492Y-80170618D02*
X169422445Y-80111095D01*
X169422445Y-80111095D02*
X169303397Y-79992047D01*
X169303397Y-79992047D02*
X169243873Y-79813476D01*
X169243873Y-79813476D02*
X169243873Y-79694428D01*
X169243873Y-79694428D02*
X169303397Y-79515857D01*
X169303397Y-79515857D02*
X169362921Y-79456333D01*
X169362921Y-78980142D02*
X169303397Y-78920618D01*
X169303397Y-78920618D02*
X169243873Y-78801571D01*
X169243873Y-78801571D02*
X169243873Y-78503952D01*
X169243873Y-78503952D02*
X169303397Y-78384904D01*
X169303397Y-78384904D02*
X169362921Y-78325380D01*
X169362921Y-78325380D02*
X169481969Y-78265857D01*
X169481969Y-78265857D02*
X169601016Y-78265857D01*
X169601016Y-78265857D02*
X169779588Y-78325380D01*
X169779588Y-78325380D02*
X170493873Y-79039666D01*
X170493873Y-79039666D02*
X170493873Y-78265857D01*
X175827873Y-74386094D02*
X175827873Y-74981332D01*
X175827873Y-74981332D02*
X174577873Y-74981332D01*
X175827873Y-73969427D02*
X174577873Y-73969427D01*
X174577873Y-73969427D02*
X174577873Y-73671808D01*
X174577873Y-73671808D02*
X174637397Y-73493237D01*
X174637397Y-73493237D02*
X174756445Y-73374189D01*
X174756445Y-73374189D02*
X174875492Y-73314666D01*
X174875492Y-73314666D02*
X175113588Y-73255142D01*
X175113588Y-73255142D02*
X175292159Y-73255142D01*
X175292159Y-73255142D02*
X175530254Y-73314666D01*
X175530254Y-73314666D02*
X175649302Y-73374189D01*
X175649302Y-73374189D02*
X175768350Y-73493237D01*
X175768350Y-73493237D02*
X175827873Y-73671808D01*
X175827873Y-73671808D02*
X175827873Y-73969427D01*
X174577873Y-72481332D02*
X174577873Y-72243237D01*
X174577873Y-72243237D02*
X174637397Y-72124189D01*
X174637397Y-72124189D02*
X174756445Y-72005142D01*
X174756445Y-72005142D02*
X174994540Y-71945618D01*
X174994540Y-71945618D02*
X175411207Y-71945618D01*
X175411207Y-71945618D02*
X175649302Y-72005142D01*
X175649302Y-72005142D02*
X175768350Y-72124189D01*
X175768350Y-72124189D02*
X175827873Y-72243237D01*
X175827873Y-72243237D02*
X175827873Y-72481332D01*
X175827873Y-72481332D02*
X175768350Y-72600380D01*
X175768350Y-72600380D02*
X175649302Y-72719427D01*
X175649302Y-72719427D02*
X175411207Y-72778951D01*
X175411207Y-72778951D02*
X174994540Y-72778951D01*
X174994540Y-72778951D02*
X174756445Y-72719427D01*
X174756445Y-72719427D02*
X174637397Y-72600380D01*
X174637397Y-72600380D02*
X174577873Y-72481332D01*
X175827873Y-70755142D02*
X175827873Y-71469427D01*
X175827873Y-71112284D02*
X174577873Y-71112284D01*
X174577873Y-71112284D02*
X174756445Y-71231332D01*
X174756445Y-71231332D02*
X174875492Y-71350380D01*
X174875492Y-71350380D02*
X174935016Y-71469427D01*
D11*
%TO.C,OLED-DISP-MODULE1*%
X116462486Y-113051276D02*
X116462486Y-111781276D01*
X116466126Y-70057596D02*
X116466126Y-71327596D01*
X117732486Y-113051276D02*
X116462486Y-113051276D01*
X117736126Y-70057596D02*
X116466126Y-70057596D01*
X188455000Y-111780000D02*
X188455000Y-113050000D01*
X188455000Y-113050000D02*
X187185000Y-113050000D01*
X188455000Y-113050000D02*
X188455000Y-111780000D01*
X188458236Y-70047995D02*
X187188236Y-70047995D01*
X188458236Y-70047995D02*
X188458236Y-71317995D01*
D12*
%TO.C,C1*%
X180408000Y-84535000D02*
X183828000Y-84535000D01*
X183828000Y-84535000D02*
X183828000Y-77600000D01*
X180408000Y-77600000D02*
X180408000Y-84535000D01*
%TO.C,C2*%
X170905000Y-82816248D02*
X170905000Y-84238752D01*
X168185000Y-82816248D02*
X168185000Y-84238752D01*
D13*
%TO.C,LDO1*%
X172518000Y-82120000D02*
X172518000Y-78620000D01*
X179018000Y-82120000D02*
X179018000Y-78620000D01*
X172518000Y-78620000D02*
X173758000Y-78620000D01*
X179018000Y-78620000D02*
X177778000Y-78620000D01*
D10*
X173568000Y-84970000D02*
G75*
G03*
X173568000Y-84970000I-100000J0D01*
G01*
%TD*%
M02*
