%TF.GenerationSoftware,KiCad,Pcbnew,7.0.6*%
%TF.CreationDate,2023-07-22T23:51:01+02:00*%
%TF.ProjectId,Ctrl-MC Dsiplay Module PCB ver1,4374726c-2d4d-4432-9044-7369706c6179,rev?*%
%TF.SameCoordinates,Original*%
%TF.FileFunction,Legend,Bot*%
%TF.FilePolarity,Positive*%
%FSLAX46Y46*%
G04 Gerber Fmt 4.6, Leading zero omitted, Abs format (unit mm)*
G04 Created by KiCad (PCBNEW 7.0.6) date 2023-07-22 23:51:01*
%MOMM*%
%LPD*%
G01*
G04 APERTURE LIST*
%ADD10C,0.150000*%
%ADD11C,0.200000*%
%ADD12C,0.300000*%
%ADD13C,0.152400*%
%ADD14C,0.100000*%
%ADD15C,0.127000*%
%ADD16C,0.400000*%
%ADD17C,0.120000*%
G04 APERTURE END LIST*
D10*
X184700000Y-75300000D02*
X189000000Y-75300000D01*
X189000000Y-81500000D01*
X184700000Y-81500000D01*
X184700000Y-75300000D01*
G36*
X184700000Y-75300000D02*
G01*
X189000000Y-75300000D01*
X189000000Y-81500000D01*
X184700000Y-81500000D01*
X184700000Y-75300000D01*
G37*
D11*
X162681861Y-75429197D02*
X162681861Y-75845863D01*
X163336623Y-76024435D02*
X163336623Y-75429197D01*
X163336623Y-75429197D02*
X162086623Y-75429197D01*
X162086623Y-75429197D02*
X162086623Y-76024435D01*
X163277100Y-76500625D02*
X163336623Y-76679196D01*
X163336623Y-76679196D02*
X163336623Y-76976815D01*
X163336623Y-76976815D02*
X163277100Y-77095863D01*
X163277100Y-77095863D02*
X163217576Y-77155387D01*
X163217576Y-77155387D02*
X163098528Y-77214910D01*
X163098528Y-77214910D02*
X162979480Y-77214910D01*
X162979480Y-77214910D02*
X162860433Y-77155387D01*
X162860433Y-77155387D02*
X162800909Y-77095863D01*
X162800909Y-77095863D02*
X162741385Y-76976815D01*
X162741385Y-76976815D02*
X162681861Y-76738720D01*
X162681861Y-76738720D02*
X162622338Y-76619672D01*
X162622338Y-76619672D02*
X162562814Y-76560149D01*
X162562814Y-76560149D02*
X162443766Y-76500625D01*
X162443766Y-76500625D02*
X162324719Y-76500625D01*
X162324719Y-76500625D02*
X162205671Y-76560149D01*
X162205671Y-76560149D02*
X162146147Y-76619672D01*
X162146147Y-76619672D02*
X162086623Y-76738720D01*
X162086623Y-76738720D02*
X162086623Y-77036339D01*
X162086623Y-77036339D02*
X162146147Y-77214910D01*
X163336623Y-77750625D02*
X162086623Y-77750625D01*
X162086623Y-77750625D02*
X162086623Y-78226815D01*
X162086623Y-78226815D02*
X162146147Y-78345863D01*
X162146147Y-78345863D02*
X162205671Y-78405386D01*
X162205671Y-78405386D02*
X162324719Y-78464910D01*
X162324719Y-78464910D02*
X162503290Y-78464910D01*
X162503290Y-78464910D02*
X162622338Y-78405386D01*
X162622338Y-78405386D02*
X162681861Y-78345863D01*
X162681861Y-78345863D02*
X162741385Y-78226815D01*
X162741385Y-78226815D02*
X162741385Y-77750625D01*
X162086623Y-78881577D02*
X162086623Y-79655386D01*
X162086623Y-79655386D02*
X162562814Y-79238720D01*
X162562814Y-79238720D02*
X162562814Y-79417291D01*
X162562814Y-79417291D02*
X162622338Y-79536339D01*
X162622338Y-79536339D02*
X162681861Y-79595863D01*
X162681861Y-79595863D02*
X162800909Y-79655386D01*
X162800909Y-79655386D02*
X163098528Y-79655386D01*
X163098528Y-79655386D02*
X163217576Y-79595863D01*
X163217576Y-79595863D02*
X163277100Y-79536339D01*
X163277100Y-79536339D02*
X163336623Y-79417291D01*
X163336623Y-79417291D02*
X163336623Y-79060148D01*
X163336623Y-79060148D02*
X163277100Y-78941101D01*
X163277100Y-78941101D02*
X163217576Y-78881577D01*
X162205671Y-80131577D02*
X162146147Y-80191101D01*
X162146147Y-80191101D02*
X162086623Y-80310148D01*
X162086623Y-80310148D02*
X162086623Y-80607767D01*
X162086623Y-80607767D02*
X162146147Y-80726815D01*
X162146147Y-80726815D02*
X162205671Y-80786339D01*
X162205671Y-80786339D02*
X162324719Y-80845862D01*
X162324719Y-80845862D02*
X162443766Y-80845862D01*
X162443766Y-80845862D02*
X162622338Y-80786339D01*
X162622338Y-80786339D02*
X163336623Y-80072053D01*
X163336623Y-80072053D02*
X163336623Y-80845862D01*
X162860433Y-81381577D02*
X162860433Y-82333958D01*
X163336623Y-82929196D02*
X162086623Y-82929196D01*
X162086623Y-82929196D02*
X162086623Y-83226815D01*
X162086623Y-83226815D02*
X162146147Y-83405386D01*
X162146147Y-83405386D02*
X162265195Y-83524434D01*
X162265195Y-83524434D02*
X162384242Y-83583957D01*
X162384242Y-83583957D02*
X162622338Y-83643481D01*
X162622338Y-83643481D02*
X162800909Y-83643481D01*
X162800909Y-83643481D02*
X163039004Y-83583957D01*
X163039004Y-83583957D02*
X163158052Y-83524434D01*
X163158052Y-83524434D02*
X163277100Y-83405386D01*
X163277100Y-83405386D02*
X163336623Y-83226815D01*
X163336623Y-83226815D02*
X163336623Y-82929196D01*
X162681861Y-84179196D02*
X162681861Y-84595862D01*
X163336623Y-84774434D02*
X163336623Y-84179196D01*
X163336623Y-84179196D02*
X162086623Y-84179196D01*
X162086623Y-84179196D02*
X162086623Y-84774434D01*
X162086623Y-85131576D02*
X163336623Y-85548243D01*
X163336623Y-85548243D02*
X162086623Y-85964909D01*
X162681861Y-86798243D02*
X162741385Y-86976815D01*
X162741385Y-86976815D02*
X162800909Y-87036338D01*
X162800909Y-87036338D02*
X162919957Y-87095862D01*
X162919957Y-87095862D02*
X163098528Y-87095862D01*
X163098528Y-87095862D02*
X163217576Y-87036338D01*
X163217576Y-87036338D02*
X163277100Y-86976815D01*
X163277100Y-86976815D02*
X163336623Y-86857767D01*
X163336623Y-86857767D02*
X163336623Y-86381577D01*
X163336623Y-86381577D02*
X162086623Y-86381577D01*
X162086623Y-86381577D02*
X162086623Y-86798243D01*
X162086623Y-86798243D02*
X162146147Y-86917291D01*
X162146147Y-86917291D02*
X162205671Y-86976815D01*
X162205671Y-86976815D02*
X162324719Y-87036338D01*
X162324719Y-87036338D02*
X162443766Y-87036338D01*
X162443766Y-87036338D02*
X162562814Y-86976815D01*
X162562814Y-86976815D02*
X162622338Y-86917291D01*
X162622338Y-86917291D02*
X162681861Y-86798243D01*
X162681861Y-86798243D02*
X162681861Y-86381577D01*
X162086623Y-87869672D02*
X162086623Y-88107767D01*
X162086623Y-88107767D02*
X162146147Y-88226815D01*
X162146147Y-88226815D02*
X162265195Y-88345862D01*
X162265195Y-88345862D02*
X162503290Y-88405386D01*
X162503290Y-88405386D02*
X162919957Y-88405386D01*
X162919957Y-88405386D02*
X163158052Y-88345862D01*
X163158052Y-88345862D02*
X163277100Y-88226815D01*
X163277100Y-88226815D02*
X163336623Y-88107767D01*
X163336623Y-88107767D02*
X163336623Y-87869672D01*
X163336623Y-87869672D02*
X163277100Y-87750624D01*
X163277100Y-87750624D02*
X163158052Y-87631577D01*
X163158052Y-87631577D02*
X162919957Y-87572053D01*
X162919957Y-87572053D02*
X162503290Y-87572053D01*
X162503290Y-87572053D02*
X162265195Y-87631577D01*
X162265195Y-87631577D02*
X162146147Y-87750624D01*
X162146147Y-87750624D02*
X162086623Y-87869672D01*
X162979480Y-88881577D02*
X162979480Y-89476815D01*
X163336623Y-88762529D02*
X162086623Y-89179196D01*
X162086623Y-89179196D02*
X163336623Y-89595862D01*
X163336623Y-90726815D02*
X162741385Y-90310149D01*
X163336623Y-90012530D02*
X162086623Y-90012530D01*
X162086623Y-90012530D02*
X162086623Y-90488720D01*
X162086623Y-90488720D02*
X162146147Y-90607768D01*
X162146147Y-90607768D02*
X162205671Y-90667291D01*
X162205671Y-90667291D02*
X162324719Y-90726815D01*
X162324719Y-90726815D02*
X162503290Y-90726815D01*
X162503290Y-90726815D02*
X162622338Y-90667291D01*
X162622338Y-90667291D02*
X162681861Y-90607768D01*
X162681861Y-90607768D02*
X162741385Y-90488720D01*
X162741385Y-90488720D02*
X162741385Y-90012530D01*
X163336623Y-91262530D02*
X162086623Y-91262530D01*
X162086623Y-91262530D02*
X162086623Y-91560149D01*
X162086623Y-91560149D02*
X162146147Y-91738720D01*
X162146147Y-91738720D02*
X162265195Y-91857768D01*
X162265195Y-91857768D02*
X162384242Y-91917291D01*
X162384242Y-91917291D02*
X162622338Y-91976815D01*
X162622338Y-91976815D02*
X162800909Y-91976815D01*
X162800909Y-91976815D02*
X163039004Y-91917291D01*
X163039004Y-91917291D02*
X163158052Y-91857768D01*
X163158052Y-91857768D02*
X163277100Y-91738720D01*
X163277100Y-91738720D02*
X163336623Y-91560149D01*
X163336623Y-91560149D02*
X163336623Y-91262530D01*
X162860433Y-92512530D02*
X162860433Y-93464911D01*
X162086623Y-93881577D02*
X163336623Y-94298244D01*
X163336623Y-94298244D02*
X162086623Y-94714910D01*
X163336623Y-95786339D02*
X163336623Y-95072054D01*
X163336623Y-95429197D02*
X162086623Y-95429197D01*
X162086623Y-95429197D02*
X162265195Y-95310149D01*
X162265195Y-95310149D02*
X162384242Y-95191101D01*
X162384242Y-95191101D02*
X162443766Y-95072054D01*
X136097561Y-116422707D02*
X137677561Y-116422707D01*
X137677561Y-116422707D02*
X137677561Y-116136993D01*
X137677561Y-116136993D02*
X137602323Y-115965564D01*
X137602323Y-115965564D02*
X137451847Y-115851279D01*
X137451847Y-115851279D02*
X137301371Y-115794136D01*
X137301371Y-115794136D02*
X137000419Y-115736993D01*
X137000419Y-115736993D02*
X136774704Y-115736993D01*
X136774704Y-115736993D02*
X136473752Y-115794136D01*
X136473752Y-115794136D02*
X136323276Y-115851279D01*
X136323276Y-115851279D02*
X136172800Y-115965564D01*
X136172800Y-115965564D02*
X136097561Y-116136993D01*
X136097561Y-116136993D02*
X136097561Y-116422707D01*
X136097561Y-114594136D02*
X136097561Y-115279850D01*
X136097561Y-114936993D02*
X137677561Y-114936993D01*
X137677561Y-114936993D02*
X137451847Y-115051279D01*
X137451847Y-115051279D02*
X137301371Y-115165564D01*
X137301371Y-115165564D02*
X137226133Y-115279850D01*
X137527085Y-114136993D02*
X137602323Y-114079850D01*
X137602323Y-114079850D02*
X137677561Y-113965565D01*
X137677561Y-113965565D02*
X137677561Y-113679850D01*
X137677561Y-113679850D02*
X137602323Y-113565565D01*
X137602323Y-113565565D02*
X137527085Y-113508422D01*
X137527085Y-113508422D02*
X137376609Y-113451279D01*
X137376609Y-113451279D02*
X137226133Y-113451279D01*
X137226133Y-113451279D02*
X137000419Y-113508422D01*
X137000419Y-113508422D02*
X136097561Y-114194136D01*
X136097561Y-114194136D02*
X136097561Y-113451279D01*
X133553761Y-116422707D02*
X135133761Y-116422707D01*
X135133761Y-116422707D02*
X135133761Y-116136993D01*
X135133761Y-116136993D02*
X135058523Y-115965564D01*
X135058523Y-115965564D02*
X134908047Y-115851279D01*
X134908047Y-115851279D02*
X134757571Y-115794136D01*
X134757571Y-115794136D02*
X134456619Y-115736993D01*
X134456619Y-115736993D02*
X134230904Y-115736993D01*
X134230904Y-115736993D02*
X133929952Y-115794136D01*
X133929952Y-115794136D02*
X133779476Y-115851279D01*
X133779476Y-115851279D02*
X133629000Y-115965564D01*
X133629000Y-115965564D02*
X133553761Y-116136993D01*
X133553761Y-116136993D02*
X133553761Y-116422707D01*
X133553761Y-114594136D02*
X133553761Y-115279850D01*
X133553761Y-114936993D02*
X135133761Y-114936993D01*
X135133761Y-114936993D02*
X134908047Y-115051279D01*
X134908047Y-115051279D02*
X134757571Y-115165564D01*
X134757571Y-115165564D02*
X134682333Y-115279850D01*
X135133761Y-114194136D02*
X135133761Y-113451279D01*
X135133761Y-113451279D02*
X134531857Y-113851279D01*
X134531857Y-113851279D02*
X134531857Y-113679850D01*
X134531857Y-113679850D02*
X134456619Y-113565565D01*
X134456619Y-113565565D02*
X134381380Y-113508422D01*
X134381380Y-113508422D02*
X134230904Y-113451279D01*
X134230904Y-113451279D02*
X133854714Y-113451279D01*
X133854714Y-113451279D02*
X133704238Y-113508422D01*
X133704238Y-113508422D02*
X133629000Y-113565565D01*
X133629000Y-113565565D02*
X133553761Y-113679850D01*
X133553761Y-113679850D02*
X133553761Y-114022707D01*
X133553761Y-114022707D02*
X133629000Y-114136993D01*
X133629000Y-114136993D02*
X133704238Y-114194136D01*
G36*
X142354086Y-115890742D02*
G01*
X142482853Y-115939641D01*
X142601180Y-116029509D01*
X142657561Y-116157971D01*
X142657561Y-116322707D01*
X141277561Y-116322707D01*
X141277561Y-116157972D01*
X141333942Y-116029509D01*
X141452267Y-115939642D01*
X141581036Y-115890742D01*
X141864115Y-115836993D01*
X142071008Y-115836993D01*
X142354086Y-115890742D01*
G37*
G36*
X144897886Y-115890742D02*
G01*
X145026653Y-115939641D01*
X145144980Y-116029509D01*
X145201361Y-116157971D01*
X145201361Y-116322707D01*
X143821361Y-116322707D01*
X143821361Y-116157972D01*
X143877742Y-116029509D01*
X143996067Y-115939642D01*
X144124836Y-115890742D01*
X144407915Y-115836993D01*
X144614808Y-115836993D01*
X144897886Y-115890742D01*
G37*
G36*
X147441686Y-115890742D02*
G01*
X147570453Y-115939641D01*
X147688780Y-116029509D01*
X147745161Y-116157971D01*
X147745161Y-116322707D01*
X146365161Y-116322707D01*
X146365161Y-116157972D01*
X146421542Y-116029509D01*
X146539867Y-115939642D01*
X146668636Y-115890742D01*
X146951715Y-115836993D01*
X147158608Y-115836993D01*
X147441686Y-115890742D01*
G37*
G36*
X149985486Y-115890742D02*
G01*
X150114253Y-115939641D01*
X150232580Y-116029509D01*
X150288961Y-116157971D01*
X150288961Y-116322707D01*
X148908961Y-116322707D01*
X148908961Y-116157972D01*
X148965342Y-116029509D01*
X149083667Y-115939642D01*
X149212436Y-115890742D01*
X149495515Y-115836993D01*
X149702408Y-115836993D01*
X149985486Y-115890742D01*
G37*
G36*
X147043788Y-113596785D02*
G01*
X147093905Y-113634848D01*
X147143257Y-113709812D01*
X147143257Y-113878459D01*
X147093905Y-113953423D01*
X147043788Y-113991486D01*
X146923956Y-114036993D01*
X146584462Y-114036993D01*
X146464629Y-113991486D01*
X146414511Y-113953422D01*
X146365161Y-113878460D01*
X146365161Y-113709811D01*
X146414511Y-113634849D01*
X146464629Y-113596785D01*
X146584462Y-113551279D01*
X146923956Y-113551279D01*
X147043788Y-113596785D01*
G37*
G36*
X139810286Y-113433599D02*
G01*
X139939053Y-113482498D01*
X140057380Y-113572366D01*
X140113761Y-113700828D01*
X140113761Y-113865564D01*
X138733761Y-113865564D01*
X138733761Y-113700829D01*
X138790142Y-113572366D01*
X138908467Y-113482499D01*
X139037236Y-113433599D01*
X139320315Y-113379850D01*
X139527208Y-113379850D01*
X139810286Y-113433599D01*
G37*
G36*
X150714675Y-116805564D02*
G01*
X138308047Y-116805564D01*
X138308047Y-116079850D01*
X138533761Y-116079850D01*
X138540141Y-116099489D01*
X138542192Y-116120039D01*
X138617431Y-116291468D01*
X138634163Y-116310250D01*
X138648517Y-116330915D01*
X138798993Y-116445200D01*
X138812680Y-116449970D01*
X138823975Y-116459050D01*
X138974451Y-116516193D01*
X138983422Y-116516631D01*
X138991298Y-116520952D01*
X139292250Y-116578095D01*
X139301774Y-116576883D01*
X139310904Y-116579850D01*
X139536619Y-116579850D01*
X139545748Y-116576883D01*
X139555273Y-116578095D01*
X139856225Y-116520952D01*
X139864101Y-116516630D01*
X139873072Y-116516193D01*
X140023548Y-116459050D01*
X140034843Y-116449970D01*
X140048530Y-116445200D01*
X140078146Y-116422707D01*
X141077561Y-116422707D01*
X141082455Y-116437769D01*
X141082455Y-116453609D01*
X141091764Y-116466422D01*
X141096659Y-116481486D01*
X141109472Y-116490795D01*
X141118782Y-116503609D01*
X141133845Y-116508503D01*
X141146659Y-116517813D01*
X141162498Y-116517813D01*
X141177561Y-116522707D01*
X142757561Y-116522707D01*
X142772624Y-116517813D01*
X142788463Y-116517813D01*
X142801276Y-116508503D01*
X142816340Y-116503609D01*
X142825649Y-116490795D01*
X142838463Y-116481486D01*
X142843357Y-116466422D01*
X142852667Y-116453609D01*
X142852667Y-116437769D01*
X142857561Y-116422707D01*
X143621361Y-116422707D01*
X143626255Y-116437769D01*
X143626255Y-116453609D01*
X143635564Y-116466422D01*
X143640459Y-116481486D01*
X143653272Y-116490795D01*
X143662582Y-116503609D01*
X143677645Y-116508503D01*
X143690459Y-116517813D01*
X143706298Y-116517813D01*
X143721361Y-116522707D01*
X145301361Y-116522707D01*
X145316424Y-116517813D01*
X145332263Y-116517813D01*
X145345076Y-116508503D01*
X145360140Y-116503609D01*
X145369449Y-116490795D01*
X145382263Y-116481486D01*
X145387157Y-116466422D01*
X145396467Y-116453609D01*
X145396467Y-116437769D01*
X145401361Y-116422707D01*
X146165161Y-116422707D01*
X146170055Y-116437769D01*
X146170055Y-116453609D01*
X146179364Y-116466422D01*
X146184259Y-116481486D01*
X146197072Y-116490795D01*
X146206382Y-116503609D01*
X146221445Y-116508503D01*
X146234259Y-116517813D01*
X146250098Y-116517813D01*
X146265161Y-116522707D01*
X147845161Y-116522707D01*
X147860224Y-116517813D01*
X147876063Y-116517813D01*
X147888876Y-116508503D01*
X147903940Y-116503609D01*
X147913249Y-116490795D01*
X147926063Y-116481486D01*
X147930957Y-116466422D01*
X147940267Y-116453609D01*
X147940267Y-116437769D01*
X147945161Y-116422707D01*
X148708961Y-116422707D01*
X148713855Y-116437769D01*
X148713855Y-116453609D01*
X148723164Y-116466422D01*
X148728059Y-116481486D01*
X148740872Y-116490795D01*
X148750182Y-116503609D01*
X148765245Y-116508503D01*
X148778059Y-116517813D01*
X148793898Y-116517813D01*
X148808961Y-116522707D01*
X150388961Y-116522707D01*
X150404024Y-116517813D01*
X150419863Y-116517813D01*
X150432676Y-116508503D01*
X150447740Y-116503609D01*
X150457049Y-116490795D01*
X150469863Y-116481486D01*
X150474757Y-116466422D01*
X150484067Y-116453609D01*
X150484067Y-116437769D01*
X150488961Y-116422707D01*
X150488961Y-116136993D01*
X150482579Y-116117353D01*
X150480530Y-116096805D01*
X150405292Y-115925376D01*
X150388557Y-115906590D01*
X150374205Y-115885928D01*
X150223730Y-115771643D01*
X150210043Y-115766872D01*
X150198748Y-115757793D01*
X150048272Y-115700650D01*
X150039301Y-115700212D01*
X150031425Y-115695891D01*
X149730473Y-115638748D01*
X149720948Y-115639959D01*
X149711819Y-115636993D01*
X149486104Y-115636993D01*
X149476974Y-115639959D01*
X149467450Y-115638748D01*
X149166498Y-115695891D01*
X149158622Y-115700211D01*
X149149651Y-115700650D01*
X148999175Y-115757793D01*
X148987880Y-115766872D01*
X148974193Y-115771643D01*
X148823717Y-115885928D01*
X148809363Y-115906592D01*
X148792631Y-115925375D01*
X148717392Y-116096804D01*
X148715341Y-116117353D01*
X148708961Y-116136993D01*
X148708961Y-116422707D01*
X147945161Y-116422707D01*
X147945161Y-116136993D01*
X147938779Y-116117353D01*
X147936730Y-116096805D01*
X147861492Y-115925376D01*
X147844757Y-115906590D01*
X147830405Y-115885928D01*
X147679930Y-115771643D01*
X147666243Y-115766872D01*
X147654948Y-115757793D01*
X147504472Y-115700650D01*
X147495501Y-115700212D01*
X147487625Y-115695891D01*
X147186673Y-115638748D01*
X147177148Y-115639959D01*
X147168019Y-115636993D01*
X146942304Y-115636993D01*
X146933174Y-115639959D01*
X146923650Y-115638748D01*
X146622698Y-115695891D01*
X146614822Y-115700211D01*
X146605851Y-115700650D01*
X146455375Y-115757793D01*
X146444080Y-115766872D01*
X146430393Y-115771643D01*
X146279917Y-115885928D01*
X146265563Y-115906592D01*
X146248831Y-115925375D01*
X146173592Y-116096804D01*
X146171541Y-116117353D01*
X146165161Y-116136993D01*
X146165161Y-116422707D01*
X145401361Y-116422707D01*
X145401361Y-116136993D01*
X145394979Y-116117353D01*
X145392930Y-116096805D01*
X145317692Y-115925376D01*
X145300957Y-115906590D01*
X145286605Y-115885928D01*
X145136130Y-115771643D01*
X145122443Y-115766872D01*
X145111148Y-115757793D01*
X144960672Y-115700650D01*
X144951701Y-115700212D01*
X144943825Y-115695891D01*
X144642873Y-115638748D01*
X144633348Y-115639959D01*
X144624219Y-115636993D01*
X144398504Y-115636993D01*
X144389374Y-115639959D01*
X144379850Y-115638748D01*
X144078898Y-115695891D01*
X144071022Y-115700211D01*
X144062051Y-115700650D01*
X143911575Y-115757793D01*
X143900280Y-115766872D01*
X143886593Y-115771643D01*
X143736117Y-115885928D01*
X143721763Y-115906592D01*
X143705031Y-115925375D01*
X143629792Y-116096804D01*
X143627741Y-116117353D01*
X143621361Y-116136993D01*
X143621361Y-116422707D01*
X142857561Y-116422707D01*
X142857561Y-116136993D01*
X142851179Y-116117353D01*
X142849130Y-116096805D01*
X142773892Y-115925376D01*
X142757157Y-115906590D01*
X142742805Y-115885928D01*
X142592330Y-115771643D01*
X142578643Y-115766872D01*
X142567348Y-115757793D01*
X142416872Y-115700650D01*
X142407901Y-115700212D01*
X142400025Y-115695891D01*
X142099073Y-115638748D01*
X142089548Y-115639959D01*
X142080419Y-115636993D01*
X141854704Y-115636993D01*
X141845574Y-115639959D01*
X141836050Y-115638748D01*
X141535098Y-115695891D01*
X141527222Y-115700211D01*
X141518251Y-115700650D01*
X141367775Y-115757793D01*
X141356480Y-115766872D01*
X141342793Y-115771643D01*
X141192317Y-115885928D01*
X141177963Y-115906592D01*
X141161231Y-115925375D01*
X141085992Y-116096804D01*
X141083941Y-116117353D01*
X141077561Y-116136993D01*
X141077561Y-116422707D01*
X140078146Y-116422707D01*
X140199005Y-116330915D01*
X140213357Y-116310252D01*
X140230092Y-116291467D01*
X140305330Y-116120038D01*
X140307379Y-116099489D01*
X140313761Y-116079850D01*
X140313761Y-115908422D01*
X140304888Y-115881115D01*
X140297286Y-115853435D01*
X140222048Y-115739149D01*
X140173776Y-115700555D01*
X140112038Y-115697707D01*
X140060416Y-115731691D01*
X140038629Y-115789526D01*
X140054998Y-115849123D01*
X140113761Y-115938383D01*
X140113761Y-116058871D01*
X140057380Y-116187333D01*
X139939053Y-116277201D01*
X139810286Y-116326100D01*
X139527208Y-116379850D01*
X139320315Y-116379850D01*
X139037236Y-116326100D01*
X138908467Y-116277200D01*
X138790142Y-116187333D01*
X138733761Y-116058870D01*
X138733761Y-115986543D01*
X138790142Y-115858080D01*
X138817908Y-115836993D01*
X139210904Y-115836993D01*
X139210904Y-115965564D01*
X139230002Y-116024343D01*
X139280002Y-116060670D01*
X139341806Y-116060670D01*
X139391806Y-116024343D01*
X139410904Y-115965564D01*
X139410904Y-115736993D01*
X139406010Y-115721930D01*
X139406010Y-115706091D01*
X139396700Y-115693277D01*
X139391806Y-115678214D01*
X139378992Y-115668904D01*
X139369683Y-115656091D01*
X139354619Y-115651196D01*
X139341806Y-115641887D01*
X139325967Y-115641887D01*
X139310904Y-115636993D01*
X138784238Y-115636993D01*
X138783180Y-115637336D01*
X138782115Y-115637015D01*
X138753877Y-115646857D01*
X138725459Y-115656091D01*
X138724805Y-115656990D01*
X138723755Y-115657357D01*
X138648517Y-115714500D01*
X138634164Y-115735163D01*
X138617431Y-115753947D01*
X138542192Y-115925375D01*
X138540141Y-115945925D01*
X138533761Y-115965564D01*
X138533761Y-116079850D01*
X138308047Y-116079850D01*
X138308047Y-114527477D01*
X138534214Y-114527477D01*
X138538655Y-114547444D01*
X138538655Y-114567895D01*
X138545210Y-114576917D01*
X138547632Y-114587806D01*
X138562959Y-114601347D01*
X138574982Y-114617895D01*
X138585591Y-114621342D01*
X138593949Y-114628726D01*
X139732164Y-115122707D01*
X138633761Y-115122707D01*
X138574982Y-115141805D01*
X138538655Y-115191805D01*
X138538655Y-115253609D01*
X138574982Y-115303609D01*
X138633761Y-115322707D01*
X140213761Y-115322707D01*
X140224368Y-115319260D01*
X140235472Y-115320322D01*
X140253087Y-115309929D01*
X140272540Y-115303609D01*
X140279096Y-115294585D01*
X140288702Y-115288918D01*
X140292637Y-115279850D01*
X141077561Y-115279850D01*
X141096659Y-115338629D01*
X141146659Y-115374956D01*
X141208463Y-115374956D01*
X141258463Y-115338629D01*
X141277561Y-115279850D01*
X141277561Y-115036993D01*
X142385319Y-115036993D01*
X142320888Y-115085928D01*
X142311160Y-115099931D01*
X142297846Y-115110577D01*
X142222608Y-115224863D01*
X142206239Y-115284460D01*
X142228026Y-115342295D01*
X142279648Y-115376279D01*
X142341386Y-115373431D01*
X142386961Y-115336993D01*
X143621361Y-115336993D01*
X143626573Y-115353036D01*
X143626932Y-115369907D01*
X143635885Y-115381695D01*
X143640459Y-115395772D01*
X143654108Y-115405688D01*
X143664313Y-115419125D01*
X143678484Y-115423399D01*
X143690459Y-115432099D01*
X143707330Y-115432099D01*
X143723484Y-115436971D01*
X143737461Y-115432099D01*
X143752263Y-115432099D01*
X143765912Y-115422182D01*
X143781844Y-115416629D01*
X144668491Y-114743225D01*
X144862396Y-114694136D01*
X144982061Y-114694136D01*
X145101891Y-114739641D01*
X145152010Y-114777706D01*
X145201361Y-114852669D01*
X145201361Y-115078459D01*
X145152010Y-115153422D01*
X145090402Y-115200214D01*
X145055144Y-115250975D01*
X145056456Y-115312764D01*
X145093837Y-115361982D01*
X145153008Y-115379828D01*
X145211368Y-115359486D01*
X145240983Y-115336993D01*
X146165161Y-115336993D01*
X146170373Y-115353036D01*
X146170732Y-115369907D01*
X146179685Y-115381695D01*
X146184259Y-115395772D01*
X146197908Y-115405688D01*
X146208113Y-115419125D01*
X146222284Y-115423399D01*
X146234259Y-115432099D01*
X146251130Y-115432099D01*
X146267284Y-115436971D01*
X146281261Y-115432099D01*
X146296063Y-115432099D01*
X146309712Y-115422182D01*
X146325644Y-115416629D01*
X147212291Y-114743225D01*
X147406196Y-114694136D01*
X147525861Y-114694136D01*
X147645691Y-114739641D01*
X147695810Y-114777706D01*
X147745161Y-114852669D01*
X147745161Y-115078459D01*
X147695810Y-115153422D01*
X147634202Y-115200214D01*
X147598944Y-115250975D01*
X147600256Y-115312764D01*
X147637637Y-115361982D01*
X147696808Y-115379828D01*
X147755168Y-115359486D01*
X147784783Y-115336993D01*
X148708961Y-115336993D01*
X148714173Y-115353036D01*
X148714532Y-115369907D01*
X148723485Y-115381695D01*
X148728059Y-115395772D01*
X148741708Y-115405688D01*
X148751913Y-115419125D01*
X148766084Y-115423399D01*
X148778059Y-115432099D01*
X148794930Y-115432099D01*
X148811084Y-115436971D01*
X148825061Y-115432099D01*
X148839863Y-115432099D01*
X148853512Y-115422182D01*
X148869444Y-115416629D01*
X149756091Y-114743225D01*
X149949996Y-114694136D01*
X150069661Y-114694136D01*
X150189491Y-114739641D01*
X150239610Y-114777706D01*
X150288961Y-114852669D01*
X150288961Y-115078459D01*
X150239610Y-115153422D01*
X150178002Y-115200214D01*
X150142744Y-115250975D01*
X150144056Y-115312764D01*
X150181437Y-115361982D01*
X150240608Y-115379828D01*
X150298968Y-115359486D01*
X150374206Y-115302342D01*
X150383931Y-115288340D01*
X150397248Y-115277694D01*
X150472486Y-115163409D01*
X150480089Y-115135726D01*
X150488961Y-115108422D01*
X150488961Y-114822707D01*
X150480089Y-114795402D01*
X150472486Y-114767720D01*
X150397248Y-114653435D01*
X150383931Y-114642788D01*
X150374206Y-114628787D01*
X150298968Y-114571643D01*
X150285281Y-114566872D01*
X150273986Y-114557793D01*
X150123510Y-114500650D01*
X150105325Y-114499762D01*
X150088009Y-114494136D01*
X149937533Y-114494136D01*
X149925556Y-114498027D01*
X149912991Y-114497194D01*
X149687277Y-114554337D01*
X149670290Y-114565036D01*
X149651337Y-114571643D01*
X148908961Y-115135471D01*
X148908961Y-114594136D01*
X148889863Y-114535357D01*
X148839863Y-114499030D01*
X148778059Y-114499030D01*
X148728059Y-114535357D01*
X148708961Y-114594136D01*
X148708961Y-115336993D01*
X147784783Y-115336993D01*
X147830406Y-115302342D01*
X147840131Y-115288340D01*
X147853448Y-115277694D01*
X147928686Y-115163409D01*
X147936289Y-115135726D01*
X147945161Y-115108422D01*
X147945161Y-114822707D01*
X147936289Y-114795402D01*
X147928686Y-114767720D01*
X147853448Y-114653435D01*
X147840131Y-114642788D01*
X147830406Y-114628787D01*
X147755168Y-114571643D01*
X147741481Y-114566872D01*
X147730186Y-114557793D01*
X147579710Y-114500650D01*
X147561525Y-114499762D01*
X147544209Y-114494136D01*
X147393733Y-114494136D01*
X147381756Y-114498027D01*
X147369191Y-114497194D01*
X147143477Y-114554337D01*
X147126490Y-114565036D01*
X147107537Y-114571643D01*
X146365161Y-115135471D01*
X146365161Y-114594136D01*
X146346063Y-114535357D01*
X146296063Y-114499030D01*
X146234259Y-114499030D01*
X146184259Y-114535357D01*
X146165161Y-114594136D01*
X146165161Y-115336993D01*
X145240983Y-115336993D01*
X145286606Y-115302342D01*
X145296331Y-115288340D01*
X145309648Y-115277694D01*
X145384886Y-115163409D01*
X145392489Y-115135726D01*
X145401361Y-115108422D01*
X145401361Y-114822707D01*
X145392489Y-114795402D01*
X145384886Y-114767720D01*
X145309648Y-114653435D01*
X145296331Y-114642788D01*
X145286606Y-114628787D01*
X145211368Y-114571643D01*
X145197681Y-114566872D01*
X145186386Y-114557793D01*
X145035910Y-114500650D01*
X145017725Y-114499762D01*
X145000409Y-114494136D01*
X144849933Y-114494136D01*
X144837956Y-114498027D01*
X144825391Y-114497194D01*
X144599677Y-114554337D01*
X144582690Y-114565036D01*
X144563737Y-114571643D01*
X143821361Y-115135471D01*
X143821361Y-114594136D01*
X143802263Y-114535357D01*
X143752263Y-114499030D01*
X143690459Y-114499030D01*
X143640459Y-114535357D01*
X143621361Y-114594136D01*
X143621361Y-115336993D01*
X142386961Y-115336993D01*
X142389658Y-115334837D01*
X142455483Y-115234848D01*
X142585106Y-115136400D01*
X142802733Y-115026209D01*
X142808543Y-115020428D01*
X142816340Y-115017895D01*
X142830035Y-114999045D01*
X142846546Y-114982618D01*
X142847848Y-114974527D01*
X142852667Y-114967895D01*
X142852667Y-114944596D01*
X142856369Y-114921601D01*
X142852667Y-114914289D01*
X142852667Y-114906091D01*
X142838972Y-114887241D01*
X142828451Y-114866462D01*
X142821158Y-114862722D01*
X142816340Y-114856091D01*
X142794183Y-114848892D01*
X142773455Y-114838264D01*
X142765355Y-114839525D01*
X142757561Y-114836993D01*
X141277561Y-114836993D01*
X141277561Y-114594136D01*
X141258463Y-114535357D01*
X141208463Y-114499030D01*
X141146659Y-114499030D01*
X141096659Y-114535357D01*
X141077561Y-114594136D01*
X141077561Y-115279850D01*
X140292637Y-115279850D01*
X140296843Y-115270157D01*
X140308867Y-115253609D01*
X140308867Y-115242453D01*
X140313307Y-115232223D01*
X140308867Y-115212260D01*
X140308867Y-115191805D01*
X140302310Y-115182780D01*
X140299889Y-115171894D01*
X140284563Y-115158353D01*
X140272540Y-115141805D01*
X140261930Y-115138357D01*
X140253573Y-115130974D01*
X139115358Y-114636993D01*
X140213761Y-114636993D01*
X140272540Y-114617895D01*
X140308867Y-114567895D01*
X140308867Y-114506091D01*
X140272540Y-114456091D01*
X140213761Y-114436993D01*
X138633761Y-114436993D01*
X138623153Y-114440439D01*
X138612050Y-114439378D01*
X138594434Y-114449770D01*
X138574982Y-114456091D01*
X138568425Y-114465114D01*
X138558820Y-114470782D01*
X138550677Y-114489543D01*
X138538655Y-114506091D01*
X138538655Y-114517244D01*
X138534214Y-114527477D01*
X138308047Y-114527477D01*
X138308047Y-113965564D01*
X138533761Y-113965564D01*
X138538655Y-113980626D01*
X138538655Y-113996466D01*
X138547964Y-114009279D01*
X138552859Y-114024343D01*
X138565672Y-114033652D01*
X138574982Y-114046466D01*
X138590045Y-114051360D01*
X138602859Y-114060670D01*
X138618698Y-114060670D01*
X138633761Y-114065564D01*
X140213761Y-114065564D01*
X140228824Y-114060670D01*
X140244663Y-114060670D01*
X140257476Y-114051360D01*
X140272540Y-114046466D01*
X140281849Y-114033652D01*
X140294663Y-114024343D01*
X140299557Y-114009279D01*
X140308867Y-113996466D01*
X140308867Y-113980626D01*
X140313761Y-113965564D01*
X140313761Y-113679850D01*
X140307379Y-113660210D01*
X140305330Y-113639662D01*
X140286372Y-113596467D01*
X141082455Y-113596467D01*
X141118782Y-113646467D01*
X141177561Y-113665565D01*
X141604228Y-113665565D01*
X141604228Y-114136993D01*
X141612804Y-114163389D01*
X141619615Y-114190291D01*
X141622261Y-114192495D01*
X141623326Y-114195772D01*
X141645781Y-114212087D01*
X141667102Y-114229846D01*
X141670538Y-114230073D01*
X141673326Y-114232099D01*
X141701080Y-114232099D01*
X141728770Y-114233935D01*
X142857343Y-113948221D01*
X142909637Y-113915281D01*
X142912359Y-113908474D01*
X143621361Y-113908474D01*
X143640490Y-113967243D01*
X143690509Y-114003544D01*
X143752312Y-114003511D01*
X145201361Y-113531849D01*
X145201361Y-114194136D01*
X145220459Y-114252915D01*
X145270459Y-114289242D01*
X145332263Y-114289242D01*
X145382263Y-114252915D01*
X145401361Y-114194136D01*
X145401361Y-113908422D01*
X146165161Y-113908422D01*
X146174034Y-113935731D01*
X146181637Y-113963410D01*
X146256875Y-114077695D01*
X146270191Y-114088341D01*
X146279917Y-114102343D01*
X146355155Y-114159486D01*
X146368842Y-114164256D01*
X146380137Y-114173336D01*
X146530613Y-114230479D01*
X146548798Y-114231366D01*
X146566114Y-114236993D01*
X147168019Y-114236993D01*
X147177148Y-114234026D01*
X147186673Y-114235238D01*
X147487625Y-114178095D01*
X147500092Y-114171254D01*
X147514143Y-114169066D01*
X147739858Y-114054781D01*
X147746423Y-114048249D01*
X147755168Y-114045201D01*
X147830406Y-113988057D01*
X147840131Y-113974055D01*
X147850751Y-113965565D01*
X148708961Y-113965565D01*
X148717834Y-113992874D01*
X148725437Y-114020553D01*
X148800675Y-114134838D01*
X148813991Y-114145484D01*
X148823717Y-114159486D01*
X148898955Y-114216629D01*
X148957315Y-114236971D01*
X149016486Y-114219125D01*
X149053867Y-114169907D01*
X149055179Y-114108118D01*
X149019921Y-114057358D01*
X148958311Y-114010565D01*
X148908961Y-113935603D01*
X148908961Y-113709811D01*
X148958311Y-113634849D01*
X149008429Y-113596785D01*
X149128262Y-113551279D01*
X149467756Y-113551279D01*
X149587588Y-113596785D01*
X149637705Y-113634848D01*
X149687057Y-113709812D01*
X149687057Y-113935602D01*
X149637705Y-114010566D01*
X149576098Y-114057357D01*
X149574475Y-114059693D01*
X149571843Y-114060775D01*
X149556985Y-114084872D01*
X149540839Y-114108117D01*
X149540899Y-114110961D01*
X149539407Y-114113382D01*
X149541549Y-114141601D01*
X149542151Y-114169906D01*
X149543871Y-114172171D01*
X149544087Y-114175009D01*
X149562417Y-114196590D01*
X149579532Y-114219124D01*
X149582254Y-114219945D01*
X149584097Y-114222114D01*
X149611601Y-114228796D01*
X149638702Y-114236971D01*
X149641388Y-114236034D01*
X149644153Y-114236706D01*
X150396534Y-114179563D01*
X150407743Y-114174956D01*
X150419863Y-114174956D01*
X150435650Y-114163485D01*
X150453698Y-114156068D01*
X150460058Y-114145752D01*
X150469863Y-114138629D01*
X150475892Y-114120071D01*
X150486134Y-114103461D01*
X150485216Y-114091375D01*
X150488961Y-114079850D01*
X150488961Y-113508422D01*
X150469863Y-113449643D01*
X150419863Y-113413316D01*
X150358059Y-113413316D01*
X150308059Y-113449643D01*
X150288961Y-113508422D01*
X150288961Y-113987156D01*
X149871036Y-114018897D01*
X149878185Y-113992869D01*
X149887057Y-113965565D01*
X149887057Y-113679850D01*
X149878185Y-113652545D01*
X149870582Y-113624863D01*
X149795344Y-113510578D01*
X149782029Y-113499932D01*
X149772302Y-113485929D01*
X149697062Y-113428786D01*
X149683376Y-113424015D01*
X149672081Y-113414936D01*
X149521605Y-113357793D01*
X149503420Y-113356905D01*
X149486104Y-113351279D01*
X149109914Y-113351279D01*
X149092598Y-113356905D01*
X149074413Y-113357793D01*
X148923937Y-113414936D01*
X148912642Y-113424015D01*
X148898955Y-113428786D01*
X148823717Y-113485929D01*
X148813991Y-113499930D01*
X148800675Y-113510577D01*
X148725437Y-113624862D01*
X148717834Y-113652540D01*
X148708961Y-113679850D01*
X148708961Y-113965565D01*
X147850751Y-113965565D01*
X147853448Y-113963409D01*
X147928686Y-113849123D01*
X147936288Y-113821442D01*
X147945161Y-113794136D01*
X147945161Y-113565565D01*
X147926063Y-113506786D01*
X147876063Y-113470459D01*
X147814259Y-113470459D01*
X147764259Y-113506786D01*
X147745161Y-113565565D01*
X147745161Y-113764174D01*
X147695810Y-113839137D01*
X147641420Y-113880446D01*
X147436419Y-113984243D01*
X147295443Y-114011011D01*
X147326782Y-113963409D01*
X147334385Y-113935726D01*
X147343257Y-113908422D01*
X147343257Y-113679850D01*
X147334385Y-113652545D01*
X147326782Y-113624863D01*
X147251544Y-113510578D01*
X147238229Y-113499932D01*
X147228502Y-113485929D01*
X147153262Y-113428786D01*
X147139576Y-113424015D01*
X147128281Y-113414936D01*
X146977805Y-113357793D01*
X146959620Y-113356905D01*
X146942304Y-113351279D01*
X146566114Y-113351279D01*
X146548798Y-113356905D01*
X146530613Y-113357793D01*
X146380137Y-113414936D01*
X146368842Y-113424015D01*
X146355155Y-113428786D01*
X146279917Y-113485929D01*
X146270191Y-113499930D01*
X146256875Y-113510577D01*
X146181637Y-113624862D01*
X146174034Y-113652540D01*
X146165161Y-113679850D01*
X146165161Y-113908422D01*
X145401361Y-113908422D01*
X145401361Y-113394136D01*
X145401353Y-113394111D01*
X145401362Y-113394084D01*
X145391366Y-113363376D01*
X145382263Y-113335357D01*
X145382241Y-113335341D01*
X145382233Y-113335315D01*
X145356844Y-113316889D01*
X145332263Y-113299030D01*
X145332236Y-113299030D01*
X145332214Y-113299014D01*
X145301312Y-113299030D01*
X145270459Y-113299030D01*
X145270436Y-113299045D01*
X145270410Y-113299046D01*
X143690410Y-113813333D01*
X143640428Y-113849686D01*
X143621361Y-113908474D01*
X142912359Y-113908474D01*
X142932582Y-113857895D01*
X142917414Y-113797981D01*
X142869927Y-113758426D01*
X142808258Y-113754337D01*
X141804228Y-114008521D01*
X141804228Y-113665565D01*
X142230895Y-113665565D01*
X142289674Y-113646467D01*
X142326001Y-113596467D01*
X142326001Y-113534663D01*
X142289674Y-113484663D01*
X142230895Y-113465565D01*
X141804228Y-113465565D01*
X141804228Y-113394136D01*
X141785130Y-113335357D01*
X141735130Y-113299030D01*
X141673326Y-113299030D01*
X141623326Y-113335357D01*
X141604228Y-113394136D01*
X141604228Y-113465565D01*
X141177561Y-113465565D01*
X141118782Y-113484663D01*
X141082455Y-113534663D01*
X141082455Y-113596467D01*
X140286372Y-113596467D01*
X140230092Y-113468233D01*
X140213357Y-113449447D01*
X140199005Y-113428785D01*
X140048530Y-113314500D01*
X140034843Y-113309729D01*
X140023548Y-113300650D01*
X139873072Y-113243507D01*
X139864101Y-113243069D01*
X139856225Y-113238748D01*
X139555273Y-113181605D01*
X139545748Y-113182816D01*
X139536619Y-113179850D01*
X139310904Y-113179850D01*
X139301774Y-113182816D01*
X139292250Y-113181605D01*
X138991298Y-113238748D01*
X138983422Y-113243068D01*
X138974451Y-113243507D01*
X138823975Y-113300650D01*
X138812680Y-113309729D01*
X138798993Y-113314500D01*
X138648517Y-113428785D01*
X138634163Y-113449449D01*
X138617431Y-113468232D01*
X138542192Y-113639661D01*
X138540141Y-113660210D01*
X138533761Y-113679850D01*
X138533761Y-113965564D01*
X138308047Y-113965564D01*
X138308047Y-112954136D01*
X150714675Y-112954136D01*
X150714675Y-116805564D01*
G37*
X161508961Y-116422707D02*
X163088961Y-116422707D01*
X163088961Y-116422707D02*
X163088961Y-116136993D01*
X163088961Y-116136993D02*
X163013723Y-115965564D01*
X163013723Y-115965564D02*
X162863247Y-115851279D01*
X162863247Y-115851279D02*
X162712771Y-115794136D01*
X162712771Y-115794136D02*
X162411819Y-115736993D01*
X162411819Y-115736993D02*
X162186104Y-115736993D01*
X162186104Y-115736993D02*
X161885152Y-115794136D01*
X161885152Y-115794136D02*
X161734676Y-115851279D01*
X161734676Y-115851279D02*
X161584200Y-115965564D01*
X161584200Y-115965564D02*
X161508961Y-116136993D01*
X161508961Y-116136993D02*
X161508961Y-116422707D01*
X161508961Y-114594136D02*
X161508961Y-115279850D01*
X161508961Y-114936993D02*
X163088961Y-114936993D01*
X163088961Y-114936993D02*
X162863247Y-115051279D01*
X162863247Y-115051279D02*
X162712771Y-115165564D01*
X162712771Y-115165564D02*
X162637533Y-115279850D01*
X161508961Y-114022707D02*
X161508961Y-113794136D01*
X161508961Y-113794136D02*
X161584200Y-113679850D01*
X161584200Y-113679850D02*
X161659438Y-113622707D01*
X161659438Y-113622707D02*
X161885152Y-113508422D01*
X161885152Y-113508422D02*
X162186104Y-113451279D01*
X162186104Y-113451279D02*
X162788009Y-113451279D01*
X162788009Y-113451279D02*
X162938485Y-113508422D01*
X162938485Y-113508422D02*
X163013723Y-113565565D01*
X163013723Y-113565565D02*
X163088961Y-113679850D01*
X163088961Y-113679850D02*
X163088961Y-113908422D01*
X163088961Y-113908422D02*
X163013723Y-114022707D01*
X163013723Y-114022707D02*
X162938485Y-114079850D01*
X162938485Y-114079850D02*
X162788009Y-114136993D01*
X162788009Y-114136993D02*
X162411819Y-114136993D01*
X162411819Y-114136993D02*
X162261342Y-114079850D01*
X162261342Y-114079850D02*
X162186104Y-114022707D01*
X162186104Y-114022707D02*
X162110866Y-113908422D01*
X162110866Y-113908422D02*
X162110866Y-113679850D01*
X162110866Y-113679850D02*
X162186104Y-113565565D01*
X162186104Y-113565565D02*
X162261342Y-113508422D01*
X162261342Y-113508422D02*
X162411819Y-113451279D01*
X158965161Y-116422707D02*
X160545161Y-116422707D01*
X160545161Y-116422707D02*
X160545161Y-116136993D01*
X160545161Y-116136993D02*
X160469923Y-115965564D01*
X160469923Y-115965564D02*
X160319447Y-115851279D01*
X160319447Y-115851279D02*
X160168971Y-115794136D01*
X160168971Y-115794136D02*
X159868019Y-115736993D01*
X159868019Y-115736993D02*
X159642304Y-115736993D01*
X159642304Y-115736993D02*
X159341352Y-115794136D01*
X159341352Y-115794136D02*
X159190876Y-115851279D01*
X159190876Y-115851279D02*
X159040400Y-115965564D01*
X159040400Y-115965564D02*
X158965161Y-116136993D01*
X158965161Y-116136993D02*
X158965161Y-116422707D01*
X160018495Y-114708422D02*
X158965161Y-114708422D01*
X160620400Y-114994136D02*
X159491828Y-115279850D01*
X159491828Y-115279850D02*
X159491828Y-114536993D01*
X156421361Y-116422707D02*
X158001361Y-116422707D01*
X158001361Y-116422707D02*
X158001361Y-116136993D01*
X158001361Y-116136993D02*
X157926123Y-115965564D01*
X157926123Y-115965564D02*
X157775647Y-115851279D01*
X157775647Y-115851279D02*
X157625171Y-115794136D01*
X157625171Y-115794136D02*
X157324219Y-115736993D01*
X157324219Y-115736993D02*
X157098504Y-115736993D01*
X157098504Y-115736993D02*
X156797552Y-115794136D01*
X156797552Y-115794136D02*
X156647076Y-115851279D01*
X156647076Y-115851279D02*
X156496600Y-115965564D01*
X156496600Y-115965564D02*
X156421361Y-116136993D01*
X156421361Y-116136993D02*
X156421361Y-116422707D01*
X158001361Y-115336993D02*
X158001361Y-114594136D01*
X158001361Y-114594136D02*
X157399457Y-114994136D01*
X157399457Y-114994136D02*
X157399457Y-114822707D01*
X157399457Y-114822707D02*
X157324219Y-114708422D01*
X157324219Y-114708422D02*
X157248980Y-114651279D01*
X157248980Y-114651279D02*
X157098504Y-114594136D01*
X157098504Y-114594136D02*
X156722314Y-114594136D01*
X156722314Y-114594136D02*
X156571838Y-114651279D01*
X156571838Y-114651279D02*
X156496600Y-114708422D01*
X156496600Y-114708422D02*
X156421361Y-114822707D01*
X156421361Y-114822707D02*
X156421361Y-115165564D01*
X156421361Y-115165564D02*
X156496600Y-115279850D01*
X156496600Y-115279850D02*
X156571838Y-115336993D01*
X157850885Y-114136993D02*
X157926123Y-114079850D01*
X157926123Y-114079850D02*
X158001361Y-113965565D01*
X158001361Y-113965565D02*
X158001361Y-113679850D01*
X158001361Y-113679850D02*
X157926123Y-113565565D01*
X157926123Y-113565565D02*
X157850885Y-113508422D01*
X157850885Y-113508422D02*
X157700409Y-113451279D01*
X157700409Y-113451279D02*
X157549933Y-113451279D01*
X157549933Y-113451279D02*
X157324219Y-113508422D01*
X157324219Y-113508422D02*
X156421361Y-114194136D01*
X156421361Y-114194136D02*
X156421361Y-113451279D01*
X153877561Y-116422707D02*
X155457561Y-116422707D01*
X155457561Y-116422707D02*
X155457561Y-116136993D01*
X155457561Y-116136993D02*
X155382323Y-115965564D01*
X155382323Y-115965564D02*
X155231847Y-115851279D01*
X155231847Y-115851279D02*
X155081371Y-115794136D01*
X155081371Y-115794136D02*
X154780419Y-115736993D01*
X154780419Y-115736993D02*
X154554704Y-115736993D01*
X154554704Y-115736993D02*
X154253752Y-115794136D01*
X154253752Y-115794136D02*
X154103276Y-115851279D01*
X154103276Y-115851279D02*
X153952800Y-115965564D01*
X153952800Y-115965564D02*
X153877561Y-116136993D01*
X153877561Y-116136993D02*
X153877561Y-116422707D01*
X155457561Y-115336993D02*
X155457561Y-114594136D01*
X155457561Y-114594136D02*
X154855657Y-114994136D01*
X154855657Y-114994136D02*
X154855657Y-114822707D01*
X154855657Y-114822707D02*
X154780419Y-114708422D01*
X154780419Y-114708422D02*
X154705180Y-114651279D01*
X154705180Y-114651279D02*
X154554704Y-114594136D01*
X154554704Y-114594136D02*
X154178514Y-114594136D01*
X154178514Y-114594136D02*
X154028038Y-114651279D01*
X154028038Y-114651279D02*
X153952800Y-114708422D01*
X153952800Y-114708422D02*
X153877561Y-114822707D01*
X153877561Y-114822707D02*
X153877561Y-115165564D01*
X153877561Y-115165564D02*
X153952800Y-115279850D01*
X153952800Y-115279850D02*
X154028038Y-115336993D01*
X155457561Y-114194136D02*
X155457561Y-113451279D01*
X155457561Y-113451279D02*
X154855657Y-113851279D01*
X154855657Y-113851279D02*
X154855657Y-113679850D01*
X154855657Y-113679850D02*
X154780419Y-113565565D01*
X154780419Y-113565565D02*
X154705180Y-113508422D01*
X154705180Y-113508422D02*
X154554704Y-113451279D01*
X154554704Y-113451279D02*
X154178514Y-113451279D01*
X154178514Y-113451279D02*
X154028038Y-113508422D01*
X154028038Y-113508422D02*
X153952800Y-113565565D01*
X153952800Y-113565565D02*
X153877561Y-113679850D01*
X153877561Y-113679850D02*
X153877561Y-114022707D01*
X153877561Y-114022707D02*
X153952800Y-114136993D01*
X153952800Y-114136993D02*
X154028038Y-114194136D01*
X152838523Y-115794136D02*
X152913761Y-115908422D01*
X152913761Y-115908422D02*
X152913761Y-116079850D01*
X152913761Y-116079850D02*
X152838523Y-116251279D01*
X152838523Y-116251279D02*
X152688047Y-116365564D01*
X152688047Y-116365564D02*
X152537571Y-116422707D01*
X152537571Y-116422707D02*
X152236619Y-116479850D01*
X152236619Y-116479850D02*
X152010904Y-116479850D01*
X152010904Y-116479850D02*
X151709952Y-116422707D01*
X151709952Y-116422707D02*
X151559476Y-116365564D01*
X151559476Y-116365564D02*
X151409000Y-116251279D01*
X151409000Y-116251279D02*
X151333761Y-116079850D01*
X151333761Y-116079850D02*
X151333761Y-115965564D01*
X151333761Y-115965564D02*
X151409000Y-115794136D01*
X151409000Y-115794136D02*
X151484238Y-115736993D01*
X151484238Y-115736993D02*
X152010904Y-115736993D01*
X152010904Y-115736993D02*
X152010904Y-115965564D01*
X151333761Y-115222707D02*
X152913761Y-115222707D01*
X152913761Y-115222707D02*
X151333761Y-114536993D01*
X151333761Y-114536993D02*
X152913761Y-114536993D01*
X151333761Y-113965564D02*
X152913761Y-113965564D01*
X152913761Y-113965564D02*
X152913761Y-113679850D01*
X152913761Y-113679850D02*
X152838523Y-113508421D01*
X152838523Y-113508421D02*
X152688047Y-113394136D01*
X152688047Y-113394136D02*
X152537571Y-113336993D01*
X152537571Y-113336993D02*
X152236619Y-113279850D01*
X152236619Y-113279850D02*
X152010904Y-113279850D01*
X152010904Y-113279850D02*
X151709952Y-113336993D01*
X151709952Y-113336993D02*
X151559476Y-113394136D01*
X151559476Y-113394136D02*
X151409000Y-113508421D01*
X151409000Y-113508421D02*
X151333761Y-113679850D01*
X151333761Y-113679850D02*
X151333761Y-113965564D01*
D12*
X179437341Y-98402537D02*
X179437341Y-96902537D01*
X178580198Y-98402537D02*
X179223055Y-97545394D01*
X178580198Y-96902537D02*
X179437341Y-97759680D01*
X177937341Y-98402537D02*
X177937341Y-97402537D01*
X177937341Y-96902537D02*
X178008769Y-96973966D01*
X178008769Y-96973966D02*
X177937341Y-97045394D01*
X177937341Y-97045394D02*
X177865912Y-96973966D01*
X177865912Y-96973966D02*
X177937341Y-96902537D01*
X177937341Y-96902537D02*
X177937341Y-97045394D01*
X176080198Y-98402537D02*
X176080198Y-96902537D01*
X176080198Y-97616823D02*
X175223055Y-97616823D01*
X175223055Y-98402537D02*
X175223055Y-96902537D01*
X173937340Y-98331109D02*
X174080197Y-98402537D01*
X174080197Y-98402537D02*
X174365912Y-98402537D01*
X174365912Y-98402537D02*
X174508769Y-98331109D01*
X174508769Y-98331109D02*
X174580197Y-98188251D01*
X174580197Y-98188251D02*
X174580197Y-97616823D01*
X174580197Y-97616823D02*
X174508769Y-97473966D01*
X174508769Y-97473966D02*
X174365912Y-97402537D01*
X174365912Y-97402537D02*
X174080197Y-97402537D01*
X174080197Y-97402537D02*
X173937340Y-97473966D01*
X173937340Y-97473966D02*
X173865912Y-97616823D01*
X173865912Y-97616823D02*
X173865912Y-97759680D01*
X173865912Y-97759680D02*
X174580197Y-97902537D01*
X173294483Y-98331109D02*
X173151626Y-98402537D01*
X173151626Y-98402537D02*
X172865912Y-98402537D01*
X172865912Y-98402537D02*
X172723055Y-98331109D01*
X172723055Y-98331109D02*
X172651626Y-98188251D01*
X172651626Y-98188251D02*
X172651626Y-98116823D01*
X172651626Y-98116823D02*
X172723055Y-97973966D01*
X172723055Y-97973966D02*
X172865912Y-97902537D01*
X172865912Y-97902537D02*
X173080198Y-97902537D01*
X173080198Y-97902537D02*
X173223055Y-97831109D01*
X173223055Y-97831109D02*
X173294483Y-97688251D01*
X173294483Y-97688251D02*
X173294483Y-97616823D01*
X173294483Y-97616823D02*
X173223055Y-97473966D01*
X173223055Y-97473966D02*
X173080198Y-97402537D01*
X173080198Y-97402537D02*
X172865912Y-97402537D01*
X172865912Y-97402537D02*
X172723055Y-97473966D01*
X172223054Y-97402537D02*
X171651626Y-97402537D01*
X172008769Y-96902537D02*
X172008769Y-98188251D01*
X172008769Y-98188251D02*
X171937340Y-98331109D01*
X171937340Y-98331109D02*
X171794483Y-98402537D01*
X171794483Y-98402537D02*
X171651626Y-98402537D01*
X170508769Y-98402537D02*
X170508769Y-97616823D01*
X170508769Y-97616823D02*
X170580197Y-97473966D01*
X170580197Y-97473966D02*
X170723054Y-97402537D01*
X170723054Y-97402537D02*
X171008769Y-97402537D01*
X171008769Y-97402537D02*
X171151626Y-97473966D01*
X170508769Y-98331109D02*
X170651626Y-98402537D01*
X170651626Y-98402537D02*
X171008769Y-98402537D01*
X171008769Y-98402537D02*
X171151626Y-98331109D01*
X171151626Y-98331109D02*
X171223054Y-98188251D01*
X171223054Y-98188251D02*
X171223054Y-98045394D01*
X171223054Y-98045394D02*
X171151626Y-97902537D01*
X171151626Y-97902537D02*
X171008769Y-97831109D01*
X171008769Y-97831109D02*
X170651626Y-97831109D01*
X170651626Y-97831109D02*
X170508769Y-97759680D01*
X169151626Y-98402537D02*
X169151626Y-96902537D01*
X169151626Y-98331109D02*
X169294483Y-98402537D01*
X169294483Y-98402537D02*
X169580197Y-98402537D01*
X169580197Y-98402537D02*
X169723054Y-98331109D01*
X169723054Y-98331109D02*
X169794483Y-98259680D01*
X169794483Y-98259680D02*
X169865911Y-98116823D01*
X169865911Y-98116823D02*
X169865911Y-97688251D01*
X169865911Y-97688251D02*
X169794483Y-97545394D01*
X169794483Y-97545394D02*
X169723054Y-97473966D01*
X169723054Y-97473966D02*
X169580197Y-97402537D01*
X169580197Y-97402537D02*
X169294483Y-97402537D01*
X169294483Y-97402537D02*
X169151626Y-97473966D01*
D10*
X120681060Y-100774286D02*
X120800107Y-100714762D01*
X120800107Y-100714762D02*
X120978679Y-100714762D01*
X120978679Y-100714762D02*
X121157250Y-100774286D01*
X121157250Y-100774286D02*
X121276298Y-100893334D01*
X121276298Y-100893334D02*
X121335821Y-101012381D01*
X121335821Y-101012381D02*
X121395345Y-101250477D01*
X121395345Y-101250477D02*
X121395345Y-101429048D01*
X121395345Y-101429048D02*
X121335821Y-101667143D01*
X121335821Y-101667143D02*
X121276298Y-101786191D01*
X121276298Y-101786191D02*
X121157250Y-101905239D01*
X121157250Y-101905239D02*
X120978679Y-101964762D01*
X120978679Y-101964762D02*
X120859631Y-101964762D01*
X120859631Y-101964762D02*
X120681060Y-101905239D01*
X120681060Y-101905239D02*
X120621536Y-101845715D01*
X120621536Y-101845715D02*
X120621536Y-101429048D01*
X120621536Y-101429048D02*
X120859631Y-101429048D01*
X120085821Y-101964762D02*
X120085821Y-100714762D01*
X120085821Y-100714762D02*
X119371536Y-101964762D01*
X119371536Y-101964762D02*
X119371536Y-100714762D01*
X118776297Y-101964762D02*
X118776297Y-100714762D01*
X118776297Y-100714762D02*
X118478678Y-100714762D01*
X118478678Y-100714762D02*
X118300107Y-100774286D01*
X118300107Y-100774286D02*
X118181059Y-100893334D01*
X118181059Y-100893334D02*
X118121536Y-101012381D01*
X118121536Y-101012381D02*
X118062012Y-101250477D01*
X118062012Y-101250477D02*
X118062012Y-101429048D01*
X118062012Y-101429048D02*
X118121536Y-101667143D01*
X118121536Y-101667143D02*
X118181059Y-101786191D01*
X118181059Y-101786191D02*
X118300107Y-101905239D01*
X118300107Y-101905239D02*
X118478678Y-101964762D01*
X118478678Y-101964762D02*
X118776297Y-101964762D01*
D11*
G36*
X170297886Y-115890742D02*
G01*
X170426653Y-115939641D01*
X170544980Y-116029509D01*
X170601361Y-116157971D01*
X170601361Y-116322707D01*
X169221361Y-116322707D01*
X169221361Y-116157972D01*
X169277742Y-116029509D01*
X169396067Y-115939642D01*
X169524836Y-115890742D01*
X169807915Y-115836993D01*
X170014808Y-115836993D01*
X170297886Y-115890742D01*
G37*
G36*
X165210286Y-113433599D02*
G01*
X165339053Y-113482498D01*
X165457380Y-113572366D01*
X165513761Y-113700828D01*
X165513761Y-113865564D01*
X164133761Y-113865564D01*
X164133761Y-113700829D01*
X164190142Y-113572366D01*
X164308467Y-113482499D01*
X164437236Y-113433599D01*
X164720315Y-113379850D01*
X164927208Y-113379850D01*
X165210286Y-113433599D01*
G37*
G36*
X171027075Y-116862685D02*
G01*
X163708047Y-116862685D01*
X163708047Y-116079850D01*
X163933761Y-116079850D01*
X163940141Y-116099489D01*
X163942192Y-116120039D01*
X164017431Y-116291468D01*
X164034163Y-116310250D01*
X164048517Y-116330915D01*
X164198993Y-116445200D01*
X164212680Y-116449970D01*
X164223975Y-116459050D01*
X164374451Y-116516193D01*
X164383422Y-116516631D01*
X164391298Y-116520952D01*
X164692250Y-116578095D01*
X164701774Y-116576883D01*
X164710904Y-116579850D01*
X164936619Y-116579850D01*
X164945748Y-116576883D01*
X164955273Y-116578095D01*
X165256225Y-116520952D01*
X165264101Y-116516630D01*
X165273072Y-116516193D01*
X165423548Y-116459050D01*
X165434843Y-116449970D01*
X165448530Y-116445200D01*
X165553384Y-116365564D01*
X166477561Y-116365564D01*
X166486431Y-116392865D01*
X166494036Y-116420552D01*
X166569275Y-116534838D01*
X166582591Y-116545484D01*
X166592317Y-116559486D01*
X166667555Y-116616629D01*
X166725915Y-116636971D01*
X166785086Y-116619125D01*
X166822467Y-116569907D01*
X166823779Y-116508118D01*
X166788521Y-116457358D01*
X166726913Y-116410566D01*
X166677561Y-116335601D01*
X166677561Y-116052668D01*
X166726911Y-115977706D01*
X166777029Y-115939642D01*
X166896862Y-115894136D01*
X167236356Y-115894136D01*
X167356188Y-115939642D01*
X167406305Y-115977705D01*
X167455657Y-116052669D01*
X167455657Y-116194136D01*
X167459919Y-116207253D01*
X167459343Y-116221039D01*
X167469233Y-116235921D01*
X167474755Y-116252915D01*
X167485915Y-116261023D01*
X167493551Y-116272513D01*
X167510299Y-116278739D01*
X167524755Y-116289242D01*
X167538550Y-116289242D01*
X167551480Y-116294049D01*
X167568689Y-116289242D01*
X167586559Y-116289242D01*
X167597720Y-116281132D01*
X167611005Y-116277422D01*
X168057561Y-115980659D01*
X168057561Y-116536993D01*
X168076659Y-116595772D01*
X168126659Y-116632099D01*
X168188463Y-116632099D01*
X168238463Y-116595772D01*
X168257561Y-116536993D01*
X168257561Y-116422707D01*
X169021361Y-116422707D01*
X169026255Y-116437769D01*
X169026255Y-116453609D01*
X169035564Y-116466422D01*
X169040459Y-116481486D01*
X169053272Y-116490795D01*
X169062582Y-116503609D01*
X169077645Y-116508503D01*
X169090459Y-116517813D01*
X169106298Y-116517813D01*
X169121361Y-116522707D01*
X170701361Y-116522707D01*
X170716424Y-116517813D01*
X170732263Y-116517813D01*
X170745076Y-116508503D01*
X170760140Y-116503609D01*
X170769449Y-116490795D01*
X170782263Y-116481486D01*
X170787157Y-116466422D01*
X170796467Y-116453609D01*
X170796467Y-116437769D01*
X170801361Y-116422707D01*
X170801361Y-116136993D01*
X170794979Y-116117353D01*
X170792930Y-116096805D01*
X170717692Y-115925376D01*
X170700957Y-115906590D01*
X170686605Y-115885928D01*
X170536130Y-115771643D01*
X170522443Y-115766872D01*
X170511148Y-115757793D01*
X170360672Y-115700650D01*
X170351701Y-115700212D01*
X170343825Y-115695891D01*
X170042873Y-115638748D01*
X170033348Y-115639959D01*
X170024219Y-115636993D01*
X169798504Y-115636993D01*
X169789374Y-115639959D01*
X169779850Y-115638748D01*
X169478898Y-115695891D01*
X169471022Y-115700211D01*
X169462051Y-115700650D01*
X169311575Y-115757793D01*
X169300280Y-115766872D01*
X169286593Y-115771643D01*
X169136117Y-115885928D01*
X169121763Y-115906592D01*
X169105031Y-115925375D01*
X169029792Y-116096804D01*
X169027741Y-116117353D01*
X169021361Y-116136993D01*
X169021361Y-116422707D01*
X168257561Y-116422707D01*
X168257561Y-115794136D01*
X168253298Y-115781017D01*
X168253875Y-115767234D01*
X168243984Y-115752351D01*
X168238463Y-115735357D01*
X168227302Y-115727248D01*
X168219667Y-115715759D01*
X168202918Y-115709532D01*
X168188463Y-115699030D01*
X168174668Y-115699030D01*
X168161738Y-115694223D01*
X168144529Y-115699030D01*
X168126659Y-115699030D01*
X168115498Y-115707138D01*
X168102212Y-115710850D01*
X167651623Y-116010292D01*
X167646785Y-115995402D01*
X167639182Y-115967720D01*
X167563944Y-115853435D01*
X167550629Y-115842789D01*
X167540902Y-115828786D01*
X167465662Y-115771643D01*
X167451976Y-115766872D01*
X167440681Y-115757793D01*
X167290205Y-115700650D01*
X167272020Y-115699762D01*
X167254704Y-115694136D01*
X166878514Y-115694136D01*
X166861198Y-115699762D01*
X166843013Y-115700650D01*
X166692537Y-115757793D01*
X166681242Y-115766872D01*
X166667555Y-115771643D01*
X166592317Y-115828786D01*
X166582591Y-115842787D01*
X166569275Y-115853434D01*
X166494037Y-115967719D01*
X166486434Y-115995397D01*
X166477561Y-116022707D01*
X166477561Y-116365564D01*
X165553384Y-116365564D01*
X165599005Y-116330915D01*
X165613357Y-116310252D01*
X165630092Y-116291467D01*
X165705330Y-116120038D01*
X165707379Y-116099489D01*
X165713761Y-116079850D01*
X165713761Y-115908422D01*
X165704888Y-115881115D01*
X165697286Y-115853435D01*
X165622048Y-115739149D01*
X165573776Y-115700555D01*
X165512038Y-115697707D01*
X165460416Y-115731691D01*
X165438629Y-115789526D01*
X165454998Y-115849123D01*
X165513761Y-115938383D01*
X165513761Y-116058871D01*
X165457380Y-116187333D01*
X165339053Y-116277201D01*
X165210286Y-116326100D01*
X164927208Y-116379850D01*
X164720315Y-116379850D01*
X164437236Y-116326100D01*
X164308467Y-116277200D01*
X164190142Y-116187333D01*
X164133761Y-116058870D01*
X164133761Y-115986543D01*
X164190142Y-115858080D01*
X164217908Y-115836993D01*
X164610904Y-115836993D01*
X164610904Y-115965564D01*
X164630002Y-116024343D01*
X164680002Y-116060670D01*
X164741806Y-116060670D01*
X164791806Y-116024343D01*
X164810904Y-115965564D01*
X164810904Y-115736993D01*
X164806010Y-115721930D01*
X164806010Y-115706091D01*
X164796700Y-115693277D01*
X164791806Y-115678214D01*
X164778992Y-115668904D01*
X164769683Y-115656091D01*
X164754619Y-115651196D01*
X164741806Y-115641887D01*
X164725967Y-115641887D01*
X164710904Y-115636993D01*
X164184238Y-115636993D01*
X164183180Y-115637336D01*
X164182115Y-115637015D01*
X164153877Y-115646857D01*
X164125459Y-115656091D01*
X164124805Y-115656990D01*
X164123755Y-115657357D01*
X164048517Y-115714500D01*
X164034164Y-115735163D01*
X164017431Y-115753947D01*
X163942192Y-115925375D01*
X163940141Y-115945925D01*
X163933761Y-115965564D01*
X163933761Y-116079850D01*
X163708047Y-116079850D01*
X163708047Y-114527477D01*
X163934214Y-114527477D01*
X163938655Y-114547444D01*
X163938655Y-114567895D01*
X163945210Y-114576917D01*
X163947632Y-114587806D01*
X163962959Y-114601347D01*
X163974982Y-114617895D01*
X163985591Y-114621342D01*
X163993949Y-114628726D01*
X165132164Y-115122707D01*
X164033761Y-115122707D01*
X163974982Y-115141805D01*
X163938655Y-115191805D01*
X163938655Y-115253609D01*
X163974982Y-115303609D01*
X164033761Y-115322707D01*
X165613761Y-115322707D01*
X165624368Y-115319260D01*
X165635472Y-115320322D01*
X165653087Y-115309929D01*
X165672540Y-115303609D01*
X165679096Y-115294585D01*
X165688702Y-115288918D01*
X165696843Y-115270157D01*
X165708867Y-115253609D01*
X165708867Y-115242453D01*
X165713307Y-115232223D01*
X165708867Y-115212260D01*
X165708867Y-115191805D01*
X165702310Y-115182780D01*
X165699889Y-115171894D01*
X165684563Y-115158353D01*
X165672540Y-115141805D01*
X165661930Y-115138357D01*
X165653573Y-115130974D01*
X165485187Y-115057895D01*
X166477780Y-115057895D01*
X166486911Y-115080733D01*
X166492948Y-115104577D01*
X166498191Y-115108944D01*
X166500725Y-115115281D01*
X166521536Y-115128390D01*
X166540435Y-115144132D01*
X166547244Y-115144583D01*
X166553019Y-115148221D01*
X168133019Y-115548221D01*
X168194688Y-115544132D01*
X168242175Y-115504577D01*
X168257343Y-115444663D01*
X168234398Y-115387277D01*
X168182104Y-115354337D01*
X168113595Y-115336993D01*
X169021361Y-115336993D01*
X169026573Y-115353036D01*
X169026932Y-115369907D01*
X169035885Y-115381695D01*
X169040459Y-115395772D01*
X169054108Y-115405688D01*
X169064313Y-115419125D01*
X169078484Y-115423399D01*
X169090459Y-115432099D01*
X169107330Y-115432099D01*
X169123484Y-115436971D01*
X169137461Y-115432099D01*
X169152263Y-115432099D01*
X169165912Y-115422182D01*
X169181844Y-115416629D01*
X170068491Y-114743225D01*
X170262396Y-114694136D01*
X170382061Y-114694136D01*
X170501891Y-114739641D01*
X170552010Y-114777706D01*
X170601361Y-114852669D01*
X170601361Y-115078459D01*
X170552010Y-115153422D01*
X170490402Y-115200214D01*
X170455144Y-115250975D01*
X170456456Y-115312764D01*
X170493837Y-115361982D01*
X170553008Y-115379828D01*
X170611368Y-115359486D01*
X170686606Y-115302342D01*
X170696331Y-115288340D01*
X170709648Y-115277694D01*
X170784886Y-115163409D01*
X170792489Y-115135726D01*
X170801361Y-115108422D01*
X170801361Y-114822707D01*
X170792489Y-114795402D01*
X170784886Y-114767720D01*
X170709648Y-114653435D01*
X170696331Y-114642788D01*
X170686606Y-114628787D01*
X170611368Y-114571643D01*
X170597681Y-114566872D01*
X170586386Y-114557793D01*
X170435910Y-114500650D01*
X170417725Y-114499762D01*
X170400409Y-114494136D01*
X170249933Y-114494136D01*
X170237956Y-114498027D01*
X170225391Y-114497194D01*
X169999677Y-114554337D01*
X169982690Y-114565036D01*
X169963737Y-114571643D01*
X169221361Y-115135471D01*
X169221361Y-114594136D01*
X169202263Y-114535357D01*
X169152263Y-114499030D01*
X169090459Y-114499030D01*
X169040459Y-114535357D01*
X169021361Y-114594136D01*
X169021361Y-115336993D01*
X168113595Y-115336993D01*
X166985024Y-115051279D01*
X168182104Y-114748221D01*
X168234398Y-114715281D01*
X168257343Y-114657895D01*
X168242175Y-114597981D01*
X168194688Y-114558426D01*
X168133019Y-114554337D01*
X166553019Y-114954337D01*
X166547244Y-114957974D01*
X166540435Y-114958426D01*
X166521536Y-114974167D01*
X166500725Y-114987277D01*
X166498191Y-114993613D01*
X166492948Y-114997981D01*
X166486911Y-115021824D01*
X166477780Y-115044663D01*
X166479454Y-115051279D01*
X166477780Y-115057895D01*
X165485187Y-115057895D01*
X164515358Y-114636993D01*
X165613761Y-114636993D01*
X165672540Y-114617895D01*
X165708867Y-114567895D01*
X165708867Y-114506091D01*
X165672540Y-114456091D01*
X165613761Y-114436993D01*
X164033761Y-114436993D01*
X164023153Y-114440439D01*
X164012050Y-114439378D01*
X163994434Y-114449770D01*
X163974982Y-114456091D01*
X163968425Y-114465114D01*
X163958820Y-114470782D01*
X163950677Y-114489543D01*
X163938655Y-114506091D01*
X163938655Y-114517244D01*
X163934214Y-114527477D01*
X163708047Y-114527477D01*
X163708047Y-114194136D01*
X166477561Y-114194136D01*
X166486431Y-114221437D01*
X166494036Y-114249124D01*
X166569275Y-114363410D01*
X166582591Y-114374056D01*
X166592317Y-114388058D01*
X166667555Y-114445201D01*
X166725915Y-114465543D01*
X166785086Y-114447697D01*
X166822467Y-114398479D01*
X166823779Y-114336690D01*
X166788521Y-114285930D01*
X166726913Y-114239138D01*
X166677561Y-114164173D01*
X166677561Y-113881240D01*
X166726911Y-113806278D01*
X166777029Y-113768214D01*
X166896862Y-113722708D01*
X167236356Y-113722708D01*
X167356188Y-113768214D01*
X167406305Y-113806277D01*
X167455657Y-113881241D01*
X167455657Y-114022708D01*
X167459919Y-114035825D01*
X167459343Y-114049611D01*
X167469233Y-114064493D01*
X167474755Y-114081487D01*
X167485915Y-114089595D01*
X167493551Y-114101085D01*
X167510299Y-114107311D01*
X167524755Y-114117814D01*
X167538550Y-114117814D01*
X167551480Y-114122621D01*
X167568689Y-114117814D01*
X167586559Y-114117814D01*
X167597720Y-114109704D01*
X167611005Y-114105994D01*
X168057561Y-113809231D01*
X168057561Y-114365565D01*
X168076659Y-114424344D01*
X168126659Y-114460671D01*
X168188463Y-114460671D01*
X168238463Y-114424344D01*
X168257561Y-114365565D01*
X168257561Y-114136993D01*
X169021361Y-114136993D01*
X169040459Y-114195772D01*
X169090459Y-114232099D01*
X169152263Y-114232099D01*
X169202263Y-114195772D01*
X169221361Y-114136993D01*
X169221361Y-113894136D01*
X170329119Y-113894136D01*
X170264688Y-113943071D01*
X170254960Y-113957074D01*
X170241646Y-113967720D01*
X170166408Y-114082006D01*
X170150039Y-114141603D01*
X170171826Y-114199438D01*
X170223448Y-114233422D01*
X170285186Y-114230574D01*
X170333458Y-114191980D01*
X170399283Y-114091991D01*
X170528906Y-113993543D01*
X170746533Y-113883352D01*
X170752343Y-113877571D01*
X170760140Y-113875038D01*
X170773835Y-113856188D01*
X170790346Y-113839761D01*
X170791648Y-113831670D01*
X170796467Y-113825038D01*
X170796467Y-113801739D01*
X170800169Y-113778744D01*
X170796467Y-113771432D01*
X170796467Y-113763234D01*
X170782772Y-113744384D01*
X170772251Y-113723605D01*
X170764958Y-113719865D01*
X170760140Y-113713234D01*
X170737983Y-113706035D01*
X170717255Y-113695407D01*
X170709155Y-113696668D01*
X170701361Y-113694136D01*
X169221361Y-113694136D01*
X169221361Y-113451279D01*
X169202263Y-113392500D01*
X169152263Y-113356173D01*
X169090459Y-113356173D01*
X169040459Y-113392500D01*
X169021361Y-113451279D01*
X169021361Y-114136993D01*
X168257561Y-114136993D01*
X168257561Y-113622708D01*
X168253298Y-113609589D01*
X168253875Y-113595806D01*
X168243984Y-113580923D01*
X168238463Y-113563929D01*
X168227302Y-113555820D01*
X168219667Y-113544331D01*
X168202918Y-113538104D01*
X168188463Y-113527602D01*
X168174668Y-113527602D01*
X168161738Y-113522795D01*
X168144529Y-113527602D01*
X168126659Y-113527602D01*
X168115498Y-113535710D01*
X168102212Y-113539422D01*
X167651623Y-113838864D01*
X167646785Y-113823974D01*
X167639182Y-113796292D01*
X167563944Y-113682007D01*
X167550629Y-113671361D01*
X167540902Y-113657358D01*
X167465662Y-113600215D01*
X167451976Y-113595444D01*
X167440681Y-113586365D01*
X167290205Y-113529222D01*
X167272020Y-113528334D01*
X167254704Y-113522708D01*
X166878514Y-113522708D01*
X166861198Y-113528334D01*
X166843013Y-113529222D01*
X166692537Y-113586365D01*
X166681242Y-113595444D01*
X166667555Y-113600215D01*
X166592317Y-113657358D01*
X166582591Y-113671359D01*
X166569275Y-113682006D01*
X166494037Y-113796291D01*
X166486434Y-113823969D01*
X166477561Y-113851279D01*
X166477561Y-114194136D01*
X163708047Y-114194136D01*
X163708047Y-113965564D01*
X163933761Y-113965564D01*
X163938655Y-113980626D01*
X163938655Y-113996466D01*
X163947964Y-114009279D01*
X163952859Y-114024343D01*
X163965672Y-114033652D01*
X163974982Y-114046466D01*
X163990045Y-114051360D01*
X164002859Y-114060670D01*
X164018698Y-114060670D01*
X164033761Y-114065564D01*
X165613761Y-114065564D01*
X165628824Y-114060670D01*
X165644663Y-114060670D01*
X165657476Y-114051360D01*
X165672540Y-114046466D01*
X165681849Y-114033652D01*
X165694663Y-114024343D01*
X165699557Y-114009279D01*
X165708867Y-113996466D01*
X165708867Y-113980626D01*
X165713761Y-113965564D01*
X165713761Y-113679850D01*
X165707379Y-113660210D01*
X165705330Y-113639662D01*
X165630092Y-113468233D01*
X165613357Y-113449447D01*
X165599005Y-113428785D01*
X165448530Y-113314500D01*
X165434843Y-113309729D01*
X165423548Y-113300650D01*
X165273072Y-113243507D01*
X165264101Y-113243069D01*
X165256225Y-113238748D01*
X164955273Y-113181605D01*
X164945748Y-113182816D01*
X164936619Y-113179850D01*
X164710904Y-113179850D01*
X164701774Y-113182816D01*
X164692250Y-113181605D01*
X164391298Y-113238748D01*
X164383422Y-113243068D01*
X164374451Y-113243507D01*
X164223975Y-113300650D01*
X164212680Y-113309729D01*
X164198993Y-113314500D01*
X164048517Y-113428785D01*
X164034163Y-113449449D01*
X164017431Y-113468232D01*
X163942192Y-113639661D01*
X163940141Y-113660210D01*
X163933761Y-113679850D01*
X163933761Y-113965564D01*
X163708047Y-113965564D01*
X163708047Y-112954136D01*
X171027075Y-112954136D01*
X171027075Y-116862685D01*
G37*
G36*
X189757484Y-117046938D02*
G01*
X181681558Y-117046938D01*
X181681558Y-116349269D01*
X181852987Y-116349269D01*
X181889314Y-116399269D01*
X181948093Y-116418367D01*
X182862378Y-116418367D01*
X182921157Y-116399269D01*
X182957484Y-116349269D01*
X182957484Y-116287465D01*
X182921157Y-116237465D01*
X182862378Y-116218367D01*
X181948093Y-116218367D01*
X181889314Y-116237465D01*
X181852987Y-116287465D01*
X181852987Y-116349269D01*
X181681558Y-116349269D01*
X181681558Y-115545330D01*
X184081326Y-115545330D01*
X184081796Y-115607132D01*
X184481796Y-116807132D01*
X184499718Y-116831410D01*
X184517273Y-116855962D01*
X184518027Y-116856213D01*
X184518501Y-116856855D01*
X184547266Y-116865960D01*
X184575905Y-116875507D01*
X184576665Y-116875266D01*
X184577423Y-116875506D01*
X184606001Y-116865979D01*
X184634827Y-116856855D01*
X184635300Y-116856213D01*
X184636055Y-116855962D01*
X184653609Y-116831410D01*
X184671532Y-116807132D01*
X184967787Y-115918367D01*
X185219521Y-115918367D01*
X185224529Y-115933782D01*
X185224653Y-115949990D01*
X185281796Y-116121418D01*
X185295486Y-116139964D01*
X185305953Y-116160506D01*
X185820956Y-116675509D01*
X185319521Y-116675509D01*
X185260742Y-116694607D01*
X185224415Y-116744607D01*
X185224415Y-116806411D01*
X185260742Y-116856411D01*
X185319521Y-116875509D01*
X186062378Y-116875509D01*
X186084647Y-116868273D01*
X186107777Y-116864610D01*
X186113482Y-116858904D01*
X186121157Y-116856411D01*
X186134922Y-116837464D01*
X186151479Y-116820908D01*
X186152741Y-116812938D01*
X186157484Y-116806411D01*
X186367272Y-116806411D01*
X186403599Y-116856411D01*
X186462378Y-116875509D01*
X187148092Y-116875509D01*
X187206871Y-116856411D01*
X187243198Y-116806411D01*
X187243198Y-116744607D01*
X187206871Y-116694607D01*
X187148092Y-116675509D01*
X186905235Y-116675509D01*
X186905235Y-116349269D01*
X188481558Y-116349269D01*
X188517885Y-116399269D01*
X188576664Y-116418367D01*
X188933806Y-116418367D01*
X188933806Y-116775509D01*
X188952904Y-116834288D01*
X189002904Y-116870615D01*
X189064708Y-116870615D01*
X189114708Y-116834288D01*
X189133806Y-116775509D01*
X189133806Y-116418367D01*
X189490949Y-116418367D01*
X189549728Y-116399269D01*
X189586055Y-116349269D01*
X189586055Y-116287465D01*
X189549728Y-116237465D01*
X189490949Y-116218367D01*
X189133806Y-116218367D01*
X189133806Y-115861224D01*
X189114708Y-115802445D01*
X189064708Y-115766118D01*
X189002904Y-115766118D01*
X188952904Y-115802445D01*
X188933806Y-115861224D01*
X188933806Y-116218367D01*
X188576664Y-116218367D01*
X188517885Y-116237465D01*
X188481558Y-116287465D01*
X188481558Y-116349269D01*
X186905235Y-116349269D01*
X186905235Y-115874073D01*
X186963095Y-115931934D01*
X186977536Y-115939292D01*
X186989085Y-115950667D01*
X187103371Y-116007810D01*
X187164485Y-116017015D01*
X187219338Y-115988539D01*
X187246978Y-115933260D01*
X187236846Y-115872293D01*
X187192814Y-115828924D01*
X187093041Y-115779037D01*
X186997234Y-115683230D01*
X186888440Y-115520039D01*
X186886788Y-115518733D01*
X186886137Y-115516730D01*
X186862679Y-115499687D01*
X186839945Y-115481726D01*
X186837841Y-115481641D01*
X186836137Y-115480403D01*
X186807147Y-115480403D01*
X186778192Y-115479235D01*
X186776440Y-115480403D01*
X186774333Y-115480403D01*
X186750878Y-115497443D01*
X186726768Y-115513517D01*
X186726037Y-115515491D01*
X186724333Y-115516730D01*
X186715377Y-115544293D01*
X186705316Y-115571478D01*
X186705885Y-115573506D01*
X186705235Y-115575509D01*
X186705235Y-116675509D01*
X186462378Y-116675509D01*
X186403599Y-116694607D01*
X186367272Y-116744607D01*
X186367272Y-116806411D01*
X186157484Y-116806411D01*
X186157484Y-116782993D01*
X186161147Y-116759866D01*
X186157483Y-116752676D01*
X186157484Y-116744607D01*
X186143719Y-116725661D01*
X186133089Y-116704798D01*
X185464066Y-116035775D01*
X185419521Y-115902139D01*
X185419521Y-115827687D01*
X185458849Y-115749031D01*
X185493041Y-115714838D01*
X185571699Y-115675509D01*
X185810199Y-115675509D01*
X185888855Y-115714837D01*
X185934524Y-115760505D01*
X185989591Y-115788564D01*
X186050634Y-115778896D01*
X186094336Y-115735194D01*
X186104004Y-115674151D01*
X186075945Y-115619084D01*
X186018803Y-115561941D01*
X186004360Y-115554582D01*
X185992814Y-115543210D01*
X185878529Y-115486066D01*
X185855730Y-115482632D01*
X185833807Y-115475509D01*
X185548092Y-115475509D01*
X185526168Y-115482632D01*
X185503371Y-115486066D01*
X185389085Y-115543209D01*
X185377535Y-115554584D01*
X185363096Y-115561942D01*
X185305953Y-115619084D01*
X185298595Y-115633525D01*
X185287221Y-115645073D01*
X185230078Y-115759360D01*
X185226644Y-115782157D01*
X185219521Y-115804081D01*
X185219521Y-115918367D01*
X184967787Y-115918367D01*
X185071532Y-115607132D01*
X185072002Y-115545330D01*
X185036055Y-115495056D01*
X184977423Y-115475512D01*
X184918501Y-115494163D01*
X184881796Y-115543886D01*
X184576664Y-116459282D01*
X184271532Y-115543886D01*
X184234827Y-115494163D01*
X184175905Y-115475511D01*
X184117273Y-115495056D01*
X184081326Y-115545330D01*
X181681558Y-115545330D01*
X181681558Y-115304080D01*
X189757484Y-115304080D01*
X189757484Y-117046938D01*
G37*
X182809522Y-100336623D02*
X182809522Y-99086623D01*
X182273808Y-100336623D02*
X182273808Y-99681861D01*
X182273808Y-99681861D02*
X182333332Y-99562814D01*
X182333332Y-99562814D02*
X182452380Y-99503290D01*
X182452380Y-99503290D02*
X182630951Y-99503290D01*
X182630951Y-99503290D02*
X182749999Y-99562814D01*
X182749999Y-99562814D02*
X182809522Y-99622338D01*
X181857142Y-99503290D02*
X181380951Y-99503290D01*
X181678570Y-99086623D02*
X181678570Y-100158052D01*
X181678570Y-100158052D02*
X181619047Y-100277100D01*
X181619047Y-100277100D02*
X181499999Y-100336623D01*
X181499999Y-100336623D02*
X181380951Y-100336623D01*
X181142856Y-99503290D02*
X180666665Y-99503290D01*
X180964284Y-99086623D02*
X180964284Y-100158052D01*
X180964284Y-100158052D02*
X180904761Y-100277100D01*
X180904761Y-100277100D02*
X180785713Y-100336623D01*
X180785713Y-100336623D02*
X180666665Y-100336623D01*
X180249998Y-99503290D02*
X180249998Y-100753290D01*
X180249998Y-99562814D02*
X180130951Y-99503290D01*
X180130951Y-99503290D02*
X179892856Y-99503290D01*
X179892856Y-99503290D02*
X179773808Y-99562814D01*
X179773808Y-99562814D02*
X179714284Y-99622338D01*
X179714284Y-99622338D02*
X179654760Y-99741385D01*
X179654760Y-99741385D02*
X179654760Y-100098528D01*
X179654760Y-100098528D02*
X179714284Y-100217576D01*
X179714284Y-100217576D02*
X179773808Y-100277100D01*
X179773808Y-100277100D02*
X179892856Y-100336623D01*
X179892856Y-100336623D02*
X180130951Y-100336623D01*
X180130951Y-100336623D02*
X180249998Y-100277100D01*
X179178570Y-100277100D02*
X179059523Y-100336623D01*
X179059523Y-100336623D02*
X178821427Y-100336623D01*
X178821427Y-100336623D02*
X178702380Y-100277100D01*
X178702380Y-100277100D02*
X178642856Y-100158052D01*
X178642856Y-100158052D02*
X178642856Y-100098528D01*
X178642856Y-100098528D02*
X178702380Y-99979480D01*
X178702380Y-99979480D02*
X178821427Y-99919957D01*
X178821427Y-99919957D02*
X178999999Y-99919957D01*
X178999999Y-99919957D02*
X179119046Y-99860433D01*
X179119046Y-99860433D02*
X179178570Y-99741385D01*
X179178570Y-99741385D02*
X179178570Y-99681861D01*
X179178570Y-99681861D02*
X179119046Y-99562814D01*
X179119046Y-99562814D02*
X178999999Y-99503290D01*
X178999999Y-99503290D02*
X178821427Y-99503290D01*
X178821427Y-99503290D02*
X178702380Y-99562814D01*
X178107141Y-100217576D02*
X178047618Y-100277100D01*
X178047618Y-100277100D02*
X178107141Y-100336623D01*
X178107141Y-100336623D02*
X178166665Y-100277100D01*
X178166665Y-100277100D02*
X178107141Y-100217576D01*
X178107141Y-100217576D02*
X178107141Y-100336623D01*
X178107141Y-99562814D02*
X178047618Y-99622338D01*
X178047618Y-99622338D02*
X178107141Y-99681861D01*
X178107141Y-99681861D02*
X178166665Y-99622338D01*
X178166665Y-99622338D02*
X178107141Y-99562814D01*
X178107141Y-99562814D02*
X178107141Y-99681861D01*
X176619046Y-99027100D02*
X177690475Y-100634242D01*
X175309522Y-99027100D02*
X176380951Y-100634242D01*
X174892855Y-100336623D02*
X174892855Y-99086623D01*
X174357141Y-100336623D02*
X174357141Y-99681861D01*
X174357141Y-99681861D02*
X174416665Y-99562814D01*
X174416665Y-99562814D02*
X174535713Y-99503290D01*
X174535713Y-99503290D02*
X174714284Y-99503290D01*
X174714284Y-99503290D02*
X174833332Y-99562814D01*
X174833332Y-99562814D02*
X174892855Y-99622338D01*
X173285713Y-100277100D02*
X173404761Y-100336623D01*
X173404761Y-100336623D02*
X173642856Y-100336623D01*
X173642856Y-100336623D02*
X173761903Y-100277100D01*
X173761903Y-100277100D02*
X173821427Y-100158052D01*
X173821427Y-100158052D02*
X173821427Y-99681861D01*
X173821427Y-99681861D02*
X173761903Y-99562814D01*
X173761903Y-99562814D02*
X173642856Y-99503290D01*
X173642856Y-99503290D02*
X173404761Y-99503290D01*
X173404761Y-99503290D02*
X173285713Y-99562814D01*
X173285713Y-99562814D02*
X173226189Y-99681861D01*
X173226189Y-99681861D02*
X173226189Y-99800909D01*
X173226189Y-99800909D02*
X173821427Y-99919957D01*
X172749998Y-100277100D02*
X172630951Y-100336623D01*
X172630951Y-100336623D02*
X172392855Y-100336623D01*
X172392855Y-100336623D02*
X172273808Y-100277100D01*
X172273808Y-100277100D02*
X172214284Y-100158052D01*
X172214284Y-100158052D02*
X172214284Y-100098528D01*
X172214284Y-100098528D02*
X172273808Y-99979480D01*
X172273808Y-99979480D02*
X172392855Y-99919957D01*
X172392855Y-99919957D02*
X172571427Y-99919957D01*
X172571427Y-99919957D02*
X172690474Y-99860433D01*
X172690474Y-99860433D02*
X172749998Y-99741385D01*
X172749998Y-99741385D02*
X172749998Y-99681861D01*
X172749998Y-99681861D02*
X172690474Y-99562814D01*
X172690474Y-99562814D02*
X172571427Y-99503290D01*
X172571427Y-99503290D02*
X172392855Y-99503290D01*
X172392855Y-99503290D02*
X172273808Y-99562814D01*
X171857141Y-99503290D02*
X171380950Y-99503290D01*
X171678569Y-99086623D02*
X171678569Y-100158052D01*
X171678569Y-100158052D02*
X171619046Y-100277100D01*
X171619046Y-100277100D02*
X171499998Y-100336623D01*
X171499998Y-100336623D02*
X171380950Y-100336623D01*
X170428569Y-100336623D02*
X170428569Y-99681861D01*
X170428569Y-99681861D02*
X170488093Y-99562814D01*
X170488093Y-99562814D02*
X170607141Y-99503290D01*
X170607141Y-99503290D02*
X170845236Y-99503290D01*
X170845236Y-99503290D02*
X170964283Y-99562814D01*
X170428569Y-100277100D02*
X170547617Y-100336623D01*
X170547617Y-100336623D02*
X170845236Y-100336623D01*
X170845236Y-100336623D02*
X170964283Y-100277100D01*
X170964283Y-100277100D02*
X171023807Y-100158052D01*
X171023807Y-100158052D02*
X171023807Y-100039004D01*
X171023807Y-100039004D02*
X170964283Y-99919957D01*
X170964283Y-99919957D02*
X170845236Y-99860433D01*
X170845236Y-99860433D02*
X170547617Y-99860433D01*
X170547617Y-99860433D02*
X170428569Y-99800909D01*
X169297617Y-100336623D02*
X169297617Y-99086623D01*
X169297617Y-100277100D02*
X169416665Y-100336623D01*
X169416665Y-100336623D02*
X169654760Y-100336623D01*
X169654760Y-100336623D02*
X169773808Y-100277100D01*
X169773808Y-100277100D02*
X169833331Y-100217576D01*
X169833331Y-100217576D02*
X169892855Y-100098528D01*
X169892855Y-100098528D02*
X169892855Y-99741385D01*
X169892855Y-99741385D02*
X169833331Y-99622338D01*
X169833331Y-99622338D02*
X169773808Y-99562814D01*
X169773808Y-99562814D02*
X169654760Y-99503290D01*
X169654760Y-99503290D02*
X169416665Y-99503290D01*
X169416665Y-99503290D02*
X169297617Y-99562814D01*
X168702379Y-100217576D02*
X168642856Y-100277100D01*
X168642856Y-100277100D02*
X168702379Y-100336623D01*
X168702379Y-100336623D02*
X168761903Y-100277100D01*
X168761903Y-100277100D02*
X168702379Y-100217576D01*
X168702379Y-100217576D02*
X168702379Y-100336623D01*
X168107141Y-99503290D02*
X168107141Y-100336623D01*
X168107141Y-99622338D02*
X168047618Y-99562814D01*
X168047618Y-99562814D02*
X167928570Y-99503290D01*
X167928570Y-99503290D02*
X167749999Y-99503290D01*
X167749999Y-99503290D02*
X167630951Y-99562814D01*
X167630951Y-99562814D02*
X167571427Y-99681861D01*
X167571427Y-99681861D02*
X167571427Y-100336623D01*
X166797618Y-100336623D02*
X166916666Y-100277100D01*
X166916666Y-100277100D02*
X166976189Y-100217576D01*
X166976189Y-100217576D02*
X167035713Y-100098528D01*
X167035713Y-100098528D02*
X167035713Y-99741385D01*
X167035713Y-99741385D02*
X166976189Y-99622338D01*
X166976189Y-99622338D02*
X166916666Y-99562814D01*
X166916666Y-99562814D02*
X166797618Y-99503290D01*
X166797618Y-99503290D02*
X166619047Y-99503290D01*
X166619047Y-99503290D02*
X166499999Y-99562814D01*
X166499999Y-99562814D02*
X166440475Y-99622338D01*
X166440475Y-99622338D02*
X166380951Y-99741385D01*
X166380951Y-99741385D02*
X166380951Y-100098528D01*
X166380951Y-100098528D02*
X166440475Y-100217576D01*
X166440475Y-100217576D02*
X166499999Y-100277100D01*
X166499999Y-100277100D02*
X166619047Y-100336623D01*
X166619047Y-100336623D02*
X166797618Y-100336623D01*
X176741361Y-116422707D02*
X178321361Y-116422707D01*
X178321361Y-116422707D02*
X178321361Y-116136993D01*
X178321361Y-116136993D02*
X178246123Y-115965564D01*
X178246123Y-115965564D02*
X178095647Y-115851279D01*
X178095647Y-115851279D02*
X177945171Y-115794136D01*
X177945171Y-115794136D02*
X177644219Y-115736993D01*
X177644219Y-115736993D02*
X177418504Y-115736993D01*
X177418504Y-115736993D02*
X177117552Y-115794136D01*
X177117552Y-115794136D02*
X176967076Y-115851279D01*
X176967076Y-115851279D02*
X176816600Y-115965564D01*
X176816600Y-115965564D02*
X176741361Y-116136993D01*
X176741361Y-116136993D02*
X176741361Y-116422707D01*
X178170885Y-115279850D02*
X178246123Y-115222707D01*
X178246123Y-115222707D02*
X178321361Y-115108422D01*
X178321361Y-115108422D02*
X178321361Y-114822707D01*
X178321361Y-114822707D02*
X178246123Y-114708422D01*
X178246123Y-114708422D02*
X178170885Y-114651279D01*
X178170885Y-114651279D02*
X178020409Y-114594136D01*
X178020409Y-114594136D02*
X177869933Y-114594136D01*
X177869933Y-114594136D02*
X177644219Y-114651279D01*
X177644219Y-114651279D02*
X176741361Y-115336993D01*
X176741361Y-115336993D02*
X176741361Y-114594136D01*
X178170885Y-114136993D02*
X178246123Y-114079850D01*
X178246123Y-114079850D02*
X178321361Y-113965565D01*
X178321361Y-113965565D02*
X178321361Y-113679850D01*
X178321361Y-113679850D02*
X178246123Y-113565565D01*
X178246123Y-113565565D02*
X178170885Y-113508422D01*
X178170885Y-113508422D02*
X178020409Y-113451279D01*
X178020409Y-113451279D02*
X177869933Y-113451279D01*
X177869933Y-113451279D02*
X177644219Y-113508422D01*
X177644219Y-113508422D02*
X176741361Y-114194136D01*
X176741361Y-114194136D02*
X176741361Y-113451279D01*
X175777561Y-116536993D02*
X175777561Y-115794136D01*
X175777561Y-115794136D02*
X175175657Y-116194136D01*
X175175657Y-116194136D02*
X175175657Y-116022707D01*
X175175657Y-116022707D02*
X175100419Y-115908422D01*
X175100419Y-115908422D02*
X175025180Y-115851279D01*
X175025180Y-115851279D02*
X174874704Y-115794136D01*
X174874704Y-115794136D02*
X174498514Y-115794136D01*
X174498514Y-115794136D02*
X174348038Y-115851279D01*
X174348038Y-115851279D02*
X174272800Y-115908422D01*
X174272800Y-115908422D02*
X174197561Y-116022707D01*
X174197561Y-116022707D02*
X174197561Y-116365564D01*
X174197561Y-116365564D02*
X174272800Y-116479850D01*
X174272800Y-116479850D02*
X174348038Y-116536993D01*
X175777561Y-115451279D02*
X174197561Y-115051279D01*
X174197561Y-115051279D02*
X175777561Y-114651279D01*
X175777561Y-114365565D02*
X175777561Y-113622708D01*
X175777561Y-113622708D02*
X175175657Y-114022708D01*
X175175657Y-114022708D02*
X175175657Y-113851279D01*
X175175657Y-113851279D02*
X175100419Y-113736994D01*
X175100419Y-113736994D02*
X175025180Y-113679851D01*
X175025180Y-113679851D02*
X174874704Y-113622708D01*
X174874704Y-113622708D02*
X174498514Y-113622708D01*
X174498514Y-113622708D02*
X174348038Y-113679851D01*
X174348038Y-113679851D02*
X174272800Y-113736994D01*
X174272800Y-113736994D02*
X174197561Y-113851279D01*
X174197561Y-113851279D02*
X174197561Y-114194136D01*
X174197561Y-114194136D02*
X174272800Y-114308422D01*
X174272800Y-114308422D02*
X174348038Y-114365565D01*
X173158523Y-115794136D02*
X173233761Y-115908422D01*
X173233761Y-115908422D02*
X173233761Y-116079850D01*
X173233761Y-116079850D02*
X173158523Y-116251279D01*
X173158523Y-116251279D02*
X173008047Y-116365564D01*
X173008047Y-116365564D02*
X172857571Y-116422707D01*
X172857571Y-116422707D02*
X172556619Y-116479850D01*
X172556619Y-116479850D02*
X172330904Y-116479850D01*
X172330904Y-116479850D02*
X172029952Y-116422707D01*
X172029952Y-116422707D02*
X171879476Y-116365564D01*
X171879476Y-116365564D02*
X171729000Y-116251279D01*
X171729000Y-116251279D02*
X171653761Y-116079850D01*
X171653761Y-116079850D02*
X171653761Y-115965564D01*
X171653761Y-115965564D02*
X171729000Y-115794136D01*
X171729000Y-115794136D02*
X171804238Y-115736993D01*
X171804238Y-115736993D02*
X172330904Y-115736993D01*
X172330904Y-115736993D02*
X172330904Y-115965564D01*
X171653761Y-115222707D02*
X173233761Y-115222707D01*
X173233761Y-115222707D02*
X171653761Y-114536993D01*
X171653761Y-114536993D02*
X173233761Y-114536993D01*
X171653761Y-113965564D02*
X173233761Y-113965564D01*
X173233761Y-113965564D02*
X173233761Y-113679850D01*
X173233761Y-113679850D02*
X173158523Y-113508421D01*
X173158523Y-113508421D02*
X173008047Y-113394136D01*
X173008047Y-113394136D02*
X172857571Y-113336993D01*
X172857571Y-113336993D02*
X172556619Y-113279850D01*
X172556619Y-113279850D02*
X172330904Y-113279850D01*
X172330904Y-113279850D02*
X172029952Y-113336993D01*
X172029952Y-113336993D02*
X171879476Y-113394136D01*
X171879476Y-113394136D02*
X171729000Y-113508421D01*
X171729000Y-113508421D02*
X171653761Y-113679850D01*
X171653761Y-113679850D02*
X171653761Y-113965564D01*
G36*
X129861891Y-115882498D02*
G01*
X129912010Y-115920563D01*
X129961361Y-115995526D01*
X129961361Y-116322707D01*
X129333742Y-116322707D01*
X129333742Y-115995525D01*
X129383093Y-115920562D01*
X129433211Y-115882498D01*
X129553043Y-115836993D01*
X129742061Y-115836993D01*
X129861891Y-115882498D01*
G37*
G36*
X127114086Y-113433599D02*
G01*
X127242853Y-113482498D01*
X127361180Y-113572366D01*
X127417561Y-113700828D01*
X127417561Y-113865564D01*
X126037561Y-113865564D01*
X126037561Y-113700829D01*
X126093942Y-113572366D01*
X126212267Y-113482499D01*
X126341036Y-113433599D01*
X126624115Y-113379850D01*
X126831008Y-113379850D01*
X127114086Y-113433599D01*
G37*
G36*
X132201686Y-113433599D02*
G01*
X132330453Y-113482498D01*
X132448780Y-113572366D01*
X132505161Y-113700828D01*
X132505161Y-113865564D01*
X131125161Y-113865564D01*
X131125160Y-113700829D01*
X131181542Y-113572366D01*
X131299867Y-113482499D01*
X131428636Y-113433599D01*
X131711715Y-113379850D01*
X131918608Y-113379850D01*
X132201686Y-113433599D01*
G37*
G36*
X132930875Y-116914956D02*
G01*
X123069238Y-116914956D01*
X123069238Y-116282181D01*
X123298655Y-116282181D01*
X123334982Y-116332181D01*
X123393761Y-116351279D01*
X124873761Y-116351279D01*
X124873761Y-116594136D01*
X124892859Y-116652915D01*
X124942859Y-116689242D01*
X125004663Y-116689242D01*
X125054663Y-116652915D01*
X125073761Y-116594136D01*
X125073761Y-116079850D01*
X125837561Y-116079850D01*
X125843941Y-116099489D01*
X125845992Y-116120039D01*
X125921231Y-116291468D01*
X125937963Y-116310250D01*
X125952317Y-116330915D01*
X126102793Y-116445200D01*
X126116480Y-116449970D01*
X126127775Y-116459050D01*
X126278251Y-116516193D01*
X126287222Y-116516631D01*
X126295098Y-116520952D01*
X126596050Y-116578095D01*
X126605574Y-116576883D01*
X126614704Y-116579850D01*
X126840419Y-116579850D01*
X126849548Y-116576883D01*
X126859073Y-116578095D01*
X127160025Y-116520952D01*
X127167901Y-116516630D01*
X127176872Y-116516193D01*
X127327348Y-116459050D01*
X127338643Y-116449970D01*
X127352330Y-116445200D01*
X127502805Y-116330915D01*
X127517157Y-116310252D01*
X127533892Y-116291467D01*
X127609130Y-116120038D01*
X127611179Y-116099489D01*
X127617561Y-116079850D01*
X127617561Y-115908422D01*
X127608688Y-115881115D01*
X127601086Y-115853435D01*
X127525848Y-115739149D01*
X127501438Y-115719633D01*
X128382879Y-115719633D01*
X128391483Y-115780835D01*
X128434418Y-115825290D01*
X129133742Y-116197081D01*
X129133742Y-116322707D01*
X128481361Y-116322707D01*
X128422582Y-116341805D01*
X128386255Y-116391805D01*
X128386255Y-116453609D01*
X128422582Y-116503609D01*
X128481361Y-116522707D01*
X130061361Y-116522707D01*
X130076424Y-116517813D01*
X130092263Y-116517813D01*
X130105076Y-116508503D01*
X130120140Y-116503609D01*
X130129449Y-116490795D01*
X130142263Y-116481486D01*
X130147157Y-116466422D01*
X130156467Y-116453609D01*
X130156467Y-116437769D01*
X130161361Y-116422707D01*
X130161361Y-116079850D01*
X130925161Y-116079850D01*
X130931541Y-116099489D01*
X130933592Y-116120039D01*
X131008831Y-116291468D01*
X131025563Y-116310250D01*
X131039917Y-116330915D01*
X131190393Y-116445200D01*
X131204080Y-116449970D01*
X131215375Y-116459050D01*
X131365851Y-116516193D01*
X131374822Y-116516631D01*
X131382698Y-116520952D01*
X131683650Y-116578095D01*
X131693174Y-116576883D01*
X131702304Y-116579850D01*
X131928019Y-116579850D01*
X131937148Y-116576883D01*
X131946673Y-116578095D01*
X132247625Y-116520952D01*
X132255501Y-116516630D01*
X132264472Y-116516193D01*
X132414948Y-116459050D01*
X132426243Y-116449970D01*
X132439930Y-116445200D01*
X132590405Y-116330915D01*
X132604757Y-116310252D01*
X132621492Y-116291467D01*
X132696730Y-116120038D01*
X132698779Y-116099489D01*
X132705161Y-116079850D01*
X132705161Y-115908422D01*
X132696288Y-115881115D01*
X132688686Y-115853435D01*
X132613448Y-115739149D01*
X132565176Y-115700555D01*
X132503438Y-115697707D01*
X132451816Y-115731691D01*
X132430029Y-115789526D01*
X132446398Y-115849123D01*
X132505161Y-115938383D01*
X132505161Y-116058871D01*
X132448780Y-116187333D01*
X132330453Y-116277201D01*
X132201686Y-116326100D01*
X131918608Y-116379850D01*
X131711715Y-116379850D01*
X131428636Y-116326100D01*
X131299867Y-116277200D01*
X131181542Y-116187333D01*
X131125161Y-116058870D01*
X131125161Y-115986543D01*
X131181542Y-115858080D01*
X131209308Y-115836993D01*
X131602304Y-115836993D01*
X131602304Y-115965564D01*
X131621402Y-116024343D01*
X131671402Y-116060670D01*
X131733206Y-116060670D01*
X131783206Y-116024343D01*
X131802304Y-115965564D01*
X131802304Y-115736993D01*
X131797410Y-115721930D01*
X131797410Y-115706091D01*
X131788100Y-115693277D01*
X131783206Y-115678214D01*
X131770392Y-115668904D01*
X131761083Y-115656091D01*
X131746019Y-115651196D01*
X131733206Y-115641887D01*
X131717367Y-115641887D01*
X131702304Y-115636993D01*
X131175638Y-115636993D01*
X131174580Y-115637336D01*
X131173515Y-115637015D01*
X131145277Y-115646857D01*
X131116859Y-115656091D01*
X131116205Y-115656990D01*
X131115155Y-115657357D01*
X131039917Y-115714500D01*
X131025564Y-115735163D01*
X131008831Y-115753947D01*
X130933592Y-115925375D01*
X130931541Y-115945925D01*
X130925161Y-115965564D01*
X130925161Y-116079850D01*
X130161361Y-116079850D01*
X130161361Y-115965564D01*
X130152489Y-115938259D01*
X130144886Y-115910577D01*
X130069648Y-115796292D01*
X130056331Y-115785645D01*
X130046606Y-115771644D01*
X129971368Y-115714500D01*
X129957681Y-115709729D01*
X129946386Y-115700650D01*
X129795910Y-115643507D01*
X129777725Y-115642619D01*
X129760409Y-115636993D01*
X129534695Y-115636993D01*
X129517379Y-115642619D01*
X129499194Y-115643507D01*
X129348718Y-115700650D01*
X129337422Y-115709729D01*
X129323737Y-115714500D01*
X129248498Y-115771643D01*
X129238772Y-115785643D01*
X129225455Y-115796291D01*
X129150217Y-115910577D01*
X129142613Y-115938259D01*
X129133742Y-115965564D01*
X129133741Y-115970574D01*
X128528304Y-115648696D01*
X128467438Y-115637966D01*
X128411891Y-115665062D01*
X128382879Y-115719633D01*
X127501438Y-115719633D01*
X127477576Y-115700555D01*
X127415838Y-115697707D01*
X127364216Y-115731691D01*
X127342429Y-115789526D01*
X127358798Y-115849123D01*
X127417561Y-115938383D01*
X127417561Y-116058871D01*
X127361180Y-116187333D01*
X127242853Y-116277201D01*
X127114086Y-116326100D01*
X126831008Y-116379850D01*
X126624115Y-116379850D01*
X126341036Y-116326100D01*
X126212267Y-116277200D01*
X126093942Y-116187333D01*
X126037561Y-116058870D01*
X126037561Y-115986543D01*
X126093942Y-115858080D01*
X126121708Y-115836993D01*
X126514704Y-115836993D01*
X126514704Y-115965564D01*
X126533802Y-116024343D01*
X126583802Y-116060670D01*
X126645606Y-116060670D01*
X126695606Y-116024343D01*
X126714704Y-115965564D01*
X126714704Y-115736993D01*
X126709810Y-115721930D01*
X126709810Y-115706091D01*
X126700500Y-115693277D01*
X126695606Y-115678214D01*
X126682792Y-115668904D01*
X126673483Y-115656091D01*
X126658419Y-115651196D01*
X126645606Y-115641887D01*
X126629767Y-115641887D01*
X126614704Y-115636993D01*
X126088038Y-115636993D01*
X126086980Y-115637336D01*
X126085915Y-115637015D01*
X126057677Y-115646857D01*
X126029259Y-115656091D01*
X126028605Y-115656990D01*
X126027555Y-115657357D01*
X125952317Y-115714500D01*
X125937964Y-115735163D01*
X125921231Y-115753947D01*
X125845992Y-115925375D01*
X125843941Y-115945925D01*
X125837561Y-115965564D01*
X125837561Y-116079850D01*
X125073761Y-116079850D01*
X125073761Y-115908422D01*
X125054663Y-115849643D01*
X125004663Y-115813316D01*
X124942859Y-115813316D01*
X124892859Y-115849643D01*
X124873761Y-115908422D01*
X124873761Y-116151279D01*
X123393761Y-116151279D01*
X123334982Y-116170377D01*
X123298655Y-116220377D01*
X123298655Y-116282181D01*
X123069238Y-116282181D01*
X123069238Y-115638099D01*
X123294952Y-115638099D01*
X123322871Y-115693238D01*
X123377866Y-115721436D01*
X123438934Y-115711923D01*
X124183760Y-115334795D01*
X124928588Y-115711923D01*
X124989655Y-115721436D01*
X125044651Y-115693238D01*
X125072569Y-115638099D01*
X125062746Y-115577081D01*
X125018933Y-115533491D01*
X124661248Y-115352385D01*
X128382552Y-115352385D01*
X128410471Y-115407524D01*
X128465466Y-115435722D01*
X128526534Y-115426209D01*
X129271360Y-115049081D01*
X130016188Y-115426209D01*
X130077255Y-115435722D01*
X130132251Y-115407524D01*
X130160169Y-115352385D01*
X130150346Y-115291367D01*
X130106533Y-115247777D01*
X129492734Y-114936993D01*
X130106533Y-114626209D01*
X130150346Y-114582619D01*
X130159223Y-114527477D01*
X130925614Y-114527477D01*
X130930054Y-114547444D01*
X130930055Y-114567895D01*
X130936610Y-114576917D01*
X130939032Y-114587806D01*
X130954359Y-114601347D01*
X130966382Y-114617895D01*
X130976991Y-114621342D01*
X130985349Y-114628726D01*
X132123564Y-115122707D01*
X131025161Y-115122707D01*
X130966382Y-115141805D01*
X130930055Y-115191805D01*
X130930055Y-115253609D01*
X130966382Y-115303609D01*
X131025161Y-115322707D01*
X132605161Y-115322707D01*
X132615768Y-115319260D01*
X132626872Y-115320322D01*
X132644487Y-115309929D01*
X132663940Y-115303609D01*
X132670496Y-115294585D01*
X132680102Y-115288918D01*
X132688243Y-115270157D01*
X132700267Y-115253609D01*
X132700267Y-115242453D01*
X132704707Y-115232223D01*
X132700266Y-115212260D01*
X132700267Y-115191805D01*
X132693710Y-115182780D01*
X132691289Y-115171894D01*
X132675963Y-115158353D01*
X132663940Y-115141805D01*
X132653330Y-115138357D01*
X132644973Y-115130974D01*
X131506758Y-114636993D01*
X132605161Y-114636993D01*
X132663940Y-114617895D01*
X132700267Y-114567895D01*
X132700267Y-114506091D01*
X132663940Y-114456091D01*
X132605161Y-114436993D01*
X131025161Y-114436993D01*
X131014553Y-114440439D01*
X131003450Y-114439378D01*
X130985834Y-114449770D01*
X130966382Y-114456091D01*
X130959825Y-114465114D01*
X130950220Y-114470782D01*
X130942077Y-114489543D01*
X130930055Y-114506091D01*
X130930055Y-114517244D01*
X130925614Y-114527477D01*
X130159223Y-114527477D01*
X130160169Y-114521601D01*
X130132251Y-114466462D01*
X130077255Y-114438264D01*
X130016188Y-114447777D01*
X129271360Y-114824904D01*
X128526534Y-114447777D01*
X128465466Y-114438264D01*
X128410471Y-114466462D01*
X128382552Y-114521601D01*
X128392375Y-114582618D01*
X128436188Y-114626209D01*
X129049986Y-114936993D01*
X128436188Y-115247777D01*
X128392375Y-115291368D01*
X128382552Y-115352385D01*
X124661248Y-115352385D01*
X124405134Y-115222707D01*
X125018933Y-114911923D01*
X125062746Y-114868333D01*
X125072569Y-114807315D01*
X125044651Y-114752176D01*
X124989655Y-114723978D01*
X124928588Y-114733491D01*
X124183760Y-115110618D01*
X123438934Y-114733491D01*
X123377866Y-114723978D01*
X123322871Y-114752176D01*
X123294952Y-114807315D01*
X123304775Y-114868332D01*
X123348588Y-114911923D01*
X123962386Y-115222707D01*
X123348588Y-115533491D01*
X123304775Y-115577082D01*
X123294952Y-115638099D01*
X123069238Y-115638099D01*
X123069238Y-114527477D01*
X125838014Y-114527477D01*
X125842454Y-114547444D01*
X125842455Y-114567895D01*
X125849010Y-114576917D01*
X125851432Y-114587806D01*
X125866759Y-114601347D01*
X125878782Y-114617895D01*
X125889391Y-114621342D01*
X125897749Y-114628726D01*
X127035964Y-115122707D01*
X125937561Y-115122707D01*
X125878782Y-115141805D01*
X125842455Y-115191805D01*
X125842455Y-115253609D01*
X125878782Y-115303609D01*
X125937561Y-115322707D01*
X127517561Y-115322707D01*
X127528168Y-115319260D01*
X127539272Y-115320322D01*
X127556887Y-115309929D01*
X127576340Y-115303609D01*
X127582896Y-115294585D01*
X127592502Y-115288918D01*
X127600643Y-115270157D01*
X127612667Y-115253609D01*
X127612667Y-115242453D01*
X127617107Y-115232223D01*
X127612666Y-115212260D01*
X127612667Y-115191805D01*
X127606110Y-115182780D01*
X127603689Y-115171894D01*
X127588363Y-115158353D01*
X127576340Y-115141805D01*
X127565730Y-115138357D01*
X127557373Y-115130974D01*
X126419158Y-114636993D01*
X127517561Y-114636993D01*
X127576340Y-114617895D01*
X127612667Y-114567895D01*
X127612667Y-114506091D01*
X127576340Y-114456091D01*
X127517561Y-114436993D01*
X125937561Y-114436993D01*
X125926953Y-114440439D01*
X125915850Y-114439378D01*
X125898234Y-114449770D01*
X125878782Y-114456091D01*
X125872225Y-114465114D01*
X125862620Y-114470782D01*
X125854477Y-114489543D01*
X125842455Y-114506091D01*
X125842455Y-114517244D01*
X125838014Y-114527477D01*
X123069238Y-114527477D01*
X123069238Y-113965564D01*
X125837561Y-113965564D01*
X125842455Y-113980626D01*
X125842455Y-113996466D01*
X125851764Y-114009279D01*
X125856659Y-114024343D01*
X125869472Y-114033652D01*
X125878782Y-114046466D01*
X125893845Y-114051360D01*
X125906659Y-114060670D01*
X125922498Y-114060670D01*
X125937561Y-114065564D01*
X127517561Y-114065564D01*
X127532624Y-114060670D01*
X127548463Y-114060670D01*
X127561276Y-114051360D01*
X127576340Y-114046466D01*
X127585649Y-114033652D01*
X127598463Y-114024343D01*
X127603357Y-114009279D01*
X127612667Y-113996466D01*
X127612667Y-113980626D01*
X127617561Y-113965564D01*
X130925161Y-113965564D01*
X130930055Y-113980626D01*
X130930055Y-113996466D01*
X130939364Y-114009279D01*
X130944259Y-114024343D01*
X130957072Y-114033652D01*
X130966382Y-114046466D01*
X130981445Y-114051360D01*
X130994259Y-114060670D01*
X131010098Y-114060670D01*
X131025161Y-114065564D01*
X132605161Y-114065564D01*
X132620224Y-114060670D01*
X132636063Y-114060670D01*
X132648876Y-114051360D01*
X132663940Y-114046466D01*
X132673249Y-114033652D01*
X132686063Y-114024343D01*
X132690957Y-114009279D01*
X132700267Y-113996466D01*
X132700267Y-113980626D01*
X132705161Y-113965564D01*
X132705161Y-113679850D01*
X132698779Y-113660210D01*
X132696730Y-113639662D01*
X132621492Y-113468233D01*
X132604757Y-113449447D01*
X132590405Y-113428785D01*
X132439930Y-113314500D01*
X132426243Y-113309729D01*
X132414948Y-113300650D01*
X132264472Y-113243507D01*
X132255501Y-113243069D01*
X132247625Y-113238748D01*
X131946673Y-113181605D01*
X131937148Y-113182816D01*
X131928019Y-113179850D01*
X131702304Y-113179850D01*
X131693174Y-113182816D01*
X131683650Y-113181605D01*
X131382698Y-113238748D01*
X131374822Y-113243068D01*
X131365851Y-113243507D01*
X131215375Y-113300650D01*
X131204080Y-113309729D01*
X131190393Y-113314500D01*
X131039917Y-113428785D01*
X131025563Y-113449449D01*
X131008831Y-113468232D01*
X130933592Y-113639661D01*
X130931541Y-113660210D01*
X130925161Y-113679850D01*
X130925161Y-113965564D01*
X127617561Y-113965564D01*
X127617561Y-113679850D01*
X127611179Y-113660210D01*
X127609130Y-113639662D01*
X127533892Y-113468233D01*
X127517157Y-113449447D01*
X127502805Y-113428785D01*
X127352330Y-113314500D01*
X127338643Y-113309729D01*
X127327348Y-113300650D01*
X127176872Y-113243507D01*
X127167901Y-113243069D01*
X127160025Y-113238748D01*
X126859073Y-113181605D01*
X126849548Y-113182816D01*
X126840419Y-113179850D01*
X126614704Y-113179850D01*
X126605574Y-113182816D01*
X126596050Y-113181605D01*
X126295098Y-113238748D01*
X126287222Y-113243068D01*
X126278251Y-113243507D01*
X126127775Y-113300650D01*
X126116480Y-113309729D01*
X126102793Y-113314500D01*
X125952317Y-113428785D01*
X125937963Y-113449449D01*
X125921231Y-113468232D01*
X125845992Y-113639661D01*
X125843941Y-113660210D01*
X125837561Y-113679850D01*
X125837561Y-113965564D01*
X123069238Y-113965564D01*
X123069238Y-112954136D01*
X132930875Y-112954136D01*
X132930875Y-116914956D01*
G37*
X156337381Y-101317576D02*
X156396905Y-101377100D01*
X156396905Y-101377100D02*
X156575476Y-101436623D01*
X156575476Y-101436623D02*
X156694524Y-101436623D01*
X156694524Y-101436623D02*
X156873095Y-101377100D01*
X156873095Y-101377100D02*
X156992143Y-101258052D01*
X156992143Y-101258052D02*
X157051666Y-101139004D01*
X157051666Y-101139004D02*
X157111190Y-100900909D01*
X157111190Y-100900909D02*
X157111190Y-100722338D01*
X157111190Y-100722338D02*
X157051666Y-100484242D01*
X157051666Y-100484242D02*
X156992143Y-100365195D01*
X156992143Y-100365195D02*
X156873095Y-100246147D01*
X156873095Y-100246147D02*
X156694524Y-100186623D01*
X156694524Y-100186623D02*
X156575476Y-100186623D01*
X156575476Y-100186623D02*
X156396905Y-100246147D01*
X156396905Y-100246147D02*
X156337381Y-100305671D01*
X155980238Y-100603290D02*
X155504047Y-100603290D01*
X155801666Y-100186623D02*
X155801666Y-101258052D01*
X155801666Y-101258052D02*
X155742143Y-101377100D01*
X155742143Y-101377100D02*
X155623095Y-101436623D01*
X155623095Y-101436623D02*
X155504047Y-101436623D01*
X155087380Y-101436623D02*
X155087380Y-100603290D01*
X155087380Y-100841385D02*
X155027857Y-100722338D01*
X155027857Y-100722338D02*
X154968333Y-100662814D01*
X154968333Y-100662814D02*
X154849285Y-100603290D01*
X154849285Y-100603290D02*
X154730238Y-100603290D01*
X154134999Y-101436623D02*
X154254047Y-101377100D01*
X154254047Y-101377100D02*
X154313570Y-101258052D01*
X154313570Y-101258052D02*
X154313570Y-100186623D01*
X153658808Y-100960433D02*
X152706428Y-100960433D01*
X152111189Y-101436623D02*
X152111189Y-100186623D01*
X152111189Y-100186623D02*
X151694523Y-101079480D01*
X151694523Y-101079480D02*
X151277856Y-100186623D01*
X151277856Y-100186623D02*
X151277856Y-101436623D01*
X149968333Y-101317576D02*
X150027857Y-101377100D01*
X150027857Y-101377100D02*
X150206428Y-101436623D01*
X150206428Y-101436623D02*
X150325476Y-101436623D01*
X150325476Y-101436623D02*
X150504047Y-101377100D01*
X150504047Y-101377100D02*
X150623095Y-101258052D01*
X150623095Y-101258052D02*
X150682618Y-101139004D01*
X150682618Y-101139004D02*
X150742142Y-100900909D01*
X150742142Y-100900909D02*
X150742142Y-100722338D01*
X150742142Y-100722338D02*
X150682618Y-100484242D01*
X150682618Y-100484242D02*
X150623095Y-100365195D01*
X150623095Y-100365195D02*
X150504047Y-100246147D01*
X150504047Y-100246147D02*
X150325476Y-100186623D01*
X150325476Y-100186623D02*
X150206428Y-100186623D01*
X150206428Y-100186623D02*
X150027857Y-100246147D01*
X150027857Y-100246147D02*
X149968333Y-100305671D01*
X148480237Y-101436623D02*
X148480237Y-100186623D01*
X148480237Y-100186623D02*
X148182618Y-100186623D01*
X148182618Y-100186623D02*
X148004047Y-100246147D01*
X148004047Y-100246147D02*
X147884999Y-100365195D01*
X147884999Y-100365195D02*
X147825476Y-100484242D01*
X147825476Y-100484242D02*
X147765952Y-100722338D01*
X147765952Y-100722338D02*
X147765952Y-100900909D01*
X147765952Y-100900909D02*
X147825476Y-101139004D01*
X147825476Y-101139004D02*
X147884999Y-101258052D01*
X147884999Y-101258052D02*
X148004047Y-101377100D01*
X148004047Y-101377100D02*
X148182618Y-101436623D01*
X148182618Y-101436623D02*
X148480237Y-101436623D01*
X147230237Y-101436623D02*
X147230237Y-100603290D01*
X147230237Y-100186623D02*
X147289761Y-100246147D01*
X147289761Y-100246147D02*
X147230237Y-100305671D01*
X147230237Y-100305671D02*
X147170714Y-100246147D01*
X147170714Y-100246147D02*
X147230237Y-100186623D01*
X147230237Y-100186623D02*
X147230237Y-100305671D01*
X146694523Y-101377100D02*
X146575476Y-101436623D01*
X146575476Y-101436623D02*
X146337380Y-101436623D01*
X146337380Y-101436623D02*
X146218333Y-101377100D01*
X146218333Y-101377100D02*
X146158809Y-101258052D01*
X146158809Y-101258052D02*
X146158809Y-101198528D01*
X146158809Y-101198528D02*
X146218333Y-101079480D01*
X146218333Y-101079480D02*
X146337380Y-101019957D01*
X146337380Y-101019957D02*
X146515952Y-101019957D01*
X146515952Y-101019957D02*
X146634999Y-100960433D01*
X146634999Y-100960433D02*
X146694523Y-100841385D01*
X146694523Y-100841385D02*
X146694523Y-100781861D01*
X146694523Y-100781861D02*
X146634999Y-100662814D01*
X146634999Y-100662814D02*
X146515952Y-100603290D01*
X146515952Y-100603290D02*
X146337380Y-100603290D01*
X146337380Y-100603290D02*
X146218333Y-100662814D01*
X145623094Y-100603290D02*
X145623094Y-101853290D01*
X145623094Y-100662814D02*
X145504047Y-100603290D01*
X145504047Y-100603290D02*
X145265952Y-100603290D01*
X145265952Y-100603290D02*
X145146904Y-100662814D01*
X145146904Y-100662814D02*
X145087380Y-100722338D01*
X145087380Y-100722338D02*
X145027856Y-100841385D01*
X145027856Y-100841385D02*
X145027856Y-101198528D01*
X145027856Y-101198528D02*
X145087380Y-101317576D01*
X145087380Y-101317576D02*
X145146904Y-101377100D01*
X145146904Y-101377100D02*
X145265952Y-101436623D01*
X145265952Y-101436623D02*
X145504047Y-101436623D01*
X145504047Y-101436623D02*
X145623094Y-101377100D01*
X144313571Y-101436623D02*
X144432619Y-101377100D01*
X144432619Y-101377100D02*
X144492142Y-101258052D01*
X144492142Y-101258052D02*
X144492142Y-100186623D01*
X143301666Y-101436623D02*
X143301666Y-100781861D01*
X143301666Y-100781861D02*
X143361190Y-100662814D01*
X143361190Y-100662814D02*
X143480238Y-100603290D01*
X143480238Y-100603290D02*
X143718333Y-100603290D01*
X143718333Y-100603290D02*
X143837380Y-100662814D01*
X143301666Y-101377100D02*
X143420714Y-101436623D01*
X143420714Y-101436623D02*
X143718333Y-101436623D01*
X143718333Y-101436623D02*
X143837380Y-101377100D01*
X143837380Y-101377100D02*
X143896904Y-101258052D01*
X143896904Y-101258052D02*
X143896904Y-101139004D01*
X143896904Y-101139004D02*
X143837380Y-101019957D01*
X143837380Y-101019957D02*
X143718333Y-100960433D01*
X143718333Y-100960433D02*
X143420714Y-100960433D01*
X143420714Y-100960433D02*
X143301666Y-100900909D01*
X142825476Y-100603290D02*
X142527857Y-101436623D01*
X142230238Y-100603290D02*
X142527857Y-101436623D01*
X142527857Y-101436623D02*
X142646905Y-101734242D01*
X142646905Y-101734242D02*
X142706428Y-101793766D01*
X142706428Y-101793766D02*
X142825476Y-101853290D01*
X140801666Y-100186623D02*
X140801666Y-101198528D01*
X140801666Y-101198528D02*
X140742143Y-101317576D01*
X140742143Y-101317576D02*
X140682619Y-101377100D01*
X140682619Y-101377100D02*
X140563571Y-101436623D01*
X140563571Y-101436623D02*
X140325476Y-101436623D01*
X140325476Y-101436623D02*
X140206428Y-101377100D01*
X140206428Y-101377100D02*
X140146905Y-101317576D01*
X140146905Y-101317576D02*
X140087381Y-101198528D01*
X140087381Y-101198528D02*
X140087381Y-100186623D01*
X139492142Y-100603290D02*
X139492142Y-101436623D01*
X139492142Y-100722338D02*
X139432619Y-100662814D01*
X139432619Y-100662814D02*
X139313571Y-100603290D01*
X139313571Y-100603290D02*
X139135000Y-100603290D01*
X139135000Y-100603290D02*
X139015952Y-100662814D01*
X139015952Y-100662814D02*
X138956428Y-100781861D01*
X138956428Y-100781861D02*
X138956428Y-101436623D01*
X138361190Y-101436623D02*
X138361190Y-100603290D01*
X138361190Y-100186623D02*
X138420714Y-100246147D01*
X138420714Y-100246147D02*
X138361190Y-100305671D01*
X138361190Y-100305671D02*
X138301667Y-100246147D01*
X138301667Y-100246147D02*
X138361190Y-100186623D01*
X138361190Y-100186623D02*
X138361190Y-100305671D01*
X137944524Y-100603290D02*
X137468333Y-100603290D01*
X137765952Y-100186623D02*
X137765952Y-101258052D01*
X137765952Y-101258052D02*
X137706429Y-101377100D01*
X137706429Y-101377100D02*
X137587381Y-101436623D01*
X137587381Y-101436623D02*
X137468333Y-101436623D01*
X136218333Y-100603290D02*
X135920714Y-101436623D01*
X135920714Y-101436623D02*
X135623095Y-100603290D01*
X134670714Y-101377100D02*
X134789762Y-101436623D01*
X134789762Y-101436623D02*
X135027857Y-101436623D01*
X135027857Y-101436623D02*
X135146904Y-101377100D01*
X135146904Y-101377100D02*
X135206428Y-101258052D01*
X135206428Y-101258052D02*
X135206428Y-100781861D01*
X135206428Y-100781861D02*
X135146904Y-100662814D01*
X135146904Y-100662814D02*
X135027857Y-100603290D01*
X135027857Y-100603290D02*
X134789762Y-100603290D01*
X134789762Y-100603290D02*
X134670714Y-100662814D01*
X134670714Y-100662814D02*
X134611190Y-100781861D01*
X134611190Y-100781861D02*
X134611190Y-100900909D01*
X134611190Y-100900909D02*
X135206428Y-101019957D01*
X134075475Y-101436623D02*
X134075475Y-100603290D01*
X134075475Y-100841385D02*
X134015952Y-100722338D01*
X134015952Y-100722338D02*
X133956428Y-100662814D01*
X133956428Y-100662814D02*
X133837380Y-100603290D01*
X133837380Y-100603290D02*
X133718333Y-100603290D01*
X132111189Y-100186623D02*
X131992142Y-100186623D01*
X131992142Y-100186623D02*
X131873094Y-100246147D01*
X131873094Y-100246147D02*
X131813570Y-100305671D01*
X131813570Y-100305671D02*
X131754046Y-100424719D01*
X131754046Y-100424719D02*
X131694523Y-100662814D01*
X131694523Y-100662814D02*
X131694523Y-100960433D01*
X131694523Y-100960433D02*
X131754046Y-101198528D01*
X131754046Y-101198528D02*
X131813570Y-101317576D01*
X131813570Y-101317576D02*
X131873094Y-101377100D01*
X131873094Y-101377100D02*
X131992142Y-101436623D01*
X131992142Y-101436623D02*
X132111189Y-101436623D01*
X132111189Y-101436623D02*
X132230237Y-101377100D01*
X132230237Y-101377100D02*
X132289761Y-101317576D01*
X132289761Y-101317576D02*
X132349284Y-101198528D01*
X132349284Y-101198528D02*
X132408808Y-100960433D01*
X132408808Y-100960433D02*
X132408808Y-100662814D01*
X132408808Y-100662814D02*
X132349284Y-100424719D01*
X132349284Y-100424719D02*
X132289761Y-100305671D01*
X132289761Y-100305671D02*
X132230237Y-100246147D01*
X132230237Y-100246147D02*
X132111189Y-100186623D01*
X131158808Y-101317576D02*
X131099285Y-101377100D01*
X131099285Y-101377100D02*
X131158808Y-101436623D01*
X131158808Y-101436623D02*
X131218332Y-101377100D01*
X131218332Y-101377100D02*
X131158808Y-101317576D01*
X131158808Y-101317576D02*
X131158808Y-101436623D01*
X129908809Y-101436623D02*
X130623094Y-101436623D01*
X130265951Y-101436623D02*
X130265951Y-100186623D01*
X130265951Y-100186623D02*
X130384999Y-100365195D01*
X130384999Y-100365195D02*
X130504047Y-100484242D01*
X130504047Y-100484242D02*
X130623094Y-100543766D01*
X189563333Y-101052219D02*
X189563333Y-101766504D01*
X189563333Y-101766504D02*
X189610952Y-101909361D01*
X189610952Y-101909361D02*
X189706190Y-102004600D01*
X189706190Y-102004600D02*
X189849047Y-102052219D01*
X189849047Y-102052219D02*
X189944285Y-102052219D01*
X188563333Y-102052219D02*
X189134761Y-102052219D01*
X188849047Y-102052219D02*
X188849047Y-101052219D01*
X188849047Y-101052219D02*
X188944285Y-101195076D01*
X188944285Y-101195076D02*
X189039523Y-101290314D01*
X189039523Y-101290314D02*
X189134761Y-101337933D01*
X183326309Y-76019048D02*
X182076309Y-76019048D01*
X182076309Y-76019048D02*
X182076309Y-76495238D01*
X182076309Y-76495238D02*
X182135833Y-76614286D01*
X182135833Y-76614286D02*
X182195357Y-76673809D01*
X182195357Y-76673809D02*
X182314405Y-76733333D01*
X182314405Y-76733333D02*
X182492976Y-76733333D01*
X182492976Y-76733333D02*
X182612024Y-76673809D01*
X182612024Y-76673809D02*
X182671547Y-76614286D01*
X182671547Y-76614286D02*
X182731071Y-76495238D01*
X182731071Y-76495238D02*
X182731071Y-76019048D01*
X182076309Y-77150000D02*
X183326309Y-77447619D01*
X183326309Y-77447619D02*
X182433452Y-77685714D01*
X182433452Y-77685714D02*
X183326309Y-77923809D01*
X183326309Y-77923809D02*
X182076309Y-78221429D01*
X183326309Y-79411904D02*
X182731071Y-78995238D01*
X183326309Y-78697619D02*
X182076309Y-78697619D01*
X182076309Y-78697619D02*
X182076309Y-79173809D01*
X182076309Y-79173809D02*
X182135833Y-79292857D01*
X182135833Y-79292857D02*
X182195357Y-79352380D01*
X182195357Y-79352380D02*
X182314405Y-79411904D01*
X182314405Y-79411904D02*
X182492976Y-79411904D01*
X182492976Y-79411904D02*
X182612024Y-79352380D01*
X182612024Y-79352380D02*
X182671547Y-79292857D01*
X182671547Y-79292857D02*
X182731071Y-79173809D01*
X182731071Y-79173809D02*
X182731071Y-78697619D01*
X182850119Y-79947619D02*
X182850119Y-80900000D01*
X183326309Y-81495238D02*
X182076309Y-81495238D01*
X182076309Y-81495238D02*
X182969166Y-81911904D01*
X182969166Y-81911904D02*
X182076309Y-82328571D01*
X182076309Y-82328571D02*
X183326309Y-82328571D01*
X182076309Y-83161904D02*
X182076309Y-83399999D01*
X182076309Y-83399999D02*
X182135833Y-83519047D01*
X182135833Y-83519047D02*
X182254881Y-83638094D01*
X182254881Y-83638094D02*
X182492976Y-83697618D01*
X182492976Y-83697618D02*
X182909643Y-83697618D01*
X182909643Y-83697618D02*
X183147738Y-83638094D01*
X183147738Y-83638094D02*
X183266786Y-83519047D01*
X183266786Y-83519047D02*
X183326309Y-83399999D01*
X183326309Y-83399999D02*
X183326309Y-83161904D01*
X183326309Y-83161904D02*
X183266786Y-83042856D01*
X183266786Y-83042856D02*
X183147738Y-82923809D01*
X183147738Y-82923809D02*
X182909643Y-82864285D01*
X182909643Y-82864285D02*
X182492976Y-82864285D01*
X182492976Y-82864285D02*
X182254881Y-82923809D01*
X182254881Y-82923809D02*
X182135833Y-83042856D01*
X182135833Y-83042856D02*
X182076309Y-83161904D01*
X183326309Y-84233333D02*
X182076309Y-84233333D01*
X182076309Y-84233333D02*
X182076309Y-84530952D01*
X182076309Y-84530952D02*
X182135833Y-84709523D01*
X182135833Y-84709523D02*
X182254881Y-84828571D01*
X182254881Y-84828571D02*
X182373928Y-84888094D01*
X182373928Y-84888094D02*
X182612024Y-84947618D01*
X182612024Y-84947618D02*
X182790595Y-84947618D01*
X182790595Y-84947618D02*
X183028690Y-84888094D01*
X183028690Y-84888094D02*
X183147738Y-84828571D01*
X183147738Y-84828571D02*
X183266786Y-84709523D01*
X183266786Y-84709523D02*
X183326309Y-84530952D01*
X183326309Y-84530952D02*
X183326309Y-84233333D01*
X182076309Y-85483333D02*
X183088214Y-85483333D01*
X183088214Y-85483333D02*
X183207262Y-85542856D01*
X183207262Y-85542856D02*
X183266786Y-85602380D01*
X183266786Y-85602380D02*
X183326309Y-85721428D01*
X183326309Y-85721428D02*
X183326309Y-85959523D01*
X183326309Y-85959523D02*
X183266786Y-86078571D01*
X183266786Y-86078571D02*
X183207262Y-86138094D01*
X183207262Y-86138094D02*
X183088214Y-86197618D01*
X183088214Y-86197618D02*
X182076309Y-86197618D01*
X183326309Y-87388095D02*
X183326309Y-86792857D01*
X183326309Y-86792857D02*
X182076309Y-86792857D01*
X182671547Y-87804762D02*
X182671547Y-88221428D01*
X183326309Y-88400000D02*
X183326309Y-87804762D01*
X183326309Y-87804762D02*
X182076309Y-87804762D01*
X182076309Y-87804762D02*
X182076309Y-88400000D01*
X183326309Y-89590475D02*
X183326309Y-88876190D01*
X183326309Y-89233333D02*
X182076309Y-89233333D01*
X182076309Y-89233333D02*
X182254881Y-89114285D01*
X182254881Y-89114285D02*
X182373928Y-88995237D01*
X182373928Y-88995237D02*
X182433452Y-88876190D01*
X182853106Y-69482366D02*
X182615011Y-69482366D01*
X182615011Y-69482366D02*
X182495963Y-69541890D01*
X182495963Y-69541890D02*
X182376916Y-69660938D01*
X182376916Y-69660938D02*
X182317392Y-69899033D01*
X182317392Y-69899033D02*
X182317392Y-70315700D01*
X182317392Y-70315700D02*
X182376916Y-70553795D01*
X182376916Y-70553795D02*
X182495963Y-70672843D01*
X182495963Y-70672843D02*
X182615011Y-70732366D01*
X182615011Y-70732366D02*
X182853106Y-70732366D01*
X182853106Y-70732366D02*
X182972154Y-70672843D01*
X182972154Y-70672843D02*
X183091201Y-70553795D01*
X183091201Y-70553795D02*
X183150725Y-70315700D01*
X183150725Y-70315700D02*
X183150725Y-69899033D01*
X183150725Y-69899033D02*
X183091201Y-69660938D01*
X183091201Y-69660938D02*
X182972154Y-69541890D01*
X182972154Y-69541890D02*
X182853106Y-69482366D01*
X181781677Y-69482366D02*
X181781677Y-70494271D01*
X181781677Y-70494271D02*
X181722154Y-70613319D01*
X181722154Y-70613319D02*
X181662630Y-70672843D01*
X181662630Y-70672843D02*
X181543582Y-70732366D01*
X181543582Y-70732366D02*
X181305487Y-70732366D01*
X181305487Y-70732366D02*
X181186439Y-70672843D01*
X181186439Y-70672843D02*
X181126916Y-70613319D01*
X181126916Y-70613319D02*
X181067392Y-70494271D01*
X181067392Y-70494271D02*
X181067392Y-69482366D01*
X180650725Y-69482366D02*
X179936439Y-69482366D01*
X180293582Y-70732366D02*
X180293582Y-69482366D01*
X179519772Y-70256176D02*
X178567392Y-70256176D01*
X175472153Y-69482366D02*
X176067391Y-69482366D01*
X176067391Y-69482366D02*
X176126915Y-70077604D01*
X176126915Y-70077604D02*
X176067391Y-70018081D01*
X176067391Y-70018081D02*
X175948344Y-69958557D01*
X175948344Y-69958557D02*
X175650725Y-69958557D01*
X175650725Y-69958557D02*
X175531677Y-70018081D01*
X175531677Y-70018081D02*
X175472153Y-70077604D01*
X175472153Y-70077604D02*
X175412630Y-70196652D01*
X175412630Y-70196652D02*
X175412630Y-70494271D01*
X175412630Y-70494271D02*
X175472153Y-70613319D01*
X175472153Y-70613319D02*
X175531677Y-70672843D01*
X175531677Y-70672843D02*
X175650725Y-70732366D01*
X175650725Y-70732366D02*
X175948344Y-70732366D01*
X175948344Y-70732366D02*
X176067391Y-70672843D01*
X176067391Y-70672843D02*
X176126915Y-70613319D01*
X175055487Y-69482366D02*
X174638820Y-70732366D01*
X174638820Y-70732366D02*
X174222154Y-69482366D01*
X171662629Y-69482366D02*
X171424534Y-69482366D01*
X171424534Y-69482366D02*
X171305486Y-69541890D01*
X171305486Y-69541890D02*
X171186439Y-69660938D01*
X171186439Y-69660938D02*
X171126915Y-69899033D01*
X171126915Y-69899033D02*
X171126915Y-70315700D01*
X171126915Y-70315700D02*
X171186439Y-70553795D01*
X171186439Y-70553795D02*
X171305486Y-70672843D01*
X171305486Y-70672843D02*
X171424534Y-70732366D01*
X171424534Y-70732366D02*
X171662629Y-70732366D01*
X171662629Y-70732366D02*
X171781677Y-70672843D01*
X171781677Y-70672843D02*
X171900724Y-70553795D01*
X171900724Y-70553795D02*
X171960248Y-70315700D01*
X171960248Y-70315700D02*
X171960248Y-69899033D01*
X171960248Y-69899033D02*
X171900724Y-69660938D01*
X171900724Y-69660938D02*
X171781677Y-69541890D01*
X171781677Y-69541890D02*
X171662629Y-69482366D01*
X170591200Y-69482366D02*
X170591200Y-70494271D01*
X170591200Y-70494271D02*
X170531677Y-70613319D01*
X170531677Y-70613319D02*
X170472153Y-70672843D01*
X170472153Y-70672843D02*
X170353105Y-70732366D01*
X170353105Y-70732366D02*
X170115010Y-70732366D01*
X170115010Y-70732366D02*
X169995962Y-70672843D01*
X169995962Y-70672843D02*
X169936439Y-70613319D01*
X169936439Y-70613319D02*
X169876915Y-70494271D01*
X169876915Y-70494271D02*
X169876915Y-69482366D01*
X169460248Y-69482366D02*
X168745962Y-69482366D01*
X169103105Y-70732366D02*
X169103105Y-69482366D01*
X168329295Y-70256176D02*
X167376915Y-70256176D01*
X167853105Y-70732366D02*
X167853105Y-69779985D01*
X182220566Y-94806756D02*
X182220566Y-93556756D01*
X181625328Y-94806756D02*
X181625328Y-93556756D01*
X181625328Y-93556756D02*
X180911043Y-94806756D01*
X180911043Y-94806756D02*
X180911043Y-93556756D01*
X180315804Y-94330566D02*
X179363424Y-94330566D01*
X176208662Y-94806756D02*
X176922947Y-94806756D01*
X176565804Y-94806756D02*
X176565804Y-93556756D01*
X176565804Y-93556756D02*
X176684852Y-93735328D01*
X176684852Y-93735328D02*
X176803900Y-93854375D01*
X176803900Y-93854375D02*
X176922947Y-93913899D01*
X175732471Y-93675804D02*
X175672947Y-93616280D01*
X175672947Y-93616280D02*
X175553900Y-93556756D01*
X175553900Y-93556756D02*
X175256281Y-93556756D01*
X175256281Y-93556756D02*
X175137233Y-93616280D01*
X175137233Y-93616280D02*
X175077709Y-93675804D01*
X175077709Y-93675804D02*
X175018186Y-93794852D01*
X175018186Y-93794852D02*
X175018186Y-93913899D01*
X175018186Y-93913899D02*
X175077709Y-94092471D01*
X175077709Y-94092471D02*
X175791995Y-94806756D01*
X175791995Y-94806756D02*
X175018186Y-94806756D01*
X174661043Y-93556756D02*
X174244376Y-94806756D01*
X174244376Y-94806756D02*
X173827710Y-93556756D01*
X171506280Y-94806756D02*
X171506280Y-93556756D01*
X170911042Y-94806756D02*
X170911042Y-93556756D01*
X170911042Y-93556756D02*
X170196757Y-94806756D01*
X170196757Y-94806756D02*
X170196757Y-93556756D01*
X169601518Y-94330566D02*
X168649138Y-94330566D01*
X169125328Y-94806756D02*
X169125328Y-93854375D01*
X116758376Y-85295802D02*
X115746471Y-85295802D01*
X115746471Y-85295802D02*
X115627423Y-85236279D01*
X115627423Y-85236279D02*
X115567900Y-85176755D01*
X115567900Y-85176755D02*
X115508376Y-85057707D01*
X115508376Y-85057707D02*
X115508376Y-84819612D01*
X115508376Y-84819612D02*
X115567900Y-84700564D01*
X115567900Y-84700564D02*
X115627423Y-84641041D01*
X115627423Y-84641041D02*
X115746471Y-84581517D01*
X115746471Y-84581517D02*
X116758376Y-84581517D01*
X115567900Y-84045802D02*
X115508376Y-83867231D01*
X115508376Y-83867231D02*
X115508376Y-83569612D01*
X115508376Y-83569612D02*
X115567900Y-83450564D01*
X115567900Y-83450564D02*
X115627423Y-83391040D01*
X115627423Y-83391040D02*
X115746471Y-83331517D01*
X115746471Y-83331517D02*
X115865519Y-83331517D01*
X115865519Y-83331517D02*
X115984566Y-83391040D01*
X115984566Y-83391040D02*
X116044090Y-83450564D01*
X116044090Y-83450564D02*
X116103614Y-83569612D01*
X116103614Y-83569612D02*
X116163138Y-83807707D01*
X116163138Y-83807707D02*
X116222661Y-83926755D01*
X116222661Y-83926755D02*
X116282185Y-83986278D01*
X116282185Y-83986278D02*
X116401233Y-84045802D01*
X116401233Y-84045802D02*
X116520280Y-84045802D01*
X116520280Y-84045802D02*
X116639328Y-83986278D01*
X116639328Y-83986278D02*
X116698852Y-83926755D01*
X116698852Y-83926755D02*
X116758376Y-83807707D01*
X116758376Y-83807707D02*
X116758376Y-83510088D01*
X116758376Y-83510088D02*
X116698852Y-83331517D01*
X116163138Y-82379136D02*
X116103614Y-82200564D01*
X116103614Y-82200564D02*
X116044090Y-82141041D01*
X116044090Y-82141041D02*
X115925042Y-82081517D01*
X115925042Y-82081517D02*
X115746471Y-82081517D01*
X115746471Y-82081517D02*
X115627423Y-82141041D01*
X115627423Y-82141041D02*
X115567900Y-82200564D01*
X115567900Y-82200564D02*
X115508376Y-82319612D01*
X115508376Y-82319612D02*
X115508376Y-82795802D01*
X115508376Y-82795802D02*
X116758376Y-82795802D01*
X116758376Y-82795802D02*
X116758376Y-82379136D01*
X116758376Y-82379136D02*
X116698852Y-82260088D01*
X116698852Y-82260088D02*
X116639328Y-82200564D01*
X116639328Y-82200564D02*
X116520280Y-82141041D01*
X116520280Y-82141041D02*
X116401233Y-82141041D01*
X116401233Y-82141041D02*
X116282185Y-82200564D01*
X116282185Y-82200564D02*
X116222661Y-82260088D01*
X116222661Y-82260088D02*
X116163138Y-82379136D01*
X116163138Y-82379136D02*
X116163138Y-82795802D01*
X115333333Y-107952219D02*
X115333333Y-108666504D01*
X115333333Y-108666504D02*
X115380952Y-108809361D01*
X115380952Y-108809361D02*
X115476190Y-108904600D01*
X115476190Y-108904600D02*
X115619047Y-108952219D01*
X115619047Y-108952219D02*
X115714285Y-108952219D01*
X114952380Y-107952219D02*
X114333333Y-107952219D01*
X114333333Y-107952219D02*
X114666666Y-108333171D01*
X114666666Y-108333171D02*
X114523809Y-108333171D01*
X114523809Y-108333171D02*
X114428571Y-108380790D01*
X114428571Y-108380790D02*
X114380952Y-108428409D01*
X114380952Y-108428409D02*
X114333333Y-108523647D01*
X114333333Y-108523647D02*
X114333333Y-108761742D01*
X114333333Y-108761742D02*
X114380952Y-108856980D01*
X114380952Y-108856980D02*
X114428571Y-108904600D01*
X114428571Y-108904600D02*
X114523809Y-108952219D01*
X114523809Y-108952219D02*
X114809523Y-108952219D01*
X114809523Y-108952219D02*
X114904761Y-108904600D01*
X114904761Y-108904600D02*
X114952380Y-108856980D01*
X121833333Y-115452219D02*
X121833333Y-116166504D01*
X121833333Y-116166504D02*
X121880952Y-116309361D01*
X121880952Y-116309361D02*
X121976190Y-116404600D01*
X121976190Y-116404600D02*
X122119047Y-116452219D01*
X122119047Y-116452219D02*
X122214285Y-116452219D01*
X121404761Y-115547457D02*
X121357142Y-115499838D01*
X121357142Y-115499838D02*
X121261904Y-115452219D01*
X121261904Y-115452219D02*
X121023809Y-115452219D01*
X121023809Y-115452219D02*
X120928571Y-115499838D01*
X120928571Y-115499838D02*
X120880952Y-115547457D01*
X120880952Y-115547457D02*
X120833333Y-115642695D01*
X120833333Y-115642695D02*
X120833333Y-115737933D01*
X120833333Y-115737933D02*
X120880952Y-115880790D01*
X120880952Y-115880790D02*
X121452380Y-116452219D01*
X121452380Y-116452219D02*
X120833333Y-116452219D01*
D13*
%TO.C,J1*%
X190381086Y-115116877D02*
X181135486Y-115116877D01*
X190381086Y-102569277D02*
X190381086Y-115116877D01*
X181135486Y-115116877D02*
X181135486Y-102569277D01*
X181135486Y-102569277D02*
X190381086Y-102569277D01*
D14*
%TO.C,PWR-MODULE1*%
X166910000Y-71025000D02*
X183910000Y-71025000D01*
X183910000Y-71025000D02*
X183910000Y-93225000D01*
X183910000Y-93225000D02*
X166910000Y-93225000D01*
X166910000Y-93225000D02*
X166910000Y-71025000D01*
%TO.C,EPS32-DEV-BOARD1*%
X164590000Y-70175000D02*
X120865000Y-70205000D01*
X164590000Y-98685000D02*
X164590000Y-70175000D01*
X120865000Y-98705000D02*
X164590000Y-98685000D01*
D15*
X164590000Y-70175000D02*
X164590000Y-75545000D01*
X164590000Y-75545000D02*
X164590000Y-93235000D01*
X164590000Y-93235000D02*
X164590000Y-98685000D01*
X164590000Y-98685000D02*
X164590000Y-70175000D01*
D16*
X123800000Y-69215000D02*
G75*
G03*
X123800000Y-69215000I-200000J0D01*
G01*
D17*
%TO.C,J3*%
X121408303Y-104936813D02*
X121408303Y-103726813D01*
X114188303Y-103226813D02*
X121908303Y-103226813D01*
X121408303Y-103726813D02*
X114688303Y-103726813D01*
X121908303Y-105746813D02*
X120908303Y-105746813D01*
X120908303Y-105746813D02*
X120908303Y-107246813D01*
X114688303Y-103726813D02*
X114688303Y-104936813D01*
X114688303Y-104936813D02*
X114188303Y-104936813D01*
X121908303Y-103226813D02*
X121908303Y-107246813D01*
X122208303Y-107546813D02*
X119708303Y-107546813D01*
X121908303Y-104936813D02*
X121408303Y-104936813D01*
X114188303Y-107246813D02*
X114188303Y-103226813D01*
X122208303Y-105046813D02*
X122208303Y-107546813D01*
X121908303Y-107246813D02*
X114188303Y-107246813D01*
X115188303Y-105746813D02*
X115188303Y-107246813D01*
X114188303Y-105746813D02*
X115188303Y-105746813D01*
D15*
%TO.C,J2*%
X180135000Y-112675000D02*
X180135000Y-102675000D01*
X180135000Y-102675000D02*
X122755000Y-102675000D01*
X122755000Y-112675000D02*
X180135000Y-112675000D01*
X122755000Y-102675000D02*
X122755000Y-112675000D01*
D11*
X178535000Y-101675000D02*
G75*
G03*
X178535000Y-101675000I-100000J0D01*
G01*
%TD*%
M02*
