#define kihestad_logo_width 64
#define kihestad_logo_height 64
static unsigned char kihestad_logo_bits[] = {
   0x00, 0x00, 0x00, 0xf8, 0x1f, 0x00, 0x00, 0x00, 0x00, 0x00, 0x80, 0xff,
   0xff, 0x01, 0x00, 0x00, 0x00, 0x00, 0xf0, 0x0f, 0xf0, 0x0f, 0x00, 0x00,
   0x00, 0x00, 0xfc, 0x00, 0x00, 0x3f, 0x00, 0x00, 0x00, 0x00, 0x1f, 0x00,
   0x00, 0xf8, 0x00, 0x00, 0x00, 0xc0, 0x03, 0x00, 0x03, 0xe0, 0x03, 0x00,
   0x00, 0xe0, 0x01, 0x06, 0x03, 0x80, 0x07, 0x00, 0x00, 0x70, 0x00, 0x0e,
   0xc3, 0x01, 0x0e, 0x00, 0x00, 0x3c, 0x70, 0x9c, 0xe7, 0x01, 0x1c, 0x00,
   0x00, 0x1e, 0xf0, 0xbd, 0xe7, 0x18, 0x78, 0x00, 0x00, 0x07, 0xe0, 0xff,
   0xff, 0x1c, 0x70, 0x00, 0x00, 0x03, 0xe0, 0xcf, 0xfc, 0x1f, 0xe0, 0x00,
   0x80, 0x03, 0xc0, 0x00, 0x80, 0x1f, 0xc0, 0x01, 0xc0, 0x01, 0xc0, 0x00,
   0x00, 0x1b, 0x80, 0x03, 0xe0, 0x00, 0xc0, 0x00, 0x00, 0x18, 0x00, 0x07,
   0x60, 0x00, 0xc0, 0x00, 0x00, 0x18, 0x00, 0x06, 0x70, 0x00, 0x00, 0x00,
   0x00, 0x00, 0x00, 0x0e, 0x30, 0x00, 0x38, 0x00, 0x00, 0x30, 0x00, 0x0c,
   0x18, 0x00, 0x7c, 0x00, 0x00, 0x78, 0x00, 0x1c, 0x18, 0x00, 0x6c, 0x00,
   0x06, 0xe8, 0x00, 0x18, 0x1c, 0x00, 0x0c, 0x78, 0x1e, 0xc0, 0x00, 0x38,
   0x0c, 0x00, 0x0c, 0x3e, 0x7c, 0xc0, 0x00, 0x30, 0x0c, 0x00, 0x0c, 0x0e,
   0x70, 0xc0, 0x00, 0x30, 0x06, 0x00, 0x0c, 0x00, 0x00, 0xcc, 0x00, 0x70,
   0x06, 0x00, 0x6c, 0x80, 0x01, 0xcc, 0x00, 0x60, 0x06, 0x00, 0x6c, 0xc0,
   0x01, 0x7e, 0x00, 0x60, 0x06, 0x00, 0xfc, 0xc0, 0x00, 0x7e, 0x00, 0x60,
   0x07, 0x00, 0xf8, 0xc0, 0x00, 0x36, 0x00, 0x60, 0x03, 0x00, 0xc0, 0xc0,
   0x00, 0x06, 0x00, 0xe0, 0x03, 0x00, 0xc0, 0xe0, 0x00, 0x07, 0x00, 0xc0,
   0x03, 0x00, 0xc0, 0x61, 0x00, 0x03, 0x00, 0xc0, 0x03, 0x00, 0x80, 0x61,
   0x00, 0x03, 0x00, 0xc0, 0x03, 0x00, 0x80, 0x61, 0x00, 0x03, 0x00, 0xc0,
   0x03, 0x00, 0x80, 0x61, 0x80, 0x03, 0x00, 0xc0, 0x03, 0x00, 0x80, 0xe1,
   0x87, 0x01, 0x00, 0xe0, 0x07, 0x00, 0x80, 0xe3, 0x87, 0x01, 0x00, 0xe0,
   0x06, 0x00, 0x00, 0x03, 0x80, 0x01, 0x00, 0x60, 0x06, 0x00, 0x00, 0x03,
   0x80, 0x01, 0x00, 0x60, 0x06, 0x00, 0x00, 0x03, 0x9c, 0x01, 0x00, 0x60,
   0x06, 0x00, 0x00, 0xf3, 0xdf, 0x01, 0x00, 0x60, 0x0e, 0x00, 0x00, 0xf3,
   0xc7, 0x00, 0x00, 0x70, 0x0c, 0x00, 0x00, 0x07, 0xc0, 0x00, 0x00, 0x30,
   0x0c, 0x00, 0x00, 0x07, 0xc0, 0x00, 0x00, 0x30, 0x1c, 0x00, 0x00, 0x06,
   0xc0, 0x00, 0x00, 0x18, 0x18, 0x00, 0x00, 0x06, 0xc0, 0x00, 0x00, 0x18,
   0x38, 0x00, 0x00, 0x06, 0xc0, 0x00, 0x00, 0x1c, 0x30, 0x00, 0x00, 0x06,
   0xc0, 0x00, 0x00, 0x0c, 0x70, 0x00, 0x00, 0x0e, 0xe0, 0x00, 0x00, 0x0e,
   0xe0, 0x00, 0x80, 0xfe, 0xff, 0x00, 0x00, 0x07, 0xc0, 0x00, 0xc0, 0xf9,
   0xbf, 0x03, 0x00, 0x03, 0xc0, 0x01, 0xf0, 0x00, 0x00, 0x07, 0x80, 0x03,
   0x80, 0x03, 0xfc, 0x00, 0x00, 0x1f, 0xc0, 0x01, 0x00, 0x87, 0xcf, 0x01,
   0x80, 0xff, 0xe0, 0x00, 0x00, 0xfe, 0x83, 0x03, 0xe0, 0xf1, 0x77, 0x00,
   0x00, 0xfc, 0x00, 0x3f, 0xfe, 0x80, 0x3f, 0x00, 0x00, 0x38, 0x00, 0xfe,
   0x3f, 0x00, 0x1e, 0x00, 0x00, 0xf0, 0x00, 0xe0, 0x03, 0x00, 0x0f, 0x00,
   0x00, 0xe0, 0x01, 0x00, 0x00, 0xc0, 0x03, 0x00, 0x00, 0x80, 0x07, 0x00,
   0x00, 0xe0, 0x01, 0x00, 0x00, 0x00, 0x3e, 0x00, 0x00, 0x7c, 0x00, 0x00,
   0x00, 0x00, 0xf8, 0x01, 0x80, 0x1f, 0x00, 0x00, 0x00, 0x00, 0xe0, 0xff,
   0xff, 0x07, 0x00, 0x00, 0x00, 0x00, 0x00, 0xff, 0xff, 0x00, 0x00, 0x00,
   0x00, 0x00, 0x00, 0x00, 0x00, 0x00, 0x00, 0x00 };
